<?xml version="1.0" encoding="UTF-8" standalone="no"?>
<svg
   viewBox="0 0 1023.9673 767.97545"
   version="1.1"
   stroke-linecap="round"
   stroke-linejoin="round"
   fill-rule="evenodd"
   xml:space="preserve"
   id="svg7691"
   sodipodi:docname="TubeChart_CLID_30_tube_chart_avery_6878_rev1.1.SVG"
   inkscape:version="1.4.3 (0d15f75, 2025-12-25)"
   width="10.666667in"
   height="8in"
   xmlns:inkscape="http://www.inkscape.org/namespaces/inkscape"
   xmlns:sodipodi="http://sodipodi.sourceforge.net/DTD/sodipodi-0.dtd"
   xmlns="http://www.w3.org/2000/svg"
   xmlns:svg="http://www.w3.org/2000/svg"><sodipodi:namedview
   id="namedview7691"
   pagecolor="#ffffff"
   bordercolor="#000000"
   borderopacity="0.25"
   inkscape:showpageshadow="2"
   inkscape:pageopacity="0.0"
   inkscape:pagecheckerboard="0"
   inkscape:deskcolor="#d1d1d1"
   inkscape:zoom="1.0833333"
   inkscape:cx="943.38464"
   inkscape:cy="740.76925"
   inkscape:window-width="1453"
   inkscape:window-height="846"
   inkscape:window-x="87"
   inkscape:window-y="69"
   inkscape:window-maximized="0"
   inkscape:current-layer="svg7691"
   inkscape:document-units="in" />
<defs
   id="defs1">
<clipPath
   id="clipId0">
<path
   d="M 0,768 H 1024 V 0 H 0 Z"
   id="path1" />
</clipPath>




















<clipPath
   clipPathUnits="userSpaceOnUse"
   id="clipPath7693"><path
     d="M 768,0 V -1024 H 0 V 0 Z"
     id="path7694" /></clipPath><clipPath
   clipPathUnits="userSpaceOnUse"
   id="clipPath7694"><path
     d="M 768,0 V -1024 H 0 V 0 Z"
     id="path7695" /></clipPath><clipPath
   clipPathUnits="userSpaceOnUse"
   id="clipPath7695"><path
     d="M 768,0 V -1024 H 0 V 0 Z"
     id="path7696" /></clipPath><clipPath
   clipPathUnits="userSpaceOnUse"
   id="clipPath7696"><path
     d="M 768,0 V -1024 H 0 V 0 Z"
     id="path7697" /></clipPath><clipPath
   clipPathUnits="userSpaceOnUse"
   id="clipPath7697"><path
     d="M 768,0 V -1024 H 0 V 0 Z"
     id="path7698" /></clipPath>


















<clipPath
   id="clipId0-3">
<path
   d="M 0,768 H 1024 V 0 H 0 Z"
   id="path1-1" />
</clipPath><clipPath
   id="clipPath2">
<path
   d="M 0,768 H 1024 V 0 H 0 Z"
   id="path2" />
</clipPath><clipPath
   clipPathUnits="userSpaceOnUse"
   id="clipPath7697-3"><path
     d="M 768,0 V -1024 H 0 V 0 Z"
     id="path7698-3" /></clipPath><clipPath
   clipPathUnits="userSpaceOnUse"
   id="clipPath7696-2"><path
     d="M 768,0 V -1024 H 0 V 0 Z"
     id="path7697-8" /></clipPath><clipPath
   clipPathUnits="userSpaceOnUse"
   id="clipPath7695-8"><path
     d="M 768,0 V -1024 H 0 V 0 Z"
     id="path7696-4" /></clipPath><clipPath
   clipPathUnits="userSpaceOnUse"
   id="clipPath7694-0"><path
     d="M 768,0 V -1024 H 0 V 0 Z"
     id="path7695-3" /></clipPath><clipPath
   clipPathUnits="userSpaceOnUse"
   id="clipPath7693-6"><path
     d="M 768,0 V -1024 H 0 V 0 Z"
     id="path7694-1" /></clipPath><clipPath
   id="clipPath3">
<path
   d="M 0,768 H 1024 V 0 H 0 Z"
   id="path3" />
</clipPath><clipPath
   id="clipPath4">
<path
   d="M 0,768 H 1024 V 0 H 0 Z"
   id="path4" />
</clipPath><clipPath
   id="clipPath5">
<path
   d="M 0,768 H 1024 V 0 H 0 Z"
   id="path5" />
</clipPath></defs>
<g
   clip-path="url(#clipId0)"
   fill="none"
   stroke="#000000"
   stroke-width="0.1"
   id="g1"
   transform="matrix(1.3225804,0,0,1.3223767,-22.834047,-67.144132)" />



















































































































































































































<g
   id="g2"><g
     clip-path="url(#clipId0)"
     fill="#000000"
     stroke="#000000"
     stroke-width="0"
     id="g3"
     transform="matrix(1.3225804,0,0,1.3223767,605.72949,287.27954)">
<text
   transform="matrix(8.27319,0,0,8.27319,144.929,249.382)"
   font-family="'Times New Roman', sans-serif"
   font-size="1.47788px"
   id="text1">Serial Number: CLID - ____________</text>
<text
   transform="matrix(8.06348,0,0,8.06348,96.5458,419.757)"
   font-family="'Times New Roman', sans-serif"
   font-size="1.47788px"
   id="text2">QA Checklist:</text>
<text
   transform="matrix(7.52591,0,0,7.52591,105.092,451.656)"
   font-family="'Times New Roman', sans-serif"
   font-size="1.47788px"
   id="text3">Chassis               Burn-in              Cabinet              Packing</text>
</g><g
     clip-path="url(#clipId0)"
     fill="none"
     stroke="#000000"
     stroke-width="0.5"
     id="g6"
     transform="matrix(1.3225804,0,0,1.3223767,605.72949,287.27954)">
<polyline
   points="95.9114,440.305 145.186,440.305 "
   id="polyline3" />
<polyline
   points="255.459,439.867 304.733,439.867 "
   id="polyline4" />
<polyline
   points="329.824,440.305 379.099,440.305 "
   id="polyline5" />
<polyline
   points="177.939,439.867 227.213,439.867 "
   id="polyline6" />
</g><text
     font-family="'Tobago Poster Alternate', sans-serif"
     font-size="28.5735px"
     id="text7656"
     style="fill:#000000;stroke:#000000;stroke-width:0"
     x="752.7345"
     y="588.42212"
     transform="scale(1.000077,0.99992299)">Chimey Limey</text><text
     font-family="'Freehand521 BT', sans-serif"
     font-size="25.3799px"
     id="text7657"
     style="fill:#000000;stroke:#000000;stroke-width:0"
     x="964.33374"
     y="589.34125"
     transform="scale(1.000077,0.99992299)">&quot;In Doubly&quot;</text><g
     id="g7700"
     transform="matrix(1.3225804,0,0,1.3223767,623.00923,248.23201)"><text
       font-family="Arial, sans-serif"
       font-size="8.50904px"
       id="text7658"
       style="fill:#000000;stroke:#000000;stroke-width:0"
       x="269.216"
       y="353.40399">ECC83</text><text
       font-family="Arial, sans-serif"
       font-size="8.50904px"
       id="text7659"
       style="fill:#000000;stroke:#000000;stroke-width:0"
       x="279.08801"
       y="362.974">or</text><text
       font-family="Arial, sans-serif"
       font-size="8.50904px"
       id="text7660"
       style="fill:#000000;stroke:#000000;stroke-width:0"
       x="270.03299"
       y="372.57501">12AX7</text></g><g
     id="g7699"
     transform="matrix(1.3225804,0,0,1.3223767,665.65891,298.125)"><text
       font-family="Arial, sans-serif"
       font-size="8.41655px"
       id="text7661"
       style="fill:#000000;stroke:#000000;stroke-width:0"
       x="311.021"
       y="329.138">ECC832</text><text
       font-family="Arial, sans-serif"
       font-size="8.41655px"
       id="text7662"
       style="fill:#000000;stroke:#000000;stroke-width:0"
       x="323.091"
       y="338.60501">or</text><text
       font-family="Arial, sans-serif"
       font-size="8.41655px"
       id="text7663"
       style="fill:#000000;stroke:#000000;stroke-width:0"
       x="312.73499"
       y="348.10101">12DW7</text></g><text
     font-family="'Times New Roman', sans-serif"
     font-size="13.4916px"
     id="text7664"
     style="fill:#000000;stroke:#000000;stroke-width:0"
     x="750.74524"
     y="650.85767"
     transform="scale(1.000077,0.99992299)">GZ34</text><ellipse
     rx="6.6430101"
     ry="6.4001098"
     transform="matrix(0,1.3223767,-1.3225804,0,605.72949,287.27954)"
     id="ellipse7664"
     cx="314.45499"
     cy="-252.44"
     style="fill:none;stroke:#000000;stroke-width:0.25"
     clip-path="url(#clipPath7697)" /><polyline
     points="89.802,376.777 388.474,376.777 388.474,257.203 89.802,257.203 89.802,376.777 "
     id="polyline7664"
     style="fill:none;stroke:#000000;stroke-width:0.25"
     transform="matrix(1.3225804,0,0,1.3223767,605.72949,287.27954)" /><polyline
     points="133.013,263.767 133.013,263.767 "
     id="polyline7665"
     style="fill:none;stroke:#000000;stroke-width:0.25"
     transform="matrix(1.3225804,0,0,1.3223767,605.72949,287.27954)" /><ellipse
     rx="11.0717"
     ry="10.6668"
     transform="matrix(0,1.3223767,-1.3225804,0,626.89077,287.27954)"
     id="ellipse7665"
     cx="273.151"
     cy="-132.745"
     style="fill:none;stroke:#000000;stroke-width:0.25"
     clip-path="url(#clipPath7696)" /><ellipse
     rx="6.6430101"
     ry="6.4001098"
     transform="matrix(0,1.3223767,-1.3225804,0,549.36976,297.57823)"
     id="ellipse7666"
     cx="355.08099"
     cy="-357.03101"
     style="fill:none;stroke:#000000;stroke-width:0.25"
     clip-path="url(#clipPath7695)" /><polyline
     points="370.972,336.594 370.977,335.899 "
     id="polyline7666"
     style="fill:none;stroke:#000000;stroke-width:0.25"
     transform="matrix(1.3225804,0,0,1.3223767,605.72949,287.27954)" /><polyline
     points="370.972,336.594 370.977,335.899 "
     id="polyline7667"
     style="fill:none;stroke:#000000;stroke-width:0.25"
     transform="matrix(1.3225804,0,0,1.3223767,605.72949,287.27954)" /><polyline
     points="370.972,336.594 370.977,335.899 "
     id="polyline7668"
     style="fill:none;stroke:#000000;stroke-width:0.25"
     transform="matrix(1.3225804,0,0,1.3223767,605.72949,287.27954)" /><ellipse
     rx="6.6430101"
     ry="6.4001098"
     transform="matrix(0,1.3223767,-1.3225804,0,615.8364,322.72917)"
     id="ellipse7668"
     cx="336.263"
     cy="-364.70901"
     style="fill:none;stroke:#000000;stroke-width:0.25"
     clip-path="url(#clipPath7694)" /><ellipse
     rx="6.6430101"
     ry="6.4001098"
     transform="matrix(0,1.3223767,-1.3225804,0,638.8001,287.9381)"
     id="ellipse7669"
     cx="346.13599"
     cy="-233.508"
     style="fill:none;stroke:#000000;stroke-width:0.25"
     clip-path="url(#clipPath7693)" /><g
     clip-path="url(#clipId0)"
     fill="none"
     stroke="#000000"
     stroke-width="0.1"
     id="g7671"
     transform="matrix(1.3225804,0,0,1.3223767,605.72949,287.27954)">
<polyline
   points="93.7058,294.644 160.744,294.644 160.744,365.346 93.7058,365.346 93.7058,294.644 "
   id="polyline7669" />
<polyline
   points="186.936,312.778 206.352,312.778 206.352,360.766 186.936,360.766 186.936,312.778 "
   id="polyline7670" />
<polyline
   points="323.393,266.437 366.956,266.437 366.956,321.174 323.393,321.174 323.393,266.437 "
   id="polyline7671" />
</g><g
     clip-path="url(#clipId0)"
     fill="#000000"
     stroke="#000000"
     stroke-width="0"
     id="g7672"
     transform="matrix(1.3225804,0,0,1.3223767,605.72949,287.27954)">
<text
   transform="matrix(6.96637,0,0,6.96637,240.603,284.474)"
   font-family="'Times New Roman', sans-serif"
   font-size="1.47788px"
   id="text7671">EL84</text>
</g><g
     clip-path="url(#clipId0)"
     fill="none"
     stroke="#000000"
     stroke-width="0.25"
     id="g7675"
     transform="matrix(1.3225804,0,0,1.3223767,605.72949,287.27954)">
<ellipse
   rx="6.6430101"
   ry="6.4001098"
   transform="rotate(90,-41.1115,241.6495)"
   id="ellipse7672"
   cx="0"
   cy="0" />
<ellipse
   rx="6.6430101"
   ry="6.4001098"
   transform="rotate(90,-25.3595,257.4015)"
   id="ellipse7673"
   cx="0"
   cy="0" />
<ellipse
   rx="6.6430101"
   ry="6.4001098"
   transform="rotate(90,-4.2955,278.4655)"
   id="ellipse7674"
   cx="0"
   cy="0" />
<ellipse
   rx="6.6430101"
   ry="6.4001098"
   transform="rotate(90,11.457,294.584)"
   id="ellipse7675"
   cx="0"
   cy="0" />
</g><polyline
     points="201.04,275.918 201.131,268.317 306.634,268.317 306.657,276.308 "
     id="polyline7675"
     style="fill:none;stroke:#000000;stroke-width:1.2"
     transform="matrix(1.3225804,0,0,1.3223767,605.72949,287.27954)" /><polyline
     points="232.284,276.262 232.284,268.432 "
     id="polyline7676"
     style="fill:none;stroke:#000000;stroke-width:1.2"
     transform="matrix(1.3225804,0,0,1.3223767,605.72949,287.27954)" /><polyline
     points="274.32,276.262 274.32,268.432 "
     id="polyline7677"
     style="fill:none;stroke:#000000;stroke-width:1.2"
     transform="matrix(1.3225804,0,0,1.3223767,605.72949,287.27954)" /><polyline
     points="252.89,275.941 252.89,268.386 "
     id="polyline7678"
     style="fill:none;stroke:#000000;stroke-width:1.2"
     transform="matrix(1.3225804,0,0,1.3223767,605.72949,287.27954)" /><path
     id="polyline7679"
     style="fill:none;stroke:#000000;stroke-width:1.58697"
     d="m 1007.3911,744.80034 11.2148,19.85207"
     sodipodi:nodetypes="cc" /><path
     id="polyline7681"
     style="fill:none;stroke:#000000;stroke-width:1.58697"
     d="M 971.29963,711.24956 940.46495,703.8174"
     sodipodi:nodetypes="cc" /><path
     id="polyline7682"
     style="fill:none;stroke:#000000;stroke-width:1.58697"
     d="m 975.67714,732.95526 -26.4008,12.46301"
     sodipodi:nodetypes="cc" /><text
     font-family="'Times New Roman', sans-serif"
     font-size="21.276px"
     id="text7682"
     style="fill:#000000;stroke:#000000;stroke-width:0"
     x="1065.1528"
     y="776.08313"
     transform="scale(1.000077,0.99992299)">V1</text><text
     font-family="'Times New Roman', sans-serif"
     font-size="21.276px"
     id="text7683"
     style="fill:#000000;stroke:#000000;stroke-width:0"
     x="986.92188"
     y="775.81665"
     transform="scale(1.000077,0.99992299)">V2</text><text
     font-family="'Times New Roman', sans-serif"
     font-size="21.276px"
     id="text7684"
     style="fill:#000000;stroke:#000000;stroke-width:0"
     x="914.27527"
     y="766.71466"
     transform="scale(1.000077,0.99992299)">V3</text><text
     font-family="'Times New Roman', sans-serif"
     font-size="21.276px"
     id="text7685"
     style="fill:#000000;stroke:#000000;stroke-width:0"
     x="903.06329"
     y="708.83777"
     transform="scale(1.000077,0.99992299)">V4</text><text
     font-family="'Times New Roman', sans-serif"
     font-size="16.6339px"
     id="text7686"
     style="fill:#000000;stroke:#000000;stroke-width:0"
     x="1153.2563"
     y="689.50574"
     transform="scale(1.000077,0.99992299)">V1: Top Boost Channel Input Stage</text><text
     font-family="'Times New Roman', sans-serif"
     font-size="16.6339px"
     id="text7687"
     style="fill:#000000;stroke:#000000;stroke-width:0"
     x="1153.2563"
     y="708.63403"
     transform="scale(1.000077,0.99992299)">V2: 1960 Channel Input Stage</text><text
     font-family="'Times New Roman', sans-serif"
     font-size="16.6339px"
     id="text7688"
     style="fill:#000000;stroke:#000000;stroke-width:0"
     x="1153.2563"
     y="727.76245"
     transform="scale(1.000077,0.99992299)">V3: Tone stack driver for Top Boost</text><text
     font-family="'Times New Roman', sans-serif"
     font-size="16.6339px"
     id="text7689"
     style="fill:#000000;stroke:#000000;stroke-width:0"
     x="1153.2563"
     y="746.89075"
     transform="scale(1.000077,0.99992299)">V4: Phase Inverter</text><g
     clip-path="url(#clipId0)"
     fill="none"
     stroke="#000000"
     stroke-width="0.1"
     id="g7690"
     transform="matrix(1.3225804,0,0,1.3223767,605.72949,287.27954)">
<polyline
   points="70.8396,208.325 615.128,208.325 615.128,462.326 70.8396,462.326 70.8396,208.325 "
   id="polyline7689" />
</g><g
     clip-path="url(#clipId0)"
     fill="#000000"
     stroke="#000000"
     stroke-width="0"
     id="g7691"
     transform="matrix(1.3225804,0,0,1.3223767,605.72949,287.27954)">
<text
   transform="matrix(21.1134,0,0,21.1134,426.491,264.709)"
   font-family="'Times New Roman', sans-serif"
   font-size="1.47788px"
   id="text7690">7.5&quot; x 3.5&quot;</text>
</g><g
     id="g7701"
     transform="translate(256.51658,330.92597)"><text
       xml:space="preserve"
       style="font-style:italic;font-variant:normal;font-weight:bold;font-stretch:normal;font-size:18.1845px;line-height:0.95;font-family:Arial, sans-serif;-inkscape-font-specification:'Arial, sans-serif, Bold Italic';font-variant-ligatures:normal;font-variant-caps:normal;font-variant-numeric:normal;font-variant-east-asian:normal;writing-mode:lr-tb;direction:ltr;opacity:0.741688;fill:#020202;fill-opacity:1;stroke:#010200;stroke-width:0.661239;stroke-linecap:round;stroke-linejoin:round;stroke-dasharray:none;stroke-opacity:1"
       x="548.11688"
       y="542.61176"
       id="text7691-5"
       transform="scale(1.1489762,0.87034005)"><tspan
         sodipodi:role="line"
         id="tspan7691-1"
         x="548.11688"
         y="542.61176"
         style="font-style:italic;font-variant:normal;font-weight:bold;font-stretch:normal;font-size:18.1845px;font-family:Arial, sans-serif;-inkscape-font-specification:'Arial, sans-serif, Bold Italic';font-variant-ligatures:normal;font-variant-caps:normal;font-variant-numeric:normal;font-variant-east-asian:normal;stroke-width:0.661239;stroke-dasharray:none">**** WARNING!!! ****</tspan></text><text
       xml:space="preserve"
       style="font-style:italic;font-variant:normal;font-weight:normal;font-stretch:normal;font-size:12.9411px;line-height:0.95;font-family:Arial, sans-serif;-inkscape-font-specification:'Arial, sans-serif, Italic';font-variant-ligatures:normal;font-variant-caps:normal;font-variant-numeric:normal;font-variant-east-asian:normal;writing-mode:lr-tb;direction:ltr;opacity:0.741688;fill:#020202;fill-opacity:1;stroke:#010200;stroke-width:0.121322;stroke-linecap:round;stroke-linejoin:round;stroke-dasharray:none;stroke-opacity:1"
       x="506.37817"
       y="559.05817"
       id="text7691-7-3"
       transform="scale(1.1489762,0.87034005)"><tspan
         sodipodi:role="line"
         id="tspan7692-5"
         x="506.37817"
         y="559.05817"
         style="font-style:italic;font-variant:normal;font-weight:normal;font-stretch:normal;font-size:12.9411px;font-family:Arial, sans-serif;-inkscape-font-specification:'Arial, sans-serif, Italic';font-variant-ligatures:normal;font-variant-caps:normal;font-variant-numeric:normal;font-variant-east-asian:normal;stroke-width:0.121322">Potentially deadly voltages inside chassis!</tspan><tspan
         sodipodi:role="line"
         id="tspan7693-1"
         x="506.37817"
         y="571.35223"
         style="font-style:italic;font-variant:normal;font-weight:normal;font-stretch:normal;font-size:12.9411px;font-family:Arial, sans-serif;-inkscape-font-specification:'Arial, sans-serif, Italic';font-variant-ligatures:normal;font-variant-caps:normal;font-variant-numeric:normal;font-variant-east-asian:normal;stroke-width:0.121322">No user serviceable parts inside chassis.</tspan></text></g></g><g
   clip-path="url(#clipId0-3)"
   fill="#000000"
   stroke="#000000"
   stroke-width="0"
   id="g3-0"
   transform="matrix(0,-1.3225804,1.3223767,0,-156.10281,553.42116)"
   inkscape:export-filename="TubeChart_CLID_30_tube_chart_avery_6878_rev2_0.jpg"
   inkscape:export-xdpi="106.55926"
   inkscape:export-ydpi="106.55926">
<text
   transform="matrix(8.27319,0,0,8.27319,144.929,249.382)"
   font-family="'Times New Roman', sans-serif"
   font-size="1.47788px"
   id="text1-5">Serial Number: CLID - ____________</text>
<text
   transform="matrix(8.06348,0,0,8.06348,96.5458,419.757)"
   font-family="'Times New Roman', sans-serif"
   font-size="1.47788px"
   id="text2-6">QA Checklist:</text>
<text
   transform="matrix(7.52591,0,0,7.52591,105.092,451.656)"
   font-family="'Times New Roman', sans-serif"
   font-size="1.47788px"
   id="text3-3">Chassis               Burn-in              Cabinet              Packing</text>
</g><g
   clip-path="url(#clipId0-3)"
   fill="none"
   stroke="#000000"
   stroke-width="0.5"
   id="g6-2"
   transform="matrix(0,-1.3225804,1.3223767,0,-156.10281,553.42116)">
<polyline
   points="95.9114,440.305 145.186,440.305 "
   id="polyline3-5" />
<polyline
   points="255.459,439.867 304.733,439.867 "
   id="polyline4-9" />
<polyline
   points="329.824,440.305 379.099,440.305 "
   id="polyline5-4" />
<polyline
   points="177.939,439.867 227.213,439.867 "
   id="polyline6-9" />
</g><text
   font-family="'Tobago Poster Alternate', sans-serif"
   font-size="28.5735px"
   id="text7656-2"
   style="fill:#000000;stroke:#000000;stroke-width:0"
   x="-406.32687"
   y="145.0056"
   transform="matrix(0,-1.000077,0.999923,0,0,0)">Chimey Limey</text><text
   font-family="'Freehand521 BT', sans-serif"
   font-size="25.3799px"
   id="text7657-9"
   style="fill:#000000;stroke:#000000;stroke-width:0"
   x="-194.72763"
   y="145.92471"
   transform="matrix(0,-1.000077,0.999923,0,0,0)">&quot;In Doubly&quot;</text><g
   id="g7700-3"
   transform="matrix(0,-1.3225804,1.3223767,0,-195.15034,536.14142)"><text
     font-family="Arial, sans-serif"
     font-size="8.50904px"
     id="text7658-3"
     style="fill:#000000;stroke:#000000;stroke-width:0"
     x="269.216"
     y="353.40399">ECC83</text><text
     font-family="Arial, sans-serif"
     font-size="8.50904px"
     id="text7659-0"
     style="fill:#000000;stroke:#000000;stroke-width:0"
     x="279.08801"
     y="362.974">or</text><text
     font-family="Arial, sans-serif"
     font-size="8.50904px"
     id="text7660-7"
     style="fill:#000000;stroke:#000000;stroke-width:0"
     x="270.03299"
     y="372.57501">12AX7</text></g><g
   id="g7699-7"
   transform="matrix(0,-1.3225804,1.3223767,0,-145.25736,493.49174)"><text
     font-family="Arial, sans-serif"
     font-size="8.41655px"
     id="text7661-9"
     style="fill:#000000;stroke:#000000;stroke-width:0"
     x="311.021"
     y="329.138">ECC832</text><text
     font-family="Arial, sans-serif"
     font-size="8.41655px"
     id="text7662-6"
     style="fill:#000000;stroke:#000000;stroke-width:0"
     x="323.091"
     y="338.60501">or</text><text
     font-family="Arial, sans-serif"
     font-size="8.41655px"
     id="text7663-6"
     style="fill:#000000;stroke:#000000;stroke-width:0"
     x="312.73499"
     y="348.10101">12DW7</text></g><text
   font-family="'Times New Roman', sans-serif"
   font-size="13.4916px"
   id="text7664-0"
   style="fill:#000000;stroke:#000000;stroke-width:0"
   x="-408.31616"
   y="207.44112"
   transform="matrix(0,-1.000077,0.999923,0,0,0)">GZ34</text><ellipse
   rx="6.6430101"
   ry="6.4001098"
   transform="matrix(1.3223767,0,0,1.3225804,-156.10281,553.42116)"
   id="ellipse7664-9"
   cx="314.45499"
   cy="-252.44"
   style="fill:none;stroke:#000000;stroke-width:0.25"
   clip-path="url(#clipPath7697-3)" /><polyline
   points="89.802,376.777 388.474,376.777 388.474,257.203 89.802,257.203 89.802,376.777 "
   id="polyline7664-2"
   style="fill:none;stroke:#000000;stroke-width:0.25"
   transform="matrix(0,-1.3225804,1.3223767,0,-156.10281,553.42116)" /><polyline
   points="133.013,263.767 133.013,263.767 "
   id="polyline7665-9"
   style="fill:none;stroke:#000000;stroke-width:0.25"
   transform="matrix(0,-1.3225804,1.3223767,0,-156.10281,553.42116)" /><ellipse
   rx="11.0717"
   ry="10.6668"
   transform="matrix(1.3223767,0,0,1.3225804,-156.10281,532.25987)"
   id="ellipse7665-7"
   cx="273.151"
   cy="-132.745"
   style="fill:none;stroke:#000000;stroke-width:0.25"
   clip-path="url(#clipPath7696-2)" /><ellipse
   rx="6.6430101"
   ry="6.4001098"
   transform="matrix(1.3223767,0,0,1.3225804,-145.80412,609.78088)"
   id="ellipse7666-6"
   cx="355.08099"
   cy="-357.03101"
   style="fill:none;stroke:#000000;stroke-width:0.25"
   clip-path="url(#clipPath7695-8)" /><polyline
   points="370.972,336.594 370.977,335.899 "
   id="polyline7666-0"
   style="fill:none;stroke:#000000;stroke-width:0.25"
   transform="matrix(0,-1.3225804,1.3223767,0,-156.10281,553.42116)" /><polyline
   points="370.972,336.594 370.977,335.899 "
   id="polyline7667-0"
   style="fill:none;stroke:#000000;stroke-width:0.25"
   transform="matrix(0,-1.3225804,1.3223767,0,-156.10281,553.42116)" /><polyline
   points="370.972,336.594 370.977,335.899 "
   id="polyline7668-9"
   style="fill:none;stroke:#000000;stroke-width:0.25"
   transform="matrix(0,-1.3225804,1.3223767,0,-156.10281,553.42116)" /><ellipse
   rx="6.6430101"
   ry="6.4001098"
   transform="matrix(1.3223767,0,0,1.3225804,-120.65319,543.31424)"
   id="ellipse7668-1"
   cx="336.263"
   cy="-364.70901"
   style="fill:none;stroke:#000000;stroke-width:0.25"
   clip-path="url(#clipPath7694-0)" /><ellipse
   rx="6.6430101"
   ry="6.4001098"
   transform="matrix(1.3223767,0,0,1.3225804,-155.44425,520.35055)"
   id="ellipse7669-5"
   cx="346.13599"
   cy="-233.508"
   style="fill:none;stroke:#000000;stroke-width:0.25"
   clip-path="url(#clipPath7693-6)" /><g
   clip-path="url(#clipId0-3)"
   fill="none"
   stroke="#000000"
   stroke-width="0.1"
   id="g7671-5"
   transform="matrix(0,-1.3225804,1.3223767,0,-156.10281,553.42116)">
<polyline
   points="93.7058,294.644 160.744,294.644 160.744,365.346 93.7058,365.346 93.7058,294.644 "
   id="polyline7669-7" />
<polyline
   points="186.936,312.778 206.352,312.778 206.352,360.766 186.936,360.766 186.936,312.778 "
   id="polyline7670-7" />
<polyline
   points="323.393,266.437 366.956,266.437 366.956,321.174 323.393,321.174 323.393,266.437 "
   id="polyline7671-5" />
</g><g
   clip-path="url(#clipId0-3)"
   fill="#000000"
   stroke="#000000"
   stroke-width="0"
   id="g7672-9"
   transform="matrix(0,-1.3225804,1.3223767,0,-156.10281,553.42116)">
<text
   transform="matrix(6.96637,0,0,6.96637,240.603,284.474)"
   font-family="'Times New Roman', sans-serif"
   font-size="1.47788px"
   id="text7671-3">EL84</text>
</g><g
   clip-path="url(#clipId0-3)"
   fill="none"
   stroke="#000000"
   stroke-width="0.25"
   id="g7675-3"
   transform="matrix(0,-1.3225804,1.3223767,0,-156.10281,553.42116)">
<ellipse
   rx="6.6430101"
   ry="6.4001098"
   transform="rotate(90,-41.1115,241.6495)"
   id="ellipse7672-5"
   cx="0"
   cy="0" />
<ellipse
   rx="6.6430101"
   ry="6.4001098"
   transform="rotate(90,-25.3595,257.4015)"
   id="ellipse7673-9"
   cx="0"
   cy="0" />
<ellipse
   rx="6.6430101"
   ry="6.4001098"
   transform="rotate(90,-4.2955,278.4655)"
   id="ellipse7674-2"
   cx="0"
   cy="0" />
<ellipse
   rx="6.6430101"
   ry="6.4001098"
   transform="rotate(90,11.457,294.584)"
   id="ellipse7675-2"
   cx="0"
   cy="0" />
</g><polyline
   points="201.04,275.918 201.131,268.317 306.634,268.317 306.657,276.308 "
   id="polyline7675-7"
   style="fill:none;stroke:#000000;stroke-width:1.2"
   transform="matrix(0,-1.3225804,1.3223767,0,-156.10281,553.42116)" /><polyline
   points="232.284,276.262 232.284,268.432 "
   id="polyline7676-1"
   style="fill:none;stroke:#000000;stroke-width:1.2"
   transform="matrix(0,-1.3225804,1.3223767,0,-156.10281,553.42116)" /><polyline
   points="274.32,276.262 274.32,268.432 "
   id="polyline7677-5"
   style="fill:none;stroke:#000000;stroke-width:1.2"
   transform="matrix(0,-1.3225804,1.3223767,0,-156.10281,553.42116)" /><polyline
   points="252.89,275.941 252.89,268.386 "
   id="polyline7678-1"
   style="fill:none;stroke:#000000;stroke-width:1.2"
   transform="matrix(0,-1.3225804,1.3223767,0,-156.10281,553.42116)" /><path
   id="polyline7679-8"
   style="fill:none;stroke:#000000;stroke-width:1.58697"
   d="m 301.41798,151.75951 19.85208,-11.21472"
   sodipodi:nodetypes="cc" /><path
   id="polyline7681-2"
   style="fill:none;stroke:#000000;stroke-width:1.58697"
   d="m 267.8672,187.85101 -7.43216,30.83468"
   sodipodi:nodetypes="cc" /><path
   id="polyline7682-4"
   style="fill:none;stroke:#000000;stroke-width:1.58697"
   d="m 289.5729,183.4735 12.46301,26.4008"
   sodipodi:nodetypes="cc" /><text
   font-family="'Times New Roman', sans-serif"
   font-size="21.276px"
   id="text7682-4"
   style="fill:#000000;stroke:#000000;stroke-width:0"
   x="-93.908478"
   y="332.66666"
   transform="matrix(0,-1.000077,0.999923,0,0,0)">V1</text><text
   font-family="'Times New Roman', sans-serif"
   font-size="21.276px"
   id="text7683-9"
   style="fill:#000000;stroke:#000000;stroke-width:0"
   x="-172.13953"
   y="332.40015"
   transform="matrix(0,-1.000077,0.999923,0,0,0)">V2</text><text
   font-family="'Times New Roman', sans-serif"
   font-size="21.276px"
   id="text7684-5"
   style="fill:#000000;stroke:#000000;stroke-width:0"
   x="-244.78615"
   y="323.29819"
   transform="matrix(0,-1.000077,0.999923,0,0,0)">V3</text><text
   font-family="'Times New Roman', sans-serif"
   font-size="21.276px"
   id="text7685-3"
   style="fill:#000000;stroke:#000000;stroke-width:0"
   x="-255.99808"
   y="265.42123"
   transform="matrix(0,-1.000077,0.999923,0,0,0)">V4</text><g
   id="g7701-7"
   transform="rotate(-90,395.08883,507.54522)"><text
     xml:space="preserve"
     style="font-style:italic;font-variant:normal;font-weight:bold;font-stretch:normal;font-size:18.1845px;line-height:0.95;font-family:Arial, sans-serif;-inkscape-font-specification:'Arial, sans-serif, Bold Italic';font-variant-ligatures:normal;font-variant-caps:normal;font-variant-numeric:normal;font-variant-east-asian:normal;writing-mode:lr-tb;direction:ltr;opacity:0.741688;fill:#020202;fill-opacity:1;stroke:#010200;stroke-width:0.661239;stroke-linecap:round;stroke-linejoin:round;stroke-dasharray:none;stroke-opacity:1"
     x="548.11688"
     y="542.61176"
     id="text7691-5-7"
     transform="scale(1.1489762,0.87034005)"><tspan
       sodipodi:role="line"
       id="tspan7691-1-6"
       x="548.11688"
       y="542.61176"
       style="font-style:italic;font-variant:normal;font-weight:bold;font-stretch:normal;font-size:18.1845px;font-family:Arial, sans-serif;-inkscape-font-specification:'Arial, sans-serif, Bold Italic';font-variant-ligatures:normal;font-variant-caps:normal;font-variant-numeric:normal;font-variant-east-asian:normal;stroke-width:0.661239;stroke-dasharray:none">**** WARNING!!! ****</tspan></text><text
     xml:space="preserve"
     style="font-style:italic;font-variant:normal;font-weight:normal;font-stretch:normal;font-size:12.9411px;line-height:0.95;font-family:Arial, sans-serif;-inkscape-font-specification:'Arial, sans-serif, Italic';font-variant-ligatures:normal;font-variant-caps:normal;font-variant-numeric:normal;font-variant-east-asian:normal;writing-mode:lr-tb;direction:ltr;opacity:0.741688;fill:#020202;fill-opacity:1;stroke:#010200;stroke-width:0.121322;stroke-linecap:round;stroke-linejoin:round;stroke-dasharray:none;stroke-opacity:1"
     x="506.37817"
     y="559.05817"
     id="text7691-7-3-0"
     transform="scale(1.1489762,0.87034005)"><tspan
       sodipodi:role="line"
       id="tspan7692-5-2"
       x="506.37817"
       y="559.05817"
       style="font-style:italic;font-variant:normal;font-weight:normal;font-stretch:normal;font-size:12.9411px;font-family:Arial, sans-serif;-inkscape-font-specification:'Arial, sans-serif, Italic';font-variant-ligatures:normal;font-variant-caps:normal;font-variant-numeric:normal;font-variant-east-asian:normal;stroke-width:0.121322">Potentially deadly voltages inside chassis!</tspan><tspan
       sodipodi:role="line"
       id="tspan7693-1-5"
       x="506.37817"
       y="571.35223"
       style="font-style:italic;font-variant:normal;font-weight:normal;font-stretch:normal;font-size:12.9411px;font-family:Arial, sans-serif;-inkscape-font-specification:'Arial, sans-serif, Italic';font-variant-ligatures:normal;font-variant-caps:normal;font-variant-numeric:normal;font-variant-east-asian:normal;stroke-width:0.121322">No user serviceable parts inside chassis.</tspan></text></g><text
   font-family="'Times New Roman', sans-serif"
   font-size="28.0832px"
   id="text1-0"
   style="fill:#000000;stroke:#000000;stroke-width:0"
   x="13.652921"
   y="520.67578">Export Instructions: Save as JPG, go into setup in save as dialog and set:</text><text
   font-family="'Times New Roman', sans-serif"
   font-size="28.0832px"
   id="text2-9"
   style="fill:#000000;stroke:#000000;stroke-width:0"
   x="13.747281"
   y="584.76819">Height: 451 pixels</text><text
   font-family="'Times New Roman', sans-serif"
   font-size="28.0832px"
   id="text3-8"
   style="fill:#000000;stroke:#000000;stroke-width:0"
   x="13.844144"
   y="617.06171">Width: 355 pixels</text></svg>
