<?xml version="1.0" encoding="UTF-8" standalone="no"?>
<!-- Created with Inkscape (http://www.inkscape.org/) -->

<svg
   width="48in"
   height="36in"
   viewBox="0 0 1219.2 914.4"
   version="1.1"
   id="svg1"
   sodipodi:docname="Chassis_CLID-30-PT_Reinforcement_plate.svg"
   inkscape:version="1.4.3 (0d15f75, 2025-12-25)"
   xmlns:inkscape="http://www.inkscape.org/namespaces/inkscape"
   xmlns:sodipodi="http://sodipodi.sourceforge.net/DTD/sodipodi-0.dtd"
   xmlns="http://www.w3.org/2000/svg"
   xmlns:svg="http://www.w3.org/2000/svg">
  <sodipodi:namedview
     id="namedview1"
     pagecolor="#ffffff"
     bordercolor="#000000"
     borderopacity="0.25"
     inkscape:showpageshadow="2"
     inkscape:pageopacity="0.0"
     inkscape:pagecheckerboard="0"
     inkscape:deskcolor="#d1d1d1"
     inkscape:document-units="in"
     inkscape:zoom="0.90509668"
     inkscape:cx="782.23688"
     inkscape:cy="1471.1136"
     inkscape:window-width="1153"
     inkscape:window-height="876"
     inkscape:window-x="0"
     inkscape:window-y="33"
     inkscape:window-maximized="0"
     inkscape:current-layer="svg1" />
  <defs
     id="defs1">
    <clipPath
       id="clipId0">
      <path
         d="M 0,768 H 1024 V 0 H 0 Z"
         id="path1" />
    </clipPath>
  </defs>
  <g
     id="layer1" />
  <g
     id="layer9"
     style="display:inline;stroke:#0000ff;stroke-opacity:1">
    <path
       id="polyline226"
       style="display:inline;fill:none;stroke:#0000ff;stroke-width:0.0707998;stroke-opacity:1"
       transform="matrix(3.5820109,0,0,3.5931594,-2073.7966,-963.91508)"
       d="m 645.377,387.418 h -21.953 v 0 l -0.885,-0.237 -0.648,-0.648 -0.237,-0.885 v -18.412 0 l 0.237,-0.885 0.648,-0.648 0.885,-0.238 h 21.953 v 0 l 0.885,0.238 0.648,0.648 0.237,0.885 v 18.412 0 l -0.237,0.885 -0.648,0.648 -0.885,0.237" />
  </g>
  <g
     id="layer10"
     style="display:inline;stroke:#ff0000;stroke-opacity:1">
    <g
       clip-path="url(#clipId0)"
       fill="none"
       stroke="#000000"
       stroke-width="0.25"
       id="g230"
       transform="matrix(3.5820109,0,0,3.5931594,-2073.7966,-963.91508)"
       style="stroke-width:0.0707998;stroke-dasharray:none;stroke:#ff0000;stroke-opacity:1">
      <path
         id="polyline229"
         d="m 651.698,392.489 h -34.972 v 0 l -0.886,-0.237 -0.648,-0.648 -0.237,-0.885 v -29.12 0 l 0.237,-0.886 0.648,-0.648 0.886,-0.237 h 34.972 v 0 l 0.885,0.237 0.648,0.648 0.237,0.886 v 29.12 0 l -0.237,0.885 -0.648,0.648 -0.885,0.237"
         style="stroke:#ff0000;stroke-opacity:1" />
    </g>
  </g>
  <g
     id="layer11"
     style="display:inline;stroke:#008000;stroke-opacity:1">
    <path
       id="circle226"
       style="display:inline;fill:none;stroke:#008000;stroke-width:0.358759;stroke-opacity:1"
       d="m 145.87079,344.17105 a 3.0439284,3.0534022 0 0 1 -3.04393,3.0534 3.0439284,3.0534022 0 0 1 -3.04393,-3.0534 3.0439284,3.0534022 0 0 1 3.04393,-3.0534 3.0439284,3.0534022 0 0 1 3.04393,3.0534 z" />
    <path
       id="circle227"
       style="display:inline;fill:none;stroke:#008000;stroke-width:0.358759;stroke-opacity:1"
       d="m 145.87079,433.22751 a 3.0439284,3.0534022 0 0 1 -3.04393,3.0534 3.0439284,3.0534022 0 0 1 -3.04393,-3.0534 3.0439284,3.0534022 0 0 1 3.04393,-3.0534 3.0439284,3.0534022 0 0 1 3.04393,3.0534 z" />
    <path
       id="circle228"
       style="display:inline;fill:none;stroke:#008000;stroke-width:0.358759;stroke-opacity:1"
       d="m 257.48269,433.22751 a 3.0439284,3.0534022 0 0 1 -3.04392,3.0534 3.0439284,3.0534022 0 0 1 -3.04393,-3.0534 3.0439284,3.0534022 0 0 1 3.04393,-3.0534 3.0439284,3.0534022 0 0 1 3.04392,3.0534 z" />
    <path
       id="circle229"
       style="display:inline;fill:none;stroke:#008000;stroke-width:0.358759;stroke-opacity:1"
       d="m 257.48269,344.17105 a 3.0439284,3.0534022 0 0 1 -3.04392,3.0534 3.0439284,3.0534022 0 0 1 -3.04393,-3.0534 3.0439284,3.0534022 0 0 1 3.04393,-3.0534 3.0439284,3.0534022 0 0 1 3.04392,3.0534 z" />
    <path
       id="polyline16-0"
       style="display:inline;fill:none;stroke:#008000;stroke-width:0.1;stroke-opacity:1"
       transform="matrix(1.1869038,0,0,1.1868608,-19.931235,-75.185794)"
       d="m 180.176,386.447 h -3.102" />
  </g>
  <g
     id="layer12" />
  <g
     id="layer13" />
</svg>
