999
"DXF R12 Output" (www.mydxf.blogspot.com)
 0 
SECTION
 2 
HEADER
 9 
$ACADVER
 1 
AC1009
 9 
$EXTMIN
 10 
 0 
 20 
 0 
 9 
$EXTMAX
 10 
 8.5 
 20 
 11 
 0 
ENDSEC
 0 
SECTION
 2 
ENTITIES
0
POLYLINE
8
milled_holes
62
18
70
0
10
0.000000
20
0.000000
66
1
0
VERTEX
8
milled_holes
10
223.147600
20
844.970032
70
0
0
VERTEX
8
milled_holes
10
222.507799
20
844.874227
70
0
0
VERTEX
8
milled_holes
10
221.935366
20
844.602305
70
0
0
VERTEX
8
milled_holes
10
221.465082
20
844.177506
70
0
0
VERTEX
8
milled_holes
10
221.131729
20
843.623070
70
0
0
VERTEX
8
milled_holes
10
220.975400
20
842.995308
70
0
0
VERTEX
8
milled_holes
10
221.007562
20
842.362389
70
0
0
VERTEX
8
milled_holes
10
221.220056
20
841.765340
70
0
0
VERTEX
8
milled_holes
10
221.604719
20
841.245188
70
0
0
VERTEX
8
milled_holes
10
222.124871
20
840.860525
70
0
0
VERTEX
8
milled_holes
10
222.721920
20
840.648031
70
0
0
VERTEX
8
milled_holes
10
223.354839
20
840.615869
70
0
0
VERTEX
8
milled_holes
10
223.982601
20
840.772198
70
0
0
VERTEX
8
milled_holes
10
224.537037
20
841.105551
70
0
0
VERTEX
8
milled_holes
10
224.961836
20
841.575835
70
0
0
VERTEX
8
milled_holes
10
225.233758
20
842.148268
70
0
0
VERTEX
8
milled_holes
10
225.329563
20
842.788069
70
0
0
VERTEX
8
milled_holes
10
225.163471
20
843.623070
70
0
0
VERTEX
8
milled_holes
10
224.690481
20
844.330950
70
0
0
VERTEX
8
milled_holes
10
223.982601
20
844.803940
70
0
0
VERTEX
8
milled_holes
10
223.147600
20
844.970032
70
0
0
VERTEX
8
milled_holes
10
223.147600
20
844.970032
70
0
0
SEQEND
8
milled_holes
0
POLYLINE
8
milled_holes
62
18
70
0
10
0.000000
20
0.000000
66
1
0
VERTEX
8
milled_holes
10
223.412250
20
790.904343
70
0
0
VERTEX
8
milled_holes
10
222.772449
20
790.808538
70
0
0
VERTEX
8
milled_holes
10
222.200016
20
790.536616
70
0
0
VERTEX
8
milled_holes
10
221.729732
20
790.111817
70
0
0
VERTEX
8
milled_holes
10
221.396379
20
789.557381
70
0
0
VERTEX
8
milled_holes
10
221.240050
20
788.929619
70
0
0
VERTEX
8
milled_holes
10
221.272212
20
788.296700
70
0
0
VERTEX
8
milled_holes
10
221.484706
20
787.699651
70
0
0
VERTEX
8
milled_holes
10
221.869369
20
787.179499
70
0
0
VERTEX
8
milled_holes
10
222.389521
20
786.794836
70
0
0
VERTEX
8
milled_holes
10
222.986570
20
786.582342
70
0
0
VERTEX
8
milled_holes
10
223.619489
20
786.550180
70
0
0
VERTEX
8
milled_holes
10
224.247251
20
786.706509
70
0
0
VERTEX
8
milled_holes
10
224.801687
20
787.039862
70
0
0
VERTEX
8
milled_holes
10
225.226486
20
787.510146
70
0
0
VERTEX
8
milled_holes
10
225.498408
20
788.082579
70
0
0
VERTEX
8
milled_holes
10
225.594213
20
788.722380
70
0
0
VERTEX
8
milled_holes
10
225.428121
20
789.557381
70
0
0
VERTEX
8
milled_holes
10
224.955131
20
790.265261
70
0
0
VERTEX
8
milled_holes
10
224.247251
20
790.738251
70
0
0
VERTEX
8
milled_holes
10
223.412250
20
790.904343
70
0
0
VERTEX
8
milled_holes
10
223.412250
20
790.904343
70
0
0
SEQEND
8
milled_holes
0
POLYLINE
8
milled_holes
62
18
70
0
10
0.000000
20
0.000000
66
1
0
VERTEX
8
milled_holes
10
52.627068
20
845.235459
70
0
0
VERTEX
8
milled_holes
10
51.987267
20
845.139654
70
0
0
VERTEX
8
milled_holes
10
51.414834
20
844.867732
70
0
0
VERTEX
8
milled_holes
10
50.944550
20
844.442933
70
0
0
VERTEX
8
milled_holes
10
50.611197
20
843.888497
70
0
0
VERTEX
8
milled_holes
10
50.454868
20
843.260735
70
0
0
VERTEX
8
milled_holes
10
50.487030
20
842.627816
70
0
0
VERTEX
8
milled_holes
10
50.699524
20
842.030767
70
0
0
VERTEX
8
milled_holes
10
51.084187
20
841.510615
70
0
0
VERTEX
8
milled_holes
10
51.604339
20
841.125952
70
0
0
VERTEX
8
milled_holes
10
52.201388
20
840.913458
70
0
0
VERTEX
8
milled_holes
10
52.834307
20
840.881296
70
0
0
VERTEX
8
milled_holes
10
53.462069
20
841.037625
70
0
0
VERTEX
8
milled_holes
10
54.016505
20
841.370978
70
0
0
VERTEX
8
milled_holes
10
54.441304
20
841.841262
70
0
0
VERTEX
8
milled_holes
10
54.713226
20
842.413695
70
0
0
VERTEX
8
milled_holes
10
54.809031
20
843.053496
70
0
0
VERTEX
8
milled_holes
10
54.642939
20
843.888497
70
0
0
VERTEX
8
milled_holes
10
54.169949
20
844.596377
70
0
0
VERTEX
8
milled_holes
10
53.462069
20
845.069367
70
0
0
VERTEX
8
milled_holes
10
52.627068
20
845.235459
70
0
0
VERTEX
8
milled_holes
10
52.627068
20
845.235459
70
0
0
SEQEND
8
milled_holes
0
POLYLINE
8
milled_holes
62
18
70
0
10
0.000000
20
0.000000
66
1
0
VERTEX
8
milled_holes
10
52.627068
20
791.003333
70
0
0
VERTEX
8
milled_holes
10
51.987267
20
790.907528
70
0
0
VERTEX
8
milled_holes
10
51.414834
20
790.635606
70
0
0
VERTEX
8
milled_holes
10
50.944550
20
790.210807
70
0
0
VERTEX
8
milled_holes
10
50.611197
20
789.656371
70
0
0
VERTEX
8
milled_holes
10
50.454868
20
789.028609
70
0
0
VERTEX
8
milled_holes
10
50.487030
20
788.395690
70
0
0
VERTEX
8
milled_holes
10
50.699524
20
787.798641
70
0
0
VERTEX
8
milled_holes
10
51.084187
20
787.278489
70
0
0
VERTEX
8
milled_holes
10
51.604339
20
786.893826
70
0
0
VERTEX
8
milled_holes
10
52.201388
20
786.681332
70
0
0
VERTEX
8
milled_holes
10
52.834307
20
786.649170
70
0
0
VERTEX
8
milled_holes
10
53.462069
20
786.805499
70
0
0
VERTEX
8
milled_holes
10
54.016505
20
787.138852
70
0
0
VERTEX
8
milled_holes
10
54.441304
20
787.609136
70
0
0
VERTEX
8
milled_holes
10
54.713226
20
788.181569
70
0
0
VERTEX
8
milled_holes
10
54.809031
20
788.821370
70
0
0
VERTEX
8
milled_holes
10
54.642939
20
789.656371
70
0
0
VERTEX
8
milled_holes
10
54.169949
20
790.364251
70
0
0
VERTEX
8
milled_holes
10
53.462069
20
790.837241
70
0
0
VERTEX
8
milled_holes
10
52.627068
20
791.003333
70
0
0
VERTEX
8
milled_holes
10
52.627068
20
791.003333
70
0
0
SEQEND
8
milled_holes
0
POLYLINE
8
cut_line
62
7
70
0
10
0.000000
20
0.000000
66
1
0
VERTEX
8
cut_line
10
229.054620
20
851.271216
70
0
0
VERTEX
8
cut_line
10
229.054620
20
780.242270
70
0
0
SEQEND
8
cut_line
 0 
ENDSEC
 0 
EOF