999
"DXF R12 Output" (www.mydxf.blogspot.com)
 0 
SECTION
 2 
HEADER
 9 
$ACADVER
 1 
AC1009
 9 
$EXTMIN
 10 
 0 
 20 
 0 
 9 
$EXTMAX
 10 
 8.5 
 20 
 11 
 0 
ENDSEC
 0 
SECTION
 2 
ENTITIES
0
POLYLINE
8
milled_holes
62
18
70
0
10
0.000000
20
0.000000
66
1
0
VERTEX
8
milled_holes
10
176.988390
20
837.631087
70
0
0
VERTEX
8
milled_holes
10
177.188099
20
836.972736
70
0
0
VERTEX
8
milled_holes
10
177.719910
20
836.536290
70
0
0
VERTEX
8
milled_holes
10
178.404572
20
836.468857
70
0
0
VERTEX
8
milled_holes
10
179.011311
20
836.793166
70
0
0
VERTEX
8
milled_holes
10
179.335620
20
837.399905
70
0
0
VERTEX
8
milled_holes
10
179.268187
20
838.084567
70
0
0
VERTEX
8
milled_holes
10
178.831741
20
838.616378
70
0
0
VERTEX
8
milled_holes
10
178.173390
20
838.816087
70
0
0
VERTEX
8
milled_holes
10
177.719910
20
838.725884
70
0
0
VERTEX
8
milled_holes
10
177.335469
20
838.469008
70
0
0
VERTEX
8
milled_holes
10
177.078593
20
838.084567
70
0
0
VERTEX
8
milled_holes
10
176.988390
20
837.631087
70
0
0
VERTEX
8
milled_holes
10
176.988390
20
837.631087
70
0
0
SEQEND
8
milled_holes
0
POLYLINE
8
milled_holes
62
18
70
0
10
0.000000
20
0.000000
66
1
0
VERTEX
8
milled_holes
10
192.261640
20
789.242360
70
0
0
VERTEX
8
milled_holes
10
191.603289
20
789.042651
70
0
0
VERTEX
8
milled_holes
10
191.166843
20
788.510840
70
0
0
VERTEX
8
milled_holes
10
191.099410
20
787.826178
70
0
0
VERTEX
8
milled_holes
10
191.423719
20
787.219439
70
0
0
VERTEX
8
milled_holes
10
192.030458
20
786.895130
70
0
0
VERTEX
8
milled_holes
10
192.715120
20
786.962563
70
0
0
VERTEX
8
milled_holes
10
193.246931
20
787.399009
70
0
0
VERTEX
8
milled_holes
10
193.446640
20
788.057360
70
0
0
VERTEX
8
milled_holes
10
193.356437
20
788.510840
70
0
0
VERTEX
8
milled_holes
10
193.099561
20
788.895281
70
0
0
VERTEX
8
milled_holes
10
192.715120
20
789.152157
70
0
0
VERTEX
8
milled_holes
10
192.261640
20
789.242360
70
0
0
VERTEX
8
milled_holes
10
192.261640
20
789.242360
70
0
0
SEQEND
8
milled_holes
0
POLYLINE
8
milled_holes
62
18
70
0
10
0.000000
20
0.000000
66
1
0
VERTEX
8
milled_holes
10
186.593610
20
798.292220
70
0
0
VERTEX
8
milled_holes
10
185.935259
20
798.092511
70
0
0
VERTEX
8
milled_holes
10
185.498813
20
797.560700
70
0
0
VERTEX
8
milled_holes
10
185.431380
20
796.876038
70
0
0
VERTEX
8
milled_holes
10
185.755689
20
796.269299
70
0
0
VERTEX
8
milled_holes
10
186.362428
20
795.944990
70
0
0
VERTEX
8
milled_holes
10
187.047090
20
796.012423
70
0
0
VERTEX
8
milled_holes
10
187.578901
20
796.448869
70
0
0
VERTEX
8
milled_holes
10
187.778610
20
797.107220
70
0
0
VERTEX
8
milled_holes
10
187.688407
20
797.560700
70
0
0
VERTEX
8
milled_holes
10
187.431531
20
797.945141
70
0
0
VERTEX
8
milled_holes
10
187.047090
20
798.202017
70
0
0
VERTEX
8
milled_holes
10
186.593610
20
798.292220
70
0
0
VERTEX
8
milled_holes
10
186.593610
20
798.292220
70
0
0
SEQEND
8
milled_holes
0
POLYLINE
8
milled_holes
62
18
70
0
10
0.000000
20
0.000000
66
1
0
VERTEX
8
milled_holes
10
176.425190
20
790.470320
70
0
0
VERTEX
8
milled_holes
10
175.766839
20
790.270611
70
0
0
VERTEX
8
milled_holes
10
175.330393
20
789.738800
70
0
0
VERTEX
8
milled_holes
10
175.262960
20
789.054138
70
0
0
VERTEX
8
milled_holes
10
175.587269
20
788.447399
70
0
0
VERTEX
8
milled_holes
10
176.194008
20
788.123090
70
0
0
VERTEX
8
milled_holes
10
176.878670
20
788.190523
70
0
0
VERTEX
8
milled_holes
10
177.410481
20
788.626969
70
0
0
VERTEX
8
milled_holes
10
177.610190
20
789.285320
70
0
0
VERTEX
8
milled_holes
10
177.519987
20
789.738800
70
0
0
VERTEX
8
milled_holes
10
177.263111
20
790.123241
70
0
0
VERTEX
8
milled_holes
10
176.878670
20
790.380117
70
0
0
VERTEX
8
milled_holes
10
176.425190
20
790.470320
70
0
0
VERTEX
8
milled_holes
10
176.425190
20
790.470320
70
0
0
SEQEND
8
milled_holes
0
POLYLINE
8
milled_holes
62
18
70
0
10
0.000000
20
0.000000
66
1
0
VERTEX
8
milled_holes
10
164.770800
20
790.144030
70
0
0
VERTEX
8
milled_holes
10
164.112449
20
789.944321
70
0
0
VERTEX
8
milled_holes
10
163.676003
20
789.412510
70
0
0
VERTEX
8
milled_holes
10
163.608570
20
788.727848
70
0
0
VERTEX
8
milled_holes
10
163.932879
20
788.121109
70
0
0
VERTEX
8
milled_holes
10
164.539618
20
787.796800
70
0
0
VERTEX
8
milled_holes
10
165.224280
20
787.864233
70
0
0
VERTEX
8
milled_holes
10
165.756091
20
788.300679
70
0
0
VERTEX
8
milled_holes
10
165.955800
20
788.959030
70
0
0
VERTEX
8
milled_holes
10
165.865597
20
789.412510
70
0
0
VERTEX
8
milled_holes
10
165.608721
20
789.796951
70
0
0
VERTEX
8
milled_holes
10
165.224280
20
790.053827
70
0
0
VERTEX
8
milled_holes
10
164.770800
20
790.144030
70
0
0
VERTEX
8
milled_holes
10
164.770800
20
790.144030
70
0
0
SEQEND
8
milled_holes
0
POLYLINE
8
milled_holes
62
18
70
0
10
0.000000
20
0.000000
66
1
0
VERTEX
8
milled_holes
10
146.040910
20
789.256150
70
0
0
VERTEX
8
milled_holes
10
145.382559
20
789.056441
70
0
0
VERTEX
8
milled_holes
10
144.946113
20
788.524630
70
0
0
VERTEX
8
milled_holes
10
144.878680
20
787.839968
70
0
0
VERTEX
8
milled_holes
10
145.202989
20
787.233229
70
0
0
VERTEX
8
milled_holes
10
145.809728
20
786.908920
70
0
0
VERTEX
8
milled_holes
10
146.494390
20
786.976353
70
0
0
VERTEX
8
milled_holes
10
147.026201
20
787.412799
70
0
0
VERTEX
8
milled_holes
10
147.225910
20
788.071150
70
0
0
VERTEX
8
milled_holes
10
147.135707
20
788.524630
70
0
0
VERTEX
8
milled_holes
10
146.878831
20
788.909071
70
0
0
VERTEX
8
milled_holes
10
146.494390
20
789.165947
70
0
0
VERTEX
8
milled_holes
10
146.040910
20
789.256150
70
0
0
VERTEX
8
milled_holes
10
146.040910
20
789.256150
70
0
0
SEQEND
8
milled_holes
0
POLYLINE
8
milled_holes
62
18
70
0
10
0.000000
20
0.000000
66
1
0
VERTEX
8
milled_holes
10
159.500170
20
809.975080
70
0
0
VERTEX
8
milled_holes
10
158.841819
20
809.775371
70
0
0
VERTEX
8
milled_holes
10
158.405373
20
809.243560
70
0
0
VERTEX
8
milled_holes
10
158.337940
20
808.558898
70
0
0
VERTEX
8
milled_holes
10
158.662249
20
807.952159
70
0
0
VERTEX
8
milled_holes
10
159.268988
20
807.627850
70
0
0
VERTEX
8
milled_holes
10
159.953650
20
807.695283
70
0
0
VERTEX
8
milled_holes
10
160.485461
20
808.131729
70
0
0
VERTEX
8
milled_holes
10
160.685170
20
808.790080
70
0
0
VERTEX
8
milled_holes
10
160.594967
20
809.243560
70
0
0
VERTEX
8
milled_holes
10
160.338091
20
809.628001
70
0
0
VERTEX
8
milled_holes
10
159.953650
20
809.884877
70
0
0
VERTEX
8
milled_holes
10
159.500170
20
809.975080
70
0
0
VERTEX
8
milled_holes
10
159.500170
20
809.975080
70
0
0
SEQEND
8
milled_holes
0
POLYLINE
8
milled_holes
62
18
70
0
10
0.000000
20
0.000000
66
1
0
VERTEX
8
milled_holes
10
165.918720
20
822.061387
70
0
0
VERTEX
8
milled_holes
10
165.260369
20
821.861678
70
0
0
VERTEX
8
milled_holes
10
164.823923
20
821.329867
70
0
0
VERTEX
8
milled_holes
10
164.756490
20
820.645205
70
0
0
VERTEX
8
milled_holes
10
165.080799
20
820.038466
70
0
0
VERTEX
8
milled_holes
10
165.687538
20
819.714157
70
0
0
VERTEX
8
milled_holes
10
166.372200
20
819.781590
70
0
0
VERTEX
8
milled_holes
10
166.904011
20
820.218036
70
0
0
VERTEX
8
milled_holes
10
167.103720
20
820.876387
70
0
0
VERTEX
8
milled_holes
10
167.013517
20
821.329867
70
0
0
VERTEX
8
milled_holes
10
166.756641
20
821.714308
70
0
0
VERTEX
8
milled_holes
10
166.372200
20
821.971184
70
0
0
VERTEX
8
milled_holes
10
165.918720
20
822.061387
70
0
0
VERTEX
8
milled_holes
10
165.918720
20
822.061387
70
0
0
SEQEND
8
milled_holes
0
POLYLINE
8
milled_holes
62
18
70
0
10
0.000000
20
0.000000
66
1
0
VERTEX
8
milled_holes
10
170.085830
20
825.475633
70
0
0
VERTEX
8
milled_holes
10
169.427479
20
825.275924
70
0
0
VERTEX
8
milled_holes
10
168.991033
20
824.744113
70
0
0
VERTEX
8
milled_holes
10
168.923600
20
824.059451
70
0
0
VERTEX
8
milled_holes
10
169.247909
20
823.452712
70
0
0
VERTEX
8
milled_holes
10
169.854648
20
823.128403
70
0
0
VERTEX
8
milled_holes
10
170.539310
20
823.195836
70
0
0
VERTEX
8
milled_holes
10
171.071121
20
823.632282
70
0
0
VERTEX
8
milled_holes
10
171.270830
20
824.290633
70
0
0
VERTEX
8
milled_holes
10
171.180627
20
824.744113
70
0
0
VERTEX
8
milled_holes
10
170.923751
20
825.128554
70
0
0
VERTEX
8
milled_holes
10
170.539310
20
825.385430
70
0
0
VERTEX
8
milled_holes
10
170.085830
20
825.475633
70
0
0
VERTEX
8
milled_holes
10
170.085830
20
825.475633
70
0
0
SEQEND
8
milled_holes
0
POLYLINE
8
milled_holes
62
18
70
0
10
0.000000
20
0.000000
66
1
0
VERTEX
8
milled_holes
10
146.845140
20
835.592820
70
0
0
VERTEX
8
milled_holes
10
146.186789
20
835.393111
70
0
0
VERTEX
8
milled_holes
10
145.750343
20
834.861300
70
0
0
VERTEX
8
milled_holes
10
145.682910
20
834.176638
70
0
0
VERTEX
8
milled_holes
10
146.007219
20
833.569899
70
0
0
VERTEX
8
milled_holes
10
146.613958
20
833.245590
70
0
0
VERTEX
8
milled_holes
10
147.298620
20
833.313023
70
0
0
VERTEX
8
milled_holes
10
147.830431
20
833.749469
70
0
0
VERTEX
8
milled_holes
10
148.030140
20
834.407820
70
0
0
VERTEX
8
milled_holes
10
147.939937
20
834.861300
70
0
0
VERTEX
8
milled_holes
10
147.683061
20
835.245741
70
0
0
VERTEX
8
milled_holes
10
147.298620
20
835.502617
70
0
0
VERTEX
8
milled_holes
10
146.845140
20
835.592820
70
0
0
VERTEX
8
milled_holes
10
146.845140
20
835.592820
70
0
0
SEQEND
8
milled_holes
0
POLYLINE
8
milled_holes
62
18
70
0
10
0.000000
20
0.000000
66
1
0
VERTEX
8
milled_holes
10
151.623150
20
844.798020
70
0
0
VERTEX
8
milled_holes
10
151.161895
20
844.704897
70
0
0
VERTEX
8
milled_holes
10
150.785229
20
844.450941
70
0
0
VERTEX
8
milled_holes
10
150.531273
20
844.074275
70
0
0
VERTEX
8
milled_holes
10
150.438150
20
843.613020
70
0
0
VERTEX
8
milled_holes
10
150.531273
20
843.151765
70
0
0
VERTEX
8
milled_holes
10
150.785229
20
842.775099
70
0
0
VERTEX
8
milled_holes
10
151.161895
20
842.521143
70
0
0
VERTEX
8
milled_holes
10
151.623150
20
842.428020
70
0
0
VERTEX
8
milled_holes
10
152.084405
20
842.521143
70
0
0
VERTEX
8
milled_holes
10
152.461071
20
842.775099
70
0
0
VERTEX
8
milled_holes
10
152.715027
20
843.151765
70
0
0
VERTEX
8
milled_holes
10
152.808150
20
843.613020
70
0
0
VERTEX
8
milled_holes
10
152.717947
20
844.066500
70
0
0
VERTEX
8
milled_holes
10
152.461071
20
844.450941
70
0
0
VERTEX
8
milled_holes
10
152.076630
20
844.707817
70
0
0
VERTEX
8
milled_holes
10
151.623150
20
844.798020
70
0
0
VERTEX
8
milled_holes
10
151.623150
20
844.798020
70
0
0
SEQEND
8
milled_holes
0
POLYLINE
8
milled_holes
62
18
70
0
10
0.000000
20
0.000000
66
1
0
VERTEX
8
milled_holes
10
124.471570
20
837.693650
70
0
0
VERTEX
8
milled_holes
10
123.813219
20
837.493941
70
0
0
VERTEX
8
milled_holes
10
123.376773
20
836.962130
70
0
0
VERTEX
8
milled_holes
10
123.309340
20
836.277468
70
0
0
VERTEX
8
milled_holes
10
123.633649
20
835.670729
70
0
0
VERTEX
8
milled_holes
10
124.240388
20
835.346420
70
0
0
VERTEX
8
milled_holes
10
124.925050
20
835.413853
70
0
0
VERTEX
8
milled_holes
10
125.456861
20
835.850299
70
0
0
VERTEX
8
milled_holes
10
125.656570
20
836.508650
70
0
0
VERTEX
8
milled_holes
10
125.566367
20
836.962130
70
0
0
VERTEX
8
milled_holes
10
125.309491
20
837.346571
70
0
0
VERTEX
8
milled_holes
10
124.925050
20
837.603447
70
0
0
VERTEX
8
milled_holes
10
124.471570
20
837.693650
70
0
0
VERTEX
8
milled_holes
10
124.471570
20
837.693650
70
0
0
SEQEND
8
milled_holes
0
POLYLINE
8
milled_holes
62
18
70
0
10
0.000000
20
0.000000
66
1
0
VERTEX
8
milled_holes
10
123.808490
20
789.328600
70
0
0
VERTEX
8
milled_holes
10
123.150139
20
789.128891
70
0
0
VERTEX
8
milled_holes
10
122.713693
20
788.597080
70
0
0
VERTEX
8
milled_holes
10
122.646260
20
787.912418
70
0
0
VERTEX
8
milled_holes
10
122.970569
20
787.305679
70
0
0
VERTEX
8
milled_holes
10
123.577308
20
786.981370
70
0
0
VERTEX
8
milled_holes
10
124.261970
20
787.048803
70
0
0
VERTEX
8
milled_holes
10
124.793781
20
787.485249
70
0
0
VERTEX
8
milled_holes
10
124.993490
20
788.143600
70
0
0
VERTEX
8
milled_holes
10
124.903287
20
788.597080
70
0
0
VERTEX
8
milled_holes
10
124.646411
20
788.981521
70
0
0
VERTEX
8
milled_holes
10
124.261970
20
789.238397
70
0
0
VERTEX
8
milled_holes
10
123.808490
20
789.328600
70
0
0
VERTEX
8
milled_holes
10
123.808490
20
789.328600
70
0
0
SEQEND
8
milled_holes
0
POLYLINE
8
milled_holes
62
18
70
0
10
0.000000
20
0.000000
66
1
0
VERTEX
8
milled_holes
10
135.543840
20
789.443350
70
0
0
VERTEX
8
milled_holes
10
134.885489
20
789.243641
70
0
0
VERTEX
8
milled_holes
10
134.449043
20
788.711830
70
0
0
VERTEX
8
milled_holes
10
134.381610
20
788.027168
70
0
0
VERTEX
8
milled_holes
10
134.705919
20
787.420429
70
0
0
VERTEX
8
milled_holes
10
135.312658
20
787.096120
70
0
0
VERTEX
8
milled_holes
10
135.997320
20
787.163553
70
0
0
VERTEX
8
milled_holes
10
136.529131
20
787.599999
70
0
0
VERTEX
8
milled_holes
10
136.728840
20
788.258350
70
0
0
VERTEX
8
milled_holes
10
136.638637
20
788.711830
70
0
0
VERTEX
8
milled_holes
10
136.381761
20
789.096271
70
0
0
VERTEX
8
milled_holes
10
135.997320
20
789.353147
70
0
0
VERTEX
8
milled_holes
10
135.543840
20
789.443350
70
0
0
VERTEX
8
milled_holes
10
135.543840
20
789.443350
70
0
0
SEQEND
8
milled_holes
0
POLYLINE
8
milled_holes
62
18
70
0
10
0.000000
20
0.000000
66
1
0
VERTEX
8
milled_holes
10
130.947920
20
799.154530
70
0
0
VERTEX
8
milled_holes
10
130.289569
20
798.954821
70
0
0
VERTEX
8
milled_holes
10
129.853123
20
798.423010
70
0
0
VERTEX
8
milled_holes
10
129.785690
20
797.738348
70
0
0
VERTEX
8
milled_holes
10
130.109999
20
797.131609
70
0
0
VERTEX
8
milled_holes
10
130.716738
20
796.807300
70
0
0
VERTEX
8
milled_holes
10
131.401400
20
796.874733
70
0
0
VERTEX
8
milled_holes
10
131.933211
20
797.311179
70
0
0
VERTEX
8
milled_holes
10
132.132920
20
797.969530
70
0
0
VERTEX
8
milled_holes
10
132.042717
20
798.423010
70
0
0
VERTEX
8
milled_holes
10
131.785841
20
798.807451
70
0
0
VERTEX
8
milled_holes
10
131.401400
20
799.064327
70
0
0
VERTEX
8
milled_holes
10
130.947920
20
799.154530
70
0
0
VERTEX
8
milled_holes
10
130.947920
20
799.154530
70
0
0
SEQEND
8
milled_holes
0
POLYLINE
8
milled_holes
62
18
70
0
10
0.000000
20
0.000000
66
1
0
VERTEX
8
milled_holes
10
132.434070
20
838.212815
70
0
0
VERTEX
8
milled_holes
10
131.775719
20
838.013106
70
0
0
VERTEX
8
milled_holes
10
131.339273
20
837.481295
70
0
0
VERTEX
8
milled_holes
10
131.271840
20
836.796633
70
0
0
VERTEX
8
milled_holes
10
131.596149
20
836.189894
70
0
0
VERTEX
8
milled_holes
10
132.202888
20
835.865585
70
0
0
VERTEX
8
milled_holes
10
132.887550
20
835.933018
70
0
0
VERTEX
8
milled_holes
10
133.419361
20
836.369464
70
0
0
VERTEX
8
milled_holes
10
133.619070
20
837.027815
70
0
0
VERTEX
8
milled_holes
10
133.528867
20
837.481295
70
0
0
VERTEX
8
milled_holes
10
133.271991
20
837.865736
70
0
0
VERTEX
8
milled_holes
10
132.887550
20
838.122612
70
0
0
VERTEX
8
milled_holes
10
132.434070
20
838.212815
70
0
0
VERTEX
8
milled_holes
10
132.434070
20
838.212815
70
0
0
SEQEND
8
milled_holes
0
POLYLINE
8
milled_holes
62
18
70
0
10
0.000000
20
0.000000
66
1
0
VERTEX
8
milled_holes
10
178.395920
20
823.749192
70
0
0
VERTEX
8
milled_holes
10
177.737569
20
823.549483
70
0
0
VERTEX
8
milled_holes
10
177.301123
20
823.017672
70
0
0
VERTEX
8
milled_holes
10
177.233690
20
822.333010
70
0
0
VERTEX
8
milled_holes
10
177.557999
20
821.726271
70
0
0
VERTEX
8
milled_holes
10
178.164738
20
821.401962
70
0
0
VERTEX
8
milled_holes
10
178.849400
20
821.469395
70
0
0
VERTEX
8
milled_holes
10
179.381211
20
821.905841
70
0
0
VERTEX
8
milled_holes
10
179.580920
20
822.564192
70
0
0
VERTEX
8
milled_holes
10
179.490717
20
823.017672
70
0
0
VERTEX
8
milled_holes
10
179.233841
20
823.402113
70
0
0
VERTEX
8
milled_holes
10
178.849400
20
823.658989
70
0
0
VERTEX
8
milled_holes
10
178.395920
20
823.749192
70
0
0
VERTEX
8
milled_holes
10
178.395920
20
823.749192
70
0
0
SEQEND
8
milled_holes
0
POLYLINE
8
milled_holes
62
18
70
0
10
0.000000
20
0.000000
66
1
0
VERTEX
8
milled_holes
10
213.845810
20
844.855515
70
0
0
VERTEX
8
milled_holes
10
213.187459
20
844.655806
70
0
0
VERTEX
8
milled_holes
10
212.751013
20
844.123995
70
0
0
VERTEX
8
milled_holes
10
212.683580
20
843.439333
70
0
0
VERTEX
8
milled_holes
10
213.007889
20
842.832594
70
0
0
VERTEX
8
milled_holes
10
213.614628
20
842.508285
70
0
0
VERTEX
8
milled_holes
10
214.299290
20
842.575718
70
0
0
VERTEX
8
milled_holes
10
214.831101
20
843.012164
70
0
0
VERTEX
8
milled_holes
10
215.030810
20
843.670515
70
0
0
VERTEX
8
milled_holes
10
214.940607
20
844.123995
70
0
0
VERTEX
8
milled_holes
10
214.683731
20
844.508436
70
0
0
VERTEX
8
milled_holes
10
214.299290
20
844.765312
70
0
0
VERTEX
8
milled_holes
10
213.845810
20
844.855515
70
0
0
VERTEX
8
milled_holes
10
213.845810
20
844.855515
70
0
0
SEQEND
8
milled_holes
0
POLYLINE
8
milled_holes
62
18
70
0
10
0.000000
20
0.000000
66
1
0
VERTEX
8
milled_holes
10
212.308580
20
789.474840
70
0
0
VERTEX
8
milled_holes
10
211.650229
20
789.275131
70
0
0
VERTEX
8
milled_holes
10
211.213783
20
788.743320
70
0
0
VERTEX
8
milled_holes
10
211.146350
20
788.058658
70
0
0
VERTEX
8
milled_holes
10
211.470659
20
787.451919
70
0
0
VERTEX
8
milled_holes
10
212.077398
20
787.127610
70
0
0
VERTEX
8
milled_holes
10
212.762060
20
787.195043
70
0
0
VERTEX
8
milled_holes
10
213.293871
20
787.631489
70
0
0
VERTEX
8
milled_holes
10
213.493580
20
788.289840
70
0
0
VERTEX
8
milled_holes
10
213.403377
20
788.743320
70
0
0
VERTEX
8
milled_holes
10
213.146501
20
789.127761
70
0
0
VERTEX
8
milled_holes
10
212.762060
20
789.384637
70
0
0
VERTEX
8
milled_holes
10
212.308580
20
789.474840
70
0
0
VERTEX
8
milled_holes
10
212.308580
20
789.474840
70
0
0
SEQEND
8
milled_holes
0
POLYLINE
8
milled_holes
62
18
70
0
10
0.000000
20
0.000000
66
1
0
VERTEX
8
milled_holes
10
222.061630
20
838.270616
70
0
0
VERTEX
8
milled_holes
10
221.403279
20
838.070907
70
0
0
VERTEX
8
milled_holes
10
220.966833
20
837.539096
70
0
0
VERTEX
8
milled_holes
10
220.899400
20
836.854434
70
0
0
VERTEX
8
milled_holes
10
221.223709
20
836.247695
70
0
0
VERTEX
8
milled_holes
10
221.830448
20
835.923386
70
0
0
VERTEX
8
milled_holes
10
222.515110
20
835.990819
70
0
0
VERTEX
8
milled_holes
10
223.046921
20
836.427265
70
0
0
VERTEX
8
milled_holes
10
223.246630
20
837.085616
70
0
0
VERTEX
8
milled_holes
10
223.156427
20
837.539096
70
0
0
VERTEX
8
milled_holes
10
222.899551
20
837.923537
70
0
0
VERTEX
8
milled_holes
10
222.515110
20
838.180413
70
0
0
VERTEX
8
milled_holes
10
222.061630
20
838.270616
70
0
0
VERTEX
8
milled_holes
10
222.061630
20
838.270616
70
0
0
SEQEND
8
milled_holes
0
POLYLINE
8
milled_holes
62
18
70
0
10
0.000000
20
0.000000
66
1
0
VERTEX
8
milled_holes
10
210.288560
20
821.048631
70
0
0
VERTEX
8
milled_holes
10
209.630209
20
820.848922
70
0
0
VERTEX
8
milled_holes
10
209.193763
20
820.317111
70
0
0
VERTEX
8
milled_holes
10
209.126330
20
819.632449
70
0
0
VERTEX
8
milled_holes
10
209.450639
20
819.025710
70
0
0
VERTEX
8
milled_holes
10
210.057378
20
818.701401
70
0
0
VERTEX
8
milled_holes
10
210.742040
20
818.768834
70
0
0
VERTEX
8
milled_holes
10
211.273851
20
819.205280
70
0
0
VERTEX
8
milled_holes
10
211.473560
20
819.863631
70
0
0
VERTEX
8
milled_holes
10
211.383357
20
820.317111
70
0
0
VERTEX
8
milled_holes
10
211.126481
20
820.701552
70
0
0
VERTEX
8
milled_holes
10
210.742040
20
820.958428
70
0
0
VERTEX
8
milled_holes
10
210.288560
20
821.048631
70
0
0
VERTEX
8
milled_holes
10
210.288560
20
821.048631
70
0
0
SEQEND
8
milled_holes
0
POLYLINE
8
milled_holes
62
18
70
0
10
0.000000
20
0.000000
66
1
0
VERTEX
8
milled_holes
10
213.942060
20
826.055955
70
0
0
VERTEX
8
milled_holes
10
213.283709
20
825.856246
70
0
0
VERTEX
8
milled_holes
10
212.847263
20
825.324435
70
0
0
VERTEX
8
milled_holes
10
212.779830
20
824.639773
70
0
0
VERTEX
8
milled_holes
10
213.104139
20
824.033034
70
0
0
VERTEX
8
milled_holes
10
213.710878
20
823.708725
70
0
0
VERTEX
8
milled_holes
10
214.395540
20
823.776158
70
0
0
VERTEX
8
milled_holes
10
214.927351
20
824.212604
70
0
0
VERTEX
8
milled_holes
10
215.127060
20
824.870955
70
0
0
VERTEX
8
milled_holes
10
215.036857
20
825.324435
70
0
0
VERTEX
8
milled_holes
10
214.779981
20
825.708876
70
0
0
VERTEX
8
milled_holes
10
214.395540
20
825.965752
70
0
0
VERTEX
8
milled_holes
10
213.942060
20
826.055955
70
0
0
VERTEX
8
milled_holes
10
213.942060
20
826.055955
70
0
0
SEQEND
8
milled_holes
0
POLYLINE
8
milled_holes
62
18
70
0
10
0.000000
20
0.000000
66
1
0
VERTEX
8
milled_holes
10
29.995861
20
820.905564
70
0
0
VERTEX
8
milled_holes
10
29.534606
20
820.812441
70
0
0
VERTEX
8
milled_holes
10
29.157940
20
820.558485
70
0
0
VERTEX
8
milled_holes
10
28.903984
20
820.181819
70
0
0
VERTEX
8
milled_holes
10
28.810861
20
819.720564
70
0
0
VERTEX
8
milled_holes
10
28.903984
20
819.259309
70
0
0
VERTEX
8
milled_holes
10
29.157940
20
818.882643
70
0
0
VERTEX
8
milled_holes
10
29.534606
20
818.628687
70
0
0
VERTEX
8
milled_holes
10
29.995861
20
818.535564
70
0
0
VERTEX
8
milled_holes
10
30.457116
20
818.628687
70
0
0
VERTEX
8
milled_holes
10
30.833782
20
818.882643
70
0
0
VERTEX
8
milled_holes
10
31.087738
20
819.259309
70
0
0
VERTEX
8
milled_holes
10
31.180861
20
819.720564
70
0
0
VERTEX
8
milled_holes
10
31.090658
20
820.174044
70
0
0
VERTEX
8
milled_holes
10
30.833782
20
820.558485
70
0
0
VERTEX
8
milled_holes
10
30.449341
20
820.815361
70
0
0
VERTEX
8
milled_holes
10
29.995861
20
820.905564
70
0
0
VERTEX
8
milled_holes
10
29.995861
20
820.905564
70
0
0
SEQEND
8
milled_holes
0
POLYLINE
8
milled_holes
62
18
70
0
10
0.000000
20
0.000000
66
1
0
VERTEX
8
milled_holes
10
30.001995
20
813.051260
70
0
0
VERTEX
8
milled_holes
10
29.540740
20
812.958137
70
0
0
VERTEX
8
milled_holes
10
29.164074
20
812.704181
70
0
0
VERTEX
8
milled_holes
10
28.910118
20
812.327515
70
0
0
VERTEX
8
milled_holes
10
28.816995
20
811.866260
70
0
0
VERTEX
8
milled_holes
10
28.910118
20
811.405005
70
0
0
VERTEX
8
milled_holes
10
29.164074
20
811.028339
70
0
0
VERTEX
8
milled_holes
10
29.540740
20
810.774383
70
0
0
VERTEX
8
milled_holes
10
30.001995
20
810.681260
70
0
0
VERTEX
8
milled_holes
10
30.463250
20
810.774383
70
0
0
VERTEX
8
milled_holes
10
30.839916
20
811.028339
70
0
0
VERTEX
8
milled_holes
10
31.093872
20
811.405005
70
0
0
VERTEX
8
milled_holes
10
31.186995
20
811.866260
70
0
0
VERTEX
8
milled_holes
10
31.096792
20
812.319740
70
0
0
VERTEX
8
milled_holes
10
30.839916
20
812.704181
70
0
0
VERTEX
8
milled_holes
10
30.455475
20
812.961057
70
0
0
VERTEX
8
milled_holes
10
30.001995
20
813.051260
70
0
0
VERTEX
8
milled_holes
10
30.001995
20
813.051260
70
0
0
SEQEND
8
milled_holes
0
POLYLINE
8
milled_holes
62
18
70
0
10
0.000000
20
0.000000
66
1
0
VERTEX
8
milled_holes
10
40.397808
20
789.712510
70
0
0
VERTEX
8
milled_holes
10
39.739457
20
789.512801
70
0
0
VERTEX
8
milled_holes
10
39.303011
20
788.980990
70
0
0
VERTEX
8
milled_holes
10
39.235578
20
788.296328
70
0
0
VERTEX
8
milled_holes
10
39.559887
20
787.689589
70
0
0
VERTEX
8
milled_holes
10
40.166626
20
787.365280
70
0
0
VERTEX
8
milled_holes
10
40.851288
20
787.432713
70
0
0
VERTEX
8
milled_holes
10
41.383099
20
787.869159
70
0
0
VERTEX
8
milled_holes
10
41.582808
20
788.527510
70
0
0
VERTEX
8
milled_holes
10
41.492605
20
788.980990
70
0
0
VERTEX
8
milled_holes
10
41.235729
20
789.365431
70
0
0
VERTEX
8
milled_holes
10
40.851288
20
789.622307
70
0
0
VERTEX
8
milled_holes
10
40.397808
20
789.712510
70
0
0
VERTEX
8
milled_holes
10
40.397808
20
789.712510
70
0
0
SEQEND
8
milled_holes
0
POLYLINE
8
milled_holes
62
18
70
0
10
0.000000
20
0.000000
66
1
0
VERTEX
8
milled_holes
10
50.870129
20
813.051260
70
0
0
VERTEX
8
milled_holes
10
50.211778
20
812.851551
70
0
0
VERTEX
8
milled_holes
10
49.775332
20
812.319740
70
0
0
VERTEX
8
milled_holes
10
49.707899
20
811.635078
70
0
0
VERTEX
8
milled_holes
10
50.032208
20
811.028339
70
0
0
VERTEX
8
milled_holes
10
50.638947
20
810.704030
70
0
0
VERTEX
8
milled_holes
10
51.323609
20
810.771463
70
0
0
VERTEX
8
milled_holes
10
51.855420
20
811.207909
70
0
0
VERTEX
8
milled_holes
10
52.055129
20
811.866260
70
0
0
VERTEX
8
milled_holes
10
51.964926
20
812.319740
70
0
0
VERTEX
8
milled_holes
10
51.708050
20
812.704181
70
0
0
VERTEX
8
milled_holes
10
51.323609
20
812.961057
70
0
0
VERTEX
8
milled_holes
10
50.870129
20
813.051260
70
0
0
VERTEX
8
milled_holes
10
50.870129
20
813.051260
70
0
0
SEQEND
8
milled_holes
0
POLYLINE
8
milled_holes
62
18
70
0
10
0.000000
20
0.000000
66
1
0
VERTEX
8
milled_holes
10
50.960217
20
821.204698
70
0
0
VERTEX
8
milled_holes
10
50.301866
20
821.004989
70
0
0
VERTEX
8
milled_holes
10
49.865420
20
820.473178
70
0
0
VERTEX
8
milled_holes
10
49.797987
20
819.788516
70
0
0
VERTEX
8
milled_holes
10
50.122296
20
819.181777
70
0
0
VERTEX
8
milled_holes
10
50.729035
20
818.857468
70
0
0
VERTEX
8
milled_holes
10
51.413697
20
818.924901
70
0
0
VERTEX
8
milled_holes
10
51.945508
20
819.361347
70
0
0
VERTEX
8
milled_holes
10
52.145217
20
820.019698
70
0
0
VERTEX
8
milled_holes
10
52.055014
20
820.473178
70
0
0
VERTEX
8
milled_holes
10
51.798138
20
820.857619
70
0
0
VERTEX
8
milled_holes
10
51.413697
20
821.114495
70
0
0
VERTEX
8
milled_holes
10
50.960217
20
821.204698
70
0
0
VERTEX
8
milled_holes
10
50.960217
20
821.204698
70
0
0
SEQEND
8
milled_holes
0
POLYLINE
8
milled_holes
62
18
70
0
10
0.000000
20
0.000000
66
1
0
VERTEX
8
milled_holes
10
40.613049
20
844.300523
70
0
0
VERTEX
8
milled_holes
10
39.954698
20
844.100814
70
0
0
VERTEX
8
milled_holes
10
39.518252
20
843.569003
70
0
0
VERTEX
8
milled_holes
10
39.450819
20
842.884341
70
0
0
VERTEX
8
milled_holes
10
39.775128
20
842.277602
70
0
0
VERTEX
8
milled_holes
10
40.381867
20
841.953293
70
0
0
VERTEX
8
milled_holes
10
41.066529
20
842.020726
70
0
0
VERTEX
8
milled_holes
10
41.598340
20
842.457172
70
0
0
VERTEX
8
milled_holes
10
41.798049
20
843.115523
70
0
0
VERTEX
8
milled_holes
10
41.707846
20
843.569003
70
0
0
VERTEX
8
milled_holes
10
41.450970
20
843.953444
70
0
0
VERTEX
8
milled_holes
10
41.066529
20
844.210320
70
0
0
VERTEX
8
milled_holes
10
40.613049
20
844.300523
70
0
0
VERTEX
8
milled_holes
10
40.613049
20
844.300523
70
0
0
SEQEND
8
milled_holes
0
POLYLINE
8
milled_holes
62
18
70
0
10
0.000000
20
0.000000
66
1
0
VERTEX
8
milled_holes
10
61.007610
20
789.914170
70
0
0
VERTEX
8
milled_holes
10
60.349259
20
789.714461
70
0
0
VERTEX
8
milled_holes
10
59.912813
20
789.182650
70
0
0
VERTEX
8
milled_holes
10
59.845380
20
788.497988
70
0
0
VERTEX
8
milled_holes
10
60.169689
20
787.891249
70
0
0
VERTEX
8
milled_holes
10
60.776428
20
787.566940
70
0
0
VERTEX
8
milled_holes
10
61.461090
20
787.634373
70
0
0
VERTEX
8
milled_holes
10
61.992901
20
788.070819
70
0
0
VERTEX
8
milled_holes
10
62.192610
20
788.729170
70
0
0
VERTEX
8
milled_holes
10
62.102407
20
789.182650
70
0
0
VERTEX
8
milled_holes
10
61.845531
20
789.567091
70
0
0
VERTEX
8
milled_holes
10
61.461090
20
789.823967
70
0
0
VERTEX
8
milled_holes
10
61.007610
20
789.914170
70
0
0
VERTEX
8
milled_holes
10
61.007610
20
789.914170
70
0
0
SEQEND
8
milled_holes
0
POLYLINE
8
milled_holes
62
18
70
0
10
0.000000
20
0.000000
66
1
0
VERTEX
8
milled_holes
10
61.215984
20
844.389878
70
0
0
VERTEX
8
milled_holes
10
60.557633
20
844.190169
70
0
0
VERTEX
8
milled_holes
10
60.121187
20
843.658358
70
0
0
VERTEX
8
milled_holes
10
60.053754
20
842.973696
70
0
0
VERTEX
8
milled_holes
10
60.378063
20
842.366957
70
0
0
VERTEX
8
milled_holes
10
60.984802
20
842.042648
70
0
0
VERTEX
8
milled_holes
10
61.669464
20
842.110081
70
0
0
VERTEX
8
milled_holes
10
62.201275
20
842.546527
70
0
0
VERTEX
8
milled_holes
10
62.400984
20
843.204878
70
0
0
VERTEX
8
milled_holes
10
62.310781
20
843.658358
70
0
0
VERTEX
8
milled_holes
10
62.053905
20
844.042799
70
0
0
VERTEX
8
milled_holes
10
61.669464
20
844.299675
70
0
0
VERTEX
8
milled_holes
10
61.215984
20
844.389878
70
0
0
VERTEX
8
milled_holes
10
61.215984
20
844.389878
70
0
0
SEQEND
8
milled_holes
0
POLYLINE
8
milled_holes
62
18
70
0
10
0.000000
20
0.000000
66
1
0
VERTEX
8
milled_holes
10
17.328106
20
789.920950
70
0
0
VERTEX
8
milled_holes
10
16.669755
20
789.721241
70
0
0
VERTEX
8
milled_holes
10
16.233309
20
789.189430
70
0
0
VERTEX
8
milled_holes
10
16.165876
20
788.504768
70
0
0
VERTEX
8
milled_holes
10
16.490185
20
787.898029
70
0
0
VERTEX
8
milled_holes
10
17.096924
20
787.573720
70
0
0
VERTEX
8
milled_holes
10
17.781586
20
787.641153
70
0
0
VERTEX
8
milled_holes
10
18.313397
20
788.077599
70
0
0
VERTEX
8
milled_holes
10
18.513106
20
788.735950
70
0
0
VERTEX
8
milled_holes
10
18.422903
20
789.189430
70
0
0
VERTEX
8
milled_holes
10
18.166027
20
789.573871
70
0
0
VERTEX
8
milled_holes
10
17.781586
20
789.830747
70
0
0
VERTEX
8
milled_holes
10
17.328106
20
789.920950
70
0
0
VERTEX
8
milled_holes
10
17.328106
20
789.920950
70
0
0
SEQEND
8
milled_holes
0
POLYLINE
8
milled_holes
62
18
70
0
10
0.000000
20
0.000000
66
1
0
VERTEX
8
milled_holes
10
18.015911
20
845.058885
70
0
0
VERTEX
8
milled_holes
10
17.554656
20
844.965762
70
0
0
VERTEX
8
milled_holes
10
17.177990
20
844.711806
70
0
0
VERTEX
8
milled_holes
10
16.924034
20
844.335140
70
0
0
VERTEX
8
milled_holes
10
16.830911
20
843.873885
70
0
0
VERTEX
8
milled_holes
10
16.924034
20
843.412630
70
0
0
VERTEX
8
milled_holes
10
17.177990
20
843.035964
70
0
0
VERTEX
8
milled_holes
10
17.554656
20
842.782008
70
0
0
VERTEX
8
milled_holes
10
18.015911
20
842.688885
70
0
0
VERTEX
8
milled_holes
10
18.477166
20
842.782008
70
0
0
VERTEX
8
milled_holes
10
18.853832
20
843.035964
70
0
0
VERTEX
8
milled_holes
10
19.107788
20
843.412630
70
0
0
VERTEX
8
milled_holes
10
19.200911
20
843.873885
70
0
0
VERTEX
8
milled_holes
10
19.110708
20
844.327365
70
0
0
VERTEX
8
milled_holes
10
18.853832
20
844.711806
70
0
0
VERTEX
8
milled_holes
10
18.469391
20
844.968682
70
0
0
VERTEX
8
milled_holes
10
18.015911
20
845.058885
70
0
0
VERTEX
8
milled_holes
10
18.015911
20
845.058885
70
0
0
SEQEND
8
milled_holes
0
POLYLINE
8
milled_holes
62
18
70
0
10
0.000000
20
0.000000
66
1
0
VERTEX
8
milled_holes
10
71.388626
20
820.898789
70
0
0
VERTEX
8
milled_holes
10
70.730275
20
820.699080
70
0
0
VERTEX
8
milled_holes
10
70.293829
20
820.167269
70
0
0
VERTEX
8
milled_holes
10
70.226396
20
819.482607
70
0
0
VERTEX
8
milled_holes
10
70.550705
20
818.875868
70
0
0
VERTEX
8
milled_holes
10
71.157444
20
818.551559
70
0
0
VERTEX
8
milled_holes
10
71.842106
20
818.618992
70
0
0
VERTEX
8
milled_holes
10
72.373917
20
819.055438
70
0
0
VERTEX
8
milled_holes
10
72.573626
20
819.713789
70
0
0
VERTEX
8
milled_holes
10
72.483423
20
820.167269
70
0
0
VERTEX
8
milled_holes
10
72.226547
20
820.551710
70
0
0
VERTEX
8
milled_holes
10
71.842106
20
820.808586
70
0
0
VERTEX
8
milled_holes
10
71.388626
20
820.898789
70
0
0
VERTEX
8
milled_holes
10
71.388626
20
820.898789
70
0
0
SEQEND
8
milled_holes
0
POLYLINE
8
milled_holes
62
18
70
0
10
0.000000
20
0.000000
66
1
0
VERTEX
8
milled_holes
10
71.345932
20
813.037030
70
0
0
VERTEX
8
milled_holes
10
70.687581
20
812.837321
70
0
0
VERTEX
8
milled_holes
10
70.251135
20
812.305510
70
0
0
VERTEX
8
milled_holes
10
70.183702
20
811.620848
70
0
0
VERTEX
8
milled_holes
10
70.508011
20
811.014109
70
0
0
VERTEX
8
milled_holes
10
71.114750
20
810.689800
70
0
0
VERTEX
8
milled_holes
10
71.799412
20
810.757233
70
0
0
VERTEX
8
milled_holes
10
72.331223
20
811.193679
70
0
0
VERTEX
8
milled_holes
10
72.530932
20
811.852030
70
0
0
VERTEX
8
milled_holes
10
72.440729
20
812.305510
70
0
0
VERTEX
8
milled_holes
10
72.183853
20
812.689951
70
0
0
VERTEX
8
milled_holes
10
71.799412
20
812.946827
70
0
0
VERTEX
8
milled_holes
10
71.345932
20
813.037030
70
0
0
VERTEX
8
milled_holes
10
71.345932
20
813.037030
70
0
0
SEQEND
8
milled_holes
0
POLYLINE
8
milled_holes
62
18
70
0
10
0.000000
20
0.000000
66
1
0
VERTEX
8
milled_holes
10
77.892227
20
817.131638
70
0
0
VERTEX
8
milled_holes
10
77.233876
20
816.931929
70
0
0
VERTEX
8
milled_holes
10
76.797430
20
816.400118
70
0
0
VERTEX
8
milled_holes
10
76.729997
20
815.715456
70
0
0
VERTEX
8
milled_holes
10
77.054306
20
815.108717
70
0
0
VERTEX
8
milled_holes
10
77.661045
20
814.784408
70
0
0
VERTEX
8
milled_holes
10
78.345707
20
814.851841
70
0
0
VERTEX
8
milled_holes
10
78.877518
20
815.288287
70
0
0
VERTEX
8
milled_holes
10
79.077227
20
815.946638
70
0
0
VERTEX
8
milled_holes
10
78.987024
20
816.400118
70
0
0
VERTEX
8
milled_holes
10
78.730148
20
816.784559
70
0
0
VERTEX
8
milled_holes
10
78.345707
20
817.041435
70
0
0
VERTEX
8
milled_holes
10
77.892227
20
817.131638
70
0
0
VERTEX
8
milled_holes
10
77.892227
20
817.131638
70
0
0
SEQEND
8
milled_holes
0
POLYLINE
8
milled_holes
62
18
70
0
10
0.000000
20
0.000000
66
1
0
VERTEX
8
milled_holes
10
86.887375
20
843.778123
70
0
0
VERTEX
8
milled_holes
10
86.229024
20
843.578414
70
0
0
VERTEX
8
milled_holes
10
85.792578
20
843.046603
70
0
0
VERTEX
8
milled_holes
10
85.725145
20
842.361941
70
0
0
VERTEX
8
milled_holes
10
86.049454
20
841.755202
70
0
0
VERTEX
8
milled_holes
10
86.656193
20
841.430893
70
0
0
VERTEX
8
milled_holes
10
87.340855
20
841.498326
70
0
0
VERTEX
8
milled_holes
10
87.872666
20
841.934772
70
0
0
VERTEX
8
milled_holes
10
88.072375
20
842.593123
70
0
0
VERTEX
8
milled_holes
10
87.979252
20
843.054378
70
0
0
VERTEX
8
milled_holes
10
87.725296
20
843.431044
70
0
0
VERTEX
8
milled_holes
10
87.348630
20
843.685000
70
0
0
VERTEX
8
milled_holes
10
86.887375
20
843.778123
70
0
0
VERTEX
8
milled_holes
10
86.887375
20
843.778123
70
0
0
SEQEND
8
milled_holes
0
POLYLINE
8
milled_holes
62
18
70
0
10
0.000000
20
0.000000
66
1
0
VERTEX
8
milled_holes
10
110.609880
20
844.069871
70
0
0
VERTEX
8
milled_holes
10
109.951529
20
843.870162
70
0
0
VERTEX
8
milled_holes
10
109.515083
20
843.338351
70
0
0
VERTEX
8
milled_holes
10
109.447650
20
842.653689
70
0
0
VERTEX
8
milled_holes
10
109.771959
20
842.046950
70
0
0
VERTEX
8
milled_holes
10
110.378698
20
841.722641
70
0
0
VERTEX
8
milled_holes
10
111.063360
20
841.790074
70
0
0
VERTEX
8
milled_holes
10
111.595171
20
842.226520
70
0
0
VERTEX
8
milled_holes
10
111.794880
20
842.884871
70
0
0
VERTEX
8
milled_holes
10
111.704677
20
843.338351
70
0
0
VERTEX
8
milled_holes
10
111.447801
20
843.722792
70
0
0
VERTEX
8
milled_holes
10
111.063360
20
843.979668
70
0
0
VERTEX
8
milled_holes
10
110.609880
20
844.069871
70
0
0
VERTEX
8
milled_holes
10
110.609880
20
844.069871
70
0
0
SEQEND
8
milled_holes
0
POLYLINE
8
milled_holes
62
18
70
0
10
0.000000
20
0.000000
66
1
0
VERTEX
8
milled_holes
10
113.012070
20
839.718675
70
0
0
VERTEX
8
milled_holes
10
112.353719
20
839.518966
70
0
0
VERTEX
8
milled_holes
10
111.917273
20
838.987155
70
0
0
VERTEX
8
milled_holes
10
111.849840
20
838.302493
70
0
0
VERTEX
8
milled_holes
10
112.174149
20
837.695754
70
0
0
VERTEX
8
milled_holes
10
112.780888
20
837.371445
70
0
0
VERTEX
8
milled_holes
10
113.465550
20
837.438878
70
0
0
VERTEX
8
milled_holes
10
113.997361
20
837.875324
70
0
0
VERTEX
8
milled_holes
10
114.197070
20
838.533675
70
0
0
VERTEX
8
milled_holes
10
114.106867
20
838.987155
70
0
0
VERTEX
8
milled_holes
10
113.849991
20
839.371596
70
0
0
VERTEX
8
milled_holes
10
113.465550
20
839.628472
70
0
0
VERTEX
8
milled_holes
10
113.012070
20
839.718675
70
0
0
VERTEX
8
milled_holes
10
113.012070
20
839.718675
70
0
0
SEQEND
8
milled_holes
0
POLYLINE
8
milled_holes
62
18
70
0
10
0.000000
20
0.000000
66
1
0
VERTEX
8
milled_holes
10
100.848010
20
818.614305
70
0
0
VERTEX
8
milled_holes
10
100.189659
20
818.414596
70
0
0
VERTEX
8
milled_holes
10
99.753213
20
817.882785
70
0
0
VERTEX
8
milled_holes
10
99.685780
20
817.198123
70
0
0
VERTEX
8
milled_holes
10
100.010089
20
816.591384
70
0
0
VERTEX
8
milled_holes
10
100.616828
20
816.267075
70
0
0
VERTEX
8
milled_holes
10
101.301490
20
816.334508
70
0
0
VERTEX
8
milled_holes
10
101.833301
20
816.770954
70
0
0
VERTEX
8
milled_holes
10
102.033010
20
817.429305
70
0
0
VERTEX
8
milled_holes
10
101.939887
20
817.890560
70
0
0
VERTEX
8
milled_holes
10
101.685931
20
818.267226
70
0
0
VERTEX
8
milled_holes
10
101.309265
20
818.521182
70
0
0
VERTEX
8
milled_holes
10
100.848010
20
818.614305
70
0
0
VERTEX
8
milled_holes
10
100.848010
20
818.614305
70
0
0
SEQEND
8
milled_holes
0
POLYLINE
8
milled_holes
62
18
70
0
10
0.000000
20
0.000000
66
1
0
VERTEX
8
milled_holes
10
114.592330
20
821.367417
70
0
0
VERTEX
8
milled_holes
10
113.933979
20
821.167708
70
0
0
VERTEX
8
milled_holes
10
113.497533
20
820.635897
70
0
0
VERTEX
8
milled_holes
10
113.430100
20
819.951235
70
0
0
VERTEX
8
milled_holes
10
113.754409
20
819.344496
70
0
0
VERTEX
8
milled_holes
10
114.361148
20
819.020187
70
0
0
VERTEX
8
milled_holes
10
115.045810
20
819.087620
70
0
0
VERTEX
8
milled_holes
10
115.577621
20
819.524066
70
0
0
VERTEX
8
milled_holes
10
115.777330
20
820.182417
70
0
0
VERTEX
8
milled_holes
10
115.687127
20
820.635897
70
0
0
VERTEX
8
milled_holes
10
115.430251
20
821.020338
70
0
0
VERTEX
8
milled_holes
10
115.045810
20
821.277214
70
0
0
VERTEX
8
milled_holes
10
114.592330
20
821.367417
70
0
0
VERTEX
8
milled_holes
10
114.592330
20
821.367417
70
0
0
SEQEND
8
milled_holes
0
POLYLINE
8
milled_holes
62
18
70
0
10
0.000000
20
0.000000
66
1
0
VERTEX
8
milled_holes
10
86.852219
20
789.266530
70
0
0
VERTEX
8
milled_holes
10
86.193868
20
789.066821
70
0
0
VERTEX
8
milled_holes
10
85.757422
20
788.535010
70
0
0
VERTEX
8
milled_holes
10
85.689989
20
787.850348
70
0
0
VERTEX
8
milled_holes
10
86.014298
20
787.243609
70
0
0
VERTEX
8
milled_holes
10
86.621037
20
786.919300
70
0
0
VERTEX
8
milled_holes
10
87.305699
20
786.986733
70
0
0
VERTEX
8
milled_holes
10
87.837510
20
787.423179
70
0
0
VERTEX
8
milled_holes
10
88.037219
20
788.081530
70
0
0
VERTEX
8
milled_holes
10
87.947016
20
788.535010
70
0
0
VERTEX
8
milled_holes
10
87.690140
20
788.919451
70
0
0
VERTEX
8
milled_holes
10
87.305699
20
789.176327
70
0
0
VERTEX
8
milled_holes
10
86.852219
20
789.266530
70
0
0
VERTEX
8
milled_holes
10
86.852219
20
789.266530
70
0
0
SEQEND
8
milled_holes
0
POLYLINE
8
milled_holes
62
18
70
0
10
0.000000
20
0.000000
66
1
0
VERTEX
8
milled_holes
10
100.820300
20
789.482410
70
0
0
VERTEX
8
milled_holes
10
100.161949
20
789.282701
70
0
0
VERTEX
8
milled_holes
10
99.725503
20
788.750890
70
0
0
VERTEX
8
milled_holes
10
99.658070
20
788.066228
70
0
0
VERTEX
8
milled_holes
10
99.982379
20
787.459489
70
0
0
VERTEX
8
milled_holes
10
100.589118
20
787.135180
70
0
0
VERTEX
8
milled_holes
10
101.273780
20
787.202613
70
0
0
VERTEX
8
milled_holes
10
101.805591
20
787.639059
70
0
0
VERTEX
8
milled_holes
10
102.005300
20
788.297410
70
0
0
VERTEX
8
milled_holes
10
101.912177
20
788.758665
70
0
0
VERTEX
8
milled_holes
10
101.658221
20
789.135331
70
0
0
VERTEX
8
milled_holes
10
101.281555
20
789.389287
70
0
0
VERTEX
8
milled_holes
10
100.820300
20
789.482410
70
0
0
VERTEX
8
milled_holes
10
100.820300
20
789.482410
70
0
0
SEQEND
8
milled_holes
0
POLYLINE
8
milled_holes
62
18
70
0
10
0.000000
20
0.000000
66
1
0
VERTEX
8
milled_holes
10
115.017110
20
789.336230
70
0
0
VERTEX
8
milled_holes
10
114.358759
20
789.136521
70
0
0
VERTEX
8
milled_holes
10
113.922313
20
788.604710
70
0
0
VERTEX
8
milled_holes
10
113.854880
20
787.920048
70
0
0
VERTEX
8
milled_holes
10
114.179189
20
787.313309
70
0
0
VERTEX
8
milled_holes
10
114.785928
20
786.989000
70
0
0
VERTEX
8
milled_holes
10
115.470590
20
787.056433
70
0
0
VERTEX
8
milled_holes
10
116.002401
20
787.492879
70
0
0
VERTEX
8
milled_holes
10
116.202110
20
788.151230
70
0
0
VERTEX
8
milled_holes
10
116.111907
20
788.604710
70
0
0
VERTEX
8
milled_holes
10
115.855031
20
788.989151
70
0
0
VERTEX
8
milled_holes
10
115.470590
20
789.246027
70
0
0
VERTEX
8
milled_holes
10
115.017110
20
789.336230
70
0
0
VERTEX
8
milled_holes
10
115.017110
20
789.336230
70
0
0
SEQEND
8
milled_holes
0
POLYLINE
8
milled_holes
62
18
70
0
10
0.000000
20
0.000000
66
1
0
VERTEX
8
milled_holes
10
217.557600
20
789.503400
70
0
0
VERTEX
8
milled_holes
10
217.096345
20
789.410277
70
0
0
VERTEX
8
milled_holes
10
216.719679
20
789.156321
70
0
0
VERTEX
8
milled_holes
10
216.465723
20
788.779655
70
0
0
VERTEX
8
milled_holes
10
216.372600
20
788.318400
70
0
0
VERTEX
8
milled_holes
10
216.465723
20
787.857145
70
0
0
VERTEX
8
milled_holes
10
216.719679
20
787.480479
70
0
0
VERTEX
8
milled_holes
10
217.096345
20
787.226523
70
0
0
VERTEX
8
milled_holes
10
217.557600
20
787.133400
70
0
0
VERTEX
8
milled_holes
10
218.018855
20
787.226523
70
0
0
VERTEX
8
milled_holes
10
218.395521
20
787.480479
70
0
0
VERTEX
8
milled_holes
10
218.649477
20
787.857145
70
0
0
VERTEX
8
milled_holes
10
218.742600
20
788.318400
70
0
0
VERTEX
8
milled_holes
10
218.652397
20
788.771880
70
0
0
VERTEX
8
milled_holes
10
218.395521
20
789.156321
70
0
0
VERTEX
8
milled_holes
10
218.011080
20
789.413197
70
0
0
VERTEX
8
milled_holes
10
217.557600
20
789.503400
70
0
0
VERTEX
8
milled_holes
10
217.557600
20
789.503400
70
0
0
SEQEND
8
milled_holes
0
POLYLINE
8
milled_holes
62
18
70
0
10
0.000000
20
0.000000
66
1
0
VERTEX
8
milled_holes
10
202.314740
20
812.299060
70
0
0
VERTEX
8
milled_holes
10
201.656389
20
812.099351
70
0
0
VERTEX
8
milled_holes
10
201.219943
20
811.567540
70
0
0
VERTEX
8
milled_holes
10
201.152510
20
810.882878
70
0
0
VERTEX
8
milled_holes
10
201.476819
20
810.276139
70
0
0
VERTEX
8
milled_holes
10
202.083558
20
809.951830
70
0
0
VERTEX
8
milled_holes
10
202.768220
20
810.019263
70
0
0
VERTEX
8
milled_holes
10
203.300031
20
810.455709
70
0
0
VERTEX
8
milled_holes
10
203.499740
20
811.114060
70
0
0
VERTEX
8
milled_holes
10
203.409537
20
811.567540
70
0
0
VERTEX
8
milled_holes
10
203.152661
20
811.951981
70
0
0
VERTEX
8
milled_holes
10
202.768220
20
812.208857
70
0
0
VERTEX
8
milled_holes
10
202.314740
20
812.299060
70
0
0
VERTEX
8
milled_holes
10
202.314740
20
812.299060
70
0
0
SEQEND
8
milled_holes
0
POLYLINE
8
milled_holes
62
18
70
0
10
0.000000
20
0.000000
66
1
0
VERTEX
8
milled_holes
10
187.756520
20
832.683885
70
0
0
VERTEX
8
milled_holes
10
187.098169
20
832.484176
70
0
0
VERTEX
8
milled_holes
10
186.661723
20
831.952365
70
0
0
VERTEX
8
milled_holes
10
186.594290
20
831.267703
70
0
0
VERTEX
8
milled_holes
10
186.918599
20
830.660964
70
0
0
VERTEX
8
milled_holes
10
187.525338
20
830.336655
70
0
0
VERTEX
8
milled_holes
10
188.210000
20
830.404088
70
0
0
VERTEX
8
milled_holes
10
188.741811
20
830.840534
70
0
0
VERTEX
8
milled_holes
10
188.941520
20
831.498885
70
0
0
VERTEX
8
milled_holes
10
188.851317
20
831.952365
70
0
0
VERTEX
8
milled_holes
10
188.594441
20
832.336806
70
0
0
VERTEX
8
milled_holes
10
188.210000
20
832.593682
70
0
0
VERTEX
8
milled_holes
10
187.756520
20
832.683885
70
0
0
VERTEX
8
milled_holes
10
187.756520
20
832.683885
70
0
0
SEQEND
8
milled_holes
0
POLYLINE
8
milled_holes
62
18
70
0
10
0.000000
20
0.000000
66
1
0
VERTEX
8
milled_holes
10
197.189500
20
837.597520
70
0
0
VERTEX
8
milled_holes
10
196.531149
20
837.397811
70
0
0
VERTEX
8
milled_holes
10
196.094703
20
836.866000
70
0
0
VERTEX
8
milled_holes
10
196.027270
20
836.181338
70
0
0
VERTEX
8
milled_holes
10
196.351579
20
835.574599
70
0
0
VERTEX
8
milled_holes
10
196.958318
20
835.250290
70
0
0
VERTEX
8
milled_holes
10
197.642980
20
835.317723
70
0
0
VERTEX
8
milled_holes
10
198.174791
20
835.754169
70
0
0
VERTEX
8
milled_holes
10
198.374500
20
836.412520
70
0
0
VERTEX
8
milled_holes
10
198.284297
20
836.866000
70
0
0
VERTEX
8
milled_holes
10
198.027421
20
837.250441
70
0
0
VERTEX
8
milled_holes
10
197.642980
20
837.507317
70
0
0
VERTEX
8
milled_holes
10
197.189500
20
837.597520
70
0
0
VERTEX
8
milled_holes
10
197.189500
20
837.597520
70
0
0
SEQEND
8
milled_holes
0
POLYLINE
8
milled_holes
62
18
70
0
10
0.000000
20
0.000000
66
1
0
VERTEX
8
milled_holes
10
183.962570
20
844.679002
70
0
0
VERTEX
8
milled_holes
10
183.304219
20
844.479293
70
0
0
VERTEX
8
milled_holes
10
182.867773
20
843.947482
70
0
0
VERTEX
8
milled_holes
10
182.800340
20
843.262820
70
0
0
VERTEX
8
milled_holes
10
183.124649
20
842.656081
70
0
0
VERTEX
8
milled_holes
10
183.731388
20
842.331772
70
0
0
VERTEX
8
milled_holes
10
184.416050
20
842.399205
70
0
0
VERTEX
8
milled_holes
10
184.947861
20
842.835651
70
0
0
VERTEX
8
milled_holes
10
185.147570
20
843.494002
70
0
0
VERTEX
8
milled_holes
10
185.057367
20
843.947482
70
0
0
VERTEX
8
milled_holes
10
184.800491
20
844.331923
70
0
0
VERTEX
8
milled_holes
10
184.416050
20
844.588799
70
0
0
VERTEX
8
milled_holes
10
183.962570
20
844.679002
70
0
0
VERTEX
8
milled_holes
10
183.962570
20
844.679002
70
0
0
SEQEND
8
milled_holes
0
POLYLINE
8
milled_holes
62
18
70
0
10
0.000000
20
0.000000
66
1
0
VERTEX
8
milled_holes
10
159.988510
20
835.405076
70
0
0
VERTEX
8
milled_holes
10
159.330159
20
835.205367
70
0
0
VERTEX
8
milled_holes
10
158.893713
20
834.673556
70
0
0
VERTEX
8
milled_holes
10
158.826280
20
833.988894
70
0
0
VERTEX
8
milled_holes
10
159.150589
20
833.382155
70
0
0
VERTEX
8
milled_holes
10
159.757328
20
833.057846
70
0
0
VERTEX
8
milled_holes
10
160.441990
20
833.125279
70
0
0
VERTEX
8
milled_holes
10
160.973801
20
833.561725
70
0
0
VERTEX
8
milled_holes
10
161.173510
20
834.220076
70
0
0
VERTEX
8
milled_holes
10
161.083307
20
834.673556
70
0
0
VERTEX
8
milled_holes
10
160.826431
20
835.057997
70
0
0
VERTEX
8
milled_holes
10
160.441990
20
835.314873
70
0
0
VERTEX
8
milled_holes
10
159.988510
20
835.405076
70
0
0
VERTEX
8
milled_holes
10
159.988510
20
835.405076
70
0
0
SEQEND
8
milled_holes
0
POLYLINE
8
milled_holes
62
18
70
0
10
0.000000
20
0.000000
66
1
0
VERTEX
8
milled_holes
10
203.239730
20
825.025086
70
0
0
VERTEX
8
milled_holes
10
202.599929
20
824.929281
70
0
0
VERTEX
8
milled_holes
10
202.027496
20
824.657359
70
0
0
VERTEX
8
milled_holes
10
201.557212
20
824.232560
70
0
0
VERTEX
8
milled_holes
10
201.223859
20
823.678124
70
0
0
VERTEX
8
milled_holes
10
201.067530
20
823.050362
70
0
0
VERTEX
8
milled_holes
10
201.099692
20
822.417443
70
0
0
VERTEX
8
milled_holes
10
201.312186
20
821.820394
70
0
0
VERTEX
8
milled_holes
10
201.696849
20
821.300242
70
0
0
VERTEX
8
milled_holes
10
202.217001
20
820.915579
70
0
0
VERTEX
8
milled_holes
10
202.814050
20
820.703085
70
0
0
VERTEX
8
milled_holes
10
203.446969
20
820.670923
70
0
0
VERTEX
8
milled_holes
10
204.074731
20
820.827252
70
0
0
VERTEX
8
milled_holes
10
204.629167
20
821.160605
70
0
0
VERTEX
8
milled_holes
10
205.053966
20
821.630889
70
0
0
VERTEX
8
milled_holes
10
205.325888
20
822.203322
70
0
0
VERTEX
8
milled_holes
10
205.421693
20
822.843123
70
0
0
VERTEX
8
milled_holes
10
205.255601
20
823.678124
70
0
0
VERTEX
8
milled_holes
10
204.782611
20
824.386004
70
0
0
VERTEX
8
milled_holes
10
204.074731
20
824.858994
70
0
0
VERTEX
8
milled_holes
10
203.239730
20
825.025086
70
0
0
VERTEX
8
milled_holes
10
203.239730
20
825.025086
70
0
0
SEQEND
8
milled_holes
0
POLYLINE
8
milled_holes
62
18
70
0
10
0.000000
20
0.000000
66
1
0
VERTEX
8
milled_holes
10
153.798390
20
830.762940
70
0
0
VERTEX
8
milled_holes
10
153.158589
20
830.667135
70
0
0
VERTEX
8
milled_holes
10
152.586156
20
830.395213
70
0
0
VERTEX
8
milled_holes
10
152.115872
20
829.970414
70
0
0
VERTEX
8
milled_holes
10
151.782519
20
829.415978
70
0
0
VERTEX
8
milled_holes
10
151.626190
20
828.788216
70
0
0
VERTEX
8
milled_holes
10
151.658352
20
828.155297
70
0
0
VERTEX
8
milled_holes
10
151.870846
20
827.558248
70
0
0
VERTEX
8
milled_holes
10
152.255509
20
827.038096
70
0
0
VERTEX
8
milled_holes
10
152.775661
20
826.653433
70
0
0
VERTEX
8
milled_holes
10
153.372710
20
826.440939
70
0
0
VERTEX
8
milled_holes
10
154.005629
20
826.408777
70
0
0
VERTEX
8
milled_holes
10
154.633391
20
826.565106
70
0
0
VERTEX
8
milled_holes
10
155.187827
20
826.898459
70
0
0
VERTEX
8
milled_holes
10
155.612626
20
827.368743
70
0
0
VERTEX
8
milled_holes
10
155.884548
20
827.941176
70
0
0
VERTEX
8
milled_holes
10
155.980353
20
828.580977
70
0
0
VERTEX
8
milled_holes
10
155.814261
20
829.415978
70
0
0
VERTEX
8
milled_holes
10
155.341271
20
830.123858
70
0
0
VERTEX
8
milled_holes
10
154.633391
20
830.596848
70
0
0
VERTEX
8
milled_holes
10
153.798390
20
830.762940
70
0
0
VERTEX
8
milled_holes
10
153.798390
20
830.762940
70
0
0
SEQEND
8
milled_holes
0
POLYLINE
8
milled_holes
62
18
70
0
10
0.000000
20
0.000000
66
1
0
VERTEX
8
milled_holes
10
154.394550
20
797.808043
70
0
0
VERTEX
8
milled_holes
10
153.754749
20
797.712238
70
0
0
VERTEX
8
milled_holes
10
153.182316
20
797.440316
70
0
0
VERTEX
8
milled_holes
10
152.712032
20
797.015517
70
0
0
VERTEX
8
milled_holes
10
152.378679
20
796.461081
70
0
0
VERTEX
8
milled_holes
10
152.222350
20
795.833319
70
0
0
VERTEX
8
milled_holes
10
152.254512
20
795.200400
70
0
0
VERTEX
8
milled_holes
10
152.467006
20
794.603351
70
0
0
VERTEX
8
milled_holes
10
152.851669
20
794.083199
70
0
0
VERTEX
8
milled_holes
10
153.371821
20
793.698536
70
0
0
VERTEX
8
milled_holes
10
153.968870
20
793.486042
70
0
0
VERTEX
8
milled_holes
10
154.601789
20
793.453880
70
0
0
VERTEX
8
milled_holes
10
155.229551
20
793.610209
70
0
0
VERTEX
8
milled_holes
10
155.783987
20
793.943562
70
0
0
VERTEX
8
milled_holes
10
156.208786
20
794.413846
70
0
0
VERTEX
8
milled_holes
10
156.480708
20
794.986279
70
0
0
VERTEX
8
milled_holes
10
156.576513
20
795.626080
70
0
0
VERTEX
8
milled_holes
10
156.410421
20
796.461081
70
0
0
VERTEX
8
milled_holes
10
155.937431
20
797.168961
70
0
0
VERTEX
8
milled_holes
10
155.229551
20
797.641951
70
0
0
VERTEX
8
milled_holes
10
154.394550
20
797.808043
70
0
0
VERTEX
8
milled_holes
10
154.394550
20
797.808043
70
0
0
SEQEND
8
milled_holes
0
POLYLINE
8
milled_holes
62
18
70
0
10
0.000000
20
0.000000
66
1
0
VERTEX
8
milled_holes
10
201.297780
20
797.014343
70
0
0
VERTEX
8
milled_holes
10
200.448461
20
796.842874
70
0
0
VERTEX
8
milled_holes
10
199.754899
20
796.375261
70
0
0
VERTEX
8
milled_holes
10
199.287286
20
795.681699
70
0
0
VERTEX
8
milled_holes
10
199.115817
20
794.832380
70
0
0
VERTEX
8
milled_holes
10
199.287286
20
793.983061
70
0
0
VERTEX
8
milled_holes
10
199.754899
20
793.289499
70
0
0
VERTEX
8
milled_holes
10
200.448461
20
792.821886
70
0
0
VERTEX
8
milled_holes
10
201.297780
20
792.650417
70
0
0
VERTEX
8
milled_holes
10
202.147099
20
792.821886
70
0
0
VERTEX
8
milled_holes
10
202.840661
20
793.289499
70
0
0
VERTEX
8
milled_holes
10
203.308274
20
793.983061
70
0
0
VERTEX
8
milled_holes
10
203.479743
20
794.832380
70
0
0
VERTEX
8
milled_holes
10
203.313651
20
795.667381
70
0
0
VERTEX
8
milled_holes
10
202.840661
20
796.375261
70
0
0
VERTEX
8
milled_holes
10
202.132781
20
796.848251
70
0
0
VERTEX
8
milled_holes
10
201.297780
20
797.014343
70
0
0
VERTEX
8
milled_holes
10
201.297780
20
797.014343
70
0
0
SEQEND
8
milled_holes
0
POLYLINE
8
milled_holes
62
18
70
0
10
0.000000
20
0.000000
66
1
0
VERTEX
8
milled_holes
10
223.147600
20
844.970032
70
0
0
VERTEX
8
milled_holes
10
222.507799
20
844.874227
70
0
0
VERTEX
8
milled_holes
10
221.935366
20
844.602305
70
0
0
VERTEX
8
milled_holes
10
221.465082
20
844.177506
70
0
0
VERTEX
8
milled_holes
10
221.131729
20
843.623070
70
0
0
VERTEX
8
milled_holes
10
220.975400
20
842.995308
70
0
0
VERTEX
8
milled_holes
10
221.007562
20
842.362389
70
0
0
VERTEX
8
milled_holes
10
221.220056
20
841.765340
70
0
0
VERTEX
8
milled_holes
10
221.604719
20
841.245188
70
0
0
VERTEX
8
milled_holes
10
222.124871
20
840.860525
70
0
0
VERTEX
8
milled_holes
10
222.721920
20
840.648031
70
0
0
VERTEX
8
milled_holes
10
223.354839
20
840.615869
70
0
0
VERTEX
8
milled_holes
10
223.982601
20
840.772198
70
0
0
VERTEX
8
milled_holes
10
224.537037
20
841.105551
70
0
0
VERTEX
8
milled_holes
10
224.961836
20
841.575835
70
0
0
VERTEX
8
milled_holes
10
225.233758
20
842.148268
70
0
0
VERTEX
8
milled_holes
10
225.329563
20
842.788069
70
0
0
VERTEX
8
milled_holes
10
225.163471
20
843.623070
70
0
0
VERTEX
8
milled_holes
10
224.690481
20
844.330950
70
0
0
VERTEX
8
milled_holes
10
223.982601
20
844.803940
70
0
0
VERTEX
8
milled_holes
10
223.147600
20
844.970032
70
0
0
VERTEX
8
milled_holes
10
223.147600
20
844.970032
70
0
0
SEQEND
8
milled_holes
0
POLYLINE
8
milled_holes
62
18
70
0
10
0.000000
20
0.000000
66
1
0
VERTEX
8
milled_holes
10
223.412250
20
790.904343
70
0
0
VERTEX
8
milled_holes
10
222.772449
20
790.808538
70
0
0
VERTEX
8
milled_holes
10
222.200016
20
790.536616
70
0
0
VERTEX
8
milled_holes
10
221.729732
20
790.111817
70
0
0
VERTEX
8
milled_holes
10
221.396379
20
789.557381
70
0
0
VERTEX
8
milled_holes
10
221.240050
20
788.929619
70
0
0
VERTEX
8
milled_holes
10
221.272212
20
788.296700
70
0
0
VERTEX
8
milled_holes
10
221.484706
20
787.699651
70
0
0
VERTEX
8
milled_holes
10
221.869369
20
787.179499
70
0
0
VERTEX
8
milled_holes
10
222.389521
20
786.794836
70
0
0
VERTEX
8
milled_holes
10
222.986570
20
786.582342
70
0
0
VERTEX
8
milled_holes
10
223.619489
20
786.550180
70
0
0
VERTEX
8
milled_holes
10
224.247251
20
786.706509
70
0
0
VERTEX
8
milled_holes
10
224.801687
20
787.039862
70
0
0
VERTEX
8
milled_holes
10
225.226486
20
787.510146
70
0
0
VERTEX
8
milled_holes
10
225.498408
20
788.082579
70
0
0
VERTEX
8
milled_holes
10
225.594213
20
788.722380
70
0
0
VERTEX
8
milled_holes
10
225.428121
20
789.557381
70
0
0
VERTEX
8
milled_holes
10
224.955131
20
790.265261
70
0
0
VERTEX
8
milled_holes
10
224.247251
20
790.738251
70
0
0
VERTEX
8
milled_holes
10
223.412250
20
790.904343
70
0
0
VERTEX
8
milled_holes
10
223.412250
20
790.904343
70
0
0
SEQEND
8
milled_holes
0
POLYLINE
8
milled_holes
62
18
70
0
10
0.000000
20
0.000000
66
1
0
VERTEX
8
milled_holes
10
52.627068
20
845.235459
70
0
0
VERTEX
8
milled_holes
10
51.987267
20
845.139654
70
0
0
VERTEX
8
milled_holes
10
51.414834
20
844.867732
70
0
0
VERTEX
8
milled_holes
10
50.944550
20
844.442933
70
0
0
VERTEX
8
milled_holes
10
50.611197
20
843.888497
70
0
0
VERTEX
8
milled_holes
10
50.454868
20
843.260735
70
0
0
VERTEX
8
milled_holes
10
50.487030
20
842.627816
70
0
0
VERTEX
8
milled_holes
10
50.699524
20
842.030767
70
0
0
VERTEX
8
milled_holes
10
51.084187
20
841.510615
70
0
0
VERTEX
8
milled_holes
10
51.604339
20
841.125952
70
0
0
VERTEX
8
milled_holes
10
52.201388
20
840.913458
70
0
0
VERTEX
8
milled_holes
10
52.834307
20
840.881296
70
0
0
VERTEX
8
milled_holes
10
53.462069
20
841.037625
70
0
0
VERTEX
8
milled_holes
10
54.016505
20
841.370978
70
0
0
VERTEX
8
milled_holes
10
54.441304
20
841.841262
70
0
0
VERTEX
8
milled_holes
10
54.713226
20
842.413695
70
0
0
VERTEX
8
milled_holes
10
54.809031
20
843.053496
70
0
0
VERTEX
8
milled_holes
10
54.642939
20
843.888497
70
0
0
VERTEX
8
milled_holes
10
54.169949
20
844.596377
70
0
0
VERTEX
8
milled_holes
10
53.462069
20
845.069367
70
0
0
VERTEX
8
milled_holes
10
52.627068
20
845.235459
70
0
0
VERTEX
8
milled_holes
10
52.627068
20
845.235459
70
0
0
SEQEND
8
milled_holes
0
POLYLINE
8
milled_holes
62
18
70
0
10
0.000000
20
0.000000
66
1
0
VERTEX
8
milled_holes
10
52.627068
20
791.003333
70
0
0
VERTEX
8
milled_holes
10
51.987267
20
790.907528
70
0
0
VERTEX
8
milled_holes
10
51.414834
20
790.635606
70
0
0
VERTEX
8
milled_holes
10
50.944550
20
790.210807
70
0
0
VERTEX
8
milled_holes
10
50.611197
20
789.656371
70
0
0
VERTEX
8
milled_holes
10
50.454868
20
789.028609
70
0
0
VERTEX
8
milled_holes
10
50.487030
20
788.395690
70
0
0
VERTEX
8
milled_holes
10
50.699524
20
787.798641
70
0
0
VERTEX
8
milled_holes
10
51.084187
20
787.278489
70
0
0
VERTEX
8
milled_holes
10
51.604339
20
786.893826
70
0
0
VERTEX
8
milled_holes
10
52.201388
20
786.681332
70
0
0
VERTEX
8
milled_holes
10
52.834307
20
786.649170
70
0
0
VERTEX
8
milled_holes
10
53.462069
20
786.805499
70
0
0
VERTEX
8
milled_holes
10
54.016505
20
787.138852
70
0
0
VERTEX
8
milled_holes
10
54.441304
20
787.609136
70
0
0
VERTEX
8
milled_holes
10
54.713226
20
788.181569
70
0
0
VERTEX
8
milled_holes
10
54.809031
20
788.821370
70
0
0
VERTEX
8
milled_holes
10
54.642939
20
789.656371
70
0
0
VERTEX
8
milled_holes
10
54.169949
20
790.364251
70
0
0
VERTEX
8
milled_holes
10
53.462069
20
790.837241
70
0
0
VERTEX
8
milled_holes
10
52.627068
20
791.003333
70
0
0
VERTEX
8
milled_holes
10
52.627068
20
791.003333
70
0
0
SEQEND
8
milled_holes
0
POLYLINE
8
milled_holes
62
18
70
0
10
0.000000
20
0.000000
66
1
0
VERTEX
8
milled_holes
10
223.788620
20
796.180220
70
0
0
VERTEX
8
milled_holes
10
223.130269
20
795.980511
70
0
0
VERTEX
8
milled_holes
10
222.693823
20
795.448700
70
0
0
VERTEX
8
milled_holes
10
222.626390
20
794.764038
70
0
0
VERTEX
8
milled_holes
10
222.950699
20
794.157299
70
0
0
VERTEX
8
milled_holes
10
223.557438
20
793.832990
70
0
0
VERTEX
8
milled_holes
10
224.242100
20
793.900423
70
0
0
VERTEX
8
milled_holes
10
224.773911
20
794.336869
70
0
0
VERTEX
8
milled_holes
10
224.973620
20
794.995220
70
0
0
VERTEX
8
milled_holes
10
224.883417
20
795.448700
70
0
0
VERTEX
8
milled_holes
10
224.626541
20
795.833141
70
0
0
VERTEX
8
milled_holes
10
224.242100
20
796.090017
70
0
0
VERTEX
8
milled_holes
10
223.788620
20
796.180220
70
0
0
VERTEX
8
milled_holes
10
223.788620
20
796.180220
70
0
0
SEQEND
8
milled_holes
0
POLYLINE
8
cut_line
62
7
70
0
10
0.000000
20
0.000000
66
1
0
VERTEX
8
cut_line
10
229.054620
20
851.271216
70
0
0
VERTEX
8
cut_line
10
229.054620
20
780.242270
70
0
0
SEQEND
8
cut_line
 0 
ENDSEC
 0 
EOF