999
"DXF R12 Output" (www.mydxf.blogspot.com)
 0 
SECTION
 2 
HEADER
 9 
$ACADVER
 1 
AC1009
 9 
$EXTMIN
 10 
 0 
 20 
 0 
 9 
$EXTMAX
 10 
 8.5 
 20 
 11 
 0 
ENDSEC
 0 
SECTION
 2 
ENTITIES
0
POLYLINE
8
milled_holes
62
7
70
0
10
0.000000
20
0.000000
66
1
0
VERTEX
8
milled_holes
10
85.555534
20
832.673076
70
0
0
VERTEX
8
milled_holes
10
86.213885
20
832.872785
70
0
0
VERTEX
8
milled_holes
10
86.650331
20
833.404596
70
0
0
VERTEX
8
milled_holes
10
86.717764
20
834.089258
70
0
0
VERTEX
8
milled_holes
10
86.393455
20
834.695997
70
0
0
VERTEX
8
milled_holes
10
85.786716
20
835.020306
70
0
0
VERTEX
8
milled_holes
10
85.102054
20
834.952873
70
0
0
VERTEX
8
milled_holes
10
84.570243
20
834.516427
70
0
0
VERTEX
8
milled_holes
10
84.370534
20
833.858076
70
0
0
VERTEX
8
milled_holes
10
84.460737
20
833.404596
70
0
0
VERTEX
8
milled_holes
10
84.717613
20
833.020155
70
0
0
VERTEX
8
milled_holes
10
85.102054
20
832.763279
70
0
0
VERTEX
8
milled_holes
10
85.555534
20
832.673076
70
0
0
VERTEX
8
milled_holes
10
85.555534
20
832.673076
70
0
0
SEQEND
8
milled_holes
0
POLYLINE
8
milled_holes
62
7
70
0
10
0.000000
20
0.000000
66
1
0
VERTEX
8
milled_holes
10
85.555534
20
838.821514
70
0
0
VERTEX
8
milled_holes
10
86.213885
20
839.021223
70
0
0
VERTEX
8
milled_holes
10
86.650331
20
839.553034
70
0
0
VERTEX
8
milled_holes
10
86.717764
20
840.237696
70
0
0
VERTEX
8
milled_holes
10
86.393455
20
840.844435
70
0
0
VERTEX
8
milled_holes
10
85.786716
20
841.168744
70
0
0
VERTEX
8
milled_holes
10
85.102054
20
841.101311
70
0
0
VERTEX
8
milled_holes
10
84.570243
20
840.664865
70
0
0
VERTEX
8
milled_holes
10
84.370534
20
840.006514
70
0
0
VERTEX
8
milled_holes
10
84.460737
20
839.553034
70
0
0
VERTEX
8
milled_holes
10
84.717613
20
839.168593
70
0
0
VERTEX
8
milled_holes
10
85.102054
20
838.911717
70
0
0
VERTEX
8
milled_holes
10
85.555534
20
838.821514
70
0
0
VERTEX
8
milled_holes
10
85.555534
20
838.821514
70
0
0
SEQEND
8
milled_holes
0
POLYLINE
8
milled_holes
62
7
70
0
10
0.000000
20
0.000000
66
1
0
VERTEX
8
milled_holes
10
85.555534
20
845.226787
70
0
0
VERTEX
8
milled_holes
10
86.213885
20
845.426496
70
0
0
VERTEX
8
milled_holes
10
86.650331
20
845.958307
70
0
0
VERTEX
8
milled_holes
10
86.717764
20
846.642969
70
0
0
VERTEX
8
milled_holes
10
86.393455
20
847.249708
70
0
0
VERTEX
8
milled_holes
10
85.786716
20
847.574017
70
0
0
VERTEX
8
milled_holes
10
85.102054
20
847.506584
70
0
0
VERTEX
8
milled_holes
10
84.570243
20
847.070138
70
0
0
VERTEX
8
milled_holes
10
84.370534
20
846.411787
70
0
0
VERTEX
8
milled_holes
10
84.460737
20
845.958307
70
0
0
VERTEX
8
milled_holes
10
84.717613
20
845.573866
70
0
0
VERTEX
8
milled_holes
10
85.102054
20
845.316990
70
0
0
VERTEX
8
milled_holes
10
85.555534
20
845.226787
70
0
0
VERTEX
8
milled_holes
10
85.555534
20
845.226787
70
0
0
SEQEND
8
milled_holes
0
POLYLINE
8
milled_holes
62
7
70
0
10
0.000000
20
0.000000
66
1
0
VERTEX
8
milled_holes
10
71.240227
20
832.617473
70
0
0
VERTEX
8
milled_holes
10
71.898578
20
832.817182
70
0
0
VERTEX
8
milled_holes
10
72.335024
20
833.348993
70
0
0
VERTEX
8
milled_holes
10
72.402457
20
834.033655
70
0
0
VERTEX
8
milled_holes
10
72.078148
20
834.640394
70
0
0
VERTEX
8
milled_holes
10
71.471409
20
834.964703
70
0
0
VERTEX
8
milled_holes
10
70.786747
20
834.897270
70
0
0
VERTEX
8
milled_holes
10
70.254936
20
834.460824
70
0
0
VERTEX
8
milled_holes
10
70.055227
20
833.802473
70
0
0
VERTEX
8
milled_holes
10
70.148350
20
833.341218
70
0
0
VERTEX
8
milled_holes
10
70.402306
20
832.964552
70
0
0
VERTEX
8
milled_holes
10
70.778972
20
832.710596
70
0
0
VERTEX
8
milled_holes
10
71.240227
20
832.617473
70
0
0
VERTEX
8
milled_holes
10
71.240227
20
832.617473
70
0
0
SEQEND
8
milled_holes
0
POLYLINE
8
milled_holes
62
7
70
0
10
0.000000
20
0.000000
66
1
0
VERTEX
8
milled_holes
10
71.240227
20
838.932354
70
0
0
VERTEX
8
milled_holes
10
71.898578
20
839.132063
70
0
0
VERTEX
8
milled_holes
10
72.335024
20
839.663874
70
0
0
VERTEX
8
milled_holes
10
72.402457
20
840.348536
70
0
0
VERTEX
8
milled_holes
10
72.078148
20
840.955275
70
0
0
VERTEX
8
milled_holes
10
71.471409
20
841.279584
70
0
0
VERTEX
8
milled_holes
10
70.786747
20
841.212151
70
0
0
VERTEX
8
milled_holes
10
70.254936
20
840.775705
70
0
0
VERTEX
8
milled_holes
10
70.055227
20
840.117354
70
0
0
VERTEX
8
milled_holes
10
70.148350
20
839.656099
70
0
0
VERTEX
8
milled_holes
10
70.402306
20
839.279433
70
0
0
VERTEX
8
milled_holes
10
70.778972
20
839.025477
70
0
0
VERTEX
8
milled_holes
10
71.240227
20
838.932354
70
0
0
VERTEX
8
milled_holes
10
71.240227
20
838.932354
70
0
0
SEQEND
8
milled_holes
0
POLYLINE
8
milled_holes
62
7
70
0
10
0.000000
20
0.000000
66
1
0
VERTEX
8
milled_holes
10
71.240227
20
845.080669
70
0
0
VERTEX
8
milled_holes
10
71.898578
20
845.280378
70
0
0
VERTEX
8
milled_holes
10
72.335024
20
845.812189
70
0
0
VERTEX
8
milled_holes
10
72.402457
20
846.496851
70
0
0
VERTEX
8
milled_holes
10
72.078148
20
847.103590
70
0
0
VERTEX
8
milled_holes
10
71.471409
20
847.427899
70
0
0
VERTEX
8
milled_holes
10
70.786747
20
847.360466
70
0
0
VERTEX
8
milled_holes
10
70.254936
20
846.924020
70
0
0
VERTEX
8
milled_holes
10
70.055227
20
846.265669
70
0
0
VERTEX
8
milled_holes
10
70.148350
20
845.804414
70
0
0
VERTEX
8
milled_holes
10
70.402306
20
845.427748
70
0
0
VERTEX
8
milled_holes
10
70.778972
20
845.173792
70
0
0
VERTEX
8
milled_holes
10
71.240227
20
845.080669
70
0
0
VERTEX
8
milled_holes
10
71.240227
20
845.080669
70
0
0
SEQEND
8
milled_holes
0
POLYLINE
8
milled_holes
62
7
70
0
10
0.000000
20
0.000000
66
1
0
VERTEX
8
milled_holes
10
51.619072
20
833.236187
70
0
0
VERTEX
8
milled_holes
10
52.277423
20
833.435896
70
0
0
VERTEX
8
milled_holes
10
52.713869
20
833.967707
70
0
0
VERTEX
8
milled_holes
10
52.781302
20
834.652369
70
0
0
VERTEX
8
milled_holes
10
52.456993
20
835.259108
70
0
0
VERTEX
8
milled_holes
10
51.850254
20
835.583417
70
0
0
VERTEX
8
milled_holes
10
51.165592
20
835.515984
70
0
0
VERTEX
8
milled_holes
10
50.633781
20
835.079538
70
0
0
VERTEX
8
milled_holes
10
50.434072
20
834.421187
70
0
0
VERTEX
8
milled_holes
10
50.524275
20
833.967707
70
0
0
VERTEX
8
milled_holes
10
50.781151
20
833.583266
70
0
0
VERTEX
8
milled_holes
10
51.165592
20
833.326390
70
0
0
VERTEX
8
milled_holes
10
51.619072
20
833.236187
70
0
0
VERTEX
8
milled_holes
10
51.619072
20
833.236187
70
0
0
SEQEND
8
milled_holes
0
POLYLINE
8
milled_holes
62
7
70
0
10
0.000000
20
0.000000
66
1
0
VERTEX
8
milled_holes
10
51.619072
20
839.384624
70
0
0
VERTEX
8
milled_holes
10
52.277423
20
839.584333
70
0
0
VERTEX
8
milled_holes
10
52.713869
20
840.116144
70
0
0
VERTEX
8
milled_holes
10
52.781302
20
840.800806
70
0
0
VERTEX
8
milled_holes
10
52.456993
20
841.407545
70
0
0
VERTEX
8
milled_holes
10
51.850254
20
841.731854
70
0
0
VERTEX
8
milled_holes
10
51.165592
20
841.664421
70
0
0
VERTEX
8
milled_holes
10
50.633781
20
841.227975
70
0
0
VERTEX
8
milled_holes
10
50.434072
20
840.569624
70
0
0
VERTEX
8
milled_holes
10
50.524275
20
840.116144
70
0
0
VERTEX
8
milled_holes
10
50.781151
20
839.731703
70
0
0
VERTEX
8
milled_holes
10
51.165592
20
839.474827
70
0
0
VERTEX
8
milled_holes
10
51.619072
20
839.384624
70
0
0
VERTEX
8
milled_holes
10
51.619072
20
839.384624
70
0
0
SEQEND
8
milled_holes
0
POLYLINE
8
milled_holes
62
7
70
0
10
0.000000
20
0.000000
66
1
0
VERTEX
8
milled_holes
10
51.619072
20
845.921201
70
0
0
VERTEX
8
milled_holes
10
52.277423
20
846.098791
70
0
0
VERTEX
8
milled_holes
10
52.713869
20
846.571703
70
0
0
VERTEX
8
milled_holes
10
52.781302
20
847.180537
70
0
0
VERTEX
8
milled_holes
10
52.456993
20
847.720078
70
0
0
VERTEX
8
milled_holes
10
51.850254
20
848.008469
70
0
0
VERTEX
8
milled_holes
10
51.165592
20
847.948505
70
0
0
VERTEX
8
milled_holes
10
50.633781
20
847.560396
70
0
0
VERTEX
8
milled_holes
10
50.434072
20
846.974959
70
0
0
VERTEX
8
milled_holes
10
50.524275
20
846.571703
70
0
0
VERTEX
8
milled_holes
10
50.781151
20
846.229840
70
0
0
VERTEX
8
milled_holes
10
51.165592
20
846.001413
70
0
0
VERTEX
8
milled_holes
10
51.619072
20
845.921201
70
0
0
VERTEX
8
milled_holes
10
51.619072
20
845.921201
70
0
0
SEQEND
8
milled_holes
0
POLYLINE
8
milled_holes
62
7
70
0
10
0.000000
20
0.000000
66
1
0
VERTEX
8
milled_holes
10
37.450020
20
833.180645
70
0
0
VERTEX
8
milled_holes
10
37.911275
20
833.273768
70
0
0
VERTEX
8
milled_holes
10
38.287941
20
833.527724
70
0
0
VERTEX
8
milled_holes
10
38.541897
20
833.904390
70
0
0
VERTEX
8
milled_holes
10
38.635020
20
834.365645
70
0
0
VERTEX
8
milled_holes
10
38.541897
20
834.826900
70
0
0
VERTEX
8
milled_holes
10
38.287941
20
835.203566
70
0
0
VERTEX
8
milled_holes
10
37.911275
20
835.457522
70
0
0
VERTEX
8
milled_holes
10
37.450020
20
835.550645
70
0
0
VERTEX
8
milled_holes
10
36.988765
20
835.457522
70
0
0
VERTEX
8
milled_holes
10
36.612099
20
835.203566
70
0
0
VERTEX
8
milled_holes
10
36.358143
20
834.826900
70
0
0
VERTEX
8
milled_holes
10
36.265020
20
834.365645
70
0
0
VERTEX
8
milled_holes
10
36.355223
20
833.912165
70
0
0
VERTEX
8
milled_holes
10
36.612099
20
833.527724
70
0
0
VERTEX
8
milled_holes
10
36.996540
20
833.270848
70
0
0
VERTEX
8
milled_holes
10
37.450020
20
833.180645
70
0
0
VERTEX
8
milled_holes
10
37.450020
20
833.180645
70
0
0
SEQEND
8
milled_holes
0
POLYLINE
8
milled_holes
62
7
70
0
10
0.000000
20
0.000000
66
1
0
VERTEX
8
milled_holes
10
37.450020
20
839.495525
70
0
0
VERTEX
8
milled_holes
10
37.911275
20
839.588648
70
0
0
VERTEX
8
milled_holes
10
38.287941
20
839.842604
70
0
0
VERTEX
8
milled_holes
10
38.541897
20
840.219270
70
0
0
VERTEX
8
milled_holes
10
38.635020
20
840.680525
70
0
0
VERTEX
8
milled_holes
10
38.541897
20
841.141780
70
0
0
VERTEX
8
milled_holes
10
38.287941
20
841.518446
70
0
0
VERTEX
8
milled_holes
10
37.911275
20
841.772402
70
0
0
VERTEX
8
milled_holes
10
37.450020
20
841.865525
70
0
0
VERTEX
8
milled_holes
10
36.988765
20
841.772402
70
0
0
VERTEX
8
milled_holes
10
36.612099
20
841.518446
70
0
0
VERTEX
8
milled_holes
10
36.358143
20
841.141780
70
0
0
VERTEX
8
milled_holes
10
36.265020
20
840.680525
70
0
0
VERTEX
8
milled_holes
10
36.355223
20
840.227045
70
0
0
VERTEX
8
milled_holes
10
36.612099
20
839.842604
70
0
0
VERTEX
8
milled_holes
10
36.996540
20
839.585728
70
0
0
VERTEX
8
milled_holes
10
37.450020
20
839.495525
70
0
0
VERTEX
8
milled_holes
10
37.450020
20
839.495525
70
0
0
SEQEND
8
milled_holes
0
POLYLINE
8
milled_holes
62
7
70
0
10
0.000000
20
0.000000
66
1
0
VERTEX
8
milled_holes
10
37.450020
20
845.643841
70
0
0
VERTEX
8
milled_holes
10
37.911275
20
845.736964
70
0
0
VERTEX
8
milled_holes
10
38.287941
20
845.990920
70
0
0
VERTEX
8
milled_holes
10
38.541897
20
846.367586
70
0
0
VERTEX
8
milled_holes
10
38.635020
20
846.828841
70
0
0
VERTEX
8
milled_holes
10
38.541897
20
847.290096
70
0
0
VERTEX
8
milled_holes
10
38.287941
20
847.666762
70
0
0
VERTEX
8
milled_holes
10
37.911275
20
847.920718
70
0
0
VERTEX
8
milled_holes
10
37.450020
20
848.013841
70
0
0
VERTEX
8
milled_holes
10
36.988765
20
847.920718
70
0
0
VERTEX
8
milled_holes
10
36.612099
20
847.666762
70
0
0
VERTEX
8
milled_holes
10
36.358143
20
847.290096
70
0
0
VERTEX
8
milled_holes
10
36.265020
20
846.828841
70
0
0
VERTEX
8
milled_holes
10
36.355223
20
846.375361
70
0
0
VERTEX
8
milled_holes
10
36.612099
20
845.990920
70
0
0
VERTEX
8
milled_holes
10
36.996540
20
845.734044
70
0
0
VERTEX
8
milled_holes
10
37.450020
20
845.643841
70
0
0
VERTEX
8
milled_holes
10
37.450020
20
845.643841
70
0
0
SEQEND
8
milled_holes
0
POLYLINE
8
milled_holes
62
7
70
0
10
0.000000
20
0.000000
66
1
0
VERTEX
8
milled_holes
10
37.450020
20
854.904217
70
0
0
VERTEX
8
milled_holes
10
37.911275
20
854.997340
70
0
0
VERTEX
8
milled_holes
10
38.287941
20
855.251296
70
0
0
VERTEX
8
milled_holes
10
38.541897
20
855.627962
70
0
0
VERTEX
8
milled_holes
10
38.635020
20
856.089217
70
0
0
VERTEX
8
milled_holes
10
38.541897
20
856.550472
70
0
0
VERTEX
8
milled_holes
10
38.287941
20
856.927138
70
0
0
VERTEX
8
milled_holes
10
37.911275
20
857.181094
70
0
0
VERTEX
8
milled_holes
10
37.450020
20
857.274217
70
0
0
VERTEX
8
milled_holes
10
36.988765
20
857.181094
70
0
0
VERTEX
8
milled_holes
10
36.612099
20
856.927138
70
0
0
VERTEX
8
milled_holes
10
36.358143
20
856.550472
70
0
0
VERTEX
8
milled_holes
10
36.265020
20
856.089217
70
0
0
VERTEX
8
milled_holes
10
36.355223
20
855.635737
70
0
0
VERTEX
8
milled_holes
10
36.612099
20
855.251296
70
0
0
VERTEX
8
milled_holes
10
36.996540
20
854.994420
70
0
0
VERTEX
8
milled_holes
10
37.450020
20
854.904217
70
0
0
VERTEX
8
milled_holes
10
37.450020
20
854.904217
70
0
0
SEQEND
8
milled_holes
0
POLYLINE
8
milled_holes
62
7
70
0
10
0.000000
20
0.000000
66
1
0
VERTEX
8
milled_holes
10
51.619072
20
854.813579
70
0
0
VERTEX
8
milled_holes
10
52.277423
20
855.013288
70
0
0
VERTEX
8
milled_holes
10
52.713869
20
855.545099
70
0
0
VERTEX
8
milled_holes
10
52.781302
20
856.229761
70
0
0
VERTEX
8
milled_holes
10
52.456993
20
856.836500
70
0
0
VERTEX
8
milled_holes
10
51.850254
20
857.160809
70
0
0
VERTEX
8
milled_holes
10
51.165592
20
857.093376
70
0
0
VERTEX
8
milled_holes
10
50.633781
20
856.656930
70
0
0
VERTEX
8
milled_holes
10
50.434072
20
855.998579
70
0
0
VERTEX
8
milled_holes
10
50.524275
20
855.545099
70
0
0
VERTEX
8
milled_holes
10
50.781151
20
855.160658
70
0
0
VERTEX
8
milled_holes
10
51.165592
20
854.903782
70
0
0
VERTEX
8
milled_holes
10
51.619072
20
854.813579
70
0
0
VERTEX
8
milled_holes
10
51.619072
20
854.813579
70
0
0
SEQEND
8
milled_holes
0
POLYLINE
8
milled_holes
62
7
70
0
10
0.000000
20
0.000000
66
1
0
VERTEX
8
milled_holes
10
71.240227
20
854.341106
70
0
0
VERTEX
8
milled_holes
10
71.898578
20
854.540815
70
0
0
VERTEX
8
milled_holes
10
72.335024
20
855.072626
70
0
0
VERTEX
8
milled_holes
10
72.402457
20
855.757288
70
0
0
VERTEX
8
milled_holes
10
72.078148
20
856.364027
70
0
0
VERTEX
8
milled_holes
10
71.471409
20
856.688336
70
0
0
VERTEX
8
milled_holes
10
70.786747
20
856.620903
70
0
0
VERTEX
8
milled_holes
10
70.254936
20
856.184457
70
0
0
VERTEX
8
milled_holes
10
70.055227
20
855.526106
70
0
0
VERTEX
8
milled_holes
10
70.148350
20
855.064851
70
0
0
VERTEX
8
milled_holes
10
70.402306
20
854.688185
70
0
0
VERTEX
8
milled_holes
10
70.778972
20
854.434229
70
0
0
VERTEX
8
milled_holes
10
71.240227
20
854.341106
70
0
0
VERTEX
8
milled_holes
10
71.240227
20
854.341106
70
0
0
SEQEND
8
milled_holes
0
POLYLINE
8
milled_holes
62
7
70
0
10
0.000000
20
0.000000
66
1
0
VERTEX
8
milled_holes
10
85.555534
20
854.250408
70
0
0
VERTEX
8
milled_holes
10
86.213885
20
854.450117
70
0
0
VERTEX
8
milled_holes
10
86.650331
20
854.981928
70
0
0
VERTEX
8
milled_holes
10
86.717764
20
855.666590
70
0
0
VERTEX
8
milled_holes
10
86.393455
20
856.273329
70
0
0
VERTEX
8
milled_holes
10
85.786716
20
856.597638
70
0
0
VERTEX
8
milled_holes
10
85.102054
20
856.530205
70
0
0
VERTEX
8
milled_holes
10
84.570243
20
856.093759
70
0
0
VERTEX
8
milled_holes
10
84.370534
20
855.435408
70
0
0
VERTEX
8
milled_holes
10
84.460737
20
854.981928
70
0
0
VERTEX
8
milled_holes
10
84.717613
20
854.597487
70
0
0
VERTEX
8
milled_holes
10
85.102054
20
854.340611
70
0
0
VERTEX
8
milled_holes
10
85.555534
20
854.250408
70
0
0
VERTEX
8
milled_holes
10
85.555534
20
854.250408
70
0
0
SEQEND
8
milled_holes
0
POLYLINE
8
milled_holes
62
7
70
0
10
0.000000
20
0.000000
66
1
0
VERTEX
8
milled_holes
10
85.451408
20
866.915813
70
0
0
VERTEX
8
milled_holes
10
86.109759
20
867.115522
70
0
0
VERTEX
8
milled_holes
10
86.546205
20
867.647333
70
0
0
VERTEX
8
milled_holes
10
86.613638
20
868.331995
70
0
0
VERTEX
8
milled_holes
10
86.289329
20
868.938734
70
0
0
VERTEX
8
milled_holes
10
85.682590
20
869.263043
70
0
0
VERTEX
8
milled_holes
10
84.997928
20
869.195610
70
0
0
VERTEX
8
milled_holes
10
84.466117
20
868.759164
70
0
0
VERTEX
8
milled_holes
10
84.266408
20
868.100813
70
0
0
VERTEX
8
milled_holes
10
84.356611
20
867.647333
70
0
0
VERTEX
8
milled_holes
10
84.613487
20
867.262892
70
0
0
VERTEX
8
milled_holes
10
84.997928
20
867.006016
70
0
0
VERTEX
8
milled_holes
10
85.451408
20
866.915813
70
0
0
VERTEX
8
milled_holes
10
85.451408
20
866.915813
70
0
0
SEQEND
8
milled_holes
0
POLYLINE
8
milled_holes
62
7
70
0
10
0.000000
20
0.000000
66
1
0
VERTEX
8
milled_holes
10
71.456169
20
866.852886
70
0
0
VERTEX
8
milled_holes
10
72.114520
20
867.052595
70
0
0
VERTEX
8
milled_holes
10
72.550966
20
867.584406
70
0
0
VERTEX
8
milled_holes
10
72.618399
20
868.269068
70
0
0
VERTEX
8
milled_holes
10
72.294090
20
868.875807
70
0
0
VERTEX
8
milled_holes
10
71.687351
20
869.200116
70
0
0
VERTEX
8
milled_holes
10
71.002689
20
869.132683
70
0
0
VERTEX
8
milled_holes
10
70.470878
20
868.696237
70
0
0
VERTEX
8
milled_holes
10
70.271169
20
868.037886
70
0
0
VERTEX
8
milled_holes
10
70.364292
20
867.576631
70
0
0
VERTEX
8
milled_holes
10
70.618248
20
867.199965
70
0
0
VERTEX
8
milled_holes
10
70.994914
20
866.946009
70
0
0
VERTEX
8
milled_holes
10
71.456169
20
866.852886
70
0
0
VERTEX
8
milled_holes
10
71.456169
20
866.852886
70
0
0
SEQEND
8
milled_holes
0
POLYLINE
8
milled_holes
62
7
70
0
10
0.000000
20
0.000000
66
1
0
VERTEX
8
milled_holes
10
43.309151
20
836.642422
70
0
0
VERTEX
8
milled_holes
10
43.948952
20
836.738227
70
0
0
VERTEX
8
milled_holes
10
44.521385
20
837.010149
70
0
0
VERTEX
8
milled_holes
10
44.991669
20
837.434948
70
0
0
VERTEX
8
milled_holes
10
45.325022
20
837.989384
70
0
0
VERTEX
8
milled_holes
10
45.481351
20
838.617146
70
0
0
VERTEX
8
milled_holes
10
45.449189
20
839.250065
70
0
0
VERTEX
8
milled_holes
10
45.236695
20
839.847114
70
0
0
VERTEX
8
milled_holes
10
44.852032
20
840.367266
70
0
0
VERTEX
8
milled_holes
10
44.331880
20
840.751929
70
0
0
VERTEX
8
milled_holes
10
43.734831
20
840.964423
70
0
0
VERTEX
8
milled_holes
10
43.101912
20
840.996585
70
0
0
VERTEX
8
milled_holes
10
42.474150
20
840.840256
70
0
0
VERTEX
8
milled_holes
10
41.919714
20
840.506903
70
0
0
VERTEX
8
milled_holes
10
41.494915
20
840.036619
70
0
0
VERTEX
8
milled_holes
10
41.222993
20
839.464186
70
0
0
VERTEX
8
milled_holes
10
41.127188
20
838.824385
70
0
0
VERTEX
8
milled_holes
10
41.293280
20
837.989384
70
0
0
VERTEX
8
milled_holes
10
41.766270
20
837.281504
70
0
0
VERTEX
8
milled_holes
10
42.474150
20
836.808514
70
0
0
VERTEX
8
milled_holes
10
43.309151
20
836.642422
70
0
0
VERTEX
8
milled_holes
10
43.309151
20
836.642422
70
0
0
SEQEND
8
milled_holes
0
POLYLINE
8
milled_holes
62
7
70
0
10
0.000000
20
0.000000
66
1
0
VERTEX
8
milled_holes
10
45.278145
20
864.386746
70
0
0
VERTEX
8
milled_holes
10
45.917946
20
864.482551
70
0
0
VERTEX
8
milled_holes
10
46.490379
20
864.754473
70
0
0
VERTEX
8
milled_holes
10
46.960663
20
865.179272
70
0
0
VERTEX
8
milled_holes
10
47.294016
20
865.733708
70
0
0
VERTEX
8
milled_holes
10
47.450345
20
866.361470
70
0
0
VERTEX
8
milled_holes
10
47.418183
20
866.994389
70
0
0
VERTEX
8
milled_holes
10
47.205689
20
867.591438
70
0
0
VERTEX
8
milled_holes
10
46.821026
20
868.111590
70
0
0
VERTEX
8
milled_holes
10
46.300874
20
868.496253
70
0
0
VERTEX
8
milled_holes
10
45.703825
20
868.708747
70
0
0
VERTEX
8
milled_holes
10
45.070906
20
868.740909
70
0
0
VERTEX
8
milled_holes
10
44.443144
20
868.584580
70
0
0
VERTEX
8
milled_holes
10
43.888708
20
868.251227
70
0
0
VERTEX
8
milled_holes
10
43.463909
20
867.780943
70
0
0
VERTEX
8
milled_holes
10
43.191987
20
867.208510
70
0
0
VERTEX
8
milled_holes
10
43.096182
20
866.568709
70
0
0
VERTEX
8
milled_holes
10
43.262274
20
865.733708
70
0
0
VERTEX
8
milled_holes
10
43.735264
20
865.025828
70
0
0
VERTEX
8
milled_holes
10
44.443144
20
864.552838
70
0
0
VERTEX
8
milled_holes
10
45.278145
20
864.386746
70
0
0
VERTEX
8
milled_holes
10
45.278145
20
864.386746
70
0
0
SEQEND
8
milled_holes
0
POLYLINE
8
milled_holes
62
7
70
0
10
0.000000
20
0.000000
66
1
0
VERTEX
8
milled_holes
10
92.259392
20
863.999844
70
0
0
VERTEX
8
milled_holes
10
92.899193
20
864.095649
70
0
0
VERTEX
8
milled_holes
10
93.471626
20
864.367571
70
0
0
VERTEX
8
milled_holes
10
93.941910
20
864.792370
70
0
0
VERTEX
8
milled_holes
10
94.275263
20
865.346806
70
0
0
VERTEX
8
milled_holes
10
94.431592
20
865.974568
70
0
0
VERTEX
8
milled_holes
10
94.399430
20
866.607487
70
0
0
VERTEX
8
milled_holes
10
94.186936
20
867.204536
70
0
0
VERTEX
8
milled_holes
10
93.802273
20
867.724688
70
0
0
VERTEX
8
milled_holes
10
93.282121
20
868.109351
70
0
0
VERTEX
8
milled_holes
10
92.685072
20
868.321845
70
0
0
VERTEX
8
milled_holes
10
92.052153
20
868.354007
70
0
0
VERTEX
8
milled_holes
10
91.424391
20
868.197678
70
0
0
VERTEX
8
milled_holes
10
90.869955
20
867.864325
70
0
0
VERTEX
8
milled_holes
10
90.445156
20
867.394041
70
0
0
VERTEX
8
milled_holes
10
90.173234
20
866.821608
70
0
0
VERTEX
8
milled_holes
10
90.077429
20
866.181807
70
0
0
VERTEX
8
milled_holes
10
90.243521
20
865.346806
70
0
0
VERTEX
8
milled_holes
10
90.716511
20
864.638926
70
0
0
VERTEX
8
milled_holes
10
91.424391
20
864.165936
70
0
0
VERTEX
8
milled_holes
10
92.259392
20
863.999844
70
0
0
VERTEX
8
milled_holes
10
92.259392
20
863.999844
70
0
0
SEQEND
8
milled_holes
0
POLYLINE
8
milled_holes
62
7
70
0
10
0.000000
20
0.000000
66
1
0
VERTEX
8
milled_holes
10
92.843987
20
830.919155
70
0
0
VERTEX
8
milled_holes
10
93.483788
20
831.014960
70
0
0
VERTEX
8
milled_holes
10
94.056221
20
831.286882
70
0
0
VERTEX
8
milled_holes
10
94.526505
20
831.711681
70
0
0
VERTEX
8
milled_holes
10
94.859858
20
832.266117
70
0
0
VERTEX
8
milled_holes
10
95.016187
20
832.893879
70
0
0
VERTEX
8
milled_holes
10
94.984025
20
833.526798
70
0
0
VERTEX
8
milled_holes
10
94.771531
20
834.123847
70
0
0
VERTEX
8
milled_holes
10
94.386868
20
834.643999
70
0
0
VERTEX
8
milled_holes
10
93.866716
20
835.028662
70
0
0
VERTEX
8
milled_holes
10
93.269667
20
835.241156
70
0
0
VERTEX
8
milled_holes
10
92.636748
20
835.273318
70
0
0
VERTEX
8
milled_holes
10
92.008986
20
835.116989
70
0
0
VERTEX
8
milled_holes
10
91.454550
20
834.783636
70
0
0
VERTEX
8
milled_holes
10
91.029751
20
834.313352
70
0
0
VERTEX
8
milled_holes
10
90.757829
20
833.740919
70
0
0
VERTEX
8
milled_holes
10
90.662024
20
833.101118
70
0
0
VERTEX
8
milled_holes
10
90.828116
20
832.266117
70
0
0
VERTEX
8
milled_holes
10
91.301106
20
831.558237
70
0
0
VERTEX
8
milled_holes
10
92.008986
20
831.085247
70
0
0
VERTEX
8
milled_holes
10
92.843987
20
830.919155
70
0
0
VERTEX
8
milled_holes
10
92.843987
20
830.919155
70
0
0
SEQEND
8
milled_holes
 0 
ENDSEC
 0 
EOF