999
"DXF R12 Output" (www.mydxf.blogspot.com)
 0 
SECTION
 2 
HEADER
 9 
$ACADVER
 1 
AC1009
 9 
$EXTMIN
 10 
 0 
 20 
 0 
 9 
$EXTMAX
 10 
 8.5 
 20 
 11 
 0 
ENDSEC
 0 
SECTION
 2 
ENTITIES
0
POLYLINE
8
Layer 1
62
7
70
0
10
0.000000
20
0.000000
66
1
0
VERTEX
8
Layer 1
10
17.083397
20
798.289894
70
0
0
VERTEX
8
Layer 1
10
270.544885
20
798.289894
70
0
0
VERTEX
8
Layer 1
10
270.544885
20
873.955903
70
0
0
VERTEX
8
Layer 1
10
17.083397
20
873.955903
70
0
0
VERTEX
8
Layer 1
10
17.083397
20
798.289894
70
0
0
SEQEND
8
Layer 1
0
POLYLINE
8
Layer 1
62
7
70
0
10
0.000000
20
0.000000
66
1
0
VERTEX
8
Layer 1
10
110.211870
20
893.528698
70
0
0
VERTEX
8
Layer 1
10
110.211870
20
896.743324
70
0
0
VERTEX
8
Layer 1
10
110.385500
20
897.158115
70
0
0
VERTEX
8
Layer 1
10
110.824410
20
897.326925
70
0
0
VERTEX
8
Layer 1
10
111.224730
20
897.203934
70
0
0
VERTEX
8
Layer 1
10
111.427300
20
896.856668
70
0
0
VERTEX
8
Layer 1
10
111.965080
20
893.974839
70
0
0
VERTEX
8
Layer 1
10
111.993980
20
893.950719
70
0
0
VERTEX
8
Layer 1
10
112.022880
20
893.974839
70
0
0
VERTEX
8
Layer 1
10
112.560660
20
896.856668
70
0
0
VERTEX
8
Layer 1
10
112.760820
20
897.203934
70
0
0
VERTEX
8
Layer 1
10
113.163550
20
897.326925
70
0
0
VERTEX
8
Layer 1
10
113.600050
20
897.158115
70
0
0
VERTEX
8
Layer 1
10
113.776090
20
896.743324
70
0
0
VERTEX
8
Layer 1
10
113.776090
20
893.528698
70
0
0
VERTEX
8
Layer 1
10
113.281720
20
893.528698
70
0
0
VERTEX
8
Layer 1
10
113.281720
20
896.724032
70
0
0
VERTEX
8
Layer 1
10
113.243120
20
896.818082
70
0
0
VERTEX
8
Layer 1
10
113.149020
20
896.856672
70
0
0
VERTEX
8
Layer 1
10
113.016390
20
896.733682
70
0
0
VERTEX
8
Layer 1
10
112.471370
20
893.851853
70
0
0
VERTEX
8
Layer 1
10
112.307380
20
893.579345
70
0
0
VERTEX
8
Layer 1
10
111.993880
20
893.480475
70
0
0
VERTEX
8
Layer 1
10
111.677960
20
893.579345
70
0
0
VERTEX
8
Layer 1
10
111.516390
20
893.851853
70
0
0
VERTEX
8
Layer 1
10
110.971370
20
896.733682
70
0
0
VERTEX
8
Layer 1
10
110.838740
20
896.856672
70
0
0
VERTEX
8
Layer 1
10
110.744640
20
896.818082
70
0
0
VERTEX
8
Layer 1
10
110.706040
20
896.724032
70
0
0
VERTEX
8
Layer 1
10
110.706040
20
893.528698
70
0
0
VERTEX
8
Layer 1
10
110.211870
20
893.528698
70
0
0
SEQEND
8
Layer 1
0
POLYLINE
8
Layer 1
62
7
70
0
10
0.000000
20
0.000000
66
1
0
VERTEX
8
Layer 1
10
114.359770
20
893.528698
70
0
0
VERTEX
8
Layer 1
10
114.359770
20
896.116315
70
0
0
VERTEX
8
Layer 1
10
114.830030
20
896.116315
70
0
0
VERTEX
8
Layer 1
10
114.830030
20
893.528698
70
0
0
VERTEX
8
Layer 1
10
114.359770
20
893.528698
70
0
0
SEQEND
8
Layer 1
0
POLYLINE
8
Layer 1
62
7
70
0
10
0.000000
20
0.000000
66
1
0
VERTEX
8
Layer 1
10
114.591280
20
896.991716
70
0
0
VERTEX
8
Layer 1
10
114.786620
20
896.909726
70
0
0
VERTEX
8
Layer 1
10
114.868620
20
896.716800
70
0
0
VERTEX
8
Layer 1
10
114.786620
20
896.519051
70
0
0
VERTEX
8
Layer 1
10
114.591280
20
896.439471
70
0
0
VERTEX
8
Layer 1
10
114.395950
20
896.519051
70
0
0
VERTEX
8
Layer 1
10
114.316350
20
896.716800
70
0
0
VERTEX
8
Layer 1
10
114.395950
20
896.909726
70
0
0
VERTEX
8
Layer 1
10
114.591280
20
896.991716
70
0
0
VERTEX
8
Layer 1
10
114.591280
20
896.991716
70
0
0
SEQEND
8
Layer 1
0
POLYLINE
8
Layer 1
62
7
70
0
10
0.000000
20
0.000000
66
1
0
VERTEX
8
Layer 1
10
115.758480
20
894.823713
70
0
0
VERTEX
8
Layer 1
10
116.028580
20
894.170177
70
0
0
VERTEX
8
Layer 1
10
116.682120
20
893.900080
70
0
0
VERTEX
8
Layer 1
10
117.333240
20
894.170177
70
0
0
VERTEX
8
Layer 1
10
117.605750
20
894.823713
70
0
0
VERTEX
8
Layer 1
10
117.605750
20
897.276282
70
0
0
VERTEX
8
Layer 1
10
118.076000
20
897.276282
70
0
0
VERTEX
8
Layer 1
10
118.076000
20
894.823713
70
0
0
VERTEX
8
Layer 1
10
117.974112
20
894.296784
70
0
0
VERTEX
8
Layer 1
10
117.668450
20
893.863907
70
0
0
VERTEX
8
Layer 1
10
117.217490
20
893.579341
70
0
0
VERTEX
8
Layer 1
10
116.682120
20
893.480471
70
0
0
VERTEX
8
Layer 1
10
116.144340
20
893.579341
70
0
0
VERTEX
8
Layer 1
10
115.695780
20
893.863907
70
0
0
VERTEX
8
Layer 1
10
115.390118
20
894.296784
70
0
0
VERTEX
8
Layer 1
10
115.288230
20
894.823713
70
0
0
VERTEX
8
Layer 1
10
115.390118
20
895.351244
70
0
0
VERTEX
8
Layer 1
10
115.695780
20
895.785930
70
0
0
VERTEX
8
Layer 1
10
116.144340
20
896.068084
70
0
0
VERTEX
8
Layer 1
10
116.682120
20
896.166954
70
0
0
VERTEX
8
Layer 1
10
117.458640
20
895.945090
70
0
0
VERTEX
8
Layer 1
10
117.458640
20
895.322904
70
0
0
VERTEX
8
Layer 1
10
117.128260
20
895.631585
70
0
0
VERTEX
8
Layer 1
10
116.682120
20
895.747341
70
0
0
VERTEX
8
Layer 1
10
116.028580
20
895.474833
70
0
0
VERTEX
8
Layer 1
10
115.758480
20
894.823709
70
0
0
VERTEX
8
Layer 1
10
115.758480
20
894.823713
70
0
0
SEQEND
8
Layer 1
0
POLYLINE
8
Layer 1
62
7
70
0
10
0.000000
20
0.000000
66
1
0
VERTEX
8
Layer 1
10
121.473910
20
895.747345
70
0
0
VERTEX
8
Layer 1
10
120.820370
20
895.474837
70
0
0
VERTEX
8
Layer 1
10
120.550280
20
894.823713
70
0
0
VERTEX
8
Layer 1
10
120.550280
20
892.737703
70
0
0
VERTEX
8
Layer 1
10
120.080020
20
892.737703
70
0
0
VERTEX
8
Layer 1
10
120.080020
20
894.823713
70
0
0
VERTEX
8
Layer 1
10
120.183720
20
895.347024
70
0
0
VERTEX
8
Layer 1
10
120.487580
20
895.781107
70
0
0
VERTEX
8
Layer 1
10
120.936130
20
896.065672
70
0
0
VERTEX
8
Layer 1
10
121.473910
20
896.166958
70
0
0
VERTEX
8
Layer 1
10
122.009280
20
896.068088
70
0
0
VERTEX
8
Layer 1
10
122.460240
20
895.785934
70
0
0
VERTEX
8
Layer 1
10
122.765910
20
895.351248
70
0
0
VERTEX
8
Layer 1
10
122.867800
20
894.823717
70
0
0
VERTEX
8
Layer 1
10
122.765910
20
894.296788
70
0
0
VERTEX
8
Layer 1
10
122.460240
20
893.863911
70
0
0
VERTEX
8
Layer 1
10
122.009280
20
893.579345
70
0
0
VERTEX
8
Layer 1
10
121.473910
20
893.480475
70
0
0
VERTEX
8
Layer 1
10
120.697380
20
893.697516
70
0
0
VERTEX
8
Layer 1
10
120.697380
20
894.319702
70
0
0
VERTEX
8
Layer 1
10
121.030180
20
894.013432
70
0
0
VERTEX
8
Layer 1
10
121.473910
20
893.900088
70
0
0
VERTEX
8
Layer 1
10
122.125040
20
894.170185
70
0
0
VERTEX
8
Layer 1
10
122.397540
20
894.823721
70
0
0
VERTEX
8
Layer 1
10
122.125040
20
895.474845
70
0
0
VERTEX
8
Layer 1
10
121.473910
20
895.747353
70
0
0
VERTEX
8
Layer 1
10
121.473910
20
895.747345
70
0
0
SEQEND
8
Layer 1
0
POLYLINE
8
Layer 1
62
7
70
0
10
0.000000
20
0.000000
66
1
0
VERTEX
8
Layer 1
10
124.555900
20
896.166958
70
0
0
VERTEX
8
Layer 1
10
125.091270
20
896.068088
70
0
0
VERTEX
8
Layer 1
10
125.542230
20
895.785934
70
0
0
VERTEX
8
Layer 1
10
125.847900
20
895.351248
70
0
0
VERTEX
8
Layer 1
10
125.949790
20
894.823717
70
0
0
VERTEX
8
Layer 1
10
125.847900
20
894.296788
70
0
0
VERTEX
8
Layer 1
10
125.542230
20
893.863911
70
0
0
VERTEX
8
Layer 1
10
125.091270
20
893.579345
70
0
0
VERTEX
8
Layer 1
10
124.555900
20
893.480475
70
0
0
VERTEX
8
Layer 1
10
124.018120
20
893.579345
70
0
0
VERTEX
8
Layer 1
10
123.569570
20
893.863911
70
0
0
VERTEX
8
Layer 1
10
123.263900
20
894.296788
70
0
0
VERTEX
8
Layer 1
10
123.162010
20
894.823717
70
0
0
VERTEX
8
Layer 1
10
123.263900
20
895.351248
70
0
0
VERTEX
8
Layer 1
10
123.569570
20
895.785934
70
0
0
VERTEX
8
Layer 1
10
124.018120
20
896.068088
70
0
0
VERTEX
8
Layer 1
10
124.555900
20
896.166958
70
0
0
VERTEX
8
Layer 1
10
124.555900
20
896.166958
70
0
0
SEQEND
8
Layer 1
0
POLYLINE
8
Layer 1
62
7
70
0
10
0.000000
20
0.000000
66
1
0
VERTEX
8
Layer 1
10
123.632270
20
894.823713
70
0
0
VERTEX
8
Layer 1
10
123.902360
20
894.170177
70
0
0
VERTEX
8
Layer 1
10
124.555900
20
893.900080
70
0
0
VERTEX
8
Layer 1
10
125.207020
20
894.170177
70
0
0
VERTEX
8
Layer 1
10
125.479530
20
894.823713
70
0
0
VERTEX
8
Layer 1
10
125.207020
20
895.474837
70
0
0
VERTEX
8
Layer 1
10
124.555900
20
895.747345
70
0
0
VERTEX
8
Layer 1
10
123.902360
20
895.474837
70
0
0
VERTEX
8
Layer 1
10
123.632270
20
894.823713
70
0
0
VERTEX
8
Layer 1
10
123.632270
20
894.823713
70
0
0
SEQEND
8
Layer 1
0
POLYLINE
8
Layer 1
62
7
70
0
10
0.000000
20
0.000000
66
1
0
VERTEX
8
Layer 1
10
126.412810
20
893.528698
70
0
0
VERTEX
8
Layer 1
10
126.412810
20
896.116315
70
0
0
VERTEX
8
Layer 1
10
126.883070
20
896.116315
70
0
0
VERTEX
8
Layer 1
10
126.883070
20
893.528698
70
0
0
VERTEX
8
Layer 1
10
126.412810
20
893.528698
70
0
0
SEQEND
8
Layer 1
0
POLYLINE
8
Layer 1
62
7
70
0
10
0.000000
20
0.000000
66
1
0
VERTEX
8
Layer 1
10
126.644320
20
896.991716
70
0
0
VERTEX
8
Layer 1
10
126.839660
20
896.909726
70
0
0
VERTEX
8
Layer 1
10
126.921660
20
896.716800
70
0
0
VERTEX
8
Layer 1
10
126.839660
20
896.519051
70
0
0
VERTEX
8
Layer 1
10
126.644320
20
896.439471
70
0
0
VERTEX
8
Layer 1
10
126.448980
20
896.519051
70
0
0
VERTEX
8
Layer 1
10
126.369380
20
896.716800
70
0
0
VERTEX
8
Layer 1
10
126.448980
20
896.909726
70
0
0
VERTEX
8
Layer 1
10
126.644320
20
896.991716
70
0
0
VERTEX
8
Layer 1
10
126.644320
20
896.991716
70
0
0
SEQEND
8
Layer 1
0
POLYLINE
8
Layer 1
62
7
70
0
10
0.000000
20
0.000000
66
1
0
VERTEX
8
Layer 1
10
127.886280
20
895.144452
70
0
0
VERTEX
8
Layer 1
10
127.886280
20
893.528698
70
0
0
VERTEX
8
Layer 1
10
127.416030
20
893.528698
70
0
0
VERTEX
8
Layer 1
10
127.416030
20
895.144452
70
0
0
VERTEX
8
Layer 1
10
127.493200
20
895.544773
70
0
0
VERTEX
8
Layer 1
10
127.724710
20
895.872747
70
0
0
VERTEX
8
Layer 1
10
128.070165
20
896.093405
70
0
0
VERTEX
8
Layer 1
10
128.489170
20
896.166958
70
0
0
VERTEX
8
Layer 1
10
128.904567
20
896.093405
70
0
0
VERTEX
8
Layer 1
10
129.248820
20
895.872747
70
0
0
VERTEX
8
Layer 1
10
129.482137
20
895.543567
70
0
0
VERTEX
8
Layer 1
10
129.559910
20
895.144452
70
0
0
VERTEX
8
Layer 1
10
129.559910
20
893.528698
70
0
0
VERTEX
8
Layer 1
10
129.089660
20
893.528698
70
0
0
VERTEX
8
Layer 1
10
129.089660
20
895.144452
70
0
0
VERTEX
8
Layer 1
10
128.913610
20
895.568888
70
0
0
VERTEX
8
Layer 1
10
128.489170
20
895.747345
70
0
0
VERTEX
8
Layer 1
10
128.062330
20
895.568888
70
0
0
VERTEX
8
Layer 1
10
127.886280
20
895.144452
70
0
0
VERTEX
8
Layer 1
10
127.886280
20
895.144452
70
0
0
SEQEND
8
Layer 1
0
POLYLINE
8
Layer 1
62
7
70
0
10
0.000000
20
0.000000
66
1
0
VERTEX
8
Layer 1
10
130.003640
20
896.832552
70
0
0
VERTEX
8
Layer 1
10
130.473900
20
896.832552
70
0
0
VERTEX
8
Layer 1
10
130.473900
20
896.116315
70
0
0
VERTEX
8
Layer 1
10
131.223900
20
896.116315
70
0
0
VERTEX
8
Layer 1
10
131.223900
20
895.696702
70
0
0
VERTEX
8
Layer 1
10
130.473900
20
895.696702
70
0
0
VERTEX
8
Layer 1
10
130.473900
20
894.249758
70
0
0
VERTEX
8
Layer 1
10
130.577600
20
894.035129
70
0
0
VERTEX
8
Layer 1
10
130.840460
20
893.948309
70
0
0
VERTEX
8
Layer 1
10
131.223900
20
893.948309
70
0
0
VERTEX
8
Layer 1
10
131.223900
20
893.528695
70
0
0
VERTEX
8
Layer 1
10
130.789810
20
893.528695
70
0
0
VERTEX
8
Layer 1
10
130.220680
20
893.728856
70
0
0
VERTEX
8
Layer 1
10
130.003640
20
894.240109
70
0
0
VERTEX
8
Layer 1
10
130.003640
20
896.832552
70
0
0
SEQEND
8
Layer 1
0
POLYLINE
8
Layer 1
62
7
70
0
10
0.000000
20
0.000000
66
1
0
VERTEX
8
Layer 1
10
131.937720
20
894.112299
70
0
0
VERTEX
8
Layer 1
10
132.159590
20
894.018249
70
0
0
VERTEX
8
Layer 1
10
132.253590
20
893.796384
70
0
0
VERTEX
8
Layer 1
10
132.159590
20
893.572108
70
0
0
VERTEX
8
Layer 1
10
131.937720
20
893.480468
70
0
0
VERTEX
8
Layer 1
10
131.713450
20
893.572108
70
0
0
VERTEX
8
Layer 1
10
131.621850
20
893.796384
70
0
0
VERTEX
8
Layer 1
10
131.713450
20
894.018249
70
0
0
VERTEX
8
Layer 1
10
131.937720
20
894.112299
70
0
0
VERTEX
8
Layer 1
10
131.937720
20
894.112299
70
0
0
SEQEND
8
Layer 1
0
POLYLINE
8
Layer 1
62
7
70
0
10
0.000000
20
0.000000
66
1
0
VERTEX
8
Layer 1
10
131.937720
20
895.672586
70
0
0
VERTEX
8
Layer 1
10
132.159590
20
895.578536
70
0
0
VERTEX
8
Layer 1
10
132.253590
20
895.356671
70
0
0
VERTEX
8
Layer 1
10
132.159590
20
895.132395
70
0
0
VERTEX
8
Layer 1
10
131.937720
20
895.040755
70
0
0
VERTEX
8
Layer 1
10
131.713450
20
895.132395
70
0
0
VERTEX
8
Layer 1
10
131.621850
20
895.356671
70
0
0
VERTEX
8
Layer 1
10
131.713450
20
895.578536
70
0
0
VERTEX
8
Layer 1
10
131.937720
20
895.672586
70
0
0
VERTEX
8
Layer 1
10
131.937720
20
895.672586
70
0
0
SEQEND
8
Layer 1
0
POLYLINE
8
Layer 1
62
7
70
0
10
0.000000
20
0.000000
66
1
0
VERTEX
8
Layer 1
10
134.689330
20
895.395255
70
0
0
VERTEX
8
Layer 1
10
134.689330
20
897.276282
70
0
0
VERTEX
8
Layer 1
10
136.654760
20
897.276282
70
0
0
VERTEX
8
Layer 1
10
136.654760
20
896.832552
70
0
0
VERTEX
8
Layer 1
10
135.183700
20
896.832552
70
0
0
VERTEX
8
Layer 1
10
135.183700
20
895.838985
70
0
0
VERTEX
8
Layer 1
10
135.721480
20
895.838985
70
0
0
VERTEX
8
Layer 1
10
136.192940
20
895.756388
70
0
0
VERTEX
8
Layer 1
10
136.580000
20
895.508599
70
0
0
VERTEX
8
Layer 1
10
136.840452
20
895.138422
70
0
0
VERTEX
8
Layer 1
10
136.927270
20
894.683841
70
0
0
VERTEX
8
Layer 1
10
136.840452
20
894.228657
70
0
0
VERTEX
8
Layer 1
10
136.580000
20
893.856672
70
0
0
VERTEX
8
Layer 1
10
136.192940
20
893.610691
70
0
0
VERTEX
8
Layer 1
10
135.721480
20
893.528698
70
0
0
VERTEX
8
Layer 1
10
134.575980
20
893.528698
70
0
0
VERTEX
8
Layer 1
10
134.575980
20
893.972428
70
0
0
VERTEX
8
Layer 1
10
135.707010
20
893.972428
70
0
0
VERTEX
8
Layer 1
10
136.215850
20
894.184646
70
0
0
VERTEX
8
Layer 1
10
136.432890
20
894.683841
70
0
0
VERTEX
8
Layer 1
10
136.215850
20
895.185448
70
0
0
VERTEX
8
Layer 1
10
135.707010
20
895.395255
70
0
0
VERTEX
8
Layer 1
10
134.689330
20
895.395255
70
0
0
SEQEND
8
Layer 1
0
POLYLINE
8
Layer 1
62
7
70
0
10
0.000000
20
0.000000
66
1
0
VERTEX
8
Layer 1
10
137.520510
20
896.210367
70
0
0
VERTEX
8
Layer 1
10
137.477110
20
897.276282
70
0
0
VERTEX
8
Layer 1
10
138.010070
20
897.276282
70
0
0
VERTEX
8
Layer 1
10
137.964270
20
896.210367
70
0
0
VERTEX
8
Layer 1
10
137.520510
20
896.210367
70
0
0
SEQEND
8
Layer 1
0
POLYLINE
8
Layer 1
62
7
70
0
10
0.000000
20
0.000000
66
1
0
VERTEX
8
Layer 1
10
138.499610
20
896.210367
70
0
0
VERTEX
8
Layer 1
10
138.453810
20
897.276282
70
0
0
VERTEX
8
Layer 1
10
138.986770
20
897.276282
70
0
0
VERTEX
8
Layer 1
10
138.943370
20
896.210367
70
0
0
VERTEX
8
Layer 1
10
138.499610
20
896.210367
70
0
0
SEQEND
8
Layer 1
0
POLYLINE
8
Layer 1
62
7
70
0
10
0.000000
20
0.000000
66
1
0
VERTEX
8
Layer 1
10
110.928100
20
888.836743
70
0
0
VERTEX
8
Layer 1
10
110.928100
20
892.155067
70
0
0
VERTEX
8
Layer 1
10
109.970710
20
892.155067
70
0
0
VERTEX
8
Layer 1
10
109.970710
20
892.584327
70
0
0
VERTEX
8
Layer 1
10
112.379870
20
892.584327
70
0
0
VERTEX
8
Layer 1
10
112.379870
20
892.155067
70
0
0
VERTEX
8
Layer 1
10
111.422480
20
892.155067
70
0
0
VERTEX
8
Layer 1
10
111.422480
20
888.836743
70
0
0
VERTEX
8
Layer 1
10
110.928100
20
888.836743
70
0
0
SEQEND
8
Layer 1
0
POLYLINE
8
Layer 1
62
7
70
0
10
0.000000
20
0.000000
66
1
0
VERTEX
8
Layer 1
10
113.944980
20
891.475003
70
0
0
VERTEX
8
Layer 1
10
114.480350
20
891.376133
70
0
0
VERTEX
8
Layer 1
10
114.931310
20
891.093979
70
0
0
VERTEX
8
Layer 1
10
115.236980
20
890.659293
70
0
0
VERTEX
8
Layer 1
10
115.338870
20
890.131762
70
0
0
VERTEX
8
Layer 1
10
115.236980
20
889.604834
70
0
0
VERTEX
8
Layer 1
10
114.931310
20
889.171956
70
0
0
VERTEX
8
Layer 1
10
114.480350
20
888.887390
70
0
0
VERTEX
8
Layer 1
10
113.944980
20
888.788520
70
0
0
VERTEX
8
Layer 1
10
113.407200
20
888.887390
70
0
0
VERTEX
8
Layer 1
10
112.958650
20
889.171956
70
0
0
VERTEX
8
Layer 1
10
112.652980
20
889.604834
70
0
0
VERTEX
8
Layer 1
10
112.551090
20
890.131762
70
0
0
VERTEX
8
Layer 1
10
112.652980
20
890.659293
70
0
0
VERTEX
8
Layer 1
10
112.958650
20
891.093979
70
0
0
VERTEX
8
Layer 1
10
113.407200
20
891.376133
70
0
0
VERTEX
8
Layer 1
10
113.944980
20
891.475003
70
0
0
VERTEX
8
Layer 1
10
113.944980
20
891.475003
70
0
0
SEQEND
8
Layer 1
0
POLYLINE
8
Layer 1
62
7
70
0
10
0.000000
20
0.000000
66
1
0
VERTEX
8
Layer 1
10
113.021350
20
890.131758
70
0
0
VERTEX
8
Layer 1
10
113.291450
20
889.478222
70
0
0
VERTEX
8
Layer 1
10
113.944980
20
889.208126
70
0
0
VERTEX
8
Layer 1
10
114.596110
20
889.478222
70
0
0
VERTEX
8
Layer 1
10
114.868610
20
890.131758
70
0
0
VERTEX
8
Layer 1
10
114.596110
20
890.782882
70
0
0
VERTEX
8
Layer 1
10
113.944980
20
891.055390
70
0
0
VERTEX
8
Layer 1
10
113.291450
20
890.782882
70
0
0
VERTEX
8
Layer 1
10
113.021350
20
890.131758
70
0
0
VERTEX
8
Layer 1
10
113.021350
20
890.131758
70
0
0
SEQEND
8
Layer 1
0
POLYLINE
8
Layer 1
62
7
70
0
10
0.000000
20
0.000000
66
1
0
VERTEX
8
Layer 1
10
115.707840
20
892.140597
70
0
0
VERTEX
8
Layer 1
10
116.178100
20
892.140597
70
0
0
VERTEX
8
Layer 1
10
116.178100
20
891.424360
70
0
0
VERTEX
8
Layer 1
10
116.928100
20
891.424360
70
0
0
VERTEX
8
Layer 1
10
116.928100
20
891.004747
70
0
0
VERTEX
8
Layer 1
10
116.178100
20
891.004747
70
0
0
VERTEX
8
Layer 1
10
116.178100
20
889.557804
70
0
0
VERTEX
8
Layer 1
10
116.281800
20
889.343174
70
0
0
VERTEX
8
Layer 1
10
116.544660
20
889.256354
70
0
0
VERTEX
8
Layer 1
10
116.928100
20
889.256354
70
0
0
VERTEX
8
Layer 1
10
116.928100
20
888.836740
70
0
0
VERTEX
8
Layer 1
10
116.494010
20
888.836740
70
0
0
VERTEX
8
Layer 1
10
115.924880
20
889.036901
70
0
0
VERTEX
8
Layer 1
10
115.707840
20
889.548154
70
0
0
VERTEX
8
Layer 1
10
115.707840
20
892.140597
70
0
0
SEQEND
8
Layer 1
0
POLYLINE
8
Layer 1
62
7
70
0
10
0.000000
20
0.000000
66
1
0
VERTEX
8
Layer 1
10
118.517320
20
891.055390
70
0
0
VERTEX
8
Layer 1
10
117.863790
20
890.782882
70
0
0
VERTEX
8
Layer 1
10
117.593690
20
890.131758
70
0
0
VERTEX
8
Layer 1
10
117.863790
20
889.478222
70
0
0
VERTEX
8
Layer 1
10
118.517320
20
889.208126
70
0
0
VERTEX
8
Layer 1
10
118.956230
20
889.319058
70
0
0
VERTEX
8
Layer 1
10
119.293850
20
889.627739
70
0
0
VERTEX
8
Layer 1
10
119.293850
20
889.005553
70
0
0
VERTEX
8
Layer 1
10
118.517320
20
888.788512
70
0
0
VERTEX
8
Layer 1
10
117.979540
20
888.887382
70
0
0
VERTEX
8
Layer 1
10
117.530990
20
889.171948
70
0
0
VERTEX
8
Layer 1
10
117.225320
20
889.604825
70
0
0
VERTEX
8
Layer 1
10
117.123430
20
890.131754
70
0
0
VERTEX
8
Layer 1
10
117.225320
20
890.659285
70
0
0
VERTEX
8
Layer 1
10
117.530990
20
891.093971
70
0
0
VERTEX
8
Layer 1
10
117.979540
20
891.376125
70
0
0
VERTEX
8
Layer 1
10
118.517320
20
891.474995
70
0
0
VERTEX
8
Layer 1
10
119.052690
20
891.376125
70
0
0
VERTEX
8
Layer 1
10
119.503660
20
891.093971
70
0
0
VERTEX
8
Layer 1
10
119.809323
20
890.659285
70
0
0
VERTEX
8
Layer 1
10
119.911210
20
890.131754
70
0
0
VERTEX
8
Layer 1
10
119.911210
20
888.836739
70
0
0
VERTEX
8
Layer 1
10
119.440950
20
888.836739
70
0
0
VERTEX
8
Layer 1
10
119.440950
20
890.131754
70
0
0
VERTEX
8
Layer 1
10
119.168450
20
890.782878
70
0
0
VERTEX
8
Layer 1
10
118.517320
20
891.055386
70
0
0
VERTEX
8
Layer 1
10
118.517320
20
891.055390
70
0
0
SEQEND
8
Layer 1
0
POLYLINE
8
Layer 1
62
7
70
0
10
0.000000
20
0.000000
66
1
0
VERTEX
8
Layer 1
10
120.405580
20
888.836743
70
0
0
VERTEX
8
Layer 1
10
120.405580
20
892.584327
70
0
0
VERTEX
8
Layer 1
10
120.875840
20
892.584327
70
0
0
VERTEX
8
Layer 1
10
120.875840
20
888.836743
70
0
0
VERTEX
8
Layer 1
10
120.405580
20
888.836743
70
0
0
SEQEND
8
Layer 1
0
POLYLINE
8
Layer 1
62
7
70
0
10
0.000000
20
0.000000
66
1
0
VERTEX
8
Layer 1
10
122.973910
20
889.902658
70
0
0
VERTEX
8
Layer 1
10
122.973910
20
892.584327
70
0
0
VERTEX
8
Layer 1
10
123.468280
20
892.584327
70
0
0
VERTEX
8
Layer 1
10
123.468280
20
889.902658
70
0
0
VERTEX
8
Layer 1
10
123.646132
20
889.425167
70
0
0
VERTEX
8
Layer 1
10
124.179690
20
889.266003
70
0
0
VERTEX
8
Layer 1
10
124.970690
20
889.266003
70
0
0
VERTEX
8
Layer 1
10
124.970690
20
888.836743
70
0
0
VERTEX
8
Layer 1
10
124.179690
20
888.836743
70
0
0
VERTEX
8
Layer 1
10
123.656385
20
888.904267
70
0
0
VERTEX
8
Layer 1
10
123.277770
20
889.106840
70
0
0
VERTEX
8
Layer 1
10
123.049875
20
889.442048
70
0
0
VERTEX
8
Layer 1
10
122.973910
20
889.902658
70
0
0
VERTEX
8
Layer 1
10
122.973910
20
889.902658
70
0
0
SEQEND
8
Layer 1
0
POLYLINE
8
Layer 1
62
7
70
0
10
0.000000
20
0.000000
66
1
0
VERTEX
8
Layer 1
10
126.567150
20
889.208126
70
0
0
VERTEX
8
Layer 1
10
127.068760
20
889.314235
70
0
0
VERTEX
8
Layer 1
10
127.423260
20
889.613270
70
0
0
VERTEX
8
Layer 1
10
127.838050
20
889.376936
70
0
0
VERTEX
8
Layer 1
10
127.312930
20
888.935618
70
0
0
VERTEX
8
Layer 1
10
126.533390
20
888.788512
70
0
0
VERTEX
8
Layer 1
10
125.995610
20
888.887382
70
0
0
VERTEX
8
Layer 1
10
125.547060
20
889.169536
70
0
0
VERTEX
8
Layer 1
10
125.241390
20
889.603619
70
0
0
VERTEX
8
Layer 1
10
125.139500
20
890.129342
70
0
0
VERTEX
8
Layer 1
10
125.241390
20
890.656873
70
0
0
VERTEX
8
Layer 1
10
125.547060
20
891.091559
70
0
0
VERTEX
8
Layer 1
10
125.995610
20
891.376125
70
0
0
VERTEX
8
Layer 1
10
126.533390
20
891.474995
70
0
0
VERTEX
8
Layer 1
10
127.068760
20
891.376125
70
0
0
VERTEX
8
Layer 1
10
127.519720
20
891.091559
70
0
0
VERTEX
8
Layer 1
10
127.825390
20
890.656873
70
0
0
VERTEX
8
Layer 1
10
127.927280
20
890.129342
70
0
0
VERTEX
8
Layer 1
10
127.927280
20
889.982236
70
0
0
VERTEX
8
Layer 1
10
125.619400
20
889.982236
70
0
0
VERTEX
8
Layer 1
10
125.935320
20
889.427575
70
0
0
VERTEX
8
Layer 1
10
126.567150
20
889.208122
70
0
0
VERTEX
8
Layer 1
10
126.567150
20
889.208126
70
0
0
SEQEND
8
Layer 1
0
POLYLINE
8
Layer 1
62
7
70
0
10
0.000000
20
0.000000
66
1
0
VERTEX
8
Layer 1
10
125.648340
20
890.401854
70
0
0
VERTEX
8
Layer 1
10
127.418440
20
890.401854
70
0
0
VERTEX
8
Layer 1
10
127.085640
20
890.872110
70
0
0
VERTEX
8
Layer 1
10
126.533390
20
891.055390
70
0
0
VERTEX
8
Layer 1
10
125.983550
20
890.872110
70
0
0
VERTEX
8
Layer 1
10
125.648340
20
890.401854
70
0
0
VERTEX
8
Layer 1
10
125.648340
20
890.401854
70
0
0
SEQEND
8
Layer 1
0
POLYLINE
8
Layer 1
62
7
70
0
10
0.000000
20
0.000000
66
1
0
VERTEX
8
Layer 1
10
128.766500
20
890.452494
70
0
0
VERTEX
8
Layer 1
10
128.766500
20
888.836740
70
0
0
VERTEX
8
Layer 1
10
128.296250
20
888.836740
70
0
0
VERTEX
8
Layer 1
10
128.296250
20
890.452494
70
0
0
VERTEX
8
Layer 1
10
128.373420
20
890.852815
70
0
0
VERTEX
8
Layer 1
10
128.604930
20
891.180789
70
0
0
VERTEX
8
Layer 1
10
128.950388
20
891.401447
70
0
0
VERTEX
8
Layer 1
10
129.369400
20
891.475000
70
0
0
VERTEX
8
Layer 1
10
129.784790
20
891.401447
70
0
0
VERTEX
8
Layer 1
10
130.129040
20
891.180789
70
0
0
VERTEX
8
Layer 1
10
130.362365
20
890.851609
70
0
0
VERTEX
8
Layer 1
10
130.440140
20
890.452494
70
0
0
VERTEX
8
Layer 1
10
130.440140
20
888.836740
70
0
0
VERTEX
8
Layer 1
10
129.969880
20
888.836740
70
0
0
VERTEX
8
Layer 1
10
129.969880
20
890.452494
70
0
0
VERTEX
8
Layer 1
10
129.793830
20
890.876931
70
0
0
VERTEX
8
Layer 1
10
129.369400
20
891.055387
70
0
0
VERTEX
8
Layer 1
10
128.942550
20
890.876931
70
0
0
VERTEX
8
Layer 1
10
128.766500
20
890.452494
70
0
0
VERTEX
8
Layer 1
10
128.766500
20
890.452494
70
0
0
SEQEND
8
Layer 1
0
POLYLINE
8
Layer 1
62
7
70
1
10
0.000000
20
0.000000
66
1
0
VERTEX
8
Layer 1
10
132.203000
20
891.055387
70
0
0
VERTEX
8
Layer 1
10
131.542220
20
890.816641
70
0
0
VERTEX
8
Layer 1
10
131.279360
20
890.208925
70
0
0
VERTEX
8
Layer 1
10
131.539810
20
889.606032
70
0
0
VERTEX
8
Layer 1
10
132.203000
20
889.369698
70
0
0
VERTEX
8
Layer 1
10
132.658780
20
889.466158
70
0
0
VERTEX
8
Layer 1
10
132.979520
20
889.745900
70
0
0
VERTEX
8
Layer 1
10
132.979520
20
889.167123
70
0
0
VERTEX
8
Layer 1
10
132.203000
20
888.950081
70
0
0
VERTEX
8
Layer 1
10
131.650143
20
889.038103
70
0
0
VERTEX
8
Layer 1
10
131.202190
20
889.302171
70
0
0
VERTEX
8
Layer 1
10
130.907380
20
889.706109
70
0
0
VERTEX
8
Layer 1
10
130.809110
20
890.208922
70
0
0
VERTEX
8
Layer 1
10
130.907380
20
890.713544
70
0
0
VERTEX
8
Layer 1
10
131.202190
20
891.118085
70
0
0
VERTEX
8
Layer 1
10
131.650143
20
891.385769
70
0
0
VERTEX
8
Layer 1
10
132.203000
20
891.474997
70
0
0
VERTEX
8
Layer 1
10
132.755247
20
891.385769
70
0
0
VERTEX
8
Layer 1
10
133.201390
20
891.118085
70
0
0
VERTEX
8
Layer 1
10
133.498007
20
890.713544
70
0
0
VERTEX
8
Layer 1
10
133.596880
20
890.208922
70
0
0
VERTEX
8
Layer 1
10
133.596880
20
889.087541
70
0
0
VERTEX
8
Layer 1
10
133.502780
20
888.708924
70
0
0
VERTEX
8
Layer 1
10
133.239920
20
888.380950
70
0
0
VERTEX
8
Layer 1
10
132.781723
20
888.129544
70
0
0
VERTEX
8
Layer 1
10
132.202950
20
888.045742
70
0
0
VERTEX
8
Layer 1
10
131.628990
20
888.101212
70
0
0
VERTEX
8
Layer 1
10
131.081560
20
888.243495
70
0
0
VERTEX
8
Layer 1
10
131.214200
20
888.653462
70
0
0
VERTEX
8
Layer 1
10
131.706160
20
888.520825
70
0
0
VERTEX
8
Layer 1
10
132.202950
20
888.465355
70
0
0
VERTEX
8
Layer 1
10
132.887830
20
888.665516
70
0
0
VERTEX
8
Layer 1
10
133.126580
20
889.087541
70
0
0
VERTEX
8
Layer 1
10
133.126580
20
890.208922
70
0
0
VERTEX
8
Layer 1
10
132.863720
20
890.816638
70
0
0
VERTEX
8
Layer 1
10
132.203000
20
891.055390
70
0
0
VERTEX
8
Layer 1
10
132.203000
20
891.055387
70
0
0
SEQEND
8
Layer 1
0
POLYLINE
8
Layer 1
62
7
70
0
10
0.000000
20
0.000000
66
1
0
VERTEX
8
Layer 1
10
134.040610
20
892.140594
70
0
0
VERTEX
8
Layer 1
10
134.510870
20
892.140594
70
0
0
VERTEX
8
Layer 1
10
134.510870
20
891.424357
70
0
0
VERTEX
8
Layer 1
10
135.260870
20
891.424357
70
0
0
VERTEX
8
Layer 1
10
135.260870
20
891.004744
70
0
0
VERTEX
8
Layer 1
10
134.510870
20
891.004744
70
0
0
VERTEX
8
Layer 1
10
134.510870
20
889.557801
70
0
0
VERTEX
8
Layer 1
10
134.614570
20
889.343171
70
0
0
VERTEX
8
Layer 1
10
134.877430
20
889.256351
70
0
0
VERTEX
8
Layer 1
10
135.260870
20
889.256351
70
0
0
VERTEX
8
Layer 1
10
135.260870
20
888.836737
70
0
0
VERTEX
8
Layer 1
10
134.826790
20
888.836737
70
0
0
VERTEX
8
Layer 1
10
134.257650
20
889.036898
70
0
0
VERTEX
8
Layer 1
10
134.040610
20
889.548151
70
0
0
VERTEX
8
Layer 1
10
134.040610
20
892.140594
70
0
0
SEQEND
8
Layer 1
0
POLYLINE
8
Layer 1
62
7
70
0
10
0.000000
20
0.000000
66
1
0
VERTEX
8
Layer 1
10
135.530970
20
888.836740
70
0
0
VERTEX
8
Layer 1
10
135.530970
20
892.584324
70
0
0
VERTEX
8
Layer 1
10
136.001220
20
892.584324
70
0
0
VERTEX
8
Layer 1
10
136.001220
20
891.248313
70
0
0
VERTEX
8
Layer 1
10
136.254440
20
891.409888
70
0
0
VERTEX
8
Layer 1
10
136.604120
20
891.474998
70
0
0
VERTEX
8
Layer 1
10
137.019510
20
891.401445
70
0
0
VERTEX
8
Layer 1
10
137.363760
20
891.180787
70
0
0
VERTEX
8
Layer 1
10
137.597078
20
890.851607
70
0
0
VERTEX
8
Layer 1
10
137.674850
20
890.452492
70
0
0
VERTEX
8
Layer 1
10
137.674850
20
888.836738
70
0
0
VERTEX
8
Layer 1
10
137.204600
20
888.836738
70
0
0
VERTEX
8
Layer 1
10
137.204600
20
890.452492
70
0
0
VERTEX
8
Layer 1
10
137.028550
20
890.876929
70
0
0
VERTEX
8
Layer 1
10
136.604120
20
891.055385
70
0
0
VERTEX
8
Layer 1
10
136.177270
20
890.876929
70
0
0
VERTEX
8
Layer 1
10
136.001220
20
890.452492
70
0
0
VERTEX
8
Layer 1
10
136.001220
20
888.836738
70
0
0
VERTEX
8
Layer 1
10
135.530970
20
888.836740
70
0
0
SEQEND
8
Layer 1
0
POLYLINE
8
Layer 1
62
7
70
0
10
0.000000
20
0.000000
66
1
0
VERTEX
8
Layer 1
10
141.024530
20
892.319051
70
0
0
VERTEX
8
Layer 1
10
140.320948
20
891.423152
70
0
0
VERTEX
8
Layer 1
10
140.086420
20
890.317446
70
0
0
VERTEX
8
Layer 1
10
140.320948
20
889.213549
70
0
0
VERTEX
8
Layer 1
10
141.024530
20
888.313429
70
0
0
VERTEX
8
Layer 1
10
140.718260
20
888.045745
70
0
0
VERTEX
8
Layer 1
10
139.891693
20
889.081515
70
0
0
VERTEX
8
Layer 1
10
139.616170
20
890.317446
70
0
0
VERTEX
8
Layer 1
10
139.891693
20
891.552171
70
0
0
VERTEX
8
Layer 1
10
140.718260
20
892.584324
70
0
0
VERTEX
8
Layer 1
10
141.024530
20
892.319051
70
0
0
SEQEND
8
Layer 1
0
POLYLINE
8
Layer 1
62
7
70
0
10
0.000000
20
0.000000
66
1
0
VERTEX
8
Layer 1
10
142.563110
20
891.004744
70
0
0
VERTEX
8
Layer 1
10
141.945750
20
890.749117
70
0
0
VERTEX
8
Layer 1
10
141.690120
20
890.131755
70
0
0
VERTEX
8
Layer 1
10
141.945750
20
889.511981
70
0
0
VERTEX
8
Layer 1
10
142.563110
20
889.256354
70
0
0
VERTEX
8
Layer 1
10
142.915200
20
889.256354
70
0
0
VERTEX
8
Layer 1
10
142.915200
20
888.836740
70
0
0
VERTEX
8
Layer 1
10
142.563110
20
888.836740
70
0
0
VERTEX
8
Layer 1
10
142.043415
20
888.936218
70
0
0
VERTEX
8
Layer 1
10
141.612950
20
889.210534
70
0
0
VERTEX
8
Layer 1
10
141.318132
20
889.626530
70
0
0
VERTEX
8
Layer 1
10
141.219860
20
890.131755
70
0
0
VERTEX
8
Layer 1
10
141.318132
20
890.637582
70
0
0
VERTEX
8
Layer 1
10
141.612950
20
891.055387
70
0
0
VERTEX
8
Layer 1
10
142.045825
20
891.332114
70
0
0
VERTEX
8
Layer 1
10
142.563110
20
891.424357
70
0
0
VERTEX
8
Layer 1
10
142.915200
20
891.424357
70
0
0
VERTEX
8
Layer 1
10
142.915200
20
891.004744
70
0
0
VERTEX
8
Layer 1
10
142.563110
20
891.004744
70
0
0
SEQEND
8
Layer 1
0
POLYLINE
8
Layer 1
62
7
70
0
10
0.000000
20
0.000000
66
1
0
VERTEX
8
Layer 1
10
145.032560
20
889.811016
70
0
0
VERTEX
8
Layer 1
10
145.032560
20
891.424360
70
0
0
VERTEX
8
Layer 1
10
145.502810
20
891.424360
70
0
0
VERTEX
8
Layer 1
10
145.502810
20
889.811019
70
0
0
VERTEX
8
Layer 1
10
145.425640
20
889.410095
70
0
0
VERTEX
8
Layer 1
10
145.194130
20
889.080312
70
0
0
VERTEX
8
Layer 1
10
144.849277
20
888.861462
70
0
0
VERTEX
8
Layer 1
10
144.432080
20
888.788512
70
0
0
VERTEX
8
Layer 1
10
144.013068
20
888.861462
70
0
0
VERTEX
8
Layer 1
10
143.667610
20
889.080312
70
0
0
VERTEX
8
Layer 1
10
143.436100
20
889.410095
70
0
0
VERTEX
8
Layer 1
10
143.358930
20
889.811019
70
0
0
VERTEX
8
Layer 1
10
143.358930
20
891.424360
70
0
0
VERTEX
8
Layer 1
10
143.829180
20
891.424360
70
0
0
VERTEX
8
Layer 1
10
143.829180
20
889.811019
70
0
0
VERTEX
8
Layer 1
10
144.005230
20
889.384170
70
0
0
VERTEX
8
Layer 1
10
144.432080
20
889.208126
70
0
0
VERTEX
8
Layer 1
10
144.856510
20
889.384170
70
0
0
VERTEX
8
Layer 1
10
145.032560
20
889.811019
70
0
0
VERTEX
8
Layer 1
10
145.032560
20
889.811016
70
0
0
SEQEND
8
Layer 1
0
POLYLINE
8
Layer 1
62
7
70
0
10
0.000000
20
0.000000
66
1
0
VERTEX
8
Layer 1
10
145.946550
20
892.140594
70
0
0
VERTEX
8
Layer 1
10
146.416800
20
892.140594
70
0
0
VERTEX
8
Layer 1
10
146.416800
20
891.424357
70
0
0
VERTEX
8
Layer 1
10
147.166800
20
891.424357
70
0
0
VERTEX
8
Layer 1
10
147.166800
20
891.004744
70
0
0
VERTEX
8
Layer 1
10
146.416800
20
891.004744
70
0
0
VERTEX
8
Layer 1
10
146.416800
20
889.557801
70
0
0
VERTEX
8
Layer 1
10
146.520500
20
889.343171
70
0
0
VERTEX
8
Layer 1
10
146.783360
20
889.256351
70
0
0
VERTEX
8
Layer 1
10
147.166800
20
889.256351
70
0
0
VERTEX
8
Layer 1
10
147.166800
20
888.836737
70
0
0
VERTEX
8
Layer 1
10
146.732720
20
888.836737
70
0
0
VERTEX
8
Layer 1
10
146.163590
20
889.036898
70
0
0
VERTEX
8
Layer 1
10
145.946550
20
889.548151
70
0
0
VERTEX
8
Layer 1
10
145.946550
20
892.140594
70
0
0
SEQEND
8
Layer 1
0
POLYLINE
8
Layer 1
62
7
70
0
10
0.000000
20
0.000000
66
1
0
VERTEX
8
Layer 1
10
148.934480
20
890.708120
70
0
0
VERTEX
8
Layer 1
10
149.074350
20
891.436415
70
0
0
VERTEX
8
Layer 1
10
149.472260
20
892.058601
70
0
0
VERTEX
8
Layer 1
10
150.077570
20
892.485449
70
0
0
VERTEX
8
Layer 1
10
150.796220
20
892.634967
70
0
0
VERTEX
8
Layer 1
10
151.649910
20
892.422748
70
0
0
VERTEX
8
Layer 1
10
152.322740
20
891.805386
70
0
0
VERTEX
8
Layer 1
10
151.941710
20
891.530467
70
0
0
VERTEX
8
Layer 1
10
151.444930
20
892.010370
70
0
0
VERTEX
8
Layer 1
10
150.796220
20
892.191237
70
0
0
VERTEX
8
Layer 1
10
150.272900
20
892.077894
70
0
0
VERTEX
8
Layer 1
10
149.829180
20
891.754743
70
0
0
VERTEX
8
Layer 1
10
149.527730
20
891.272428
70
0
0
VERTEX
8
Layer 1
10
149.424030
20
890.708120
70
0
0
VERTEX
8
Layer 1
10
149.527730
20
890.143813
70
0
0
VERTEX
8
Layer 1
10
149.829180
20
889.663910
70
0
0
VERTEX
8
Layer 1
10
150.272900
20
889.343171
70
0
0
VERTEX
8
Layer 1
10
150.796220
20
889.232238
70
0
0
VERTEX
8
Layer 1
10
151.587210
20
889.502334
70
0
0
VERTEX
8
Layer 1
10
152.079170
20
890.179986
70
0
0
VERTEX
8
Layer 1
10
150.545410
20
890.179986
70
0
0
VERTEX
8
Layer 1
10
150.545410
20
890.623715
70
0
0
VERTEX
8
Layer 1
10
152.648300
20
890.623715
70
0
0
VERTEX
8
Layer 1
10
152.648300
20
890.534485
70
0
0
VERTEX
8
Layer 1
10
152.510840
20
889.909888
70
0
0
VERTEX
8
Layer 1
10
152.129820
20
889.347992
70
0
0
VERTEX
8
Layer 1
10
151.517280
20
888.933201
70
0
0
VERTEX
8
Layer 1
10
150.796220
20
888.788507
70
0
0
VERTEX
8
Layer 1
10
150.070330
20
888.935613
70
0
0
VERTEX
8
Layer 1
10
149.465030
20
889.362461
70
0
0
VERTEX
8
Layer 1
10
149.071940
20
889.979824
70
0
0
VERTEX
8
Layer 1
10
148.934480
20
890.708118
70
0
0
VERTEX
8
Layer 1
10
148.934480
20
890.708120
70
0
0
SEQEND
8
Layer 1
0
POLYLINE
8
Layer 1
62
7
70
0
10
0.000000
20
0.000000
66
1
0
VERTEX
8
Layer 1
10
154.186890
20
892.065836
70
0
0
VERTEX
8
Layer 1
10
154.126590
20
892.140596
70
0
0
VERTEX
8
Layer 1
10
153.617750
20
892.140596
70
0
0
VERTEX
8
Layer 1
10
153.733500
20
892.584326
70
0
0
VERTEX
8
Layer 1
10
154.247170
20
892.584326
70
0
0
VERTEX
8
Layer 1
10
154.565500
20
892.466159
70
0
0
VERTEX
8
Layer 1
10
154.681250
20
892.145420
70
0
0
VERTEX
8
Layer 1
10
154.681250
20
888.836742
70
0
0
VERTEX
8
Layer 1
10
154.186880
20
888.836742
70
0
0
VERTEX
8
Layer 1
10
154.186890
20
892.065836
70
0
0
SEQEND
8
Layer 1
0
POLYLINE
8
Layer 1
62
7
70
0
10
0.000000
20
0.000000
66
1
0
VERTEX
8
Layer 1
10
158.129810
20
890.066642
70
0
0
VERTEX
8
Layer 1
10
158.129810
20
891.349599
70
0
0
VERTEX
8
Layer 1
10
157.900710
20
891.935611
70
0
0
VERTEX
8
Layer 1
10
157.370160
20
892.191237
70
0
0
VERTEX
8
Layer 1
10
156.839620
20
891.933199
70
0
0
VERTEX
8
Layer 1
10
156.610520
20
891.349599
70
0
0
VERTEX
8
Layer 1
10
156.610520
20
890.066642
70
0
0
VERTEX
8
Layer 1
10
156.837210
20
889.485453
70
0
0
VERTEX
8
Layer 1
10
157.370160
20
889.232238
70
0
0
VERTEX
8
Layer 1
10
157.900710
20
889.485453
70
0
0
VERTEX
8
Layer 1
10
158.129810
20
890.066642
70
0
0
VERTEX
8
Layer 1
10
158.129810
20
890.066642
70
0
0
SEQEND
8
Layer 1
0
POLYLINE
8
Layer 1
62
7
70
0
10
0.000000
20
0.000000
66
1
0
VERTEX
8
Layer 1
10
158.624180
20
890.042532
70
0
0
VERTEX
8
Layer 1
10
158.527680
20
889.565040
70
0
0
VERTEX
8
Layer 1
10
158.255170
20
889.157485
70
0
0
VERTEX
8
Layer 1
10
157.847610
20
888.882565
70
0
0
VERTEX
8
Layer 1
10
157.370120
20
888.788515
70
0
0
VERTEX
8
Layer 1
10
156.890220
20
888.882565
70
0
0
VERTEX
8
Layer 1
10
156.485080
20
889.155073
70
0
0
VERTEX
8
Layer 1
10
156.210160
20
889.562629
70
0
0
VERTEX
8
Layer 1
10
156.116160
20
890.042532
70
0
0
VERTEX
8
Layer 1
10
156.116160
20
891.380954
70
0
0
VERTEX
8
Layer 1
10
156.210160
20
891.860857
70
0
0
VERTEX
8
Layer 1
10
156.485080
20
892.268413
70
0
0
VERTEX
8
Layer 1
10
156.890220
20
892.538509
70
0
0
VERTEX
8
Layer 1
10
157.370120
20
892.634969
70
0
0
VERTEX
8
Layer 1
10
157.847610
20
892.538509
70
0
0
VERTEX
8
Layer 1
10
158.255170
20
892.268413
70
0
0
VERTEX
8
Layer 1
10
158.527680
20
891.860857
70
0
0
VERTEX
8
Layer 1
10
158.624180
20
891.380954
70
0
0
VERTEX
8
Layer 1
10
158.624180
20
890.042532
70
0
0
SEQEND
8
Layer 1
0
POLYLINE
8
Layer 1
62
7
70
0
10
0.000000
20
0.000000
66
1
0
VERTEX
8
Layer 1
10
160.674020
20
892.140599
70
0
0
VERTEX
8
Layer 1
10
161.144270
20
892.140599
70
0
0
VERTEX
8
Layer 1
10
161.144270
20
891.424362
70
0
0
VERTEX
8
Layer 1
10
161.894270
20
891.424362
70
0
0
VERTEX
8
Layer 1
10
161.894270
20
891.004749
70
0
0
VERTEX
8
Layer 1
10
161.144270
20
891.004749
70
0
0
VERTEX
8
Layer 1
10
161.144270
20
889.557806
70
0
0
VERTEX
8
Layer 1
10
161.247970
20
889.343176
70
0
0
VERTEX
8
Layer 1
10
161.510830
20
889.256356
70
0
0
VERTEX
8
Layer 1
10
161.894270
20
889.256356
70
0
0
VERTEX
8
Layer 1
10
161.894270
20
888.836742
70
0
0
VERTEX
8
Layer 1
10
161.460190
20
888.836742
70
0
0
VERTEX
8
Layer 1
10
160.891060
20
889.036903
70
0
0
VERTEX
8
Layer 1
10
160.674020
20
889.548156
70
0
0
VERTEX
8
Layer 1
10
160.674020
20
892.140599
70
0
0
SEQEND
8
Layer 1
0
POLYLINE
8
Layer 1
62
7
70
0
10
0.000000
20
0.000000
66
1
0
VERTEX
8
Layer 1
10
163.483500
20
891.475005
70
0
0
VERTEX
8
Layer 1
10
164.018870
20
891.376135
70
0
0
VERTEX
8
Layer 1
10
164.469830
20
891.093981
70
0
0
VERTEX
8
Layer 1
10
164.775500
20
890.659295
70
0
0
VERTEX
8
Layer 1
10
164.877390
20
890.131764
70
0
0
VERTEX
8
Layer 1
10
164.775500
20
889.604836
70
0
0
VERTEX
8
Layer 1
10
164.469830
20
889.171958
70
0
0
VERTEX
8
Layer 1
10
164.018870
20
888.887392
70
0
0
VERTEX
8
Layer 1
10
163.483500
20
888.788522
70
0
0
VERTEX
8
Layer 1
10
162.945720
20
888.887392
70
0
0
VERTEX
8
Layer 1
10
162.497170
20
889.171958
70
0
0
VERTEX
8
Layer 1
10
162.191500
20
889.604836
70
0
0
VERTEX
8
Layer 1
10
162.089610
20
890.131764
70
0
0
VERTEX
8
Layer 1
10
162.191500
20
890.659295
70
0
0
VERTEX
8
Layer 1
10
162.497170
20
891.093981
70
0
0
VERTEX
8
Layer 1
10
162.945720
20
891.376135
70
0
0
VERTEX
8
Layer 1
10
163.483500
20
891.475005
70
0
0
VERTEX
8
Layer 1
10
163.483500
20
891.475005
70
0
0
SEQEND
8
Layer 1
0
POLYLINE
8
Layer 1
62
7
70
0
10
0.000000
20
0.000000
66
1
0
VERTEX
8
Layer 1
10
162.559870
20
890.131760
70
0
0
VERTEX
8
Layer 1
10
162.829960
20
889.478224
70
0
0
VERTEX
8
Layer 1
10
163.483500
20
889.208128
70
0
0
VERTEX
8
Layer 1
10
164.134620
20
889.478224
70
0
0
VERTEX
8
Layer 1
10
164.407130
20
890.131760
70
0
0
VERTEX
8
Layer 1
10
164.134620
20
890.782884
70
0
0
VERTEX
8
Layer 1
10
163.483500
20
891.055392
70
0
0
VERTEX
8
Layer 1
10
162.829960
20
890.782884
70
0
0
VERTEX
8
Layer 1
10
162.559870
20
890.131760
70
0
0
VERTEX
8
Layer 1
10
162.559870
20
890.131760
70
0
0
SEQEND
8
Layer 1
0
POLYLINE
8
Layer 1
62
7
70
0
10
0.000000
20
0.000000
66
1
0
VERTEX
8
Layer 1
10
166.806650
20
892.140599
70
0
0
VERTEX
8
Layer 1
10
167.276900
20
892.140599
70
0
0
VERTEX
8
Layer 1
10
167.276900
20
891.424362
70
0
0
VERTEX
8
Layer 1
10
168.026900
20
891.424362
70
0
0
VERTEX
8
Layer 1
10
168.026900
20
891.004749
70
0
0
VERTEX
8
Layer 1
10
167.276900
20
891.004749
70
0
0
VERTEX
8
Layer 1
10
167.276900
20
889.557806
70
0
0
VERTEX
8
Layer 1
10
167.380600
20
889.343176
70
0
0
VERTEX
8
Layer 1
10
167.643460
20
889.256356
70
0
0
VERTEX
8
Layer 1
10
168.026900
20
889.256356
70
0
0
VERTEX
8
Layer 1
10
168.026900
20
888.836742
70
0
0
VERTEX
8
Layer 1
10
167.592820
20
888.836742
70
0
0
VERTEX
8
Layer 1
10
167.023690
20
889.036903
70
0
0
VERTEX
8
Layer 1
10
166.806650
20
889.548156
70
0
0
VERTEX
8
Layer 1
10
166.806650
20
892.140599
70
0
0
SEQEND
8
Layer 1
0
POLYLINE
8
Layer 1
62
7
70
0
10
0.000000
20
0.000000
66
1
0
VERTEX
8
Layer 1
10
168.297000
20
888.836745
70
0
0
VERTEX
8
Layer 1
10
168.297000
20
892.584329
70
0
0
VERTEX
8
Layer 1
10
168.767250
20
892.584329
70
0
0
VERTEX
8
Layer 1
10
168.767250
20
891.248318
70
0
0
VERTEX
8
Layer 1
10
169.020470
20
891.409893
70
0
0
VERTEX
8
Layer 1
10
169.370140
20
891.475003
70
0
0
VERTEX
8
Layer 1
10
169.785538
20
891.401450
70
0
0
VERTEX
8
Layer 1
10
170.129790
20
891.180792
70
0
0
VERTEX
8
Layer 1
10
170.363108
20
890.851612
70
0
0
VERTEX
8
Layer 1
10
170.440880
20
890.452497
70
0
0
VERTEX
8
Layer 1
10
170.440880
20
888.836743
70
0
0
VERTEX
8
Layer 1
10
169.970630
20
888.836743
70
0
0
VERTEX
8
Layer 1
10
169.970630
20
890.452497
70
0
0
VERTEX
8
Layer 1
10
169.794580
20
890.876934
70
0
0
VERTEX
8
Layer 1
10
169.370140
20
891.055390
70
0
0
VERTEX
8
Layer 1
10
168.943300
20
890.876934
70
0
0
VERTEX
8
Layer 1
10
168.767250
20
890.452497
70
0
0
VERTEX
8
Layer 1
10
168.767250
20
888.836743
70
0
0
VERTEX
8
Layer 1
10
168.297000
20
888.836745
70
0
0
SEQEND
8
Layer 1
0
POLYLINE
8
Layer 1
62
7
70
0
10
0.000000
20
0.000000
66
1
0
VERTEX
8
Layer 1
10
170.978670
20
888.836745
70
0
0
VERTEX
8
Layer 1
10
170.978670
20
891.424360
70
0
0
VERTEX
8
Layer 1
10
171.448920
20
891.424360
70
0
0
VERTEX
8
Layer 1
10
171.448920
20
888.836743
70
0
0
VERTEX
8
Layer 1
10
170.978670
20
888.836745
70
0
0
SEQEND
8
Layer 1
0
POLYLINE
8
Layer 1
62
7
70
0
10
0.000000
20
0.000000
66
1
0
VERTEX
8
Layer 1
10
171.210180
20
892.299763
70
0
0
VERTEX
8
Layer 1
10
171.405510
20
892.217773
70
0
0
VERTEX
8
Layer 1
10
171.487510
20
892.024847
70
0
0
VERTEX
8
Layer 1
10
171.405510
20
891.827098
70
0
0
VERTEX
8
Layer 1
10
171.210180
20
891.747518
70
0
0
VERTEX
8
Layer 1
10
171.014840
20
891.827098
70
0
0
VERTEX
8
Layer 1
10
170.935240
20
892.024847
70
0
0
VERTEX
8
Layer 1
10
171.014840
20
892.217773
70
0
0
VERTEX
8
Layer 1
10
171.210180
20
892.299763
70
0
0
VERTEX
8
Layer 1
10
171.210180
20
892.299763
70
0
0
SEQEND
8
Layer 1
0
POLYLINE
8
Layer 1
62
7
70
0
10
0.000000
20
0.000000
66
1
0
VERTEX
8
Layer 1
10
173.202130
20
889.750731
70
0
0
VERTEX
8
Layer 1
10
172.362910
20
890.105232
70
0
0
VERTEX
8
Layer 1
10
172.017452
20
890.373520
70
0
0
VERTEX
8
Layer 1
10
171.902300
20
890.792531
70
0
0
VERTEX
8
Layer 1
10
172.097630
20
891.238671
70
0
0
VERTEX
8
Layer 1
10
172.575130
20
891.424362
70
0
0
VERTEX
8
Layer 1
10
173.756800
20
891.424362
70
0
0
VERTEX
8
Layer 1
10
173.756800
20
891.004749
70
0
0
VERTEX
8
Layer 1
10
172.604060
20
891.004749
70
0
0
VERTEX
8
Layer 1
10
172.440080
20
890.942049
70
0
0
VERTEX
8
Layer 1
10
172.372580
20
890.792532
70
0
0
VERTEX
8
Layer 1
10
172.420780
20
890.611664
70
0
0
VERTEX
8
Layer 1
10
172.584770
20
890.495908
70
0
0
VERTEX
8
Layer 1
10
173.399880
20
890.151053
70
0
0
VERTEX
8
Layer 1
10
173.767043
20
889.876737
70
0
0
VERTEX
8
Layer 1
10
173.889430
20
889.468578
70
0
0
VERTEX
8
Layer 1
10
173.682040
20
889.020026
70
0
0
VERTEX
8
Layer 1
10
173.173190
20
888.836746
70
0
0
VERTEX
8
Layer 1
10
171.907120
20
888.836746
70
0
0
VERTEX
8
Layer 1
10
171.907120
20
889.256360
70
0
0
VERTEX
8
Layer 1
10
173.141840
20
889.256360
70
0
0
VERTEX
8
Layer 1
10
173.337180
20
889.316650
70
0
0
VERTEX
8
Layer 1
10
173.419180
20
889.468579
70
0
0
VERTEX
8
Layer 1
10
173.202130
20
889.750733
70
0
0
VERTEX
8
Layer 1
10
173.202130
20
889.750731
70
0
0
SEQEND
8
Layer 1
0
POLYLINE
8
Layer 1
62
7
70
0
10
0.000000
20
0.000000
66
1
0
VERTEX
8
Layer 1
10
174.087180
20
892.319056
70
0
0
VERTEX
8
Layer 1
10
174.393450
20
892.584329
70
0
0
VERTEX
8
Layer 1
10
175.220018
20
891.552176
70
0
0
VERTEX
8
Layer 1
10
175.495540
20
890.317451
70
0
0
VERTEX
8
Layer 1
10
175.220018
20
889.081520
70
0
0
VERTEX
8
Layer 1
10
174.393450
20
888.045750
70
0
0
VERTEX
8
Layer 1
10
174.087180
20
888.313434
70
0
0
VERTEX
8
Layer 1
10
174.790755
20
889.213554
70
0
0
VERTEX
8
Layer 1
10
175.025280
20
890.317451
70
0
0
VERTEX
8
Layer 1
10
174.790755
20
891.423157
70
0
0
VERTEX
8
Layer 1
10
174.087180
20
892.319056
70
0
0
VERTEX
8
Layer 1
10
174.087180
20
892.319056
70
0
0
SEQEND
8
Layer 1
0
POLYLINE
8
Layer 1
62
7
70
0
10
0.000000
20
0.000000
66
1
0
VERTEX
8
Layer 1
10
176.317880
20
889.420346
70
0
0
VERTEX
8
Layer 1
10
176.539750
20
889.326296
70
0
0
VERTEX
8
Layer 1
10
176.633850
20
889.104431
70
0
0
VERTEX
8
Layer 1
10
176.539750
20
888.880155
70
0
0
VERTEX
8
Layer 1
10
176.317880
20
888.788515
70
0
0
VERTEX
8
Layer 1
10
176.093610
20
888.880155
70
0
0
VERTEX
8
Layer 1
10
176.002010
20
889.104431
70
0
0
VERTEX
8
Layer 1
10
176.093610
20
889.326296
70
0
0
VERTEX
8
Layer 1
10
176.317880
20
889.420346
70
0
0
VERTEX
8
Layer 1
10
176.317880
20
889.420346
70
0
0
SEQEND
8
Layer 1
0
POLYLINE
8
Layer 1
62
7
70
0
10
0.000000
20
0.000000
66
1
0
VERTEX
8
Layer 1
10
176.317880
20
890.980633
70
0
0
VERTEX
8
Layer 1
10
176.539750
20
890.886583
70
0
0
VERTEX
8
Layer 1
10
176.633850
20
890.664718
70
0
0
VERTEX
8
Layer 1
10
176.539750
20
890.440442
70
0
0
VERTEX
8
Layer 1
10
176.317880
20
890.348802
70
0
0
VERTEX
8
Layer 1
10
176.093610
20
890.440442
70
0
0
VERTEX
8
Layer 1
10
176.002010
20
890.664718
70
0
0
VERTEX
8
Layer 1
10
176.093610
20
890.886583
70
0
0
VERTEX
8
Layer 1
10
176.317880
20
890.980633
70
0
0
VERTEX
8
Layer 1
10
176.317880
20
890.980633
70
0
0
SEQEND
8
Layer 1
0
POLYLINE
8
Layer 1
62
7
70
0
10
0.000000
20
0.000000
66
1
0
VERTEX
8
Layer 1
10
179.928010
20
892.065841
70
0
0
VERTEX
8
Layer 1
10
179.867710
20
892.140601
70
0
0
VERTEX
8
Layer 1
10
179.358870
20
892.140601
70
0
0
VERTEX
8
Layer 1
10
179.474630
20
892.584331
70
0
0
VERTEX
8
Layer 1
10
179.988290
20
892.584331
70
0
0
VERTEX
8
Layer 1
10
180.306620
20
892.466164
70
0
0
VERTEX
8
Layer 1
10
180.422370
20
892.145425
70
0
0
VERTEX
8
Layer 1
10
180.422370
20
888.836747
70
0
0
VERTEX
8
Layer 1
10
179.928000
20
888.836747
70
0
0
VERTEX
8
Layer 1
10
179.928010
20
892.065841
70
0
0
SEQEND
8
Layer 1
0
POLYLINE
8
Layer 1
62
7
70
0
10
0.000000
20
0.000000
66
1
0
VERTEX
8
Layer 1
10
183.870930
20
890.066647
70
0
0
VERTEX
8
Layer 1
10
183.870930
20
891.349604
70
0
0
VERTEX
8
Layer 1
10
183.641830
20
891.935616
70
0
0
VERTEX
8
Layer 1
10
183.111290
20
892.191242
70
0
0
VERTEX
8
Layer 1
10
182.580740
20
891.933204
70
0
0
VERTEX
8
Layer 1
10
182.351640
20
891.349604
70
0
0
VERTEX
8
Layer 1
10
182.351640
20
890.066647
70
0
0
VERTEX
8
Layer 1
10
182.578330
20
889.485458
70
0
0
VERTEX
8
Layer 1
10
183.111290
20
889.232243
70
0
0
VERTEX
8
Layer 1
10
183.641830
20
889.485458
70
0
0
VERTEX
8
Layer 1
10
183.870930
20
890.066647
70
0
0
VERTEX
8
Layer 1
10
183.870930
20
890.066647
70
0
0
SEQEND
8
Layer 1
0
POLYLINE
8
Layer 1
62
7
70
0
10
0.000000
20
0.000000
66
1
0
VERTEX
8
Layer 1
10
184.365300
20
890.042537
70
0
0
VERTEX
8
Layer 1
10
184.268800
20
889.565045
70
0
0
VERTEX
8
Layer 1
10
183.996290
20
889.157490
70
0
0
VERTEX
8
Layer 1
10
183.588740
20
888.882570
70
0
0
VERTEX
8
Layer 1
10
183.111250
20
888.788520
70
0
0
VERTEX
8
Layer 1
10
182.631340
20
888.882570
70
0
0
VERTEX
8
Layer 1
10
182.226200
20
889.155078
70
0
0
VERTEX
8
Layer 1
10
181.951280
20
889.562634
70
0
0
VERTEX
8
Layer 1
10
181.857180
20
890.042537
70
0
0
VERTEX
8
Layer 1
10
181.857180
20
891.380959
70
0
0
VERTEX
8
Layer 1
10
181.951280
20
891.860862
70
0
0
VERTEX
8
Layer 1
10
182.226200
20
892.268418
70
0
0
VERTEX
8
Layer 1
10
182.631340
20
892.538514
70
0
0
VERTEX
8
Layer 1
10
183.111250
20
892.634974
70
0
0
VERTEX
8
Layer 1
10
183.588740
20
892.538514
70
0
0
VERTEX
8
Layer 1
10
183.996290
20
892.268418
70
0
0
VERTEX
8
Layer 1
10
184.268800
20
891.860862
70
0
0
VERTEX
8
Layer 1
10
184.365300
20
891.380959
70
0
0
VERTEX
8
Layer 1
10
184.365300
20
890.042537
70
0
0
SEQEND
8
Layer 1
0
POLYLINE
8
Layer 1
62
7
70
0
10
0.000000
20
0.000000
66
1
0
VERTEX
8
Layer 1
10
184.944080
20
891.518419
70
0
0
VERTEX
8
Layer 1
10
184.900680
20
892.584334
70
0
0
VERTEX
8
Layer 1
10
185.433640
20
892.584334
70
0
0
VERTEX
8
Layer 1
10
185.387840
20
891.518419
70
0
0
VERTEX
8
Layer 1
10
184.944080
20
891.518419
70
0
0
SEQEND
8
Layer 1
0
POLYLINE
8
Layer 1
62
7
70
0
10
0.000000
20
0.000000
66
1
0
VERTEX
8
Layer 1
10
185.923180
20
891.518419
70
0
0
VERTEX
8
Layer 1
10
185.877380
20
892.584334
70
0
0
VERTEX
8
Layer 1
10
186.410340
20
892.584334
70
0
0
VERTEX
8
Layer 1
10
186.366940
20
891.518419
70
0
0
VERTEX
8
Layer 1
10
185.923180
20
891.518419
70
0
0
SEQEND
8
Layer 1
0
POLYLINE
8
milled_holes
62
18
70
0
10
0.000000
20
0.000000
66
1
0
VERTEX
8
milled_holes
10
266.099700
20
807.467380
70
0
0
VERTEX
8
milled_holes
10
266.760829
20
807.667931
70
0
0
VERTEX
8
milled_holes
10
267.199117
20
808.201987
70
0
0
VERTEX
8
milled_holes
10
267.266835
20
808.889538
70
0
0
VERTEX
8
milled_holes
10
266.941157
20
809.498837
70
0
0
VERTEX
8
milled_holes
10
266.331858
20
809.824515
70
0
0
VERTEX
8
milled_holes
10
265.644307
20
809.756797
70
0
0
VERTEX
8
milled_holes
10
265.110251
20
809.318509
70
0
0
VERTEX
8
milled_holes
10
264.909700
20
808.657380
70
0
0
VERTEX
8
milled_holes
10
265.000283
20
808.201987
70
0
0
VERTEX
8
milled_holes
10
265.258243
20
807.815923
70
0
0
VERTEX
8
milled_holes
10
265.644307
20
807.557963
70
0
0
VERTEX
8
milled_holes
10
266.099700
20
807.467380
70
0
0
VERTEX
8
milled_holes
10
266.099700
20
807.467380
70
0
0
SEQEND
8
milled_holes
0
POLYLINE
8
milled_holes
62
18
70
0
10
0.000000
20
0.000000
66
1
0
VERTEX
8
milled_holes
10
258.687990
20
800.292210
70
0
0
VERTEX
8
milled_holes
10
259.349119
20
800.492761
70
0
0
VERTEX
8
milled_holes
10
259.787407
20
801.026817
70
0
0
VERTEX
8
milled_holes
10
259.855125
20
801.714368
70
0
0
VERTEX
8
milled_holes
10
259.529447
20
802.323667
70
0
0
VERTEX
8
milled_holes
10
258.920148
20
802.649345
70
0
0
VERTEX
8
milled_holes
10
258.232597
20
802.581627
70
0
0
VERTEX
8
milled_holes
10
257.698541
20
802.143339
70
0
0
VERTEX
8
milled_holes
10
257.497990
20
801.482210
70
0
0
VERTEX
8
milled_holes
10
257.588573
20
801.026817
70
0
0
VERTEX
8
milled_holes
10
257.846533
20
800.640753
70
0
0
VERTEX
8
milled_holes
10
258.232597
20
800.382793
70
0
0
VERTEX
8
milled_holes
10
258.687990
20
800.292210
70
0
0
VERTEX
8
milled_holes
10
258.687990
20
800.292210
70
0
0
SEQEND
8
milled_holes
0
POLYLINE
8
milled_holes
62
18
70
0
10
0.000000
20
0.000000
66
1
0
VERTEX
8
milled_holes
10
224.354450
20
814.845078
70
0
0
VERTEX
8
milled_holes
10
225.015579
20
815.045629
70
0
0
VERTEX
8
milled_holes
10
225.453867
20
815.579685
70
0
0
VERTEX
8
milled_holes
10
225.521585
20
816.267236
70
0
0
VERTEX
8
milled_holes
10
225.195907
20
816.876535
70
0
0
VERTEX
8
milled_holes
10
224.586608
20
817.202213
70
0
0
VERTEX
8
milled_holes
10
223.899057
20
817.134495
70
0
0
VERTEX
8
milled_holes
10
223.365001
20
816.696207
70
0
0
VERTEX
8
milled_holes
10
223.164450
20
816.035078
70
0
0
VERTEX
8
milled_holes
10
223.255033
20
815.579685
70
0
0
VERTEX
8
milled_holes
10
223.512993
20
815.193621
70
0
0
VERTEX
8
milled_holes
10
223.899057
20
814.935661
70
0
0
VERTEX
8
milled_holes
10
224.354450
20
814.845078
70
0
0
VERTEX
8
milled_holes
10
224.354450
20
814.845078
70
0
0
SEQEND
8
milled_holes
0
POLYLINE
8
milled_holes
62
18
70
0
10
0.000000
20
0.000000
66
1
0
VERTEX
8
milled_holes
10
218.210130
20
800.852780
70
0
0
VERTEX
8
milled_holes
10
218.871259
20
801.053331
70
0
0
VERTEX
8
milled_holes
10
219.309547
20
801.587387
70
0
0
VERTEX
8
milled_holes
10
219.377265
20
802.274938
70
0
0
VERTEX
8
milled_holes
10
219.051587
20
802.884237
70
0
0
VERTEX
8
milled_holes
10
218.442288
20
803.209915
70
0
0
VERTEX
8
milled_holes
10
217.754737
20
803.142197
70
0
0
VERTEX
8
milled_holes
10
217.220681
20
802.703909
70
0
0
VERTEX
8
milled_holes
10
217.020130
20
802.042780
70
0
0
VERTEX
8
milled_holes
10
217.110713
20
801.587387
70
0
0
VERTEX
8
milled_holes
10
217.368673
20
801.201323
70
0
0
VERTEX
8
milled_holes
10
217.754737
20
800.943363
70
0
0
VERTEX
8
milled_holes
10
218.210130
20
800.852780
70
0
0
VERTEX
8
milled_holes
10
218.210130
20
800.852780
70
0
0
SEQEND
8
milled_holes
0
POLYLINE
8
milled_holes
62
18
70
0
10
0.000000
20
0.000000
66
1
0
VERTEX
8
milled_holes
10
235.784380
20
805.178100
70
0
0
VERTEX
8
milled_holes
10
236.445509
20
805.378651
70
0
0
VERTEX
8
milled_holes
10
236.883797
20
805.912707
70
0
0
VERTEX
8
milled_holes
10
236.951515
20
806.600258
70
0
0
VERTEX
8
milled_holes
10
236.625837
20
807.209557
70
0
0
VERTEX
8
milled_holes
10
236.016538
20
807.535235
70
0
0
VERTEX
8
milled_holes
10
235.328987
20
807.467517
70
0
0
VERTEX
8
milled_holes
10
234.794931
20
807.029229
70
0
0
VERTEX
8
milled_holes
10
234.594380
20
806.368100
70
0
0
VERTEX
8
milled_holes
10
234.684963
20
805.912707
70
0
0
VERTEX
8
milled_holes
10
234.942923
20
805.526643
70
0
0
VERTEX
8
milled_holes
10
235.328987
20
805.268683
70
0
0
VERTEX
8
milled_holes
10
235.784380
20
805.178100
70
0
0
VERTEX
8
milled_holes
10
235.784380
20
805.178100
70
0
0
SEQEND
8
milled_holes
0
POLYLINE
8
milled_holes
62
18
70
0
10
0.000000
20
0.000000
66
1
0
VERTEX
8
milled_holes
10
212.896880
20
804.799900
70
0
0
VERTEX
8
milled_holes
10
213.558009
20
805.000451
70
0
0
VERTEX
8
milled_holes
10
213.996297
20
805.534507
70
0
0
VERTEX
8
milled_holes
10
214.064015
20
806.222058
70
0
0
VERTEX
8
milled_holes
10
213.738337
20
806.831357
70
0
0
VERTEX
8
milled_holes
10
213.129038
20
807.157035
70
0
0
VERTEX
8
milled_holes
10
212.441487
20
807.089317
70
0
0
VERTEX
8
milled_holes
10
211.907431
20
806.651029
70
0
0
VERTEX
8
milled_holes
10
211.706880
20
805.989900
70
0
0
VERTEX
8
milled_holes
10
211.800396
20
805.526698
70
0
0
VERTEX
8
milled_holes
10
212.055423
20
805.148443
70
0
0
VERTEX
8
milled_holes
10
212.433678
20
804.893416
70
0
0
VERTEX
8
milled_holes
10
212.896880
20
804.799900
70
0
0
VERTEX
8
milled_holes
10
212.896880
20
804.799900
70
0
0
SEQEND
8
milled_holes
0
POLYLINE
8
milled_holes
62
18
70
0
10
0.000000
20
0.000000
66
1
0
VERTEX
8
milled_holes
10
203.628710
20
812.019350
70
0
0
VERTEX
8
milled_holes
10
204.289839
20
812.219901
70
0
0
VERTEX
8
milled_holes
10
204.728127
20
812.753957
70
0
0
VERTEX
8
milled_holes
10
204.795845
20
813.441508
70
0
0
VERTEX
8
milled_holes
10
204.470167
20
814.050807
70
0
0
VERTEX
8
milled_holes
10
203.860868
20
814.376485
70
0
0
VERTEX
8
milled_holes
10
203.173317
20
814.308767
70
0
0
VERTEX
8
milled_holes
10
202.639261
20
813.870479
70
0
0
VERTEX
8
milled_holes
10
202.438710
20
813.209350
70
0
0
VERTEX
8
milled_holes
10
202.529293
20
812.753957
70
0
0
VERTEX
8
milled_holes
10
202.787253
20
812.367893
70
0
0
VERTEX
8
milled_holes
10
203.173317
20
812.109933
70
0
0
VERTEX
8
milled_holes
10
203.628710
20
812.019350
70
0
0
VERTEX
8
milled_holes
10
203.628710
20
812.019350
70
0
0
SEQEND
8
milled_holes
0
POLYLINE
8
milled_holes
62
18
70
0
10
0.000000
20
0.000000
66
1
0
VERTEX
8
milled_holes
10
197.417720
20
801.056120
70
0
0
VERTEX
8
milled_holes
10
198.078849
20
801.256671
70
0
0
VERTEX
8
milled_holes
10
198.517137
20
801.790727
70
0
0
VERTEX
8
milled_holes
10
198.584855
20
802.478278
70
0
0
VERTEX
8
milled_holes
10
198.259177
20
803.087577
70
0
0
VERTEX
8
milled_holes
10
197.649878
20
803.413255
70
0
0
VERTEX
8
milled_holes
10
196.962327
20
803.345537
70
0
0
VERTEX
8
milled_holes
10
196.428271
20
802.907249
70
0
0
VERTEX
8
milled_holes
10
196.227720
20
802.246120
70
0
0
VERTEX
8
milled_holes
10
196.318303
20
801.790727
70
0
0
VERTEX
8
milled_holes
10
196.576263
20
801.404663
70
0
0
VERTEX
8
milled_holes
10
196.962327
20
801.146703
70
0
0
VERTEX
8
milled_holes
10
197.417720
20
801.056120
70
0
0
VERTEX
8
milled_holes
10
197.417720
20
801.056120
70
0
0
SEQEND
8
milled_holes
0
POLYLINE
8
milled_holes
62
18
70
0
10
0.000000
20
0.000000
66
1
0
VERTEX
8
milled_holes
10
185.308180
20
800.823640
70
0
0
VERTEX
8
milled_holes
10
185.969309
20
801.024191
70
0
0
VERTEX
8
milled_holes
10
186.407597
20
801.558247
70
0
0
VERTEX
8
milled_holes
10
186.475315
20
802.245798
70
0
0
VERTEX
8
milled_holes
10
186.149637
20
802.855097
70
0
0
VERTEX
8
milled_holes
10
185.540338
20
803.180775
70
0
0
VERTEX
8
milled_holes
10
184.852787
20
803.113057
70
0
0
VERTEX
8
milled_holes
10
184.318731
20
802.674769
70
0
0
VERTEX
8
milled_holes
10
184.118180
20
802.013640
70
0
0
VERTEX
8
milled_holes
10
184.211696
20
801.550438
70
0
0
VERTEX
8
milled_holes
10
184.466723
20
801.172183
70
0
0
VERTEX
8
milled_holes
10
184.844978
20
800.917156
70
0
0
VERTEX
8
milled_holes
10
185.308180
20
800.823640
70
0
0
VERTEX
8
milled_holes
10
185.308180
20
800.823640
70
0
0
SEQEND
8
milled_holes
0
POLYLINE
8
milled_holes
62
18
70
0
10
0.000000
20
0.000000
66
1
0
VERTEX
8
milled_holes
10
172.531830
20
801.086090
70
0
0
VERTEX
8
milled_holes
10
173.192959
20
801.286641
70
0
0
VERTEX
8
milled_holes
10
173.631247
20
801.820697
70
0
0
VERTEX
8
milled_holes
10
173.698965
20
802.508248
70
0
0
VERTEX
8
milled_holes
10
173.373287
20
803.117547
70
0
0
VERTEX
8
milled_holes
10
172.763988
20
803.443225
70
0
0
VERTEX
8
milled_holes
10
172.076437
20
803.375507
70
0
0
VERTEX
8
milled_holes
10
171.542381
20
802.937219
70
0
0
VERTEX
8
milled_holes
10
171.341830
20
802.276090
70
0
0
VERTEX
8
milled_holes
10
171.432413
20
801.820697
70
0
0
VERTEX
8
milled_holes
10
171.690373
20
801.434633
70
0
0
VERTEX
8
milled_holes
10
172.076437
20
801.176673
70
0
0
VERTEX
8
milled_holes
10
172.531830
20
801.086090
70
0
0
VERTEX
8
milled_holes
10
172.531830
20
801.086090
70
0
0
SEQEND
8
milled_holes
0
POLYLINE
8
milled_holes
62
18
70
0
10
0.000000
20
0.000000
66
1
0
VERTEX
8
milled_holes
10
162.892560
20
801.201720
70
0
0
VERTEX
8
milled_holes
10
163.553689
20
801.402271
70
0
0
VERTEX
8
milled_holes
10
163.991977
20
801.936327
70
0
0
VERTEX
8
milled_holes
10
164.059695
20
802.623878
70
0
0
VERTEX
8
milled_holes
10
163.734017
20
803.233177
70
0
0
VERTEX
8
milled_holes
10
163.124718
20
803.558855
70
0
0
VERTEX
8
milled_holes
10
162.437167
20
803.491137
70
0
0
VERTEX
8
milled_holes
10
161.903111
20
803.052849
70
0
0
VERTEX
8
milled_holes
10
161.702560
20
802.391720
70
0
0
VERTEX
8
milled_holes
10
161.796076
20
801.928518
70
0
0
VERTEX
8
milled_holes
10
162.051103
20
801.550263
70
0
0
VERTEX
8
milled_holes
10
162.429358
20
801.295236
70
0
0
VERTEX
8
milled_holes
10
162.892560
20
801.201720
70
0
0
VERTEX
8
milled_holes
10
162.892560
20
801.201720
70
0
0
SEQEND
8
milled_holes
0
POLYLINE
8
milled_holes
62
18
70
0
10
0.000000
20
0.000000
66
1
0
VERTEX
8
milled_holes
10
149.650670
20
804.050390
70
0
0
VERTEX
8
milled_holes
10
150.311799
20
804.250941
70
0
0
VERTEX
8
milled_holes
10
150.750087
20
804.784997
70
0
0
VERTEX
8
milled_holes
10
150.817805
20
805.472548
70
0
0
VERTEX
8
milled_holes
10
150.492127
20
806.081847
70
0
0
VERTEX
8
milled_holes
10
149.882828
20
806.407525
70
0
0
VERTEX
8
milled_holes
10
149.195277
20
806.339807
70
0
0
VERTEX
8
milled_holes
10
148.661221
20
805.901519
70
0
0
VERTEX
8
milled_holes
10
148.460670
20
805.240390
70
0
0
VERTEX
8
milled_holes
10
148.551253
20
804.784997
70
0
0
VERTEX
8
milled_holes
10
148.809213
20
804.398933
70
0
0
VERTEX
8
milled_holes
10
149.195277
20
804.140973
70
0
0
VERTEX
8
milled_holes
10
149.650670
20
804.050390
70
0
0
VERTEX
8
milled_holes
10
149.650670
20
804.050390
70
0
0
SEQEND
8
milled_holes
0
POLYLINE
8
milled_holes
62
18
70
0
10
0.000000
20
0.000000
66
1
0
VERTEX
8
milled_holes
10
141.569500
20
801.056520
70
0
0
VERTEX
8
milled_holes
10
142.230629
20
801.257071
70
0
0
VERTEX
8
milled_holes
10
142.668917
20
801.791127
70
0
0
VERTEX
8
milled_holes
10
142.736635
20
802.478678
70
0
0
VERTEX
8
milled_holes
10
142.410957
20
803.087977
70
0
0
VERTEX
8
milled_holes
10
141.801658
20
803.413655
70
0
0
VERTEX
8
milled_holes
10
141.114107
20
803.345937
70
0
0
VERTEX
8
milled_holes
10
140.580051
20
802.907649
70
0
0
VERTEX
8
milled_holes
10
140.379500
20
802.246520
70
0
0
VERTEX
8
milled_holes
10
140.470083
20
801.791127
70
0
0
VERTEX
8
milled_holes
10
140.728043
20
801.405063
70
0
0
VERTEX
8
milled_holes
10
141.114107
20
801.147103
70
0
0
VERTEX
8
milled_holes
10
141.569500
20
801.056520
70
0
0
VERTEX
8
milled_holes
10
141.569500
20
801.056520
70
0
0
SEQEND
8
milled_holes
0
POLYLINE
8
milled_holes
62
18
70
0
10
0.000000
20
0.000000
66
1
0
VERTEX
8
milled_holes
10
127.372700
20
801.202700
70
0
0
VERTEX
8
milled_holes
10
127.835902
20
801.296216
70
0
0
VERTEX
8
milled_holes
10
128.214157
20
801.551243
70
0
0
VERTEX
8
milled_holes
10
128.469184
20
801.929498
70
0
0
VERTEX
8
milled_holes
10
128.562700
20
802.392700
70
0
0
VERTEX
8
milled_holes
10
128.469184
20
802.855902
70
0
0
VERTEX
8
milled_holes
10
128.214157
20
803.234157
70
0
0
VERTEX
8
milled_holes
10
127.835902
20
803.489184
70
0
0
VERTEX
8
milled_holes
10
127.372700
20
803.582700
70
0
0
VERTEX
8
milled_holes
10
126.909498
20
803.489184
70
0
0
VERTEX
8
milled_holes
10
126.531243
20
803.234157
70
0
0
VERTEX
8
milled_holes
10
126.276216
20
802.855902
70
0
0
VERTEX
8
milled_holes
10
126.182700
20
802.392700
70
0
0
VERTEX
8
milled_holes
10
126.273283
20
801.937307
70
0
0
VERTEX
8
milled_holes
10
126.531243
20
801.551243
70
0
0
VERTEX
8
milled_holes
10
126.917307
20
801.293283
70
0
0
VERTEX
8
milled_holes
10
127.372700
20
801.202700
70
0
0
VERTEX
8
milled_holes
10
127.372700
20
801.202700
70
0
0
SEQEND
8
milled_holes
0
POLYLINE
8
milled_holes
62
18
70
0
10
0.000000
20
0.000000
66
1
0
VERTEX
8
milled_holes
10
113.404620
20
800.986820
70
0
0
VERTEX
8
milled_holes
10
114.065749
20
801.187371
70
0
0
VERTEX
8
milled_holes
10
114.504037
20
801.721427
70
0
0
VERTEX
8
milled_holes
10
114.571755
20
802.408978
70
0
0
VERTEX
8
milled_holes
10
114.246077
20
803.018277
70
0
0
VERTEX
8
milled_holes
10
113.636778
20
803.343955
70
0
0
VERTEX
8
milled_holes
10
112.949227
20
803.276237
70
0
0
VERTEX
8
milled_holes
10
112.415171
20
802.837949
70
0
0
VERTEX
8
milled_holes
10
112.214620
20
802.176820
70
0
0
VERTEX
8
milled_holes
10
112.305203
20
801.721427
70
0
0
VERTEX
8
milled_holes
10
112.563163
20
801.335363
70
0
0
VERTEX
8
milled_holes
10
112.949227
20
801.077403
70
0
0
VERTEX
8
milled_holes
10
113.404620
20
800.986820
70
0
0
VERTEX
8
milled_holes
10
113.404620
20
800.986820
70
0
0
SEQEND
8
milled_holes
0
POLYLINE
8
milled_holes
62
18
70
0
10
0.000000
20
0.000000
66
1
0
VERTEX
8
milled_holes
10
88.428955
20
802.765140
70
0
0
VERTEX
8
milled_holes
10
89.090084
20
802.965691
70
0
0
VERTEX
8
milled_holes
10
89.528372
20
803.499747
70
0
0
VERTEX
8
milled_holes
10
89.596090
20
804.187298
70
0
0
VERTEX
8
milled_holes
10
89.270412
20
804.796597
70
0
0
VERTEX
8
milled_holes
10
88.661113
20
805.122275
70
0
0
VERTEX
8
milled_holes
10
87.973562
20
805.054557
70
0
0
VERTEX
8
milled_holes
10
87.439506
20
804.616269
70
0
0
VERTEX
8
milled_holes
10
87.238955
20
803.955140
70
0
0
VERTEX
8
milled_holes
10
87.329538
20
803.499747
70
0
0
VERTEX
8
milled_holes
10
87.587498
20
803.113683
70
0
0
VERTEX
8
milled_holes
10
87.973562
20
802.855723
70
0
0
VERTEX
8
milled_holes
10
88.428955
20
802.765140
70
0
0
VERTEX
8
milled_holes
10
88.428955
20
802.765140
70
0
0
SEQEND
8
milled_holes
0
POLYLINE
8
milled_holes
62
18
70
0
10
0.000000
20
0.000000
66
1
0
VERTEX
8
milled_holes
10
67.820976
20
802.680850
70
0
0
VERTEX
8
milled_holes
10
68.482105
20
802.881401
70
0
0
VERTEX
8
milled_holes
10
68.920393
20
803.415457
70
0
0
VERTEX
8
milled_holes
10
68.988111
20
804.103008
70
0
0
VERTEX
8
milled_holes
10
68.662433
20
804.712307
70
0
0
VERTEX
8
milled_holes
10
68.053134
20
805.037985
70
0
0
VERTEX
8
milled_holes
10
67.365583
20
804.970267
70
0
0
VERTEX
8
milled_holes
10
66.831527
20
804.531979
70
0
0
VERTEX
8
milled_holes
10
66.630976
20
803.870850
70
0
0
VERTEX
8
milled_holes
10
66.721559
20
803.415457
70
0
0
VERTEX
8
milled_holes
10
66.979519
20
803.029393
70
0
0
VERTEX
8
milled_holes
10
67.365583
20
802.771433
70
0
0
VERTEX
8
milled_holes
10
67.820976
20
802.680850
70
0
0
VERTEX
8
milled_holes
10
67.820976
20
802.680850
70
0
0
SEQEND
8
milled_holes
0
POLYLINE
8
milled_holes
62
18
70
0
10
0.000000
20
0.000000
66
1
0
VERTEX
8
milled_holes
10
50.409058
20
808.484560
70
0
0
VERTEX
8
milled_holes
10
51.070187
20
808.685111
70
0
0
VERTEX
8
milled_holes
10
51.508475
20
809.219167
70
0
0
VERTEX
8
milled_holes
10
51.576193
20
809.906718
70
0
0
VERTEX
8
milled_holes
10
51.250515
20
810.516017
70
0
0
VERTEX
8
milled_holes
10
50.641216
20
810.841695
70
0
0
VERTEX
8
milled_holes
10
49.953665
20
810.773977
70
0
0
VERTEX
8
milled_holes
10
49.419609
20
810.335689
70
0
0
VERTEX
8
milled_holes
10
49.219058
20
809.674560
70
0
0
VERTEX
8
milled_holes
10
49.309641
20
809.219167
70
0
0
VERTEX
8
milled_holes
10
49.567601
20
808.833103
70
0
0
VERTEX
8
milled_holes
10
49.953665
20
808.575143
70
0
0
VERTEX
8
milled_holes
10
50.409058
20
808.484560
70
0
0
VERTEX
8
milled_holes
10
50.409058
20
808.484560
70
0
0
SEQEND
8
milled_holes
0
POLYLINE
8
milled_holes
62
18
70
0
10
0.000000
20
0.000000
66
1
0
VERTEX
8
milled_holes
10
44.124947
20
813.288514
70
0
0
VERTEX
8
milled_holes
10
44.786076
20
813.489065
70
0
0
VERTEX
8
milled_holes
10
45.224364
20
814.023121
70
0
0
VERTEX
8
milled_holes
10
45.292082
20
814.710672
70
0
0
VERTEX
8
milled_holes
10
44.966404
20
815.319971
70
0
0
VERTEX
8
milled_holes
10
44.357105
20
815.645649
70
0
0
VERTEX
8
milled_holes
10
43.669554
20
815.577931
70
0
0
VERTEX
8
milled_holes
10
43.135498
20
815.139643
70
0
0
VERTEX
8
milled_holes
10
42.934947
20
814.478514
70
0
0
VERTEX
8
milled_holes
10
43.025530
20
814.023121
70
0
0
VERTEX
8
milled_holes
10
43.283490
20
813.637057
70
0
0
VERTEX
8
milled_holes
10
43.669554
20
813.379097
70
0
0
VERTEX
8
milled_holes
10
44.124947
20
813.288514
70
0
0
VERTEX
8
milled_holes
10
44.124947
20
813.288514
70
0
0
SEQEND
8
milled_holes
0
POLYLINE
8
milled_holes
62
18
70
0
10
0.000000
20
0.000000
66
1
0
VERTEX
8
milled_holes
10
39.225307
20
813.376496
70
0
0
VERTEX
8
milled_holes
10
39.886436
20
813.577047
70
0
0
VERTEX
8
milled_holes
10
40.324724
20
814.111103
70
0
0
VERTEX
8
milled_holes
10
40.392442
20
814.798654
70
0
0
VERTEX
8
milled_holes
10
40.066764
20
815.407953
70
0
0
VERTEX
8
milled_holes
10
39.457465
20
815.733631
70
0
0
VERTEX
8
milled_holes
10
38.769914
20
815.665913
70
0
0
VERTEX
8
milled_holes
10
38.235858
20
815.227625
70
0
0
VERTEX
8
milled_holes
10
38.035307
20
814.566496
70
0
0
VERTEX
8
milled_holes
10
38.125890
20
814.111103
70
0
0
VERTEX
8
milled_holes
10
38.383850
20
813.725039
70
0
0
VERTEX
8
milled_holes
10
38.769914
20
813.467079
70
0
0
VERTEX
8
milled_holes
10
39.225307
20
813.376496
70
0
0
VERTEX
8
milled_holes
10
39.225307
20
813.376496
70
0
0
SEQEND
8
milled_holes
0
POLYLINE
8
milled_holes
62
18
70
0
10
0.000000
20
0.000000
66
1
0
VERTEX
8
milled_holes
10
32.181488
20
808.235780
70
0
0
VERTEX
8
milled_holes
10
32.842617
20
808.436331
70
0
0
VERTEX
8
milled_holes
10
33.280905
20
808.970387
70
0
0
VERTEX
8
milled_holes
10
33.348623
20
809.657938
70
0
0
VERTEX
8
milled_holes
10
33.022945
20
810.267237
70
0
0
VERTEX
8
milled_holes
10
32.413646
20
810.592915
70
0
0
VERTEX
8
milled_holes
10
31.726095
20
810.525197
70
0
0
VERTEX
8
milled_holes
10
31.192039
20
810.086909
70
0
0
VERTEX
8
milled_holes
10
30.991488
20
809.425780
70
0
0
VERTEX
8
milled_holes
10
31.085004
20
808.962578
70
0
0
VERTEX
8
milled_holes
10
31.340031
20
808.584323
70
0
0
VERTEX
8
milled_holes
10
31.718286
20
808.329296
70
0
0
VERTEX
8
milled_holes
10
32.181488
20
808.235780
70
0
0
VERTEX
8
milled_holes
10
32.181488
20
808.235780
70
0
0
SEQEND
8
milled_holes
0
POLYLINE
8
milled_holes
62
18
70
0
10
0.000000
20
0.000000
66
1
0
VERTEX
8
milled_holes
10
24.892204
20
830.518205
70
0
0
VERTEX
8
milled_holes
10
25.553333
20
830.718756
70
0
0
VERTEX
8
milled_holes
10
25.991621
20
831.252812
70
0
0
VERTEX
8
milled_holes
10
26.059339
20
831.940363
70
0
0
VERTEX
8
milled_holes
10
25.733661
20
832.549662
70
0
0
VERTEX
8
milled_holes
10
25.124362
20
832.875340
70
0
0
VERTEX
8
milled_holes
10
24.436811
20
832.807622
70
0
0
VERTEX
8
milled_holes
10
23.902755
20
832.369334
70
0
0
VERTEX
8
milled_holes
10
23.702204
20
831.708205
70
0
0
VERTEX
8
milled_holes
10
23.795720
20
831.245003
70
0
0
VERTEX
8
milled_holes
10
24.050747
20
830.866748
70
0
0
VERTEX
8
milled_holes
10
24.429002
20
830.611721
70
0
0
VERTEX
8
milled_holes
10
24.892204
20
830.518205
70
0
0
VERTEX
8
milled_holes
10
24.892204
20
830.518205
70
0
0
SEQEND
8
milled_holes
0
POLYLINE
8
milled_holes
62
18
70
0
10
0.000000
20
0.000000
66
1
0
VERTEX
8
milled_holes
10
57.648350
20
831.463548
70
0
0
VERTEX
8
milled_holes
10
58.309479
20
831.664099
70
0
0
VERTEX
8
milled_holes
10
58.747767
20
832.198155
70
0
0
VERTEX
8
milled_holes
10
58.815485
20
832.885706
70
0
0
VERTEX
8
milled_holes
10
58.489807
20
833.495005
70
0
0
VERTEX
8
milled_holes
10
57.880508
20
833.820683
70
0
0
VERTEX
8
milled_holes
10
57.192957
20
833.752965
70
0
0
VERTEX
8
milled_holes
10
56.658901
20
833.314677
70
0
0
VERTEX
8
milled_holes
10
56.458350
20
832.653548
70
0
0
VERTEX
8
milled_holes
10
56.548933
20
832.198155
70
0
0
VERTEX
8
milled_holes
10
56.806893
20
831.812091
70
0
0
VERTEX
8
milled_holes
10
57.192957
20
831.554131
70
0
0
VERTEX
8
milled_holes
10
57.648350
20
831.463548
70
0
0
VERTEX
8
milled_holes
10
57.648350
20
831.463548
70
0
0
SEQEND
8
milled_holes
0
POLYLINE
8
milled_holes
62
18
70
0
10
0.000000
20
0.000000
66
1
0
VERTEX
8
milled_holes
10
25.621487
20
857.678880
70
0
0
VERTEX
8
milled_holes
10
26.282616
20
857.879431
70
0
0
VERTEX
8
milled_holes
10
26.720904
20
858.413487
70
0
0
VERTEX
8
milled_holes
10
26.788622
20
859.101038
70
0
0
VERTEX
8
milled_holes
10
26.462944
20
859.710337
70
0
0
VERTEX
8
milled_holes
10
25.853645
20
860.036015
70
0
0
VERTEX
8
milled_holes
10
25.166094
20
859.968297
70
0
0
VERTEX
8
milled_holes
10
24.632038
20
859.530009
70
0
0
VERTEX
8
milled_holes
10
24.431487
20
858.868880
70
0
0
VERTEX
8
milled_holes
10
24.522070
20
858.413487
70
0
0
VERTEX
8
milled_holes
10
24.780030
20
858.027423
70
0
0
VERTEX
8
milled_holes
10
25.166094
20
857.769463
70
0
0
VERTEX
8
milled_holes
10
25.621487
20
857.678880
70
0
0
VERTEX
8
milled_holes
10
25.621487
20
857.678880
70
0
0
SEQEND
8
milled_holes
0
POLYLINE
8
milled_holes
62
18
70
0
10
0.000000
20
0.000000
66
1
0
VERTEX
8
milled_holes
10
42.078106
20
857.708970
70
0
0
VERTEX
8
milled_holes
10
42.739235
20
857.909521
70
0
0
VERTEX
8
milled_holes
10
43.177523
20
858.443577
70
0
0
VERTEX
8
milled_holes
10
43.245241
20
859.131128
70
0
0
VERTEX
8
milled_holes
10
42.919563
20
859.740427
70
0
0
VERTEX
8
milled_holes
10
42.310264
20
860.066105
70
0
0
VERTEX
8
milled_holes
10
41.622713
20
859.998387
70
0
0
VERTEX
8
milled_holes
10
41.088657
20
859.560099
70
0
0
VERTEX
8
milled_holes
10
40.888106
20
858.898970
70
0
0
VERTEX
8
milled_holes
10
40.978689
20
858.443577
70
0
0
VERTEX
8
milled_holes
10
41.236649
20
858.057513
70
0
0
VERTEX
8
milled_holes
10
41.622713
20
857.799553
70
0
0
VERTEX
8
milled_holes
10
42.078106
20
857.708970
70
0
0
VERTEX
8
milled_holes
10
42.078106
20
857.708970
70
0
0
SEQEND
8
milled_holes
0
POLYLINE
8
milled_holes
62
18
70
0
10
0.000000
20
0.000000
66
1
0
VERTEX
8
milled_holes
10
42.061958
20
821.529527
70
0
0
VERTEX
8
milled_holes
10
42.723087
20
821.730078
70
0
0
VERTEX
8
milled_holes
10
43.161375
20
822.264134
70
0
0
VERTEX
8
milled_holes
10
43.229093
20
822.951685
70
0
0
VERTEX
8
milled_holes
10
42.903415
20
823.560984
70
0
0
VERTEX
8
milled_holes
10
42.294116
20
823.886662
70
0
0
VERTEX
8
milled_holes
10
41.606565
20
823.818944
70
0
0
VERTEX
8
milled_holes
10
41.072509
20
823.380656
70
0
0
VERTEX
8
milled_holes
10
40.871958
20
822.719527
70
0
0
VERTEX
8
milled_holes
10
40.962541
20
822.264134
70
0
0
VERTEX
8
milled_holes
10
41.220501
20
821.878070
70
0
0
VERTEX
8
milled_holes
10
41.606565
20
821.620110
70
0
0
VERTEX
8
milled_holes
10
42.061958
20
821.529527
70
0
0
VERTEX
8
milled_holes
10
42.061958
20
821.529527
70
0
0
SEQEND
8
milled_holes
0
POLYLINE
8
milled_holes
62
18
70
0
10
0.000000
20
0.000000
66
1
0
VERTEX
8
milled_holes
10
57.691044
20
839.325273
70
0
0
VERTEX
8
milled_holes
10
58.352173
20
839.525824
70
0
0
VERTEX
8
milled_holes
10
58.790461
20
840.059880
70
0
0
VERTEX
8
milled_holes
10
58.858179
20
840.747431
70
0
0
VERTEX
8
milled_holes
10
58.532501
20
841.356730
70
0
0
VERTEX
8
milled_holes
10
57.923202
20
841.682408
70
0
0
VERTEX
8
milled_holes
10
57.235651
20
841.614690
70
0
0
VERTEX
8
milled_holes
10
56.701595
20
841.176402
70
0
0
VERTEX
8
milled_holes
10
56.501044
20
840.515273
70
0
0
VERTEX
8
milled_holes
10
56.591627
20
840.059880
70
0
0
VERTEX
8
milled_holes
10
56.849587
20
839.673816
70
0
0
VERTEX
8
milled_holes
10
57.235651
20
839.415856
70
0
0
VERTEX
8
milled_holes
10
57.691044
20
839.325273
70
0
0
VERTEX
8
milled_holes
10
57.691044
20
839.325273
70
0
0
SEQEND
8
milled_holes
0
POLYLINE
8
milled_holes
62
18
70
0
10
0.000000
20
0.000000
66
1
0
VERTEX
8
milled_holes
10
68.029366
20
867.210671
70
0
0
VERTEX
8
milled_holes
10
68.492568
20
867.304187
70
0
0
VERTEX
8
milled_holes
10
68.870823
20
867.559214
70
0
0
VERTEX
8
milled_holes
10
69.125850
20
867.937469
70
0
0
VERTEX
8
milled_holes
10
69.219366
20
868.400671
70
0
0
VERTEX
8
milled_holes
10
69.125850
20
868.863873
70
0
0
VERTEX
8
milled_holes
10
68.870823
20
869.242128
70
0
0
VERTEX
8
milled_holes
10
68.492568
20
869.497155
70
0
0
VERTEX
8
milled_holes
10
68.029366
20
869.590671
70
0
0
VERTEX
8
milled_holes
10
67.566164
20
869.497155
70
0
0
VERTEX
8
milled_holes
10
67.187909
20
869.242128
70
0
0
VERTEX
8
milled_holes
10
66.932882
20
868.863873
70
0
0
VERTEX
8
milled_holes
10
66.839366
20
868.400671
70
0
0
VERTEX
8
milled_holes
10
66.929949
20
867.945278
70
0
0
VERTEX
8
milled_holes
10
67.187909
20
867.559214
70
0
0
VERTEX
8
milled_holes
10
67.573973
20
867.301254
70
0
0
VERTEX
8
milled_holes
10
68.029366
20
867.210671
70
0
0
VERTEX
8
milled_holes
10
68.029366
20
867.210671
70
0
0
SEQEND
8
milled_holes
0
POLYLINE
8
milled_holes
62
18
70
0
10
0.000000
20
0.000000
66
1
0
VERTEX
8
milled_holes
10
78.166855
20
839.311082
70
0
0
VERTEX
8
milled_holes
10
78.827984
20
839.511633
70
0
0
VERTEX
8
milled_holes
10
79.266272
20
840.045689
70
0
0
VERTEX
8
milled_holes
10
79.333990
20
840.733240
70
0
0
VERTEX
8
milled_holes
10
79.008312
20
841.342539
70
0
0
VERTEX
8
milled_holes
10
78.399013
20
841.668217
70
0
0
VERTEX
8
milled_holes
10
77.711462
20
841.600499
70
0
0
VERTEX
8
milled_holes
10
77.177406
20
841.162211
70
0
0
VERTEX
8
milled_holes
10
76.976855
20
840.501082
70
0
0
VERTEX
8
milled_holes
10
77.067438
20
840.045689
70
0
0
VERTEX
8
milled_holes
10
77.325398
20
839.659625
70
0
0
VERTEX
8
milled_holes
10
77.711462
20
839.401665
70
0
0
VERTEX
8
milled_holes
10
78.166855
20
839.311082
70
0
0
VERTEX
8
milled_holes
10
78.166855
20
839.311082
70
0
0
SEQEND
8
milled_holes
0
POLYLINE
8
milled_holes
62
18
70
0
10
0.000000
20
0.000000
66
1
0
VERTEX
8
milled_holes
10
78.076744
20
831.157639
70
0
0
VERTEX
8
milled_holes
10
78.737873
20
831.358190
70
0
0
VERTEX
8
milled_holes
10
79.176161
20
831.892246
70
0
0
VERTEX
8
milled_holes
10
79.243879
20
832.579797
70
0
0
VERTEX
8
milled_holes
10
78.918201
20
833.189096
70
0
0
VERTEX
8
milled_holes
10
78.308902
20
833.514774
70
0
0
VERTEX
8
milled_holes
10
77.621351
20
833.447056
70
0
0
VERTEX
8
milled_holes
10
77.087295
20
833.008768
70
0
0
VERTEX
8
milled_holes
10
76.886744
20
832.347639
70
0
0
VERTEX
8
milled_holes
10
76.977327
20
831.892246
70
0
0
VERTEX
8
milled_holes
10
77.235287
20
831.506182
70
0
0
VERTEX
8
milled_holes
10
77.621351
20
831.248222
70
0
0
VERTEX
8
milled_holes
10
78.076744
20
831.157639
70
0
0
VERTEX
8
milled_holes
10
78.076744
20
831.157639
70
0
0
SEQEND
8
milled_holes
0
POLYLINE
8
milled_holes
62
18
70
0
10
0.000000
20
0.000000
66
1
0
VERTEX
8
milled_holes
10
88.639145
20
867.412347
70
0
0
VERTEX
8
milled_holes
10
89.102347
20
867.505863
70
0
0
VERTEX
8
milled_holes
10
89.480602
20
867.760890
70
0
0
VERTEX
8
milled_holes
10
89.735629
20
868.139145
70
0
0
VERTEX
8
milled_holes
10
89.829145
20
868.602347
70
0
0
VERTEX
8
milled_holes
10
89.735629
20
869.065549
70
0
0
VERTEX
8
milled_holes
10
89.480602
20
869.443804
70
0
0
VERTEX
8
milled_holes
10
89.102347
20
869.698831
70
0
0
VERTEX
8
milled_holes
10
88.639145
20
869.792347
70
0
0
VERTEX
8
milled_holes
10
88.175943
20
869.698831
70
0
0
VERTEX
8
milled_holes
10
87.797688
20
869.443804
70
0
0
VERTEX
8
milled_holes
10
87.542661
20
869.065549
70
0
0
VERTEX
8
milled_holes
10
87.449145
20
868.602347
70
0
0
VERTEX
8
milled_holes
10
87.539728
20
868.146954
70
0
0
VERTEX
8
milled_holes
10
87.797688
20
867.760890
70
0
0
VERTEX
8
milled_holes
10
88.183752
20
867.502930
70
0
0
VERTEX
8
milled_holes
10
88.639145
20
867.412347
70
0
0
VERTEX
8
milled_holes
10
88.639145
20
867.412347
70
0
0
SEQEND
8
milled_holes
0
POLYLINE
8
milled_holes
62
18
70
0
10
0.000000
20
0.000000
66
1
0
VERTEX
8
milled_holes
10
99.034966
20
839.311082
70
0
0
VERTEX
8
milled_holes
10
99.696095
20
839.511633
70
0
0
VERTEX
8
milled_holes
10
100.134383
20
840.045689
70
0
0
VERTEX
8
milled_holes
10
100.202101
20
840.733240
70
0
0
VERTEX
8
milled_holes
10
99.876423
20
841.342539
70
0
0
VERTEX
8
milled_holes
10
99.267124
20
841.668217
70
0
0
VERTEX
8
milled_holes
10
98.579573
20
841.600499
70
0
0
VERTEX
8
milled_holes
10
98.045517
20
841.162211
70
0
0
VERTEX
8
milled_holes
10
97.844966
20
840.501082
70
0
0
VERTEX
8
milled_holes
10
97.935549
20
840.045689
70
0
0
VERTEX
8
milled_holes
10
98.193509
20
839.659625
70
0
0
VERTEX
8
milled_holes
10
98.579573
20
839.401665
70
0
0
VERTEX
8
milled_holes
10
99.034966
20
839.311082
70
0
0
VERTEX
8
milled_holes
10
99.034966
20
839.311082
70
0
0
SEQEND
8
milled_holes
0
POLYLINE
8
milled_holes
62
18
70
0
10
0.000000
20
0.000000
66
1
0
VERTEX
8
milled_holes
10
99.041092
20
831.456773
70
0
0
VERTEX
8
milled_holes
10
99.702221
20
831.657324
70
0
0
VERTEX
8
milled_holes
10
100.140509
20
832.191380
70
0
0
VERTEX
8
milled_holes
10
100.208227
20
832.878931
70
0
0
VERTEX
8
milled_holes
10
99.882549
20
833.488230
70
0
0
VERTEX
8
milled_holes
10
99.273250
20
833.813908
70
0
0
VERTEX
8
milled_holes
10
98.585699
20
833.746190
70
0
0
VERTEX
8
milled_holes
10
98.051643
20
833.307902
70
0
0
VERTEX
8
milled_holes
10
97.851092
20
832.646773
70
0
0
VERTEX
8
milled_holes
10
97.941675
20
832.191380
70
0
0
VERTEX
8
milled_holes
10
98.199635
20
831.805316
70
0
0
VERTEX
8
milled_holes
10
98.585699
20
831.547356
70
0
0
VERTEX
8
milled_holes
10
99.041092
20
831.456773
70
0
0
VERTEX
8
milled_holes
10
99.041092
20
831.456773
70
0
0
SEQEND
8
milled_holes
0
POLYLINE
8
milled_holes
62
18
70
0
10
0.000000
20
0.000000
66
1
0
VERTEX
8
milled_holes
10
106.027180
20
810.336060
70
0
0
VERTEX
8
milled_holes
10
106.688309
20
810.536611
70
0
0
VERTEX
8
milled_holes
10
107.126597
20
811.070667
70
0
0
VERTEX
8
milled_holes
10
107.194315
20
811.758218
70
0
0
VERTEX
8
milled_holes
10
106.868637
20
812.367517
70
0
0
VERTEX
8
milled_holes
10
106.259338
20
812.693195
70
0
0
VERTEX
8
milled_holes
10
105.571787
20
812.625477
70
0
0
VERTEX
8
milled_holes
10
105.037731
20
812.187189
70
0
0
VERTEX
8
milled_holes
10
104.837180
20
811.526060
70
0
0
VERTEX
8
milled_holes
10
104.927763
20
811.070667
70
0
0
VERTEX
8
milled_holes
10
105.185723
20
810.684603
70
0
0
VERTEX
8
milled_holes
10
105.571787
20
810.426643
70
0
0
VERTEX
8
milled_holes
10
106.027180
20
810.336060
70
0
0
VERTEX
8
milled_holes
10
106.027180
20
810.336060
70
0
0
SEQEND
8
milled_holes
0
POLYLINE
8
milled_holes
62
18
70
0
10
0.000000
20
0.000000
66
1
0
VERTEX
8
milled_holes
10
113.434790
20
849.682542
70
0
0
VERTEX
8
milled_holes
10
114.095919
20
849.883093
70
0
0
VERTEX
8
milled_holes
10
114.534207
20
850.417149
70
0
0
VERTEX
8
milled_holes
10
114.601925
20
851.104700
70
0
0
VERTEX
8
milled_holes
10
114.276247
20
851.713999
70
0
0
VERTEX
8
milled_holes
10
113.666948
20
852.039677
70
0
0
VERTEX
8
milled_holes
10
112.979397
20
851.971959
70
0
0
VERTEX
8
milled_holes
10
112.445341
20
851.533671
70
0
0
VERTEX
8
milled_holes
10
112.244790
20
850.872542
70
0
0
VERTEX
8
milled_holes
10
112.335373
20
850.417149
70
0
0
VERTEX
8
milled_holes
10
112.593333
20
850.031085
70
0
0
VERTEX
8
milled_holes
10
112.979397
20
849.773125
70
0
0
VERTEX
8
milled_holes
10
113.434790
20
849.682542
70
0
0
VERTEX
8
milled_holes
10
113.434790
20
849.682542
70
0
0
SEQEND
8
milled_holes
0
POLYLINE
8
milled_holes
62
18
70
0
10
0.000000
20
0.000000
66
1
0
VERTEX
8
milled_holes
10
115.131140
20
868.230302
70
0
0
VERTEX
8
milled_holes
10
115.792269
20
868.430853
70
0
0
VERTEX
8
milled_holes
10
116.230557
20
868.964909
70
0
0
VERTEX
8
milled_holes
10
116.298275
20
869.652460
70
0
0
VERTEX
8
milled_holes
10
115.972597
20
870.261759
70
0
0
VERTEX
8
milled_holes
10
115.363298
20
870.587437
70
0
0
VERTEX
8
milled_holes
10
114.675747
20
870.519719
70
0
0
VERTEX
8
milled_holes
10
114.141691
20
870.081431
70
0
0
VERTEX
8
milled_holes
10
113.941140
20
869.420302
70
0
0
VERTEX
8
milled_holes
10
114.031723
20
868.964909
70
0
0
VERTEX
8
milled_holes
10
114.289683
20
868.578845
70
0
0
VERTEX
8
milled_holes
10
114.675747
20
868.320885
70
0
0
VERTEX
8
milled_holes
10
115.131140
20
868.230302
70
0
0
VERTEX
8
milled_holes
10
115.131140
20
868.230302
70
0
0
SEQEND
8
milled_holes
0
POLYLINE
8
milled_holes
62
18
70
0
10
0.000000
20
0.000000
66
1
0
VERTEX
8
milled_holes
10
127.395440
20
830.339524
70
0
0
VERTEX
8
milled_holes
10
127.858642
20
830.433040
70
0
0
VERTEX
8
milled_holes
10
128.236897
20
830.688067
70
0
0
VERTEX
8
milled_holes
10
128.491924
20
831.066322
70
0
0
VERTEX
8
milled_holes
10
128.585440
20
831.529524
70
0
0
VERTEX
8
milled_holes
10
128.491924
20
831.992726
70
0
0
VERTEX
8
milled_holes
10
128.236897
20
832.370981
70
0
0
VERTEX
8
milled_holes
10
127.858642
20
832.626008
70
0
0
VERTEX
8
milled_holes
10
127.395440
20
832.719524
70
0
0
VERTEX
8
milled_holes
10
126.932238
20
832.626008
70
0
0
VERTEX
8
milled_holes
10
126.553983
20
832.370981
70
0
0
VERTEX
8
milled_holes
10
126.298956
20
831.992726
70
0
0
VERTEX
8
milled_holes
10
126.205440
20
831.529524
70
0
0
VERTEX
8
milled_holes
10
126.296023
20
831.074131
70
0
0
VERTEX
8
milled_holes
10
126.553983
20
830.688067
70
0
0
VERTEX
8
milled_holes
10
126.940047
20
830.430107
70
0
0
VERTEX
8
milled_holes
10
127.395440
20
830.339524
70
0
0
VERTEX
8
milled_holes
10
127.395440
20
830.339524
70
0
0
SEQEND
8
milled_holes
0
POLYLINE
8
milled_holes
62
18
70
0
10
0.000000
20
0.000000
66
1
0
VERTEX
8
milled_holes
10
141.139760
20
833.092668
70
0
0
VERTEX
8
milled_holes
10
141.800889
20
833.293219
70
0
0
VERTEX
8
milled_holes
10
142.239177
20
833.827275
70
0
0
VERTEX
8
milled_holes
10
142.306895
20
834.514826
70
0
0
VERTEX
8
milled_holes
10
141.981217
20
835.124125
70
0
0
VERTEX
8
milled_holes
10
141.371918
20
835.449803
70
0
0
VERTEX
8
milled_holes
10
140.684367
20
835.382085
70
0
0
VERTEX
8
milled_holes
10
140.150311
20
834.943797
70
0
0
VERTEX
8
milled_holes
10
139.949760
20
834.282668
70
0
0
VERTEX
8
milled_holes
10
140.040343
20
833.827275
70
0
0
VERTEX
8
milled_holes
10
140.298303
20
833.441211
70
0
0
VERTEX
8
milled_holes
10
140.684367
20
833.183251
70
0
0
VERTEX
8
milled_holes
10
141.139760
20
833.092668
70
0
0
VERTEX
8
milled_holes
10
141.139760
20
833.092668
70
0
0
SEQEND
8
milled_holes
0
POLYLINE
8
milled_holes
62
18
70
0
10
0.000000
20
0.000000
66
1
0
VERTEX
8
milled_holes
10
145.829970
20
850.241624
70
0
0
VERTEX
8
milled_holes
10
146.491099
20
850.442175
70
0
0
VERTEX
8
milled_holes
10
146.929387
20
850.976231
70
0
0
VERTEX
8
milled_holes
10
146.997105
20
851.663782
70
0
0
VERTEX
8
milled_holes
10
146.671427
20
852.273081
70
0
0
VERTEX
8
milled_holes
10
146.062128
20
852.598759
70
0
0
VERTEX
8
milled_holes
10
145.374577
20
852.531041
70
0
0
VERTEX
8
milled_holes
10
144.840521
20
852.092753
70
0
0
VERTEX
8
milled_holes
10
144.639970
20
851.431624
70
0
0
VERTEX
8
milled_holes
10
144.733486
20
850.968422
70
0
0
VERTEX
8
milled_holes
10
144.988513
20
850.590167
70
0
0
VERTEX
8
milled_holes
10
145.366768
20
850.335140
70
0
0
VERTEX
8
milled_holes
10
145.829970
20
850.241624
70
0
0
VERTEX
8
milled_holes
10
145.829970
20
850.241624
70
0
0
SEQEND
8
milled_holes
0
POLYLINE
8
milled_holes
62
18
70
0
10
0.000000
20
0.000000
66
1
0
VERTEX
8
milled_holes
10
151.785740
20
831.978654
70
0
0
VERTEX
8
milled_holes
10
152.446869
20
832.179205
70
0
0
VERTEX
8
milled_holes
10
152.885157
20
832.713261
70
0
0
VERTEX
8
milled_holes
10
152.952875
20
833.400812
70
0
0
VERTEX
8
milled_holes
10
152.627197
20
834.010111
70
0
0
VERTEX
8
milled_holes
10
152.017898
20
834.335789
70
0
0
VERTEX
8
milled_holes
10
151.330347
20
834.268071
70
0
0
VERTEX
8
milled_holes
10
150.796291
20
833.829783
70
0
0
VERTEX
8
milled_holes
10
150.595740
20
833.168654
70
0
0
VERTEX
8
milled_holes
10
150.686323
20
832.713261
70
0
0
VERTEX
8
milled_holes
10
150.944283
20
832.327197
70
0
0
VERTEX
8
milled_holes
10
151.330347
20
832.069237
70
0
0
VERTEX
8
milled_holes
10
151.785740
20
831.978654
70
0
0
VERTEX
8
milled_holes
10
151.785740
20
831.978654
70
0
0
SEQEND
8
milled_holes
0
POLYLINE
8
milled_holes
62
18
70
0
10
0.000000
20
0.000000
66
1
0
VERTEX
8
milled_holes
10
164.329160
20
827.077195
70
0
0
VERTEX
8
milled_holes
10
164.990289
20
827.277746
70
0
0
VERTEX
8
milled_holes
10
165.428577
20
827.811802
70
0
0
VERTEX
8
milled_holes
10
165.496295
20
828.499353
70
0
0
VERTEX
8
milled_holes
10
165.170617
20
829.108652
70
0
0
VERTEX
8
milled_holes
10
164.561318
20
829.434330
70
0
0
VERTEX
8
milled_holes
10
163.873767
20
829.366612
70
0
0
VERTEX
8
milled_holes
10
163.339711
20
828.928324
70
0
0
VERTEX
8
milled_holes
10
163.139160
20
828.267195
70
0
0
VERTEX
8
milled_holes
10
163.229743
20
827.811802
70
0
0
VERTEX
8
milled_holes
10
163.487703
20
827.425738
70
0
0
VERTEX
8
milled_holes
10
163.873767
20
827.167778
70
0
0
VERTEX
8
milled_holes
10
164.329160
20
827.077195
70
0
0
VERTEX
8
milled_holes
10
164.329160
20
827.077195
70
0
0
SEQEND
8
milled_holes
0
POLYLINE
8
milled_holes
62
18
70
0
10
0.000000
20
0.000000
66
1
0
VERTEX
8
milled_holes
10
173.660770
20
834.896623
70
0
0
VERTEX
8
milled_holes
10
174.321899
20
835.097174
70
0
0
VERTEX
8
milled_holes
10
174.760187
20
835.631230
70
0
0
VERTEX
8
milled_holes
10
174.827905
20
836.318781
70
0
0
VERTEX
8
milled_holes
10
174.502227
20
836.928080
70
0
0
VERTEX
8
milled_holes
10
173.892928
20
837.253758
70
0
0
VERTEX
8
milled_holes
10
173.205377
20
837.186040
70
0
0
VERTEX
8
milled_holes
10
172.671321
20
836.747752
70
0
0
VERTEX
8
milled_holes
10
172.470770
20
836.086623
70
0
0
VERTEX
8
milled_holes
10
172.561353
20
835.631230
70
0
0
VERTEX
8
milled_holes
10
172.819313
20
835.245166
70
0
0
VERTEX
8
milled_holes
10
173.205377
20
834.987206
70
0
0
VERTEX
8
milled_holes
10
173.660770
20
834.896623
70
0
0
VERTEX
8
milled_holes
10
173.660770
20
834.896623
70
0
0
SEQEND
8
milled_holes
0
POLYLINE
8
milled_holes
62
18
70
0
10
0.000000
20
0.000000
66
1
0
VERTEX
8
milled_holes
10
162.743530
20
838.159471
70
0
0
VERTEX
8
milled_holes
10
163.404659
20
838.360022
70
0
0
VERTEX
8
milled_holes
10
163.842947
20
838.894078
70
0
0
VERTEX
8
milled_holes
10
163.910665
20
839.581629
70
0
0
VERTEX
8
milled_holes
10
163.584987
20
840.190928
70
0
0
VERTEX
8
milled_holes
10
162.975688
20
840.516606
70
0
0
VERTEX
8
milled_holes
10
162.288137
20
840.448888
70
0
0
VERTEX
8
milled_holes
10
161.754081
20
840.010600
70
0
0
VERTEX
8
milled_holes
10
161.553530
20
839.349471
70
0
0
VERTEX
8
milled_holes
10
161.644113
20
838.894078
70
0
0
VERTEX
8
milled_holes
10
161.902073
20
838.508014
70
0
0
VERTEX
8
milled_holes
10
162.288137
20
838.250054
70
0
0
VERTEX
8
milled_holes
10
162.743530
20
838.159471
70
0
0
VERTEX
8
milled_holes
10
162.743530
20
838.159471
70
0
0
SEQEND
8
milled_holes
0
POLYLINE
8
milled_holes
62
18
70
0
10
0.000000
20
0.000000
66
1
0
VERTEX
8
milled_holes
10
164.103410
20
867.128373
70
0
0
VERTEX
8
milled_holes
10
164.764539
20
867.328924
70
0
0
VERTEX
8
milled_holes
10
165.202827
20
867.862980
70
0
0
VERTEX
8
milled_holes
10
165.270545
20
868.550531
70
0
0
VERTEX
8
milled_holes
10
164.944867
20
869.159830
70
0
0
VERTEX
8
milled_holes
10
164.335568
20
869.485508
70
0
0
VERTEX
8
milled_holes
10
163.648017
20
869.417790
70
0
0
VERTEX
8
milled_holes
10
163.113961
20
868.979502
70
0
0
VERTEX
8
milled_holes
10
162.913410
20
868.318373
70
0
0
VERTEX
8
milled_holes
10
163.003993
20
867.862980
70
0
0
VERTEX
8
milled_holes
10
163.261953
20
867.476916
70
0
0
VERTEX
8
milled_holes
10
163.648017
20
867.218956
70
0
0
VERTEX
8
milled_holes
10
164.103410
20
867.128373
70
0
0
VERTEX
8
milled_holes
10
164.103410
20
867.128373
70
0
0
SEQEND
8
milled_holes
0
POLYLINE
8
milled_holes
62
18
70
0
10
0.000000
20
0.000000
66
1
0
VERTEX
8
milled_holes
10
174.514790
20
867.037553
70
0
0
VERTEX
8
milled_holes
10
175.175919
20
867.238104
70
0
0
VERTEX
8
milled_holes
10
175.614207
20
867.772160
70
0
0
VERTEX
8
milled_holes
10
175.681925
20
868.459711
70
0
0
VERTEX
8
milled_holes
10
175.356247
20
869.069010
70
0
0
VERTEX
8
milled_holes
10
174.746948
20
869.394688
70
0
0
VERTEX
8
milled_holes
10
174.059397
20
869.326970
70
0
0
VERTEX
8
milled_holes
10
173.525341
20
868.888682
70
0
0
VERTEX
8
milled_holes
10
173.324790
20
868.227553
70
0
0
VERTEX
8
milled_holes
10
173.415373
20
867.772160
70
0
0
VERTEX
8
milled_holes
10
173.673333
20
867.386096
70
0
0
VERTEX
8
milled_holes
10
174.059397
20
867.128136
70
0
0
VERTEX
8
milled_holes
10
174.514790
20
867.037553
70
0
0
VERTEX
8
milled_holes
10
174.514790
20
867.037553
70
0
0
SEQEND
8
milled_holes
0
POLYLINE
8
milled_holes
62
18
70
0
10
0.000000
20
0.000000
66
1
0
VERTEX
8
milled_holes
10
180.447810
20
867.181191
70
0
0
VERTEX
8
milled_holes
10
181.108939
20
867.381742
70
0
0
VERTEX
8
milled_holes
10
181.547227
20
867.915798
70
0
0
VERTEX
8
milled_holes
10
181.614945
20
868.603349
70
0
0
VERTEX
8
milled_holes
10
181.289267
20
869.212648
70
0
0
VERTEX
8
milled_holes
10
180.679968
20
869.538326
70
0
0
VERTEX
8
milled_holes
10
179.992417
20
869.470608
70
0
0
VERTEX
8
milled_holes
10
179.458361
20
869.032320
70
0
0
VERTEX
8
milled_holes
10
179.257810
20
868.371191
70
0
0
VERTEX
8
milled_holes
10
179.351326
20
867.907989
70
0
0
VERTEX
8
milled_holes
10
179.606353
20
867.529734
70
0
0
VERTEX
8
milled_holes
10
179.984608
20
867.274707
70
0
0
VERTEX
8
milled_holes
10
180.447810
20
867.181191
70
0
0
VERTEX
8
milled_holes
10
180.447810
20
867.181191
70
0
0
SEQEND
8
milled_holes
0
POLYLINE
8
milled_holes
62
18
70
0
10
0.000000
20
0.000000
66
1
0
VERTEX
8
milled_holes
10
194.756070
20
866.743127
70
0
0
VERTEX
8
milled_holes
10
195.417199
20
866.943678
70
0
0
VERTEX
8
milled_holes
10
195.855487
20
867.477734
70
0
0
VERTEX
8
milled_holes
10
195.923205
20
868.165285
70
0
0
VERTEX
8
milled_holes
10
195.597527
20
868.774584
70
0
0
VERTEX
8
milled_holes
10
194.988228
20
869.100262
70
0
0
VERTEX
8
milled_holes
10
194.300677
20
869.032544
70
0
0
VERTEX
8
milled_holes
10
193.766621
20
868.594256
70
0
0
VERTEX
8
milled_holes
10
193.566070
20
867.933127
70
0
0
VERTEX
8
milled_holes
10
193.656653
20
867.477734
70
0
0
VERTEX
8
milled_holes
10
193.914613
20
867.091670
70
0
0
VERTEX
8
milled_holes
10
194.300677
20
866.833710
70
0
0
VERTEX
8
milled_holes
10
194.756070
20
866.743127
70
0
0
VERTEX
8
milled_holes
10
194.756070
20
866.743127
70
0
0
SEQEND
8
milled_holes
0
POLYLINE
8
milled_holes
62
18
70
0
10
0.000000
20
0.000000
66
1
0
VERTEX
8
milled_holes
10
200.252180
20
866.831628
70
0
0
VERTEX
8
milled_holes
10
200.913309
20
867.032179
70
0
0
VERTEX
8
milled_holes
10
201.351597
20
867.566235
70
0
0
VERTEX
8
milled_holes
10
201.419315
20
868.253786
70
0
0
VERTEX
8
milled_holes
10
201.093637
20
868.863085
70
0
0
VERTEX
8
milled_holes
10
200.484338
20
869.188763
70
0
0
VERTEX
8
milled_holes
10
199.796787
20
869.121045
70
0
0
VERTEX
8
milled_holes
10
199.262731
20
868.682757
70
0
0
VERTEX
8
milled_holes
10
199.062180
20
868.021628
70
0
0
VERTEX
8
milled_holes
10
199.155696
20
867.558426
70
0
0
VERTEX
8
milled_holes
10
199.410723
20
867.180171
70
0
0
VERTEX
8
milled_holes
10
199.788978
20
866.925144
70
0
0
VERTEX
8
milled_holes
10
200.252180
20
866.831628
70
0
0
VERTEX
8
milled_holes
10
200.252180
20
866.831628
70
0
0
SEQEND
8
milled_holes
0
POLYLINE
8
milled_holes
62
18
70
0
10
0.000000
20
0.000000
66
1
0
VERTEX
8
milled_holes
10
188.621870
20
866.990647
70
0
0
VERTEX
8
milled_holes
10
189.282999
20
867.191198
70
0
0
VERTEX
8
milled_holes
10
189.721287
20
867.725254
70
0
0
VERTEX
8
milled_holes
10
189.789005
20
868.412805
70
0
0
VERTEX
8
milled_holes
10
189.463327
20
869.022104
70
0
0
VERTEX
8
milled_holes
10
188.854028
20
869.347782
70
0
0
VERTEX
8
milled_holes
10
188.166477
20
869.280064
70
0
0
VERTEX
8
milled_holes
10
187.632421
20
868.841776
70
0
0
VERTEX
8
milled_holes
10
187.431870
20
868.180647
70
0
0
VERTEX
8
milled_holes
10
187.522453
20
867.725254
70
0
0
VERTEX
8
milled_holes
10
187.780413
20
867.339190
70
0
0
VERTEX
8
milled_holes
10
188.166477
20
867.081230
70
0
0
VERTEX
8
milled_holes
10
188.621870
20
866.990647
70
0
0
VERTEX
8
milled_holes
10
188.621870
20
866.990647
70
0
0
SEQEND
8
milled_holes
0
POLYLINE
8
milled_holes
62
18
70
0
10
0.000000
20
0.000000
66
1
0
VERTEX
8
milled_holes
10
180.328770
20
834.841783
70
0
0
VERTEX
8
milled_holes
10
180.989899
20
835.042334
70
0
0
VERTEX
8
milled_holes
10
181.428187
20
835.576390
70
0
0
VERTEX
8
milled_holes
10
181.495905
20
836.263941
70
0
0
VERTEX
8
milled_holes
10
181.170227
20
836.873240
70
0
0
VERTEX
8
milled_holes
10
180.560928
20
837.198918
70
0
0
VERTEX
8
milled_holes
10
179.873377
20
837.131200
70
0
0
VERTEX
8
milled_holes
10
179.339321
20
836.692912
70
0
0
VERTEX
8
milled_holes
10
179.138770
20
836.031783
70
0
0
VERTEX
8
milled_holes
10
179.229353
20
835.576390
70
0
0
VERTEX
8
milled_holes
10
179.487313
20
835.190326
70
0
0
VERTEX
8
milled_holes
10
179.873377
20
834.932366
70
0
0
VERTEX
8
milled_holes
10
180.328770
20
834.841783
70
0
0
VERTEX
8
milled_holes
10
180.328770
20
834.841783
70
0
0
SEQEND
8
milled_holes
0
POLYLINE
8
milled_holes
62
18
70
0
10
0.000000
20
0.000000
66
1
0
VERTEX
8
milled_holes
10
195.910640
20
840.006059
70
0
0
VERTEX
8
milled_holes
10
196.571769
20
840.206610
70
0
0
VERTEX
8
milled_holes
10
197.010057
20
840.740666
70
0
0
VERTEX
8
milled_holes
10
197.077775
20
841.428217
70
0
0
VERTEX
8
milled_holes
10
196.752097
20
842.037516
70
0
0
VERTEX
8
milled_holes
10
196.142798
20
842.363194
70
0
0
VERTEX
8
milled_holes
10
195.455247
20
842.295476
70
0
0
VERTEX
8
milled_holes
10
194.921191
20
841.857188
70
0
0
VERTEX
8
milled_holes
10
194.720640
20
841.196059
70
0
0
VERTEX
8
milled_holes
10
194.811223
20
840.740666
70
0
0
VERTEX
8
milled_holes
10
195.069183
20
840.354602
70
0
0
VERTEX
8
milled_holes
10
195.455247
20
840.096642
70
0
0
VERTEX
8
milled_holes
10
195.910640
20
840.006059
70
0
0
VERTEX
8
milled_holes
10
195.910640
20
840.006059
70
0
0
SEQEND
8
milled_holes
0
POLYLINE
8
milled_holes
62
18
70
0
10
0.000000
20
0.000000
66
1
0
VERTEX
8
milled_holes
10
190.069580
20
829.701127
70
0
0
VERTEX
8
milled_holes
10
190.730709
20
829.901678
70
0
0
VERTEX
8
milled_holes
10
191.168997
20
830.435734
70
0
0
VERTEX
8
milled_holes
10
191.236715
20
831.123285
70
0
0
VERTEX
8
milled_holes
10
190.911037
20
831.732584
70
0
0
VERTEX
8
milled_holes
10
190.301738
20
832.058262
70
0
0
VERTEX
8
milled_holes
10
189.614187
20
831.990544
70
0
0
VERTEX
8
milled_holes
10
189.080131
20
831.552256
70
0
0
VERTEX
8
milled_holes
10
188.879580
20
830.891127
70
0
0
VERTEX
8
milled_holes
10
188.970163
20
830.435734
70
0
0
VERTEX
8
milled_holes
10
189.228123
20
830.049670
70
0
0
VERTEX
8
milled_holes
10
189.614187
20
829.791710
70
0
0
VERTEX
8
milled_holes
10
190.069580
20
829.701127
70
0
0
VERTEX
8
milled_holes
10
190.069580
20
829.701127
70
0
0
SEQEND
8
milled_holes
0
POLYLINE
8
milled_holes
62
18
70
0
10
0.000000
20
0.000000
66
1
0
VERTEX
8
milled_holes
10
203.761520
20
854.298600
70
0
0
VERTEX
8
milled_holes
10
204.422649
20
854.499151
70
0
0
VERTEX
8
milled_holes
10
204.860937
20
855.033207
70
0
0
VERTEX
8
milled_holes
10
204.928655
20
855.720758
70
0
0
VERTEX
8
milled_holes
10
204.602977
20
856.330057
70
0
0
VERTEX
8
milled_holes
10
203.993678
20
856.655735
70
0
0
VERTEX
8
milled_holes
10
203.306127
20
856.588017
70
0
0
VERTEX
8
milled_holes
10
202.772071
20
856.149729
70
0
0
VERTEX
8
milled_holes
10
202.571520
20
855.488600
70
0
0
VERTEX
8
milled_holes
10
202.662103
20
855.033207
70
0
0
VERTEX
8
milled_holes
10
202.920063
20
854.647143
70
0
0
VERTEX
8
milled_holes
10
203.306127
20
854.389183
70
0
0
VERTEX
8
milled_holes
10
203.761520
20
854.298600
70
0
0
VERTEX
8
milled_holes
10
203.761520
20
854.298600
70
0
0
SEQEND
8
milled_holes
0
POLYLINE
8
milled_holes
62
18
70
0
10
0.000000
20
0.000000
66
1
0
VERTEX
8
milled_holes
10
213.976790
20
866.998612
70
0
0
VERTEX
8
milled_holes
10
214.637919
20
867.199163
70
0
0
VERTEX
8
milled_holes
10
215.076207
20
867.733219
70
0
0
VERTEX
8
milled_holes
10
215.143925
20
868.420770
70
0
0
VERTEX
8
milled_holes
10
214.818247
20
869.030069
70
0
0
VERTEX
8
milled_holes
10
214.208948
20
869.355747
70
0
0
VERTEX
8
milled_holes
10
213.521397
20
869.288029
70
0
0
VERTEX
8
milled_holes
10
212.987341
20
868.849741
70
0
0
VERTEX
8
milled_holes
10
212.786790
20
868.188612
70
0
0
VERTEX
8
milled_holes
10
212.877373
20
867.733219
70
0
0
VERTEX
8
milled_holes
10
213.135333
20
867.347155
70
0
0
VERTEX
8
milled_holes
10
213.521397
20
867.089195
70
0
0
VERTEX
8
milled_holes
10
213.976790
20
866.998612
70
0
0
VERTEX
8
milled_holes
10
213.976790
20
866.998612
70
0
0
SEQEND
8
milled_holes
0
POLYLINE
8
milled_holes
62
18
70
0
10
0.000000
20
0.000000
66
1
0
VERTEX
8
milled_holes
10
223.565730
20
867.022111
70
0
0
VERTEX
8
milled_holes
10
224.226859
20
867.222662
70
0
0
VERTEX
8
milled_holes
10
224.665147
20
867.756718
70
0
0
VERTEX
8
milled_holes
10
224.732865
20
868.444269
70
0
0
VERTEX
8
milled_holes
10
224.407187
20
869.053568
70
0
0
VERTEX
8
milled_holes
10
223.797888
20
869.379246
70
0
0
VERTEX
8
milled_holes
10
223.110337
20
869.311528
70
0
0
VERTEX
8
milled_holes
10
222.576281
20
868.873240
70
0
0
VERTEX
8
milled_holes
10
222.375730
20
868.212111
70
0
0
VERTEX
8
milled_holes
10
222.469246
20
867.748909
70
0
0
VERTEX
8
milled_holes
10
222.724273
20
867.370654
70
0
0
VERTEX
8
milled_holes
10
223.102528
20
867.115627
70
0
0
VERTEX
8
milled_holes
10
223.565730
20
867.022111
70
0
0
VERTEX
8
milled_holes
10
223.565730
20
867.022111
70
0
0
SEQEND
8
milled_holes
0
POLYLINE
8
milled_holes
62
18
70
0
10
0.000000
20
0.000000
66
1
0
VERTEX
8
milled_holes
10
236.201800
20
867.263177
70
0
0
VERTEX
8
milled_holes
10
236.862929
20
867.463728
70
0
0
VERTEX
8
milled_holes
10
237.301217
20
867.997784
70
0
0
VERTEX
8
milled_holes
10
237.368935
20
868.685335
70
0
0
VERTEX
8
milled_holes
10
237.043257
20
869.294634
70
0
0
VERTEX
8
milled_holes
10
236.433958
20
869.620312
70
0
0
VERTEX
8
milled_holes
10
235.746407
20
869.552594
70
0
0
VERTEX
8
milled_holes
10
235.212351
20
869.114306
70
0
0
VERTEX
8
milled_holes
10
235.011800
20
868.453177
70
0
0
VERTEX
8
milled_holes
10
235.102383
20
867.997784
70
0
0
VERTEX
8
milled_holes
10
235.360343
20
867.611720
70
0
0
VERTEX
8
milled_holes
10
235.746407
20
867.353760
70
0
0
VERTEX
8
milled_holes
10
236.201800
20
867.263177
70
0
0
VERTEX
8
milled_holes
10
236.201800
20
867.263177
70
0
0
SEQEND
8
milled_holes
0
POLYLINE
8
milled_holes
62
18
70
0
10
0.000000
20
0.000000
66
1
0
VERTEX
8
milled_holes
10
247.366990
20
867.686997
70
0
0
VERTEX
8
milled_holes
10
248.028119
20
867.887548
70
0
0
VERTEX
8
milled_holes
10
248.466407
20
868.421604
70
0
0
VERTEX
8
milled_holes
10
248.534125
20
869.109155
70
0
0
VERTEX
8
milled_holes
10
248.208447
20
869.718454
70
0
0
VERTEX
8
milled_holes
10
247.599148
20
870.044132
70
0
0
VERTEX
8
milled_holes
10
246.911597
20
869.976414
70
0
0
VERTEX
8
milled_holes
10
246.377541
20
869.538126
70
0
0
VERTEX
8
milled_holes
10
246.176990
20
868.876997
70
0
0
VERTEX
8
milled_holes
10
246.267573
20
868.421604
70
0
0
VERTEX
8
milled_holes
10
246.525533
20
868.035540
70
0
0
VERTEX
8
milled_holes
10
246.911597
20
867.777580
70
0
0
VERTEX
8
milled_holes
10
247.366990
20
867.686997
70
0
0
VERTEX
8
milled_holes
10
247.366990
20
867.686997
70
0
0
SEQEND
8
milled_holes
0
POLYLINE
8
milled_holes
62
18
70
0
10
0.000000
20
0.000000
66
1
0
VERTEX
8
milled_holes
10
256.045530
20
867.652238
70
0
0
VERTEX
8
milled_holes
10
256.706659
20
867.852789
70
0
0
VERTEX
8
milled_holes
10
257.144947
20
868.386845
70
0
0
VERTEX
8
milled_holes
10
257.212665
20
869.074396
70
0
0
VERTEX
8
milled_holes
10
256.886987
20
869.683695
70
0
0
VERTEX
8
milled_holes
10
256.277688
20
870.009373
70
0
0
VERTEX
8
milled_holes
10
255.590137
20
869.941655
70
0
0
VERTEX
8
milled_holes
10
255.056081
20
869.503367
70
0
0
VERTEX
8
milled_holes
10
254.855530
20
868.842238
70
0
0
VERTEX
8
milled_holes
10
254.946113
20
868.386845
70
0
0
VERTEX
8
milled_holes
10
255.204073
20
868.000781
70
0
0
VERTEX
8
milled_holes
10
255.590137
20
867.742821
70
0
0
VERTEX
8
milled_holes
10
256.045530
20
867.652238
70
0
0
VERTEX
8
milled_holes
10
256.045530
20
867.652238
70
0
0
SEQEND
8
milled_holes
0
POLYLINE
8
milled_holes
62
18
70
0
10
0.000000
20
0.000000
66
1
0
VERTEX
8
milled_holes
10
216.887210
20
836.571519
70
0
0
VERTEX
8
milled_holes
10
217.548339
20
836.772070
70
0
0
VERTEX
8
milled_holes
10
217.986627
20
837.306126
70
0
0
VERTEX
8
milled_holes
10
218.054345
20
837.993677
70
0
0
VERTEX
8
milled_holes
10
217.728667
20
838.602976
70
0
0
VERTEX
8
milled_holes
10
217.119368
20
838.928654
70
0
0
VERTEX
8
milled_holes
10
216.431817
20
838.860936
70
0
0
VERTEX
8
milled_holes
10
215.897761
20
838.422648
70
0
0
VERTEX
8
milled_holes
10
215.697210
20
837.761519
70
0
0
VERTEX
8
milled_holes
10
215.787793
20
837.306126
70
0
0
VERTEX
8
milled_holes
10
216.045753
20
836.920062
70
0
0
VERTEX
8
milled_holes
10
216.431817
20
836.662102
70
0
0
VERTEX
8
milled_holes
10
216.887210
20
836.571519
70
0
0
VERTEX
8
milled_holes
10
216.887210
20
836.571519
70
0
0
SEQEND
8
milled_holes
0
POLYLINE
8
milled_holes
62
18
70
0
10
0.000000
20
0.000000
66
1
0
VERTEX
8
milled_holes
10
247.049700
20
836.571519
70
0
0
VERTEX
8
milled_holes
10
247.710829
20
836.772070
70
0
0
VERTEX
8
milled_holes
10
248.149117
20
837.306126
70
0
0
VERTEX
8
milled_holes
10
248.216835
20
837.993677
70
0
0
VERTEX
8
milled_holes
10
247.891157
20
838.602976
70
0
0
VERTEX
8
milled_holes
10
247.281858
20
838.928654
70
0
0
VERTEX
8
milled_holes
10
246.594307
20
838.860936
70
0
0
VERTEX
8
milled_holes
10
246.060251
20
838.422648
70
0
0
VERTEX
8
milled_holes
10
245.859700
20
837.761519
70
0
0
VERTEX
8
milled_holes
10
245.950283
20
837.306126
70
0
0
VERTEX
8
milled_holes
10
246.208243
20
836.920062
70
0
0
VERTEX
8
milled_holes
10
246.594307
20
836.662102
70
0
0
VERTEX
8
milled_holes
10
247.049700
20
836.571519
70
0
0
VERTEX
8
milled_holes
10
247.049700
20
836.571519
70
0
0
SEQEND
8
milled_holes
0
POLYLINE
8
milled_holes
62
18
70
0
10
0.000000
20
0.000000
66
1
0
VERTEX
8
milled_holes
10
253.135120
20
839.217362
70
0
0
VERTEX
8
milled_holes
10
253.796249
20
839.417913
70
0
0
VERTEX
8
milled_holes
10
254.234537
20
839.951969
70
0
0
VERTEX
8
milled_holes
10
254.302255
20
840.639520
70
0
0
VERTEX
8
milled_holes
10
253.976577
20
841.248819
70
0
0
VERTEX
8
milled_holes
10
253.367278
20
841.574497
70
0
0
VERTEX
8
milled_holes
10
252.679727
20
841.506779
70
0
0
VERTEX
8
milled_holes
10
252.145671
20
841.068491
70
0
0
VERTEX
8
milled_holes
10
251.945120
20
840.407362
70
0
0
VERTEX
8
milled_holes
10
252.035703
20
839.951969
70
0
0
VERTEX
8
milled_holes
10
252.293663
20
839.565905
70
0
0
VERTEX
8
milled_holes
10
252.679727
20
839.307945
70
0
0
VERTEX
8
milled_holes
10
253.135120
20
839.217362
70
0
0
VERTEX
8
milled_holes
10
253.135120
20
839.217362
70
0
0
SEQEND
8
milled_holes
0
POLYLINE
8
milled_holes
62
18
70
0
10
0.000000
20
0.000000
66
1
0
VERTEX
8
milled_holes
10
263.189270
20
842.127763
70
0
0
VERTEX
8
milled_holes
10
263.850399
20
842.328314
70
0
0
VERTEX
8
milled_holes
10
264.288687
20
842.862370
70
0
0
VERTEX
8
milled_holes
10
264.356405
20
843.549921
70
0
0
VERTEX
8
milled_holes
10
264.030727
20
844.159220
70
0
0
VERTEX
8
milled_holes
10
263.421428
20
844.484898
70
0
0
VERTEX
8
milled_holes
10
262.733877
20
844.417180
70
0
0
VERTEX
8
milled_holes
10
262.199821
20
843.978892
70
0
0
VERTEX
8
milled_holes
10
261.999270
20
843.317763
70
0
0
VERTEX
8
milled_holes
10
262.089853
20
842.862370
70
0
0
VERTEX
8
milled_holes
10
262.347813
20
842.476306
70
0
0
VERTEX
8
milled_holes
10
262.733877
20
842.218346
70
0
0
VERTEX
8
milled_holes
10
263.189270
20
842.127763
70
0
0
VERTEX
8
milled_holes
10
263.189270
20
842.127763
70
0
0
SEQEND
8
milled_holes
0
POLYLINE
8
milled_holes
62
18
70
0
10
0.000000
20
0.000000
66
1
0
VERTEX
8
milled_holes
10
249.430950
20
815.404862
70
0
0
VERTEX
8
milled_holes
10
250.092079
20
815.605413
70
0
0
VERTEX
8
milled_holes
10
250.530367
20
816.139469
70
0
0
VERTEX
8
milled_holes
10
250.598085
20
816.827020
70
0
0
VERTEX
8
milled_holes
10
250.272407
20
817.436319
70
0
0
VERTEX
8
milled_holes
10
249.663108
20
817.761997
70
0
0
VERTEX
8
milled_holes
10
248.975557
20
817.694279
70
0
0
VERTEX
8
milled_holes
10
248.441501
20
817.255991
70
0
0
VERTEX
8
milled_holes
10
248.240950
20
816.594862
70
0
0
VERTEX
8
milled_holes
10
248.334466
20
816.131660
70
0
0
VERTEX
8
milled_holes
10
248.589493
20
815.753405
70
0
0
VERTEX
8
milled_holes
10
248.967748
20
815.498378
70
0
0
VERTEX
8
milled_holes
10
249.430950
20
815.404862
70
0
0
VERTEX
8
milled_holes
10
249.430950
20
815.404862
70
0
0
SEQEND
8
milled_holes
0
POLYLINE
8
milled_holes
62
18
70
0
10
0.000000
20
0.000000
66
1
0
VERTEX
8
milled_holes
10
264.782590
20
870.628815
70
0
0
VERTEX
8
milled_holes
10
264.142789
20
870.533010
70
0
0
VERTEX
8
milled_holes
10
263.570356
20
870.261088
70
0
0
VERTEX
8
milled_holes
10
263.100072
20
869.836289
70
0
0
VERTEX
8
milled_holes
10
262.766719
20
869.281853
70
0
0
VERTEX
8
milled_holes
10
262.610390
20
868.654091
70
0
0
VERTEX
8
milled_holes
10
262.642552
20
868.021172
70
0
0
VERTEX
8
milled_holes
10
262.855046
20
867.424123
70
0
0
VERTEX
8
milled_holes
10
263.239709
20
866.903971
70
0
0
VERTEX
8
milled_holes
10
263.759861
20
866.519308
70
0
0
VERTEX
8
milled_holes
10
264.356910
20
866.306814
70
0
0
VERTEX
8
milled_holes
10
264.989829
20
866.274652
70
0
0
VERTEX
8
milled_holes
10
265.617591
20
866.430981
70
0
0
VERTEX
8
milled_holes
10
266.172027
20
866.764334
70
0
0
VERTEX
8
milled_holes
10
266.596826
20
867.234618
70
0
0
VERTEX
8
milled_holes
10
266.868748
20
867.807051
70
0
0
VERTEX
8
milled_holes
10
266.964553
20
868.446852
70
0
0
VERTEX
8
milled_holes
10
266.798461
20
869.281853
70
0
0
VERTEX
8
milled_holes
10
266.325471
20
869.989733
70
0
0
VERTEX
8
milled_holes
10
265.617591
20
870.462723
70
0
0
VERTEX
8
milled_holes
10
264.782590
20
870.628815
70
0
0
VERTEX
8
milled_holes
10
264.782590
20
870.628815
70
0
0
SEQEND
8
milled_holes
0
POLYLINE
8
milled_holes
62
18
70
0
10
0.000000
20
0.000000
66
1
0
VERTEX
8
milled_holes
10
265.491580
20
804.887683
70
0
0
VERTEX
8
milled_holes
10
264.851779
20
804.791878
70
0
0
VERTEX
8
milled_holes
10
264.279346
20
804.519956
70
0
0
VERTEX
8
milled_holes
10
263.809062
20
804.095157
70
0
0
VERTEX
8
milled_holes
10
263.475709
20
803.540721
70
0
0
VERTEX
8
milled_holes
10
263.319380
20
802.912959
70
0
0
VERTEX
8
milled_holes
10
263.351542
20
802.280040
70
0
0
VERTEX
8
milled_holes
10
263.564036
20
801.682991
70
0
0
VERTEX
8
milled_holes
10
263.948699
20
801.162839
70
0
0
VERTEX
8
milled_holes
10
264.468851
20
800.778176
70
0
0
VERTEX
8
milled_holes
10
265.065900
20
800.565682
70
0
0
VERTEX
8
milled_holes
10
265.698819
20
800.533520
70
0
0
VERTEX
8
milled_holes
10
266.326581
20
800.689849
70
0
0
VERTEX
8
milled_holes
10
266.881017
20
801.023202
70
0
0
VERTEX
8
milled_holes
10
267.305816
20
801.493486
70
0
0
VERTEX
8
milled_holes
10
267.577738
20
802.065919
70
0
0
VERTEX
8
milled_holes
10
267.673543
20
802.705720
70
0
0
VERTEX
8
milled_holes
10
267.507451
20
803.540721
70
0
0
VERTEX
8
milled_holes
10
267.034461
20
804.248601
70
0
0
VERTEX
8
milled_holes
10
266.326581
20
804.721591
70
0
0
VERTEX
8
milled_holes
10
265.491580
20
804.887683
70
0
0
VERTEX
8
milled_holes
10
265.491580
20
804.887683
70
0
0
SEQEND
8
milled_holes
0
POLYLINE
8
milled_holes
62
18
70
0
10
0.000000
20
0.000000
66
1
0
VERTEX
8
milled_holes
10
21.894455
20
871.521340
70
0
0
VERTEX
8
milled_holes
10
21.254654
20
871.425535
70
0
0
VERTEX
8
milled_holes
10
20.682221
20
871.153613
70
0
0
VERTEX
8
milled_holes
10
20.211937
20
870.728814
70
0
0
VERTEX
8
milled_holes
10
19.878584
20
870.174378
70
0
0
VERTEX
8
milled_holes
10
19.722255
20
869.546616
70
0
0
VERTEX
8
milled_holes
10
19.754417
20
868.913697
70
0
0
VERTEX
8
milled_holes
10
19.966911
20
868.316648
70
0
0
VERTEX
8
milled_holes
10
20.351574
20
867.796496
70
0
0
VERTEX
8
milled_holes
10
20.871726
20
867.411833
70
0
0
VERTEX
8
milled_holes
10
21.468775
20
867.199339
70
0
0
VERTEX
8
milled_holes
10
22.101694
20
867.167177
70
0
0
VERTEX
8
milled_holes
10
22.729456
20
867.323506
70
0
0
VERTEX
8
milled_holes
10
23.283892
20
867.656859
70
0
0
VERTEX
8
milled_holes
10
23.708691
20
868.127143
70
0
0
VERTEX
8
milled_holes
10
23.980613
20
868.699576
70
0
0
VERTEX
8
milled_holes
10
24.076418
20
869.339377
70
0
0
VERTEX
8
milled_holes
10
23.910326
20
870.174378
70
0
0
VERTEX
8
milled_holes
10
23.437336
20
870.882258
70
0
0
VERTEX
8
milled_holes
10
22.729456
20
871.355248
70
0
0
VERTEX
8
milled_holes
10
21.894455
20
871.521340
70
0
0
VERTEX
8
milled_holes
10
21.894455
20
871.521340
70
0
0
SEQEND
8
milled_holes
0
POLYLINE
8
milled_holes
62
18
70
0
10
0.000000
20
0.000000
66
1
0
VERTEX
8
milled_holes
10
22.252831
20
805.871753
70
0
0
VERTEX
8
milled_holes
10
21.613030
20
805.775948
70
0
0
VERTEX
8
milled_holes
10
21.040597
20
805.504026
70
0
0
VERTEX
8
milled_holes
10
20.570313
20
805.079227
70
0
0
VERTEX
8
milled_holes
10
20.236960
20
804.524791
70
0
0
VERTEX
8
milled_holes
10
20.080631
20
803.897029
70
0
0
VERTEX
8
milled_holes
10
20.112793
20
803.264110
70
0
0
VERTEX
8
milled_holes
10
20.325287
20
802.667061
70
0
0
VERTEX
8
milled_holes
10
20.709950
20
802.146909
70
0
0
VERTEX
8
milled_holes
10
21.230102
20
801.762246
70
0
0
VERTEX
8
milled_holes
10
21.827151
20
801.549752
70
0
0
VERTEX
8
milled_holes
10
22.460070
20
801.517590
70
0
0
VERTEX
8
milled_holes
10
23.087832
20
801.673919
70
0
0
VERTEX
8
milled_holes
10
23.642268
20
802.007272
70
0
0
VERTEX
8
milled_holes
10
24.067067
20
802.477556
70
0
0
VERTEX
8
milled_holes
10
24.338989
20
803.049989
70
0
0
VERTEX
8
milled_holes
10
24.434794
20
803.689790
70
0
0
VERTEX
8
milled_holes
10
24.268702
20
804.524791
70
0
0
VERTEX
8
milled_holes
10
23.795712
20
805.232671
70
0
0
VERTEX
8
milled_holes
10
23.087832
20
805.705661
70
0
0
VERTEX
8
milled_holes
10
22.252831
20
805.871753
70
0
0
VERTEX
8
milled_holes
10
22.252831
20
805.871753
70
0
0
SEQEND
8
milled_holes
0
POLYLINE
8
Layer 1
62
18
70
0
10
0.000000
20
0.000000
66
1
0
VERTEX
8
Layer 1
10
124.014956
20
865.812100
70
0
0
VERTEX
8
Layer 1
10
123.815248
20
866.470450
70
0
0
VERTEX
8
Layer 1
10
123.283437
20
866.906896
70
0
0
VERTEX
8
Layer 1
10
122.598776
20
866.974329
70
0
0
VERTEX
8
Layer 1
10
121.992037
20
866.650020
70
0
0
VERTEX
8
Layer 1
10
121.667729
20
866.043281
70
0
0
VERTEX
8
Layer 1
10
121.735162
20
865.358620
70
0
0
VERTEX
8
Layer 1
10
122.171608
20
864.826809
70
0
0
VERTEX
8
Layer 1
10
122.829958
20
864.627101
70
0
0
VERTEX
8
Layer 1
10
123.291213
20
864.720224
70
0
0
VERTEX
8
Layer 1
10
123.667878
20
864.974179
70
0
0
VERTEX
8
Layer 1
10
123.921833
20
865.350845
70
0
0
VERTEX
8
Layer 1
10
124.014956
20
865.812100
70
0
0
VERTEX
8
Layer 1
10
124.014956
20
865.812100
70
0
0
SEQEND
8
Layer 1
0
POLYLINE
8
Layer 1
62
18
70
0
10
0.000000
20
0.000000
66
1
0
VERTEX
8
Layer 1
10
124.077874
20
854.991898
70
0
0
VERTEX
8
Layer 1
10
123.984751
20
855.453153
70
0
0
VERTEX
8
Layer 1
10
123.730796
20
855.829819
70
0
0
VERTEX
8
Layer 1
10
123.354131
20
856.083774
70
0
0
VERTEX
8
Layer 1
10
122.892876
20
856.176897
70
0
0
VERTEX
8
Layer 1
10
122.431621
20
856.083774
70
0
0
VERTEX
8
Layer 1
10
122.054955
20
855.829819
70
0
0
VERTEX
8
Layer 1
10
121.801000
20
855.453153
70
0
0
VERTEX
8
Layer 1
10
121.707877
20
854.991898
70
0
0
VERTEX
8
Layer 1
10
121.801000
20
854.530644
70
0
0
VERTEX
8
Layer 1
10
122.054955
20
854.153978
70
0
0
VERTEX
8
Layer 1
10
122.431621
20
853.900023
70
0
0
VERTEX
8
Layer 1
10
122.892876
20
853.806900
70
0
0
VERTEX
8
Layer 1
10
123.346355
20
853.897103
70
0
0
VERTEX
8
Layer 1
10
123.730796
20
854.153978
70
0
0
VERTEX
8
Layer 1
10
123.987672
20
854.538419
70
0
0
VERTEX
8
Layer 1
10
124.077874
20
854.991898
70
0
0
VERTEX
8
Layer 1
10
124.077874
20
854.991898
70
0
0
SEQEND
8
Layer 1
0
POLYLINE
8
Layer 1
62
18
70
0
10
0.000000
20
0.000000
66
1
0
VERTEX
8
Layer 1
10
153.463563
20
865.582108
70
0
0
VERTEX
8
Layer 1
10
152.805213
20
865.382400
70
0
0
VERTEX
8
Layer 1
10
152.368767
20
864.850589
70
0
0
VERTEX
8
Layer 1
10
152.301334
20
864.165928
70
0
0
VERTEX
8
Layer 1
10
152.625642
20
863.559189
70
0
0
VERTEX
8
Layer 1
10
153.232381
20
863.234881
70
0
0
VERTEX
8
Layer 1
10
153.917042
20
863.302314
70
0
0
VERTEX
8
Layer 1
10
154.448853
20
863.738760
70
0
0
VERTEX
8
Layer 1
10
154.648561
20
864.397110
70
0
0
VERTEX
8
Layer 1
10
154.555438
20
864.858365
70
0
0
VERTEX
8
Layer 1
10
154.301483
20
865.235030
70
0
0
VERTEX
8
Layer 1
10
153.924818
20
865.488985
70
0
0
VERTEX
8
Layer 1
10
153.463563
20
865.582108
70
0
0
VERTEX
8
Layer 1
10
153.463563
20
865.582108
70
0
0
SEQEND
8
Layer 1
0
POLYLINE
8
Layer 1
62
18
70
0
10
0.000000
20
0.000000
66
1
0
VERTEX
8
Layer 1
10
153.440967
20
857.962118
70
0
0
VERTEX
8
Layer 1
10
152.782618
20
857.762410
70
0
0
VERTEX
8
Layer 1
10
152.346172
20
857.230599
70
0
0
VERTEX
8
Layer 1
10
152.278738
20
856.545938
70
0
0
VERTEX
8
Layer 1
10
152.603047
20
855.939199
70
0
0
VERTEX
8
Layer 1
10
153.209786
20
855.614890
70
0
0
VERTEX
8
Layer 1
10
153.894447
20
855.682323
70
0
0
VERTEX
8
Layer 1
10
154.426258
20
856.118769
70
0
0
VERTEX
8
Layer 1
10
154.625966
20
856.777119
70
0
0
VERTEX
8
Layer 1
10
154.535763
20
857.230599
70
0
0
VERTEX
8
Layer 1
10
154.278888
20
857.615040
70
0
0
VERTEX
8
Layer 1
10
153.894447
20
857.871915
70
0
0
VERTEX
8
Layer 1
10
153.440967
20
857.962118
70
0
0
VERTEX
8
Layer 1
10
153.440967
20
857.962118
70
0
0
SEQEND
8
Layer 1
0
POLYLINE
8
Layer 1
62
18
70
0
10
0.000000
20
0.000000
66
1
0
VERTEX
8
Layer 1
10
148.379204
20
857.962118
70
0
0
VERTEX
8
Layer 1
10
147.917949
20
857.868995
70
0
0
VERTEX
8
Layer 1
10
147.541283
20
857.615040
70
0
0
VERTEX
8
Layer 1
10
147.287328
20
857.238374
70
0
0
VERTEX
8
Layer 1
10
147.194205
20
856.777119
70
0
0
VERTEX
8
Layer 1
10
147.287328
20
856.315864
70
0
0
VERTEX
8
Layer 1
10
147.541283
20
855.939199
70
0
0
VERTEX
8
Layer 1
10
147.917949
20
855.685244
70
0
0
VERTEX
8
Layer 1
10
148.379204
20
855.592121
70
0
0
VERTEX
8
Layer 1
10
148.840458
20
855.685244
70
0
0
VERTEX
8
Layer 1
10
149.217124
20
855.939199
70
0
0
VERTEX
8
Layer 1
10
149.471079
20
856.315864
70
0
0
VERTEX
8
Layer 1
10
149.564202
20
856.777119
70
0
0
VERTEX
8
Layer 1
10
149.473999
20
857.230599
70
0
0
VERTEX
8
Layer 1
10
149.217124
20
857.615040
70
0
0
VERTEX
8
Layer 1
10
148.832683
20
857.871915
70
0
0
VERTEX
8
Layer 1
10
148.379204
20
857.962118
70
0
0
VERTEX
8
Layer 1
10
148.379204
20
857.962118
70
0
0
SEQEND
8
Layer 1
0
POLYLINE
8
Layer 1
62
18
70
0
10
0.000000
20
0.000000
66
1
0
VERTEX
8
Layer 1
10
143.297279
20
857.941613
70
0
0
VERTEX
8
Layer 1
10
142.836024
20
857.848490
70
0
0
VERTEX
8
Layer 1
10
142.459358
20
857.594535
70
0
0
VERTEX
8
Layer 1
10
142.205403
20
857.217869
70
0
0
VERTEX
8
Layer 1
10
142.112280
20
856.756614
70
0
0
VERTEX
8
Layer 1
10
142.205403
20
856.295359
70
0
0
VERTEX
8
Layer 1
10
142.459358
20
855.918694
70
0
0
VERTEX
8
Layer 1
10
142.836024
20
855.664739
70
0
0
VERTEX
8
Layer 1
10
143.297279
20
855.571616
70
0
0
VERTEX
8
Layer 1
10
143.758533
20
855.664739
70
0
0
VERTEX
8
Layer 1
10
144.135199
20
855.918694
70
0
0
VERTEX
8
Layer 1
10
144.389154
20
856.295359
70
0
0
VERTEX
8
Layer 1
10
144.482277
20
856.756614
70
0
0
VERTEX
8
Layer 1
10
144.392074
20
857.210093
70
0
0
VERTEX
8
Layer 1
10
144.135199
20
857.594535
70
0
0
VERTEX
8
Layer 1
10
143.750758
20
857.851410
70
0
0
VERTEX
8
Layer 1
10
143.297279
20
857.941613
70
0
0
VERTEX
8
Layer 1
10
143.297279
20
857.941613
70
0
0
SEQEND
8
Layer 1
0
POLYLINE
8
Layer 1
62
18
70
0
10
0.000000
20
0.000000
66
1
0
VERTEX
8
Layer 1
10
135.703958
20
857.882928
70
0
0
VERTEX
8
Layer 1
10
135.242703
20
857.789805
70
0
0
VERTEX
8
Layer 1
10
134.866038
20
857.535850
70
0
0
VERTEX
8
Layer 1
10
134.612083
20
857.159185
70
0
0
VERTEX
8
Layer 1
10
134.518960
20
856.697930
70
0
0
VERTEX
8
Layer 1
10
134.612083
20
856.236675
70
0
0
VERTEX
8
Layer 1
10
134.866038
20
855.860009
70
0
0
VERTEX
8
Layer 1
10
135.242703
20
855.606054
70
0
0
VERTEX
8
Layer 1
10
135.703958
20
855.512931
70
0
0
VERTEX
8
Layer 1
10
136.165213
20
855.606054
70
0
0
VERTEX
8
Layer 1
10
136.541879
20
855.860009
70
0
0
VERTEX
8
Layer 1
10
136.795834
20
856.236675
70
0
0
VERTEX
8
Layer 1
10
136.888957
20
856.697930
70
0
0
VERTEX
8
Layer 1
10
136.798754
20
857.151409
70
0
0
VERTEX
8
Layer 1
10
136.541879
20
857.535850
70
0
0
VERTEX
8
Layer 1
10
136.157437
20
857.792726
70
0
0
VERTEX
8
Layer 1
10
135.703958
20
857.882928
70
0
0
VERTEX
8
Layer 1
10
135.703958
20
857.882928
70
0
0
SEQEND
8
Layer 1
0
POLYLINE
8
Layer 1
62
18
70
0
10
0.000000
20
0.000000
66
1
0
VERTEX
8
Layer 1
10
148.379204
20
865.583220
70
0
0
VERTEX
8
Layer 1
10
147.917949
20
865.490096
70
0
0
VERTEX
8
Layer 1
10
147.541283
20
865.236142
70
0
0
VERTEX
8
Layer 1
10
147.287328
20
864.859476
70
0
0
VERTEX
8
Layer 1
10
147.194205
20
864.398221
70
0
0
VERTEX
8
Layer 1
10
147.287328
20
863.936966
70
0
0
VERTEX
8
Layer 1
10
147.541283
20
863.560301
70
0
0
VERTEX
8
Layer 1
10
147.917949
20
863.306346
70
0
0
VERTEX
8
Layer 1
10
148.379204
20
863.213222
70
0
0
VERTEX
8
Layer 1
10
148.840458
20
863.306346
70
0
0
VERTEX
8
Layer 1
10
149.217124
20
863.560301
70
0
0
VERTEX
8
Layer 1
10
149.471079
20
863.936966
70
0
0
VERTEX
8
Layer 1
10
149.564202
20
864.398221
70
0
0
VERTEX
8
Layer 1
10
149.473999
20
864.851700
70
0
0
VERTEX
8
Layer 1
10
149.217124
20
865.236142
70
0
0
VERTEX
8
Layer 1
10
148.832683
20
865.493017
70
0
0
VERTEX
8
Layer 1
10
148.379204
20
865.583220
70
0
0
VERTEX
8
Layer 1
10
148.379204
20
865.583220
70
0
0
SEQEND
8
Layer 1
0
POLYLINE
8
Layer 1
62
18
70
0
10
0.000000
20
0.000000
66
1
0
VERTEX
8
Layer 1
10
143.294897
20
865.569990
70
0
0
VERTEX
8
Layer 1
10
142.636547
20
865.370282
70
0
0
VERTEX
8
Layer 1
10
142.200101
20
864.838471
70
0
0
VERTEX
8
Layer 1
10
142.132668
20
864.153810
70
0
0
VERTEX
8
Layer 1
10
142.456977
20
863.547071
70
0
0
VERTEX
8
Layer 1
10
143.063716
20
863.222763
70
0
0
VERTEX
8
Layer 1
10
143.748377
20
863.290196
70
0
0
VERTEX
8
Layer 1
10
144.280188
20
863.726642
70
0
0
VERTEX
8
Layer 1
10
144.479896
20
864.384992
70
0
0
VERTEX
8
Layer 1
10
144.389693
20
864.838471
70
0
0
VERTEX
8
Layer 1
10
144.132818
20
865.222912
70
0
0
VERTEX
8
Layer 1
10
143.748377
20
865.479788
70
0
0
VERTEX
8
Layer 1
10
143.294897
20
865.569990
70
0
0
VERTEX
8
Layer 1
10
143.294897
20
865.569990
70
0
0
SEQEND
8
Layer 1
0
POLYLINE
8
Layer 1
62
18
70
0
10
0.000000
20
0.000000
66
1
0
VERTEX
8
Layer 1
10
135.703958
20
865.502945
70
0
0
VERTEX
8
Layer 1
10
135.242703
20
865.409822
70
0
0
VERTEX
8
Layer 1
10
134.866038
20
865.155867
70
0
0
VERTEX
8
Layer 1
10
134.612083
20
864.779201
70
0
0
VERTEX
8
Layer 1
10
134.518960
20
864.317947
70
0
0
VERTEX
8
Layer 1
10
134.612083
20
863.856692
70
0
0
VERTEX
8
Layer 1
10
134.866038
20
863.480026
70
0
0
VERTEX
8
Layer 1
10
135.242703
20
863.226071
70
0
0
VERTEX
8
Layer 1
10
135.703958
20
863.132948
70
0
0
VERTEX
8
Layer 1
10
136.165213
20
863.226071
70
0
0
VERTEX
8
Layer 1
10
136.541879
20
863.480026
70
0
0
VERTEX
8
Layer 1
10
136.795834
20
863.856692
70
0
0
VERTEX
8
Layer 1
10
136.888957
20
864.317947
70
0
0
VERTEX
8
Layer 1
10
136.798754
20
864.771426
70
0
0
VERTEX
8
Layer 1
10
136.541879
20
865.155867
70
0
0
VERTEX
8
Layer 1
10
136.157437
20
865.412742
70
0
0
VERTEX
8
Layer 1
10
135.703958
20
865.502945
70
0
0
VERTEX
8
Layer 1
10
135.703958
20
865.502945
70
0
0
SEQEND
8
Layer 1
0
POLYLINE
8
cut_line_LAST
62
7
70
0
10
0.000000
20
0.000000
66
1
0
VERTEX
8
cut_line_LAST
10
16.668261
20
877.230043
70
0
0
VERTEX
8
cut_line_LAST
10
16.668261
20
794.749630
70
0
0
SEQEND
8
cut_line_LAST
0
POLYLINE
8
cut_line_FIRST
62
7
70
0
10
0.000000
20
0.000000
66
1
0
VERTEX
8
cut_line_FIRST
10
270.730000
20
877.127113
70
0
0
VERTEX
8
cut_line_FIRST
10
270.730000
20
794.646700
70
0
0
SEQEND
8
cut_line_FIRST
 0 
ENDSEC
 0 
EOF