  0
SECTION
  2
HEADER
  9
$ACADVER
  1
AC1014
  9
$HANDSEED
  5
FFFF
  9
$INSUNITS
 70
     4
  9
$MEASUREMENT
 70
     1
  0
ENDSEC
  0
SECTION
  2
TABLES
  0
TABLE
  2
VPORT
  5
8
330
0
100
AcDbSymbolTable
 70
     4
  0
VPORT
  5
2E
330
8
100
AcDbSymbolTableRecord
100
AcDbViewportTableRecord
  2
*ACTIVE
 70
     0
 10
0.0
 20
0.0
 11
1.0
 21
1.0
 12
210.0
 22
148.5
 13
0.0
 23
0.0
 14
10.0
 24
10.0
 15
10.0
 25
10.0
 16
0.0
 26
0.0
 36
1.0
 17
0.0
 27
0.0
 37
0.0
 40
341.0
 41
1.24
 42
50.0
 43
0.0
 44
0.0
 50
0.0
 51
0.0
 71
     0
 72
   100
 73
     1
 74
     3
 75
     0
 76
     0
 77
     0
 78
     0
  0
ENDTAB
  0
TABLE
  2
LTYPE
  5
5
330
0
100
AcDbSymbolTable
 70
     1
  0
LTYPE
  5
14
330
5
100
AcDbSymbolTableRecord
100
AcDbLinetypeTableRecord
  2
BYBLOCK
 70
     0
  3

 72
    65
 73
     0
 40
0.0
  0
LTYPE
  5
15
330
5
100
AcDbSymbolTableRecord
100
AcDbLinetypeTableRecord
  2
BYLAYER
 70
     0
  3

 72
    65
 73
     0
 40
0.0
  0
LTYPE
  5
16
330
5
100
AcDbSymbolTableRecord
100
AcDbLinetypeTableRecord
  2
CONTINUOUS
 70
     0
  3
Solid line
 72
    65
 73
     0
 40
0.0
  0
ENDTAB
  0
TABLE
  2
LAYER
  5
2
100
AcDbSymbolTable
 70
5
  0
LAYER
  5
50
100
AcDbSymbolTableRecord
100
AcDbLayerTableRecord
  2
0
 70
0
  6
CONTINUOUS
  0
LAYER
  5
51
100
AcDbSymbolTableRecord
100
AcDbLayerTableRecord
  2
Layer_1
 70
0
  6
CONTINUOUS
  0
LAYER
  5
52
100
AcDbSymbolTableRecord
100
AcDbLayerTableRecord
  2
milled_holes
 70
0
  6
CONTINUOUS
  0
LAYER
  5
53
100
AcDbSymbolTableRecord
100
AcDbLayerTableRecord
  2
cut_line_FIRST
 70
0
  6
CONTINUOUS
  0
LAYER
  5
54
100
AcDbSymbolTableRecord
100
AcDbLayerTableRecord
  2
cut_line_LAST
 70
0
  6
CONTINUOUS
  0
ENDTAB
  0
TABLE
  2
STYLE
  5
3
330
0
100
AcDbSymbolTable
 70
     1
  0
STYLE
  5
11
330
3
100
AcDbSymbolTableRecord
100
AcDbTextStyleTableRecord
  2
STANDARD
 70
     0
 40
0.0
 41
1.0
 50
0.0
 71
     0
 42
2.5
  3
txt
  4

  0
ENDTAB
  0
TABLE
  2
VIEW
  5
6
330
0
100
AcDbSymbolTable
 70
     0
  0
ENDTAB
  0
TABLE
  2
UCS
  5
7
330
0
100
AcDbSymbolTable
 70
     0
  0
ENDTAB
  0
TABLE
  2
APPID
  5
9
330
0
100
AcDbSymbolTable
 70
     2
  0
APPID
  5
12
330
9
100
AcDbSymbolTableRecord
100
AcDbRegAppTableRecord
  2
ACAD
 70
     0
  0
ENDTAB
  0
TABLE
  2
DIMSTYLE
  5
A
330
0
100
AcDbSymbolTable
 70
     1
  0
DIMSTYLE
105
27
330
A
100
AcDbSymbolTableRecord
100
AcDbDimStyleTableRecord
  2
ISO-25
 70
     0
  3

  4

  5

  6

  7

 40
1.0
 41
2.5
 42
0.625
 43
3.75
 44
1.25
 45
0.0
 46
0.0
 47
0.0
 48
0.0
140
2.5
141
2.5
142
0.0
143
0.03937007874016
144
1.0
145
0.0
146
1.0
147
0.625
 71
     0
 72
     0
 73
     0
 74
     0
 75
     0
 76
     0
 77
     1
 78
     8
170
     0
171
     3
172
     1
173
     0
174
     0
175
     0
176
     0
177
     0
178
     0
270
     2
271
     2
272
     2
273
     2
274
     3
340
11
275
     0
280
     0
281
     0
282
     0
283
     0
284
     8
285
     0
286
     0
287
     3
288
     0
  0
ENDTAB
  0
TABLE
  2
BLOCK_RECORD
  5
1
330
0
100
AcDbSymbolTable
 70
     1
  0
BLOCK_RECORD
  5
1F
330
1
100
AcDbSymbolTableRecord
100
AcDbBlockTableRecord
  2
*MODEL_SPACE
  0
BLOCK_RECORD
  5
1B
330
1
100
AcDbSymbolTableRecord
100
AcDbBlockTableRecord
  2
*PAPER_SPACE
  0
ENDTAB
  0
ENDSEC
  0
SECTION
  2
BLOCKS
  0
BLOCK
  5
20
330
1F
100
AcDbEntity
  8
0
100
AcDbBlockBegin
  2
*MODEL_SPACE
 70
     0
 10
0.0
 20
0.0
 30
0.0
  3
*MODEL_SPACE
  1

  0
ENDBLK
  5
21
330
1F
100
AcDbEntity
  8
0
100
AcDbBlockEnd
  0
BLOCK
  5
1C
330
1B
100
AcDbEntity
 67
     1
  8
0
100
AcDbBlockBegin
  2
*PAPER_SPACE
  1

  0
ENDBLK
  5
1D
330
1B
100
AcDbEntity
 67
     1
  8
0
100
AcDbBlockEnd
  0
ENDSEC
  0
SECTION
  2
ENTITIES
  0
SPLINE
  5
100
100
AcDbEntity
  8
milled_holes
 62
1
100
AcDbSpline
 70
8
 71
3
 72
8
 73
4
 74
0
 40
0
 40
0
 40
0
 40
0
 40
1
 40
1
 40
1
 40
1
 10
18.685715
 20
866.090986
 30
0.0
 10
19.167025
 20
866.090986
 30
0.0
 10
19.600942
 20
866.380920
 30
0.0
 10
19.785132
 20
866.825593
 30
0.0
  0
SPLINE
  5
101
100
AcDbEntity
  8
milled_holes
 62
1
100
AcDbSpline
 70
8
 71
3
 72
8
 73
4
 74
0
 40
0
 40
0
 40
0
 40
0
 40
1
 40
1
 40
1
 40
1
 10
19.785132
 20
866.825593
 30
0.0
 10
19.969321
 20
867.270265
 30
0.0
 10
19.867510
 20
867.782105
 30
0.0
 10
19.527172
 20
868.122443
 30
0.0
  0
SPLINE
  5
102
100
AcDbEntity
  8
milled_holes
 62
1
100
AcDbSpline
 70
8
 71
3
 72
8
 73
4
 74
0
 40
0
 40
0
 40
0
 40
0
 40
1
 40
1
 40
1
 40
1
 10
19.527172
 20
868.122443
 30
0.0
 10
19.186834
 20
868.462781
 30
0.0
 10
18.674994
 20
868.564592
 30
0.0
 10
18.230322
 20
868.380403
 30
0.0
  0
SPLINE
  5
103
100
AcDbEntity
  8
milled_holes
 62
1
100
AcDbSpline
 70
8
 71
3
 72
8
 73
4
 74
0
 40
0
 40
0
 40
0
 40
0
 40
1
 40
1
 40
1
 40
1
 10
18.230322
 20
868.380403
 30
0.0
 10
17.785649
 20
868.196213
 30
0.0
 10
17.495715
 20
867.762296
 30
0.0
 10
17.495715
 20
867.280986
 30
0.0
  0
SPLINE
  5
104
100
AcDbEntity
  8
milled_holes
 62
1
100
AcDbSpline
 70
8
 71
3
 72
8
 73
4
 74
0
 40
0
 40
0
 40
0
 40
0
 40
1
 40
1
 40
1
 40
1
 10
17.495715
 20
867.280986
 30
0.0
 10
17.495715
 20
866.965378
 30
0.0
 10
17.621090
 20
866.662697
 30
0.0
 10
17.844258
 20
866.439529
 30
0.0
  0
SPLINE
  5
105
100
AcDbEntity
  8
milled_holes
 62
1
100
AcDbSpline
 70
8
 71
3
 72
8
 73
4
 74
0
 40
0
 40
0
 40
0
 40
0
 40
1
 40
1
 40
1
 40
1
 10
17.844258
 20
866.439529
 30
0.0
 10
18.067426
 20
866.216361
 30
0.0
 10
18.370107
 20
866.090986
 30
0.0
 10
18.685715
 20
866.090986
 30
0.0
  0
SPLINE
  5
106
100
AcDbEntity
  8
milled_holes
 62
1
100
AcDbSpline
 70
8
 71
3
 72
8
 73
4
 74
0
 40
0
 40
0
 40
0
 40
0
 40
1
 40
1
 40
1
 40
1
 10
26.716873
 20
866.205702
 30
0.0
 10
27.198183
 20
866.205702
 30
0.0
 10
27.632100
 20
866.495636
 30
0.0
 10
27.816290
 20
866.940309
 30
0.0
  0
SPLINE
  5
107
100
AcDbEntity
  8
milled_holes
 62
1
100
AcDbSpline
 70
8
 71
3
 72
8
 73
4
 74
0
 40
0
 40
0
 40
0
 40
0
 40
1
 40
1
 40
1
 40
1
 10
27.816290
 20
866.940309
 30
0.0
 10
28.000479
 20
867.384981
 30
0.0
 10
27.898668
 20
867.896821
 30
0.0
 10
27.558330
 20
868.237159
 30
0.0
  0
SPLINE
  5
108
100
AcDbEntity
  8
milled_holes
 62
1
100
AcDbSpline
 70
8
 71
3
 72
8
 73
4
 74
0
 40
0
 40
0
 40
0
 40
0
 40
1
 40
1
 40
1
 40
1
 10
27.558330
 20
868.237159
 30
0.0
 10
27.217992
 20
868.577497
 30
0.0
 10
26.706152
 20
868.679308
 30
0.0
 10
26.261480
 20
868.495119
 30
0.0
  0
SPLINE
  5
109
100
AcDbEntity
  8
milled_holes
 62
1
100
AcDbSpline
 70
8
 71
3
 72
8
 73
4
 74
0
 40
0
 40
0
 40
0
 40
0
 40
1
 40
1
 40
1
 40
1
 10
26.261480
 20
868.495119
 30
0.0
 10
25.816807
 20
868.310929
 30
0.0
 10
25.526873
 20
867.877012
 30
0.0
 10
25.526873
 20
867.395702
 30
0.0
  0
SPLINE
  5
10a
100
AcDbEntity
  8
milled_holes
 62
1
100
AcDbSpline
 70
8
 71
3
 72
8
 73
4
 74
0
 40
0
 40
0
 40
0
 40
0
 40
1
 40
1
 40
1
 40
1
 10
25.526873
 20
867.395702
 30
0.0
 10
25.526873
 20
866.738483
 30
0.0
 10
26.059654
 20
866.205702
 30
0.0
 10
26.716873
 20
866.205702
 30
0.0
  0
LWPOLYLINE
  5
10b
100
AcDbEntity
  8
milled_holes
 62
1
100
AcDbPolyline
 90
1
 70
1
 10
18.685715
 20
866.090986
 30
0.0
  0
SPLINE
  5
10c
100
AcDbEntity
  8
milled_holes
 62
1
100
AcDbSpline
 70
8
 71
3
 72
8
 73
4
 74
0
 40
0
 40
0
 40
0
 40
0
 40
1
 40
1
 40
1
 40
1
 10
36.937576
 20
869.566877
 30
0.0
 10
37.418886
 20
869.566877
 30
0.0
 10
37.852803
 20
869.856811
 30
0.0
 10
38.036993
 20
870.301484
 30
0.0
  0
SPLINE
  5
10d
100
AcDbEntity
  8
milled_holes
 62
1
100
AcDbSpline
 70
8
 71
3
 72
8
 73
4
 74
0
 40
0
 40
0
 40
0
 40
0
 40
1
 40
1
 40
1
 40
1
 10
38.036993
 20
870.301484
 30
0.0
 10
38.221182
 20
870.746156
 30
0.0
 10
38.119371
 20
871.257996
 30
0.0
 10
37.779033
 20
871.598334
 30
0.0
  0
SPLINE
  5
10e
100
AcDbEntity
  8
milled_holes
 62
1
100
AcDbSpline
 70
8
 71
3
 72
8
 73
4
 74
0
 40
0
 40
0
 40
0
 40
0
 40
1
 40
1
 40
1
 40
1
 10
37.779033
 20
871.598334
 30
0.0
 10
37.438695
 20
871.938672
 30
0.0
 10
36.926855
 20
872.040483
 30
0.0
 10
36.482183
 20
871.856294
 30
0.0
  0
SPLINE
  5
10f
100
AcDbEntity
  8
milled_holes
 62
1
100
AcDbSpline
 70
8
 71
3
 72
8
 73
4
 74
0
 40
0
 40
0
 40
0
 40
0
 40
1
 40
1
 40
1
 40
1
 10
36.482183
 20
871.856294
 30
0.0
 10
36.037510
 20
871.672104
 30
0.0
 10
35.747576
 20
871.238187
 30
0.0
 10
35.747576
 20
870.756877
 30
0.0
  0
SPLINE
  5
110
100
AcDbEntity
  8
milled_holes
 62
1
100
AcDbSpline
 70
8
 71
3
 72
8
 73
4
 74
0
 40
0
 40
0
 40
0
 40
0
 40
1
 40
1
 40
1
 40
1
 10
35.747576
 20
870.756877
 30
0.0
 10
35.747576
 20
870.441269
 30
0.0
 10
35.872951
 20
870.138588
 30
0.0
 10
36.096119
 20
869.915420
 30
0.0
  0
SPLINE
  5
111
100
AcDbEntity
  8
milled_holes
 62
1
100
AcDbSpline
 70
8
 71
3
 72
8
 73
4
 74
0
 40
0
 40
0
 40
0
 40
0
 40
1
 40
1
 40
1
 40
1
 10
36.096119
 20
869.915420
 30
0.0
 10
36.319287
 20
869.692252
 30
0.0
 10
36.621968
 20
869.566877
 30
0.0
 10
36.937576
 20
869.566877
 30
0.0
  0
LWPOLYLINE
  5
112
100
AcDbEntity
  8
milled_holes
 62
1
100
AcDbPolyline
 90
1
 70
1
 10
26.716873
 20
866.205702
 30
0.0
  0
SPLINE
  5
113
100
AcDbEntity
  8
milled_holes
 62
1
100
AcDbSpline
 70
8
 71
3
 72
8
 73
4
 74
0
 40
0
 40
0
 40
0
 40
0
 40
1
 40
1
 40
1
 40
1
 10
27.311295
 20
894.337934
 30
0.0
 10
27.792605
 20
894.337934
 30
0.0
 10
28.226522
 20
894.627868
 30
0.0
 10
28.410712
 20
895.072541
 30
0.0
  0
SPLINE
  5
114
100
AcDbEntity
  8
milled_holes
 62
1
100
AcDbSpline
 70
8
 71
3
 72
8
 73
4
 74
0
 40
0
 40
0
 40
0
 40
0
 40
1
 40
1
 40
1
 40
1
 10
28.410712
 20
895.072541
 30
0.0
 10
28.594901
 20
895.517213
 30
0.0
 10
28.493090
 20
896.029053
 30
0.0
 10
28.152752
 20
896.369391
 30
0.0
  0
SPLINE
  5
115
100
AcDbEntity
  8
milled_holes
 62
1
100
AcDbSpline
 70
8
 71
3
 72
8
 73
4
 74
0
 40
0
 40
0
 40
0
 40
0
 40
1
 40
1
 40
1
 40
1
 10
28.152752
 20
896.369391
 30
0.0
 10
27.812414
 20
896.709729
 30
0.0
 10
27.300574
 20
896.811540
 30
0.0
 10
26.855902
 20
896.627351
 30
0.0
  0
SPLINE
  5
116
100
AcDbEntity
  8
milled_holes
 62
1
100
AcDbSpline
 70
8
 71
3
 72
8
 73
4
 74
0
 40
0
 40
0
 40
0
 40
0
 40
1
 40
1
 40
1
 40
1
 10
26.855902
 20
896.627351
 30
0.0
 10
26.411229
 20
896.443161
 30
0.0
 10
26.121295
 20
896.009244
 30
0.0
 10
26.121295
 20
895.527934
 30
0.0
  0
SPLINE
  5
117
100
AcDbEntity
  8
milled_holes
 62
1
100
AcDbSpline
 70
8
 71
3
 72
8
 73
4
 74
0
 40
0
 40
0
 40
0
 40
0
 40
1
 40
1
 40
1
 40
1
 10
26.121295
 20
895.527934
 30
0.0
 10
26.121295
 20
895.212326
 30
0.0
 10
26.246670
 20
894.909645
 30
0.0
 10
26.469838
 20
894.686477
 30
0.0
  0
SPLINE
  5
118
100
AcDbEntity
  8
milled_holes
 62
1
100
AcDbSpline
 70
8
 71
3
 72
8
 73
4
 74
0
 40
0
 40
0
 40
0
 40
0
 40
1
 40
1
 40
1
 40
1
 10
26.469838
 20
894.686477
 30
0.0
 10
26.693006
 20
894.463309
 30
0.0
 10
26.995687
 20
894.337934
 30
0.0
 10
27.311295
 20
894.337934
 30
0.0
  0
LWPOLYLINE
  5
119
100
AcDbEntity
  8
milled_holes
 62
1
100
AcDbPolyline
 90
1
 70
1
 10
36.937576
 20
869.566877
 30
0.0
  0
SPLINE
  5
11a
100
AcDbEntity
  8
milled_holes
 62
1
100
AcDbSpline
 70
8
 71
3
 72
8
 73
4
 74
0
 40
0
 40
0
 40
0
 40
0
 40
1
 40
1
 40
1
 40
1
 10
19.348740
 20
894.347891
 30
0.0
 10
19.830050
 20
894.347891
 30
0.0
 10
20.263967
 20
894.637825
 30
0.0
 10
20.448157
 20
895.082498
 30
0.0
  0
SPLINE
  5
11b
100
AcDbEntity
  8
milled_holes
 62
1
100
AcDbSpline
 70
8
 71
3
 72
8
 73
4
 74
0
 40
0
 40
0
 40
0
 40
0
 40
1
 40
1
 40
1
 40
1
 10
20.448157
 20
895.082498
 30
0.0
 10
20.632346
 20
895.527170
 30
0.0
 10
20.530535
 20
896.039010
 30
0.0
 10
20.190197
 20
896.379348
 30
0.0
  0
SPLINE
  5
11c
100
AcDbEntity
  8
milled_holes
 62
1
100
AcDbSpline
 70
8
 71
3
 72
8
 73
4
 74
0
 40
0
 40
0
 40
0
 40
0
 40
1
 40
1
 40
1
 40
1
 10
20.190197
 20
896.379348
 30
0.0
 10
19.849859
 20
896.719686
 30
0.0
 10
19.338019
 20
896.821497
 30
0.0
 10
18.893347
 20
896.637308
 30
0.0
  0
SPLINE
  5
11d
100
AcDbEntity
  8
milled_holes
 62
1
100
AcDbSpline
 70
8
 71
3
 72
8
 73
4
 74
0
 40
0
 40
0
 40
0
 40
0
 40
1
 40
1
 40
1
 40
1
 10
18.893347
 20
896.637308
 30
0.0
 10
18.448674
 20
896.453118
 30
0.0
 10
18.158740
 20
896.019201
 30
0.0
 10
18.158740
 20
895.537891
 30
0.0
  0
SPLINE
  5
11e
100
AcDbEntity
  8
milled_holes
 62
1
100
AcDbSpline
 70
8
 71
3
 72
8
 73
4
 74
0
 40
0
 40
0
 40
0
 40
0
 40
1
 40
1
 40
1
 40
1
 10
18.158740
 20
895.537891
 30
0.0
 10
18.158740
 20
895.222283
 30
0.0
 10
18.284115
 20
894.919602
 30
0.0
 10
18.507283
 20
894.696434
 30
0.0
  0
SPLINE
  5
11f
100
AcDbEntity
  8
milled_holes
 62
1
100
AcDbSpline
 70
8
 71
3
 72
8
 73
4
 74
0
 40
0
 40
0
 40
0
 40
0
 40
1
 40
1
 40
1
 40
1
 10
18.507283
 20
894.696434
 30
0.0
 10
18.730451
 20
894.473266
 30
0.0
 10
19.033132
 20
894.347891
 30
0.0
 10
19.348740
 20
894.347891
 30
0.0
  0
LWPOLYLINE
  5
120
100
AcDbEntity
  8
milled_holes
 62
1
100
AcDbPolyline
 90
1
 70
1
 10
27.311295
 20
894.337934
 30
0.0
  0
SPLINE
  5
121
100
AcDbEntity
  8
milled_holes
 62
1
100
AcDbSpline
 70
8
 71
3
 72
8
 73
4
 74
0
 40
0
 40
0
 40
0
 40
0
 40
1
 40
1
 40
1
 40
1
 10
19.348740
 20
894.347891
 30
0.0
 10
19.830050
 20
894.347891
 30
0.0
 10
20.263967
 20
894.637825
 30
0.0
 10
20.448157
 20
895.082498
 30
0.0
  0
SPLINE
  5
122
100
AcDbEntity
  8
milled_holes
 62
1
100
AcDbSpline
 70
8
 71
3
 72
8
 73
4
 74
0
 40
0
 40
0
 40
0
 40
0
 40
1
 40
1
 40
1
 40
1
 10
20.448157
 20
895.082498
 30
0.0
 10
20.632346
 20
895.527170
 30
0.0
 10
20.530535
 20
896.039010
 30
0.0
 10
20.190197
 20
896.379348
 30
0.0
  0
SPLINE
  5
123
100
AcDbEntity
  8
milled_holes
 62
1
100
AcDbSpline
 70
8
 71
3
 72
8
 73
4
 74
0
 40
0
 40
0
 40
0
 40
0
 40
1
 40
1
 40
1
 40
1
 10
20.190197
 20
896.379348
 30
0.0
 10
19.849859
 20
896.719686
 30
0.0
 10
19.338019
 20
896.821497
 30
0.0
 10
18.893347
 20
896.637308
 30
0.0
  0
SPLINE
  5
124
100
AcDbEntity
  8
milled_holes
 62
1
100
AcDbSpline
 70
8
 71
3
 72
8
 73
4
 74
0
 40
0
 40
0
 40
0
 40
0
 40
1
 40
1
 40
1
 40
1
 10
18.893347
 20
896.637308
 30
0.0
 10
18.448674
 20
896.453118
 30
0.0
 10
18.158740
 20
896.019201
 30
0.0
 10
18.158740
 20
895.537891
 30
0.0
  0
SPLINE
  5
125
100
AcDbEntity
  8
milled_holes
 62
1
100
AcDbSpline
 70
8
 71
3
 72
8
 73
4
 74
0
 40
0
 40
0
 40
0
 40
0
 40
1
 40
1
 40
1
 40
1
 10
18.158740
 20
895.537891
 30
0.0
 10
18.158740
 20
895.222283
 30
0.0
 10
18.284115
 20
894.919602
 30
0.0
 10
18.507283
 20
894.696434
 30
0.0
  0
SPLINE
  5
126
100
AcDbEntity
  8
milled_holes
 62
1
100
AcDbSpline
 70
8
 71
3
 72
8
 73
4
 74
0
 40
0
 40
0
 40
0
 40
0
 40
1
 40
1
 40
1
 40
1
 10
18.507283
 20
894.696434
 30
0.0
 10
18.730451
 20
894.473266
 30
0.0
 10
19.033132
 20
894.347891
 30
0.0
 10
19.348740
 20
894.347891
 30
0.0
  0
SPLINE
  5
127
100
AcDbEntity
  8
milled_holes
 62
1
100
AcDbSpline
 70
8
 71
3
 72
8
 73
4
 74
0
 40
0
 40
0
 40
0
 40
0
 40
1
 40
1
 40
1
 40
1
 10
35.843735
 20
894.353444
 30
0.0
 10
34.961213
 20
894.353444
 30
0.0
 10
34.165590
 20
893.821826
 30
0.0
 10
33.827864
 20
893.006482
 30
0.0
  0
SPLINE
  5
128
100
AcDbEntity
  8
milled_holes
 62
1
100
AcDbSpline
 70
8
 71
3
 72
8
 73
4
 74
0
 40
0
 40
0
 40
0
 40
0
 40
1
 40
1
 40
1
 40
1
 10
33.827864
 20
893.006482
 30
0.0
 10
33.490137
 20
892.191138
 30
0.0
 10
33.676817
 20
891.252637
 30
0.0
 10
34.300854
 20
890.628600
 30
0.0
  0
SPLINE
  5
129
100
AcDbEntity
  8
milled_holes
 62
1
100
AcDbSpline
 70
8
 71
3
 72
8
 73
4
 74
0
 40
0
 40
0
 40
0
 40
0
 40
1
 40
1
 40
1
 40
1
 10
34.300854
 20
890.628600
 30
0.0
 10
34.924891
 20
890.004563
 30
0.0
 10
35.863392
 20
889.817883
 30
0.0
 10
36.678736
 20
890.155610
 30
0.0
  0
SPLINE
  5
12a
100
AcDbEntity
  8
milled_holes
 62
1
100
AcDbSpline
 70
8
 71
3
 72
8
 73
4
 74
0
 40
0
 40
0
 40
0
 40
0
 40
1
 40
1
 40
1
 40
1
 10
36.678736
 20
890.155610
 30
0.0
 10
37.494080
 20
890.493336
 30
0.0
 10
38.025698
 20
891.288959
 30
0.0
 10
38.025698
 20
892.171481
 30
0.0
  0
SPLINE
  5
12b
100
AcDbEntity
  8
milled_holes
 62
1
100
AcDbSpline
 70
8
 71
3
 72
8
 73
4
 74
0
 40
0
 40
0
 40
0
 40
0
 40
1
 40
1
 40
1
 40
1
 10
38.025698
 20
892.171481
 30
0.0
 10
38.025698
 20
892.750174
 30
0.0
 10
37.795814
 20
893.305165
 30
0.0
 10
37.386616
 20
893.714362
 30
0.0
  0
SPLINE
  5
12c
100
AcDbEntity
  8
milled_holes
 62
1
100
AcDbSpline
 70
8
 71
3
 72
8
 73
4
 74
0
 40
0
 40
0
 40
0
 40
0
 40
1
 40
1
 40
1
 40
1
 10
37.386616
 20
893.714362
 30
0.0
 10
36.977419
 20
894.123560
 30
0.0
 10
36.422428
 20
894.353444
 30
0.0
 10
35.843735
 20
894.353444
 30
0.0
  0
LWPOLYLINE
  5
12d
100
AcDbEntity
  8
milled_holes
 62
1
100
AcDbPolyline
 90
2
 70
1
 10
19.348740
 20
894.347891
 30
0.0
 10
19.348740
 20
894.347891
 30
0.0
  0
SPLINE
  5
12e
100
AcDbEntity
  8
milled_holes
 62
1
100
AcDbSpline
 70
8
 71
3
 72
8
 73
4
 74
0
 40
0
 40
0
 40
0
 40
0
 40
1
 40
1
 40
1
 40
1
 10
13.292769
 20
874.346235
 30
0.0
 10
12.410247
 20
874.346235
 30
0.0
 10
11.614624
 20
873.814617
 30
0.0
 10
11.276898
 20
872.999273
 30
0.0
  0
SPLINE
  5
12f
100
AcDbEntity
  8
milled_holes
 62
1
100
AcDbSpline
 70
8
 71
3
 72
8
 73
4
 74
0
 40
0
 40
0
 40
0
 40
0
 40
1
 40
1
 40
1
 40
1
 10
11.276898
 20
872.999273
 30
0.0
 10
10.939171
 20
872.183929
 30
0.0
 10
11.125851
 20
871.245428
 30
0.0
 10
11.749888
 20
870.621391
 30
0.0
  0
SPLINE
  5
130
100
AcDbEntity
  8
milled_holes
 62
1
100
AcDbSpline
 70
8
 71
3
 72
8
 73
4
 74
0
 40
0
 40
0
 40
0
 40
0
 40
1
 40
1
 40
1
 40
1
 10
11.749888
 20
870.621391
 30
0.0
 10
12.373925
 20
869.997354
 30
0.0
 10
13.312426
 20
869.810674
 30
0.0
 10
14.127770
 20
870.148401
 30
0.0
  0
SPLINE
  5
131
100
AcDbEntity
  8
milled_holes
 62
1
100
AcDbSpline
 70
8
 71
3
 72
8
 73
4
 74
0
 40
0
 40
0
 40
0
 40
0
 40
1
 40
1
 40
1
 40
1
 10
14.127770
 20
870.148401
 30
0.0
 10
14.943114
 20
870.486127
 30
0.0
 10
15.474732
 20
871.281750
 30
0.0
 10
15.474732
 20
872.164272
 30
0.0
  0
SPLINE
  5
132
100
AcDbEntity
  8
milled_holes
 62
1
100
AcDbSpline
 70
8
 71
3
 72
8
 73
4
 74
0
 40
0
 40
0
 40
0
 40
0
 40
1
 40
1
 40
1
 40
1
 10
15.474732
 20
872.164272
 30
0.0
 10
15.474732
 20
872.742965
 30
0.0
 10
15.244848
 20
873.297956
 30
0.0
 10
14.835650
 20
873.707153
 30
0.0
  0
SPLINE
  5
133
100
AcDbEntity
  8
milled_holes
 62
1
100
AcDbSpline
 70
8
 71
3
 72
8
 73
4
 74
0
 40
0
 40
0
 40
0
 40
0
 40
1
 40
1
 40
1
 40
1
 10
14.835650
 20
873.707153
 30
0.0
 10
14.426453
 20
874.116351
 30
0.0
 10
13.871462
 20
874.346235
 30
0.0
 10
13.292769
 20
874.346235
 30
0.0
  0
LWPOLYLINE
  5
134
100
AcDbEntity
  8
milled_holes
 62
1
100
AcDbPolyline
 90
1
 70
1
 10
35.843735
 20
894.353444
 30
0.0
  0
LWPOLYLINE
  5
135
100
AcDbEntity
  8
milled_holes
 62
1
100
AcDbPolyline
 90
1
 70
1
 10
13.292769
 20
874.346235
 30
0.0
  0
LWPOLYLINE
  5
136
100
AcDbEntity
  8
cut_line_FIRST
 62
7
100
AcDbPolyline
 90
2
 70
0
 10
41.241256
 20
905.577272
 30
0.0
 10
41.241256
 20
857.640942
 30
0.0
  0
LWPOLYLINE
  5
137
100
AcDbEntity
  8
cut_line_LAST
 62
7
100
AcDbPolyline
 90
2
 70
0
 10
8.983671
 20
905.796687
 30
0.0
 10
8.983671
 20
857.860358
 30
0.0
  0
ENDSEC
  0
SECTION
  2
OBJECTS
  0
DICTIONARY
  5
C
330
0
100
AcDbDictionary
  3
ACAD_GROUP
350
D
  3
ACAD_MLINESTYLE
350
17
  0
DICTIONARY
  5
D
330
C
100
AcDbDictionary
  0
DICTIONARY
  5
1A
330
C
100
AcDbDictionary
  0
DICTIONARY
  5
17
330
C
100
AcDbDictionary
  3
STANDARD
350
18
  0
DICTIONARY
  5
19
330
C
100
AcDbDictionary
  0
ENDSEC
  0
EOF
