  0
SECTION
  2
HEADER
  9
$ACADVER
  1
AC1014
  9
$HANDSEED
  5
FFFF
  9
$INSUNITS
 70
     4
  9
$MEASUREMENT
 70
     1
  0
ENDSEC
  0
SECTION
  2
TABLES
  0
TABLE
  2
VPORT
  5
8
330
0
100
AcDbSymbolTable
 70
     4
  0
VPORT
  5
2E
330
8
100
AcDbSymbolTableRecord
100
AcDbViewportTableRecord
  2
*ACTIVE
 70
     0
 10
0.0
 20
0.0
 11
1.0
 21
1.0
 12
210.0
 22
148.5
 13
0.0
 23
0.0
 14
10.0
 24
10.0
 15
10.0
 25
10.0
 16
0.0
 26
0.0
 36
1.0
 17
0.0
 27
0.0
 37
0.0
 40
341.0
 41
1.24
 42
50.0
 43
0.0
 44
0.0
 50
0.0
 51
0.0
 71
     0
 72
   100
 73
     1
 74
     3
 75
     0
 76
     0
 77
     0
 78
     0
  0
ENDTAB
  0
TABLE
  2
LTYPE
  5
5
330
0
100
AcDbSymbolTable
 70
     1
  0
LTYPE
  5
14
330
5
100
AcDbSymbolTableRecord
100
AcDbLinetypeTableRecord
  2
BYBLOCK
 70
     0
  3

 72
    65
 73
     0
 40
0.0
  0
LTYPE
  5
15
330
5
100
AcDbSymbolTableRecord
100
AcDbLinetypeTableRecord
  2
BYLAYER
 70
     0
  3

 72
    65
 73
     0
 40
0.0
  0
LTYPE
  5
16
330
5
100
AcDbSymbolTableRecord
100
AcDbLinetypeTableRecord
  2
CONTINUOUS
 70
     0
  3
Solid line
 72
    65
 73
     0
 40
0.0
  0
ENDTAB
  0
TABLE
  2
LAYER
  5
2
100
AcDbSymbolTable
 70
4
  0
LAYER
  5
50
100
AcDbSymbolTableRecord
100
AcDbLayerTableRecord
  2
0
 70
0
  6
CONTINUOUS
  0
LAYER
  5
51
100
AcDbSymbolTableRecord
100
AcDbLayerTableRecord
  2
Layer_1
 70
0
  6
CONTINUOUS
  0
LAYER
  5
52
100
AcDbSymbolTableRecord
100
AcDbLayerTableRecord
  2
milled_holes
 70
0
  6
CONTINUOUS
  0
LAYER
  5
53
100
AcDbSymbolTableRecord
100
AcDbLayerTableRecord
  2
cut_line
 70
0
  6
CONTINUOUS
  0
ENDTAB
  0
TABLE
  2
STYLE
  5
3
330
0
100
AcDbSymbolTable
 70
     1
  0
STYLE
  5
11
330
3
100
AcDbSymbolTableRecord
100
AcDbTextStyleTableRecord
  2
STANDARD
 70
     0
 40
0.0
 41
1.0
 50
0.0
 71
     0
 42
2.5
  3
txt
  4

  0
ENDTAB
  0
TABLE
  2
VIEW
  5
6
330
0
100
AcDbSymbolTable
 70
     0
  0
ENDTAB
  0
TABLE
  2
UCS
  5
7
330
0
100
AcDbSymbolTable
 70
     0
  0
ENDTAB
  0
TABLE
  2
APPID
  5
9
330
0
100
AcDbSymbolTable
 70
     2
  0
APPID
  5
12
330
9
100
AcDbSymbolTableRecord
100
AcDbRegAppTableRecord
  2
ACAD
 70
     0
  0
ENDTAB
  0
TABLE
  2
DIMSTYLE
  5
A
330
0
100
AcDbSymbolTable
 70
     1
  0
DIMSTYLE
105
27
330
A
100
AcDbSymbolTableRecord
100
AcDbDimStyleTableRecord
  2
ISO-25
 70
     0
  3

  4

  5

  6

  7

 40
1.0
 41
2.5
 42
0.625
 43
3.75
 44
1.25
 45
0.0
 46
0.0
 47
0.0
 48
0.0
140
2.5
141
2.5
142
0.0
143
0.03937007874016
144
1.0
145
0.0
146
1.0
147
0.625
 71
     0
 72
     0
 73
     0
 74
     0
 75
     0
 76
     0
 77
     1
 78
     8
170
     0
171
     3
172
     1
173
     0
174
     0
175
     0
176
     0
177
     0
178
     0
270
     2
271
     2
272
     2
273
     2
274
     3
340
11
275
     0
280
     0
281
     0
282
     0
283
     0
284
     8
285
     0
286
     0
287
     3
288
     0
  0
ENDTAB
  0
TABLE
  2
BLOCK_RECORD
  5
1
330
0
100
AcDbSymbolTable
 70
     1
  0
BLOCK_RECORD
  5
1F
330
1
100
AcDbSymbolTableRecord
100
AcDbBlockTableRecord
  2
*MODEL_SPACE
  0
BLOCK_RECORD
  5
1B
330
1
100
AcDbSymbolTableRecord
100
AcDbBlockTableRecord
  2
*PAPER_SPACE
  0
ENDTAB
  0
ENDSEC
  0
SECTION
  2
BLOCKS
  0
BLOCK
  5
20
330
1F
100
AcDbEntity
  8
0
100
AcDbBlockBegin
  2
*MODEL_SPACE
 70
     0
 10
0.0
 20
0.0
 30
0.0
  3
*MODEL_SPACE
  1

  0
ENDBLK
  5
21
330
1F
100
AcDbEntity
  8
0
100
AcDbBlockEnd
  0
BLOCK
  5
1C
330
1B
100
AcDbEntity
 67
     1
  8
0
100
AcDbBlockBegin
  2
*PAPER_SPACE
  1

  0
ENDBLK
  5
1D
330
1B
100
AcDbEntity
 67
     1
  8
0
100
AcDbBlockEnd
  0
ENDSEC
  0
SECTION
  2
ENTITIES
  0
SPLINE
  5
100
100
AcDbEntity
  8
milled_holes
 62
1
100
AcDbSpline
 70
8
 71
3
 72
8
 73
4
 74
0
 40
0
 40
0
 40
0
 40
0
 40
1
 40
1
 40
1
 40
1
 10
30.079191
 20
833.941511
 30
0.0
 10
30.560501
 20
833.941511
 30
0.0
 10
30.994418
 20
834.231445
 30
0.0
 10
31.178608
 20
834.676118
 30
0.0
  0
SPLINE
  5
101
100
AcDbEntity
  8
milled_holes
 62
1
100
AcDbSpline
 70
8
 71
3
 72
8
 73
4
 74
0
 40
0
 40
0
 40
0
 40
0
 40
1
 40
1
 40
1
 40
1
 10
31.178608
 20
834.676118
 30
0.0
 10
31.362797
 20
835.120790
 30
0.0
 10
31.260986
 20
835.632630
 30
0.0
 10
30.920648
 20
835.972968
 30
0.0
  0
SPLINE
  5
102
100
AcDbEntity
  8
milled_holes
 62
1
100
AcDbSpline
 70
8
 71
3
 72
8
 73
4
 74
0
 40
0
 40
0
 40
0
 40
0
 40
1
 40
1
 40
1
 40
1
 10
30.920648
 20
835.972968
 30
0.0
 10
30.580310
 20
836.313306
 30
0.0
 10
30.068470
 20
836.415117
 30
0.0
 10
29.623798
 20
836.230928
 30
0.0
  0
SPLINE
  5
103
100
AcDbEntity
  8
milled_holes
 62
1
100
AcDbSpline
 70
8
 71
3
 72
8
 73
4
 74
0
 40
0
 40
0
 40
0
 40
0
 40
1
 40
1
 40
1
 40
1
 10
29.623798
 20
836.230928
 30
0.0
 10
29.179125
 20
836.046738
 30
0.0
 10
28.889191
 20
835.612821
 30
0.0
 10
28.889191
 20
835.131511
 30
0.0
  0
SPLINE
  5
104
100
AcDbEntity
  8
milled_holes
 62
1
100
AcDbSpline
 70
8
 71
3
 72
8
 73
4
 74
0
 40
0
 40
0
 40
0
 40
0
 40
1
 40
1
 40
1
 40
1
 10
28.889191
 20
835.131511
 30
0.0
 10
28.889191
 20
834.815903
 30
0.0
 10
29.014566
 20
834.513222
 30
0.0
 10
29.237734
 20
834.290054
 30
0.0
  0
SPLINE
  5
105
100
AcDbEntity
  8
milled_holes
 62
1
100
AcDbSpline
 70
8
 71
3
 72
8
 73
4
 74
0
 40
0
 40
0
 40
0
 40
0
 40
1
 40
1
 40
1
 40
1
 10
29.237734
 20
834.290054
 30
0.0
 10
29.460902
 20
834.066886
 30
0.0
 10
29.763583
 20
833.941511
 30
0.0
 10
30.079191
 20
833.941511
 30
0.0
  0
SPLINE
  5
106
100
AcDbEntity
  8
milled_holes
 62
1
100
AcDbSpline
 70
8
 71
3
 72
8
 73
4
 74
0
 40
0
 40
0
 40
0
 40
0
 40
1
 40
1
 40
1
 40
1
 10
44.443363
 20
833.941511
 30
0.0
 10
44.924673
 20
833.941511
 30
0.0
 10
45.358590
 20
834.231445
 30
0.0
 10
45.542780
 20
834.676118
 30
0.0
  0
SPLINE
  5
107
100
AcDbEntity
  8
milled_holes
 62
1
100
AcDbSpline
 70
8
 71
3
 72
8
 73
4
 74
0
 40
0
 40
0
 40
0
 40
0
 40
1
 40
1
 40
1
 40
1
 10
45.542780
 20
834.676118
 30
0.0
 10
45.726969
 20
835.120790
 30
0.0
 10
45.625158
 20
835.632630
 30
0.0
 10
45.284820
 20
835.972968
 30
0.0
  0
SPLINE
  5
108
100
AcDbEntity
  8
milled_holes
 62
1
100
AcDbSpline
 70
8
 71
3
 72
8
 73
4
 74
0
 40
0
 40
0
 40
0
 40
0
 40
1
 40
1
 40
1
 40
1
 10
45.284820
 20
835.972968
 30
0.0
 10
44.944482
 20
836.313306
 30
0.0
 10
44.432642
 20
836.415117
 30
0.0
 10
43.987970
 20
836.230928
 30
0.0
  0
SPLINE
  5
109
100
AcDbEntity
  8
milled_holes
 62
1
100
AcDbSpline
 70
8
 71
3
 72
8
 73
4
 74
0
 40
0
 40
0
 40
0
 40
0
 40
1
 40
1
 40
1
 40
1
 10
43.987970
 20
836.230928
 30
0.0
 10
43.543297
 20
836.046738
 30
0.0
 10
43.253363
 20
835.612821
 30
0.0
 10
43.253363
 20
835.131511
 30
0.0
  0
SPLINE
  5
10a
100
AcDbEntity
  8
milled_holes
 62
1
100
AcDbSpline
 70
8
 71
3
 72
8
 73
4
 74
0
 40
0
 40
0
 40
0
 40
0
 40
1
 40
1
 40
1
 40
1
 10
43.253363
 20
835.131511
 30
0.0
 10
43.253363
 20
834.474292
 30
0.0
 10
43.786144
 20
833.941511
 30
0.0
 10
44.443363
 20
833.941511
 30
0.0
  0
LWPOLYLINE
  5
10b
100
AcDbEntity
  8
milled_holes
 62
1
100
AcDbPolyline
 90
1
 70
1
 10
30.079191
 20
833.941511
 30
0.0
  0
SPLINE
  5
10c
100
AcDbEntity
  8
milled_holes
 62
1
100
AcDbSpline
 70
8
 71
3
 72
8
 73
4
 74
0
 40
0
 40
0
 40
0
 40
0
 40
1
 40
1
 40
1
 40
1
 10
59.081421
 20
833.941511
 30
0.0
 10
59.562731
 20
833.941511
 30
0.0
 10
59.996648
 20
834.231445
 30
0.0
 10
60.180838
 20
834.676118
 30
0.0
  0
SPLINE
  5
10d
100
AcDbEntity
  8
milled_holes
 62
1
100
AcDbSpline
 70
8
 71
3
 72
8
 73
4
 74
0
 40
0
 40
0
 40
0
 40
0
 40
1
 40
1
 40
1
 40
1
 10
60.180838
 20
834.676118
 30
0.0
 10
60.365027
 20
835.120790
 30
0.0
 10
60.263216
 20
835.632630
 30
0.0
 10
59.922878
 20
835.972968
 30
0.0
  0
SPLINE
  5
10e
100
AcDbEntity
  8
milled_holes
 62
1
100
AcDbSpline
 70
8
 71
3
 72
8
 73
4
 74
0
 40
0
 40
0
 40
0
 40
0
 40
1
 40
1
 40
1
 40
1
 10
59.922878
 20
835.972968
 30
0.0
 10
59.582540
 20
836.313306
 30
0.0
 10
59.070700
 20
836.415117
 30
0.0
 10
58.626028
 20
836.230928
 30
0.0
  0
SPLINE
  5
10f
100
AcDbEntity
  8
milled_holes
 62
1
100
AcDbSpline
 70
8
 71
3
 72
8
 73
4
 74
0
 40
0
 40
0
 40
0
 40
0
 40
1
 40
1
 40
1
 40
1
 10
58.626028
 20
836.230928
 30
0.0
 10
58.181355
 20
836.046738
 30
0.0
 10
57.891421
 20
835.612821
 30
0.0
 10
57.891421
 20
835.131511
 30
0.0
  0
SPLINE
  5
110
100
AcDbEntity
  8
milled_holes
 62
1
100
AcDbSpline
 70
8
 71
3
 72
8
 73
4
 74
0
 40
0
 40
0
 40
0
 40
0
 40
1
 40
1
 40
1
 40
1
 10
57.891421
 20
835.131511
 30
0.0
 10
57.891421
 20
834.815903
 30
0.0
 10
58.016796
 20
834.513222
 30
0.0
 10
58.239964
 20
834.290054
 30
0.0
  0
SPLINE
  5
111
100
AcDbEntity
  8
milled_holes
 62
1
100
AcDbSpline
 70
8
 71
3
 72
8
 73
4
 74
0
 40
0
 40
0
 40
0
 40
0
 40
1
 40
1
 40
1
 40
1
 10
58.239964
 20
834.290054
 30
0.0
 10
58.463132
 20
834.066886
 30
0.0
 10
58.765813
 20
833.941511
 30
0.0
 10
59.081421
 20
833.941511
 30
0.0
  0
LWPOLYLINE
  5
112
100
AcDbEntity
  8
milled_holes
 62
1
100
AcDbPolyline
 90
1
 70
1
 10
44.443363
 20
833.941511
 30
0.0
  0
SPLINE
  5
113
100
AcDbEntity
  8
milled_holes
 62
1
100
AcDbSpline
 70
8
 71
3
 72
8
 73
4
 74
0
 40
0
 40
0
 40
0
 40
0
 40
1
 40
1
 40
1
 40
1
 10
81.561218
 20
833.941511
 30
0.0
 10
82.042528
 20
833.941511
 30
0.0
 10
82.476445
 20
834.231445
 30
0.0
 10
82.660635
 20
834.676118
 30
0.0
  0
SPLINE
  5
114
100
AcDbEntity
  8
milled_holes
 62
1
100
AcDbSpline
 70
8
 71
3
 72
8
 73
4
 74
0
 40
0
 40
0
 40
0
 40
0
 40
1
 40
1
 40
1
 40
1
 10
82.660635
 20
834.676118
 30
0.0
 10
82.844824
 20
835.120790
 30
0.0
 10
82.743013
 20
835.632630
 30
0.0
 10
82.402675
 20
835.972968
 30
0.0
  0
SPLINE
  5
115
100
AcDbEntity
  8
milled_holes
 62
1
100
AcDbSpline
 70
8
 71
3
 72
8
 73
4
 74
0
 40
0
 40
0
 40
0
 40
0
 40
1
 40
1
 40
1
 40
1
 10
82.402675
 20
835.972968
 30
0.0
 10
82.062337
 20
836.313306
 30
0.0
 10
81.550497
 20
836.415117
 30
0.0
 10
81.105825
 20
836.230928
 30
0.0
  0
SPLINE
  5
116
100
AcDbEntity
  8
milled_holes
 62
1
100
AcDbSpline
 70
8
 71
3
 72
8
 73
4
 74
0
 40
0
 40
0
 40
0
 40
0
 40
1
 40
1
 40
1
 40
1
 10
81.105825
 20
836.230928
 30
0.0
 10
80.661152
 20
836.046738
 30
0.0
 10
80.371218
 20
835.612821
 30
0.0
 10
80.371218
 20
835.131511
 30
0.0
  0
SPLINE
  5
117
100
AcDbEntity
  8
milled_holes
 62
1
100
AcDbSpline
 70
8
 71
3
 72
8
 73
4
 74
0
 40
0
 40
0
 40
0
 40
0
 40
1
 40
1
 40
1
 40
1
 10
80.371218
 20
835.131511
 30
0.0
 10
80.371218
 20
834.815903
 30
0.0
 10
80.496593
 20
834.513222
 30
0.0
 10
80.719761
 20
834.290054
 30
0.0
  0
SPLINE
  5
118
100
AcDbEntity
  8
milled_holes
 62
1
100
AcDbSpline
 70
8
 71
3
 72
8
 73
4
 74
0
 40
0
 40
0
 40
0
 40
0
 40
1
 40
1
 40
1
 40
1
 10
80.719761
 20
834.290054
 30
0.0
 10
80.942929
 20
834.066886
 30
0.0
 10
81.245610
 20
833.941511
 30
0.0
 10
81.561218
 20
833.941511
 30
0.0
  0
LWPOLYLINE
  5
119
100
AcDbEntity
  8
milled_holes
 62
1
100
AcDbPolyline
 90
1
 70
1
 10
59.081421
 20
833.941511
 30
0.0
  0
SPLINE
  5
11a
100
AcDbEntity
  8
milled_holes
 62
1
100
AcDbSpline
 70
8
 71
3
 72
8
 73
4
 74
0
 40
0
 40
0
 40
0
 40
0
 40
1
 40
1
 40
1
 40
1
 10
102.171020
 20
833.941511
 30
0.0
 10
102.652330
 20
833.941511
 30
0.0
 10
103.086247
 20
834.231445
 30
0.0
 10
103.270437
 20
834.676118
 30
0.0
  0
SPLINE
  5
11b
100
AcDbEntity
  8
milled_holes
 62
1
100
AcDbSpline
 70
8
 71
3
 72
8
 73
4
 74
0
 40
0
 40
0
 40
0
 40
0
 40
1
 40
1
 40
1
 40
1
 10
103.270437
 20
834.676118
 30
0.0
 10
103.454626
 20
835.120790
 30
0.0
 10
103.352815
 20
835.632630
 30
0.0
 10
103.012477
 20
835.972968
 30
0.0
  0
SPLINE
  5
11c
100
AcDbEntity
  8
milled_holes
 62
1
100
AcDbSpline
 70
8
 71
3
 72
8
 73
4
 74
0
 40
0
 40
0
 40
0
 40
0
 40
1
 40
1
 40
1
 40
1
 10
103.012477
 20
835.972968
 30
0.0
 10
102.672139
 20
836.313306
 30
0.0
 10
102.160299
 20
836.415117
 30
0.0
 10
101.715627
 20
836.230928
 30
0.0
  0
SPLINE
  5
11d
100
AcDbEntity
  8
milled_holes
 62
1
100
AcDbSpline
 70
8
 71
3
 72
8
 73
4
 74
0
 40
0
 40
0
 40
0
 40
0
 40
1
 40
1
 40
1
 40
1
 10
101.715627
 20
836.230928
 30
0.0
 10
101.270954
 20
836.046738
 30
0.0
 10
100.981020
 20
835.612821
 30
0.0
 10
100.981020
 20
835.131511
 30
0.0
  0
SPLINE
  5
11e
100
AcDbEntity
  8
milled_holes
 62
1
100
AcDbSpline
 70
8
 71
3
 72
8
 73
4
 74
0
 40
0
 40
0
 40
0
 40
0
 40
1
 40
1
 40
1
 40
1
 10
100.981020
 20
835.131511
 30
0.0
 10
100.981020
 20
834.815903
 30
0.0
 10
101.106395
 20
834.513222
 30
0.0
 10
101.329563
 20
834.290054
 30
0.0
  0
SPLINE
  5
11f
100
AcDbEntity
  8
milled_holes
 62
1
100
AcDbSpline
 70
8
 71
3
 72
8
 73
4
 74
0
 40
0
 40
0
 40
0
 40
0
 40
1
 40
1
 40
1
 40
1
 10
101.329563
 20
834.290054
 30
0.0
 10
101.552731
 20
834.066886
 30
0.0
 10
101.855412
 20
833.941511
 30
0.0
 10
102.171020
 20
833.941511
 30
0.0
  0
LWPOLYLINE
  5
120
100
AcDbEntity
  8
milled_holes
 62
1
100
AcDbPolyline
 90
1
 70
1
 10
81.561218
 20
833.941511
 30
0.0
  0
SPLINE
  5
121
100
AcDbEntity
  8
milled_holes
 62
1
100
AcDbSpline
 70
8
 71
3
 72
8
 73
4
 74
0
 40
0
 40
0
 40
0
 40
0
 40
1
 40
1
 40
1
 40
1
 10
121.500460
 20
833.941511
 30
0.0
 10
121.981770
 20
833.941511
 30
0.0
 10
122.415687
 20
834.231445
 30
0.0
 10
122.599877
 20
834.676118
 30
0.0
  0
SPLINE
  5
122
100
AcDbEntity
  8
milled_holes
 62
1
100
AcDbSpline
 70
8
 71
3
 72
8
 73
4
 74
0
 40
0
 40
0
 40
0
 40
0
 40
1
 40
1
 40
1
 40
1
 10
122.599877
 20
834.676118
 30
0.0
 10
122.784066
 20
835.120790
 30
0.0
 10
122.682255
 20
835.632630
 30
0.0
 10
122.341917
 20
835.972968
 30
0.0
  0
SPLINE
  5
123
100
AcDbEntity
  8
milled_holes
 62
1
100
AcDbSpline
 70
8
 71
3
 72
8
 73
4
 74
0
 40
0
 40
0
 40
0
 40
0
 40
1
 40
1
 40
1
 40
1
 10
122.341917
 20
835.972968
 30
0.0
 10
122.001579
 20
836.313306
 30
0.0
 10
121.489739
 20
836.415117
 30
0.0
 10
121.045067
 20
836.230928
 30
0.0
  0
SPLINE
  5
124
100
AcDbEntity
  8
milled_holes
 62
1
100
AcDbSpline
 70
8
 71
3
 72
8
 73
4
 74
0
 40
0
 40
0
 40
0
 40
0
 40
1
 40
1
 40
1
 40
1
 10
121.045067
 20
836.230928
 30
0.0
 10
120.600394
 20
836.046738
 30
0.0
 10
120.310460
 20
835.612821
 30
0.0
 10
120.310460
 20
835.131511
 30
0.0
  0
SPLINE
  5
125
100
AcDbEntity
  8
milled_holes
 62
1
100
AcDbSpline
 70
8
 71
3
 72
8
 73
4
 74
0
 40
0
 40
0
 40
0
 40
0
 40
1
 40
1
 40
1
 40
1
 10
120.310460
 20
835.131511
 30
0.0
 10
120.310460
 20
834.815903
 30
0.0
 10
120.435835
 20
834.513222
 30
0.0
 10
120.659003
 20
834.290054
 30
0.0
  0
SPLINE
  5
126
100
AcDbEntity
  8
milled_holes
 62
1
100
AcDbSpline
 70
8
 71
3
 72
8
 73
4
 74
0
 40
0
 40
0
 40
0
 40
0
 40
1
 40
1
 40
1
 40
1
 10
120.659003
 20
834.290054
 30
0.0
 10
120.882171
 20
834.066886
 30
0.0
 10
121.184852
 20
833.941511
 30
0.0
 10
121.500460
 20
833.941511
 30
0.0
  0
LWPOLYLINE
  5
127
100
AcDbEntity
  8
milled_holes
 62
1
100
AcDbPolyline
 90
1
 70
1
 10
102.171020
 20
833.941511
 30
0.0
  0
SPLINE
  5
128
100
AcDbEntity
  8
milled_holes
 62
1
100
AcDbSpline
 70
8
 71
3
 72
8
 73
4
 74
0
 40
0
 40
0
 40
0
 40
0
 40
1
 40
1
 40
1
 40
1
 10
137.585210
 20
833.941511
 30
0.0
 10
138.066520
 20
833.941511
 30
0.0
 10
138.500437
 20
834.231445
 30
0.0
 10
138.684627
 20
834.676118
 30
0.0
  0
SPLINE
  5
129
100
AcDbEntity
  8
milled_holes
 62
1
100
AcDbSpline
 70
8
 71
3
 72
8
 73
4
 74
0
 40
0
 40
0
 40
0
 40
0
 40
1
 40
1
 40
1
 40
1
 10
138.684627
 20
834.676118
 30
0.0
 10
138.868816
 20
835.120790
 30
0.0
 10
138.767005
 20
835.632630
 30
0.0
 10
138.426667
 20
835.972968
 30
0.0
  0
SPLINE
  5
12a
100
AcDbEntity
  8
milled_holes
 62
1
100
AcDbSpline
 70
8
 71
3
 72
8
 73
4
 74
0
 40
0
 40
0
 40
0
 40
0
 40
1
 40
1
 40
1
 40
1
 10
138.426667
 20
835.972968
 30
0.0
 10
138.086329
 20
836.313306
 30
0.0
 10
137.574489
 20
836.415117
 30
0.0
 10
137.129817
 20
836.230928
 30
0.0
  0
SPLINE
  5
12b
100
AcDbEntity
  8
milled_holes
 62
1
100
AcDbSpline
 70
8
 71
3
 72
8
 73
4
 74
0
 40
0
 40
0
 40
0
 40
0
 40
1
 40
1
 40
1
 40
1
 10
137.129817
 20
836.230928
 30
0.0
 10
136.685144
 20
836.046738
 30
0.0
 10
136.395210
 20
835.612821
 30
0.0
 10
136.395210
 20
835.131511
 30
0.0
  0
SPLINE
  5
12c
100
AcDbEntity
  8
milled_holes
 62
1
100
AcDbSpline
 70
8
 71
3
 72
8
 73
4
 74
0
 40
0
 40
0
 40
0
 40
0
 40
1
 40
1
 40
1
 40
1
 10
136.395210
 20
835.131511
 30
0.0
 10
136.395210
 20
834.815903
 30
0.0
 10
136.520585
 20
834.513222
 30
0.0
 10
136.743753
 20
834.290054
 30
0.0
  0
SPLINE
  5
12d
100
AcDbEntity
  8
milled_holes
 62
1
100
AcDbSpline
 70
8
 71
3
 72
8
 73
4
 74
0
 40
0
 40
0
 40
0
 40
0
 40
1
 40
1
 40
1
 40
1
 10
136.743753
 20
834.290054
 30
0.0
 10
136.966921
 20
834.066886
 30
0.0
 10
137.269602
 20
833.941511
 30
0.0
 10
137.585210
 20
833.941511
 30
0.0
  0
LWPOLYLINE
  5
12e
100
AcDbEntity
  8
milled_holes
 62
1
100
AcDbPolyline
 90
1
 70
1
 10
121.500460
 20
833.941511
 30
0.0
  0
SPLINE
  5
12f
100
AcDbEntity
  8
milled_holes
 62
1
100
AcDbSpline
 70
8
 71
3
 72
8
 73
4
 74
0
 40
0
 40
0
 40
0
 40
0
 40
1
 40
1
 40
1
 40
1
 10
153.898640
 20
833.941511
 30
0.0
 10
154.379950
 20
833.941511
 30
0.0
 10
154.813867
 20
834.231445
 30
0.0
 10
154.998057
 20
834.676118
 30
0.0
  0
SPLINE
  5
130
100
AcDbEntity
  8
milled_holes
 62
1
100
AcDbSpline
 70
8
 71
3
 72
8
 73
4
 74
0
 40
0
 40
0
 40
0
 40
0
 40
1
 40
1
 40
1
 40
1
 10
154.998057
 20
834.676118
 30
0.0
 10
155.182246
 20
835.120790
 30
0.0
 10
155.080435
 20
835.632630
 30
0.0
 10
154.740097
 20
835.972968
 30
0.0
  0
SPLINE
  5
131
100
AcDbEntity
  8
milled_holes
 62
1
100
AcDbSpline
 70
8
 71
3
 72
8
 73
4
 74
0
 40
0
 40
0
 40
0
 40
0
 40
1
 40
1
 40
1
 40
1
 10
154.740097
 20
835.972968
 30
0.0
 10
154.399759
 20
836.313306
 30
0.0
 10
153.887919
 20
836.415117
 30
0.0
 10
153.443247
 20
836.230928
 30
0.0
  0
SPLINE
  5
132
100
AcDbEntity
  8
milled_holes
 62
1
100
AcDbSpline
 70
8
 71
3
 72
8
 73
4
 74
0
 40
0
 40
0
 40
0
 40
0
 40
1
 40
1
 40
1
 40
1
 10
153.443247
 20
836.230928
 30
0.0
 10
152.998574
 20
836.046738
 30
0.0
 10
152.708640
 20
835.612821
 30
0.0
 10
152.708640
 20
835.131511
 30
0.0
  0
SPLINE
  5
133
100
AcDbEntity
  8
milled_holes
 62
1
100
AcDbSpline
 70
8
 71
3
 72
8
 73
4
 74
0
 40
0
 40
0
 40
0
 40
0
 40
1
 40
1
 40
1
 40
1
 10
152.708640
 20
835.131511
 30
0.0
 10
152.708640
 20
834.815903
 30
0.0
 10
152.834015
 20
834.513222
 30
0.0
 10
153.057183
 20
834.290054
 30
0.0
  0
SPLINE
  5
134
100
AcDbEntity
  8
milled_holes
 62
1
100
AcDbSpline
 70
8
 71
3
 72
8
 73
4
 74
0
 40
0
 40
0
 40
0
 40
0
 40
1
 40
1
 40
1
 40
1
 10
153.057183
 20
834.290054
 30
0.0
 10
153.280351
 20
834.066886
 30
0.0
 10
153.583032
 20
833.941511
 30
0.0
 10
153.898640
 20
833.941511
 30
0.0
  0
LWPOLYLINE
  5
135
100
AcDbEntity
  8
milled_holes
 62
1
100
AcDbPolyline
 90
1
 70
1
 10
137.585210
 20
833.941511
 30
0.0
  0
SPLINE
  5
136
100
AcDbEntity
  8
milled_holes
 62
1
100
AcDbSpline
 70
8
 71
3
 72
8
 73
4
 74
0
 40
0
 40
0
 40
0
 40
0
 40
1
 40
1
 40
1
 40
1
 10
162.199020
 20
833.941511
 30
0.0
 10
162.680330
 20
833.941511
 30
0.0
 10
163.114247
 20
834.231445
 30
0.0
 10
163.298437
 20
834.676118
 30
0.0
  0
SPLINE
  5
137
100
AcDbEntity
  8
milled_holes
 62
1
100
AcDbSpline
 70
8
 71
3
 72
8
 73
4
 74
0
 40
0
 40
0
 40
0
 40
0
 40
1
 40
1
 40
1
 40
1
 10
163.298437
 20
834.676118
 30
0.0
 10
163.482626
 20
835.120790
 30
0.0
 10
163.380815
 20
835.632630
 30
0.0
 10
163.040477
 20
835.972968
 30
0.0
  0
SPLINE
  5
138
100
AcDbEntity
  8
milled_holes
 62
1
100
AcDbSpline
 70
8
 71
3
 72
8
 73
4
 74
0
 40
0
 40
0
 40
0
 40
0
 40
1
 40
1
 40
1
 40
1
 10
163.040477
 20
835.972968
 30
0.0
 10
162.700139
 20
836.313306
 30
0.0
 10
162.188299
 20
836.415117
 30
0.0
 10
161.743627
 20
836.230928
 30
0.0
  0
SPLINE
  5
139
100
AcDbEntity
  8
milled_holes
 62
1
100
AcDbSpline
 70
8
 71
3
 72
8
 73
4
 74
0
 40
0
 40
0
 40
0
 40
0
 40
1
 40
1
 40
1
 40
1
 10
161.743627
 20
836.230928
 30
0.0
 10
161.298954
 20
836.046738
 30
0.0
 10
161.009020
 20
835.612821
 30
0.0
 10
161.009020
 20
835.131511
 30
0.0
  0
SPLINE
  5
13a
100
AcDbEntity
  8
milled_holes
 62
1
100
AcDbSpline
 70
8
 71
3
 72
8
 73
4
 74
0
 40
0
 40
0
 40
0
 40
0
 40
1
 40
1
 40
1
 40
1
 10
161.009020
 20
835.131511
 30
0.0
 10
161.009020
 20
834.815903
 30
0.0
 10
161.134395
 20
834.513222
 30
0.0
 10
161.357563
 20
834.290054
 30
0.0
  0
SPLINE
  5
13b
100
AcDbEntity
  8
milled_holes
 62
1
100
AcDbSpline
 70
8
 71
3
 72
8
 73
4
 74
0
 40
0
 40
0
 40
0
 40
0
 40
1
 40
1
 40
1
 40
1
 10
161.357563
 20
834.290054
 30
0.0
 10
161.580731
 20
834.066886
 30
0.0
 10
161.883412
 20
833.941511
 30
0.0
 10
162.199020
 20
833.941511
 30
0.0
  0
LWPOLYLINE
  5
13c
100
AcDbEntity
  8
milled_holes
 62
1
100
AcDbPolyline
 90
1
 70
1
 10
153.898640
 20
833.941511
 30
0.0
  0
SPLINE
  5
13d
100
AcDbEntity
  8
milled_holes
 62
1
100
AcDbSpline
 70
8
 71
3
 72
8
 73
4
 74
0
 40
0
 40
0
 40
0
 40
0
 40
1
 40
1
 40
1
 40
1
 10
167.736740
 20
839.896742
 30
0.0
 10
168.218050
 20
839.896742
 30
0.0
 10
168.651967
 20
840.186676
 30
0.0
 10
168.836157
 20
840.631349
 30
0.0
  0
SPLINE
  5
13e
100
AcDbEntity
  8
milled_holes
 62
1
100
AcDbSpline
 70
8
 71
3
 72
8
 73
4
 74
0
 40
0
 40
0
 40
0
 40
0
 40
1
 40
1
 40
1
 40
1
 10
168.836157
 20
840.631349
 30
0.0
 10
169.020346
 20
841.076021
 30
0.0
 10
168.918535
 20
841.587861
 30
0.0
 10
168.578197
 20
841.928199
 30
0.0
  0
SPLINE
  5
13f
100
AcDbEntity
  8
milled_holes
 62
1
100
AcDbSpline
 70
8
 71
3
 72
8
 73
4
 74
0
 40
0
 40
0
 40
0
 40
0
 40
1
 40
1
 40
1
 40
1
 10
168.578197
 20
841.928199
 30
0.0
 10
168.237859
 20
842.268537
 30
0.0
 10
167.726019
 20
842.370348
 30
0.0
 10
167.281347
 20
842.186159
 30
0.0
  0
SPLINE
  5
140
100
AcDbEntity
  8
milled_holes
 62
1
100
AcDbSpline
 70
8
 71
3
 72
8
 73
4
 74
0
 40
0
 40
0
 40
0
 40
0
 40
1
 40
1
 40
1
 40
1
 10
167.281347
 20
842.186159
 30
0.0
 10
166.836674
 20
842.001969
 30
0.0
 10
166.546740
 20
841.568052
 30
0.0
 10
166.546740
 20
841.086742
 30
0.0
  0
SPLINE
  5
141
100
AcDbEntity
  8
milled_holes
 62
1
100
AcDbSpline
 70
8
 71
3
 72
8
 73
4
 74
0
 40
0
 40
0
 40
0
 40
0
 40
1
 40
1
 40
1
 40
1
 10
166.546740
 20
841.086742
 30
0.0
 10
166.546740
 20
840.771134
 30
0.0
 10
166.672115
 20
840.468453
 30
0.0
 10
166.895283
 20
840.245285
 30
0.0
  0
SPLINE
  5
142
100
AcDbEntity
  8
milled_holes
 62
1
100
AcDbSpline
 70
8
 71
3
 72
8
 73
4
 74
0
 40
0
 40
0
 40
0
 40
0
 40
1
 40
1
 40
1
 40
1
 10
166.895283
 20
840.245285
 30
0.0
 10
167.118451
 20
840.022117
 30
0.0
 10
167.421132
 20
839.896742
 30
0.0
 10
167.736740
 20
839.896742
 30
0.0
  0
LWPOLYLINE
  5
143
100
AcDbEntity
  8
milled_holes
 62
1
100
AcDbPolyline
 90
1
 70
1
 10
162.199020
 20
833.941511
 30
0.0
  0
SPLINE
  5
144
100
AcDbEntity
  8
milled_holes
 62
1
100
AcDbSpline
 70
8
 71
3
 72
8
 73
4
 74
0
 40
0
 40
0
 40
0
 40
0
 40
1
 40
1
 40
1
 40
1
 10
180.498920
 20
839.896742
 30
0.0
 10
180.980230
 20
839.896742
 30
0.0
 10
181.414147
 20
840.186676
 30
0.0
 10
181.598337
 20
840.631349
 30
0.0
  0
SPLINE
  5
145
100
AcDbEntity
  8
milled_holes
 62
1
100
AcDbSpline
 70
8
 71
3
 72
8
 73
4
 74
0
 40
0
 40
0
 40
0
 40
0
 40
1
 40
1
 40
1
 40
1
 10
181.598337
 20
840.631349
 30
0.0
 10
181.782526
 20
841.076021
 30
0.0
 10
181.680715
 20
841.587861
 30
0.0
 10
181.340377
 20
841.928199
 30
0.0
  0
SPLINE
  5
146
100
AcDbEntity
  8
milled_holes
 62
1
100
AcDbSpline
 70
8
 71
3
 72
8
 73
4
 74
0
 40
0
 40
0
 40
0
 40
0
 40
1
 40
1
 40
1
 40
1
 10
181.340377
 20
841.928199
 30
0.0
 10
181.000039
 20
842.268537
 30
0.0
 10
180.488199
 20
842.370348
 30
0.0
 10
180.043527
 20
842.186159
 30
0.0
  0
SPLINE
  5
147
100
AcDbEntity
  8
milled_holes
 62
1
100
AcDbSpline
 70
8
 71
3
 72
8
 73
4
 74
0
 40
0
 40
0
 40
0
 40
0
 40
1
 40
1
 40
1
 40
1
 10
180.043527
 20
842.186159
 30
0.0
 10
179.598854
 20
842.001969
 30
0.0
 10
179.308920
 20
841.568052
 30
0.0
 10
179.308920
 20
841.086742
 30
0.0
  0
SPLINE
  5
148
100
AcDbEntity
  8
milled_holes
 62
1
100
AcDbSpline
 70
8
 71
3
 72
8
 73
4
 74
0
 40
0
 40
0
 40
0
 40
0
 40
1
 40
1
 40
1
 40
1
 10
179.308920
 20
841.086742
 30
0.0
 10
179.308920
 20
840.429523
 30
0.0
 10
179.841701
 20
839.896742
 30
0.0
 10
180.498920
 20
839.896742
 30
0.0
  0
LWPOLYLINE
  5
149
100
AcDbEntity
  8
milled_holes
 62
1
100
AcDbPolyline
 90
1
 70
1
 10
167.736740
 20
839.896742
 30
0.0
  0
SPLINE
  5
14a
100
AcDbEntity
  8
milled_holes
 62
1
100
AcDbSpline
 70
8
 71
3
 72
8
 73
4
 74
0
 40
0
 40
0
 40
0
 40
0
 40
1
 40
1
 40
1
 40
1
 10
182.320080
 20
833.941511
 30
0.0
 10
182.801390
 20
833.941511
 30
0.0
 10
183.235307
 20
834.231445
 30
0.0
 10
183.419497
 20
834.676118
 30
0.0
  0
SPLINE
  5
14b
100
AcDbEntity
  8
milled_holes
 62
1
100
AcDbSpline
 70
8
 71
3
 72
8
 73
4
 74
0
 40
0
 40
0
 40
0
 40
0
 40
1
 40
1
 40
1
 40
1
 10
183.419497
 20
834.676118
 30
0.0
 10
183.603686
 20
835.120790
 30
0.0
 10
183.501875
 20
835.632630
 30
0.0
 10
183.161537
 20
835.972968
 30
0.0
  0
SPLINE
  5
14c
100
AcDbEntity
  8
milled_holes
 62
1
100
AcDbSpline
 70
8
 71
3
 72
8
 73
4
 74
0
 40
0
 40
0
 40
0
 40
0
 40
1
 40
1
 40
1
 40
1
 10
183.161537
 20
835.972968
 30
0.0
 10
182.821199
 20
836.313306
 30
0.0
 10
182.309359
 20
836.415117
 30
0.0
 10
181.864687
 20
836.230928
 30
0.0
  0
SPLINE
  5
14d
100
AcDbEntity
  8
milled_holes
 62
1
100
AcDbSpline
 70
8
 71
3
 72
8
 73
4
 74
0
 40
0
 40
0
 40
0
 40
0
 40
1
 40
1
 40
1
 40
1
 10
181.864687
 20
836.230928
 30
0.0
 10
181.420014
 20
836.046738
 30
0.0
 10
181.130080
 20
835.612821
 30
0.0
 10
181.130080
 20
835.131511
 30
0.0
  0
SPLINE
  5
14e
100
AcDbEntity
  8
milled_holes
 62
1
100
AcDbSpline
 70
8
 71
3
 72
8
 73
4
 74
0
 40
0
 40
0
 40
0
 40
0
 40
1
 40
1
 40
1
 40
1
 10
181.130080
 20
835.131511
 30
0.0
 10
181.130080
 20
834.474292
 30
0.0
 10
181.662861
 20
833.941511
 30
0.0
 10
182.320080
 20
833.941511
 30
0.0
  0
LWPOLYLINE
  5
14f
100
AcDbEntity
  8
milled_holes
 62
1
100
AcDbPolyline
 90
1
 70
1
 10
180.498920
 20
839.896742
 30
0.0
  0
SPLINE
  5
150
100
AcDbEntity
  8
milled_holes
 62
1
100
AcDbSpline
 70
8
 71
3
 72
8
 73
4
 74
0
 40
0
 40
0
 40
0
 40
0
 40
1
 40
1
 40
1
 40
1
 10
191.226300
 20
839.896742
 30
0.0
 10
191.707610
 20
839.896742
 30
0.0
 10
192.141527
 20
840.186676
 30
0.0
 10
192.325717
 20
840.631349
 30
0.0
  0
SPLINE
  5
151
100
AcDbEntity
  8
milled_holes
 62
1
100
AcDbSpline
 70
8
 71
3
 72
8
 73
4
 74
0
 40
0
 40
0
 40
0
 40
0
 40
1
 40
1
 40
1
 40
1
 10
192.325717
 20
840.631349
 30
0.0
 10
192.509906
 20
841.076021
 30
0.0
 10
192.408095
 20
841.587861
 30
0.0
 10
192.067757
 20
841.928199
 30
0.0
  0
SPLINE
  5
152
100
AcDbEntity
  8
milled_holes
 62
1
100
AcDbSpline
 70
8
 71
3
 72
8
 73
4
 74
0
 40
0
 40
0
 40
0
 40
0
 40
1
 40
1
 40
1
 40
1
 10
192.067757
 20
841.928199
 30
0.0
 10
191.727419
 20
842.268537
 30
0.0
 10
191.215579
 20
842.370348
 30
0.0
 10
190.770907
 20
842.186159
 30
0.0
  0
SPLINE
  5
153
100
AcDbEntity
  8
milled_holes
 62
1
100
AcDbSpline
 70
8
 71
3
 72
8
 73
4
 74
0
 40
0
 40
0
 40
0
 40
0
 40
1
 40
1
 40
1
 40
1
 10
190.770907
 20
842.186159
 30
0.0
 10
190.326234
 20
842.001969
 30
0.0
 10
190.036300
 20
841.568052
 30
0.0
 10
190.036300
 20
841.086742
 30
0.0
  0
SPLINE
  5
154
100
AcDbEntity
  8
milled_holes
 62
1
100
AcDbSpline
 70
8
 71
3
 72
8
 73
4
 74
0
 40
0
 40
0
 40
0
 40
0
 40
1
 40
1
 40
1
 40
1
 10
190.036300
 20
841.086742
 30
0.0
 10
190.036300
 20
840.771134
 30
0.0
 10
190.161675
 20
840.468453
 30
0.0
 10
190.384843
 20
840.245285
 30
0.0
  0
SPLINE
  5
155
100
AcDbEntity
  8
milled_holes
 62
1
100
AcDbSpline
 70
8
 71
3
 72
8
 73
4
 74
0
 40
0
 40
0
 40
0
 40
0
 40
1
 40
1
 40
1
 40
1
 10
190.384843
 20
840.245285
 30
0.0
 10
190.608011
 20
840.022117
 30
0.0
 10
190.910692
 20
839.896742
 30
0.0
 10
191.226300
 20
839.896742
 30
0.0
  0
LWPOLYLINE
  5
156
100
AcDbEntity
  8
milled_holes
 62
1
100
AcDbPolyline
 90
1
 70
1
 10
182.320080
 20
833.941511
 30
0.0
  0
SPLINE
  5
157
100
AcDbEntity
  8
milled_holes
 62
1
100
AcDbSpline
 70
8
 71
3
 72
8
 73
4
 74
0
 40
0
 40
0
 40
0
 40
0
 40
1
 40
1
 40
1
 40
1
 10
201.336530
 20
833.936521
 30
0.0
 10
201.817840
 20
833.936521
 30
0.0
 10
202.251757
 20
834.226455
 30
0.0
 10
202.435947
 20
834.671128
 30
0.0
  0
SPLINE
  5
158
100
AcDbEntity
  8
milled_holes
 62
1
100
AcDbSpline
 70
8
 71
3
 72
8
 73
4
 74
0
 40
0
 40
0
 40
0
 40
0
 40
1
 40
1
 40
1
 40
1
 10
202.435947
 20
834.671128
 30
0.0
 10
202.620136
 20
835.115800
 30
0.0
 10
202.518325
 20
835.627640
 30
0.0
 10
202.177987
 20
835.967978
 30
0.0
  0
SPLINE
  5
159
100
AcDbEntity
  8
milled_holes
 62
1
100
AcDbSpline
 70
8
 71
3
 72
8
 73
4
 74
0
 40
0
 40
0
 40
0
 40
0
 40
1
 40
1
 40
1
 40
1
 10
202.177987
 20
835.967978
 30
0.0
 10
201.837649
 20
836.308316
 30
0.0
 10
201.325809
 20
836.410127
 30
0.0
 10
200.881137
 20
836.225938
 30
0.0
  0
SPLINE
  5
15a
100
AcDbEntity
  8
milled_holes
 62
1
100
AcDbSpline
 70
8
 71
3
 72
8
 73
4
 74
0
 40
0
 40
0
 40
0
 40
0
 40
1
 40
1
 40
1
 40
1
 10
200.881137
 20
836.225938
 30
0.0
 10
200.436464
 20
836.041748
 30
0.0
 10
200.146530
 20
835.607831
 30
0.0
 10
200.146530
 20
835.126521
 30
0.0
  0
SPLINE
  5
15b
100
AcDbEntity
  8
milled_holes
 62
1
100
AcDbSpline
 70
8
 71
3
 72
8
 73
4
 74
0
 40
0
 40
0
 40
0
 40
0
 40
1
 40
1
 40
1
 40
1
 10
200.146530
 20
835.126521
 30
0.0
 10
200.146530
 20
834.469302
 30
0.0
 10
200.679311
 20
833.936521
 30
0.0
 10
201.336530
 20
833.936521
 30
0.0
  0
LWPOLYLINE
  5
15c
100
AcDbEntity
  8
milled_holes
 62
1
100
AcDbPolyline
 90
1
 70
1
 10
191.226300
 20
839.896742
 30
0.0
  0
SPLINE
  5
15d
100
AcDbEntity
  8
milled_holes
 62
1
100
AcDbSpline
 70
8
 71
3
 72
8
 73
4
 74
0
 40
0
 40
0
 40
0
 40
0
 40
1
 40
1
 40
1
 40
1
 10
209.736820
 20
833.941511
 30
0.0
 10
210.218130
 20
833.941511
 30
0.0
 10
210.652047
 20
834.231445
 30
0.0
 10
210.836237
 20
834.676118
 30
0.0
  0
SPLINE
  5
15e
100
AcDbEntity
  8
milled_holes
 62
1
100
AcDbSpline
 70
8
 71
3
 72
8
 73
4
 74
0
 40
0
 40
0
 40
0
 40
0
 40
1
 40
1
 40
1
 40
1
 10
210.836237
 20
834.676118
 30
0.0
 10
211.020426
 20
835.120790
 30
0.0
 10
210.918615
 20
835.632630
 30
0.0
 10
210.578277
 20
835.972968
 30
0.0
  0
SPLINE
  5
15f
100
AcDbEntity
  8
milled_holes
 62
1
100
AcDbSpline
 70
8
 71
3
 72
8
 73
4
 74
0
 40
0
 40
0
 40
0
 40
0
 40
1
 40
1
 40
1
 40
1
 10
210.578277
 20
835.972968
 30
0.0
 10
210.237939
 20
836.313306
 30
0.0
 10
209.726099
 20
836.415117
 30
0.0
 10
209.281427
 20
836.230928
 30
0.0
  0
SPLINE
  5
160
100
AcDbEntity
  8
milled_holes
 62
1
100
AcDbSpline
 70
8
 71
3
 72
8
 73
4
 74
0
 40
0
 40
0
 40
0
 40
0
 40
1
 40
1
 40
1
 40
1
 10
209.281427
 20
836.230928
 30
0.0
 10
208.836754
 20
836.046738
 30
0.0
 10
208.546820
 20
835.612821
 30
0.0
 10
208.546820
 20
835.131511
 30
0.0
  0
SPLINE
  5
161
100
AcDbEntity
  8
milled_holes
 62
1
100
AcDbSpline
 70
8
 71
3
 72
8
 73
4
 74
0
 40
0
 40
0
 40
0
 40
0
 40
1
 40
1
 40
1
 40
1
 10
208.546820
 20
835.131511
 30
0.0
 10
208.546820
 20
834.815903
 30
0.0
 10
208.672195
 20
834.513222
 30
0.0
 10
208.895363
 20
834.290054
 30
0.0
  0
SPLINE
  5
162
100
AcDbEntity
  8
milled_holes
 62
1
100
AcDbSpline
 70
8
 71
3
 72
8
 73
4
 74
0
 40
0
 40
0
 40
0
 40
0
 40
1
 40
1
 40
1
 40
1
 10
208.895363
 20
834.290054
 30
0.0
 10
209.118531
 20
834.066886
 30
0.0
 10
209.421212
 20
833.941511
 30
0.0
 10
209.736820
 20
833.941511
 30
0.0
  0
LWPOLYLINE
  5
163
100
AcDbEntity
  8
milled_holes
 62
1
100
AcDbPolyline
 90
1
 70
1
 10
201.336530
 20
833.936521
 30
0.0
  0
SPLINE
  5
164
100
AcDbEntity
  8
milled_holes
 62
1
100
AcDbSpline
 70
8
 71
3
 72
8
 73
4
 74
0
 40
0
 40
0
 40
0
 40
0
 40
1
 40
1
 40
1
 40
1
 10
219.634400
 20
839.891752
 30
0.0
 10
220.115710
 20
839.891752
 30
0.0
 10
220.549627
 20
840.181686
 30
0.0
 10
220.733817
 20
840.626359
 30
0.0
  0
SPLINE
  5
165
100
AcDbEntity
  8
milled_holes
 62
1
100
AcDbSpline
 70
8
 71
3
 72
8
 73
4
 74
0
 40
0
 40
0
 40
0
 40
0
 40
1
 40
1
 40
1
 40
1
 10
220.733817
 20
840.626359
 30
0.0
 10
220.918006
 20
841.071031
 30
0.0
 10
220.816195
 20
841.582871
 30
0.0
 10
220.475857
 20
841.923209
 30
0.0
  0
SPLINE
  5
166
100
AcDbEntity
  8
milled_holes
 62
1
100
AcDbSpline
 70
8
 71
3
 72
8
 73
4
 74
0
 40
0
 40
0
 40
0
 40
0
 40
1
 40
1
 40
1
 40
1
 10
220.475857
 20
841.923209
 30
0.0
 10
220.135519
 20
842.263547
 30
0.0
 10
219.623679
 20
842.365358
 30
0.0
 10
219.179007
 20
842.181169
 30
0.0
  0
SPLINE
  5
167
100
AcDbEntity
  8
milled_holes
 62
1
100
AcDbSpline
 70
8
 71
3
 72
8
 73
4
 74
0
 40
0
 40
0
 40
0
 40
0
 40
1
 40
1
 40
1
 40
1
 10
219.179007
 20
842.181169
 30
0.0
 10
218.734334
 20
841.996979
 30
0.0
 10
218.444400
 20
841.563062
 30
0.0
 10
218.444400
 20
841.081752
 30
0.0
  0
SPLINE
  5
168
100
AcDbEntity
  8
milled_holes
 62
1
100
AcDbSpline
 70
8
 71
3
 72
8
 73
4
 74
0
 40
0
 40
0
 40
0
 40
0
 40
1
 40
1
 40
1
 40
1
 10
218.444400
 20
841.081752
 30
0.0
 10
218.444400
 20
840.424533
 30
0.0
 10
218.977181
 20
839.891752
 30
0.0
 10
219.634400
 20
839.891752
 30
0.0
  0
LWPOLYLINE
  5
169
100
AcDbEntity
  8
milled_holes
 62
1
100
AcDbPolyline
 90
1
 70
1
 10
209.736820
 20
833.941511
 30
0.0
  0
SPLINE
  5
16a
100
AcDbEntity
  8
milled_holes
 62
1
100
AcDbSpline
 70
8
 71
3
 72
8
 73
4
 74
0
 40
0
 40
0
 40
0
 40
0
 40
1
 40
1
 40
1
 40
1
 10
168.379380
 20
859.596933
 30
0.0
 10
168.860690
 20
859.596933
 30
0.0
 10
169.294607
 20
859.886867
 30
0.0
 10
169.478797
 20
860.331540
 30
0.0
  0
SPLINE
  5
16b
100
AcDbEntity
  8
milled_holes
 62
1
100
AcDbSpline
 70
8
 71
3
 72
8
 73
4
 74
0
 40
0
 40
0
 40
0
 40
0
 40
1
 40
1
 40
1
 40
1
 10
169.478797
 20
860.331540
 30
0.0
 10
169.662986
 20
860.776212
 30
0.0
 10
169.561175
 20
861.288052
 30
0.0
 10
169.220837
 20
861.628390
 30
0.0
  0
SPLINE
  5
16c
100
AcDbEntity
  8
milled_holes
 62
1
100
AcDbSpline
 70
8
 71
3
 72
8
 73
4
 74
0
 40
0
 40
0
 40
0
 40
0
 40
1
 40
1
 40
1
 40
1
 10
169.220837
 20
861.628390
 30
0.0
 10
168.880499
 20
861.968728
 30
0.0
 10
168.368659
 20
862.070539
 30
0.0
 10
167.923987
 20
861.886350
 30
0.0
  0
SPLINE
  5
16d
100
AcDbEntity
  8
milled_holes
 62
1
100
AcDbSpline
 70
8
 71
3
 72
8
 73
4
 74
0
 40
0
 40
0
 40
0
 40
0
 40
1
 40
1
 40
1
 40
1
 10
167.923987
 20
861.886350
 30
0.0
 10
167.479314
 20
861.702160
 30
0.0
 10
167.189380
 20
861.268243
 30
0.0
 10
167.189380
 20
860.786933
 30
0.0
  0
SPLINE
  5
16e
100
AcDbEntity
  8
milled_holes
 62
1
100
AcDbSpline
 70
8
 71
3
 72
8
 73
4
 74
0
 40
0
 40
0
 40
0
 40
0
 40
1
 40
1
 40
1
 40
1
 10
167.189380
 20
860.786933
 30
0.0
 10
167.189380
 20
860.129714
 30
0.0
 10
167.722161
 20
859.596933
 30
0.0
 10
168.379380
 20
859.596933
 30
0.0
  0
LWPOLYLINE
  5
16f
100
AcDbEntity
  8
milled_holes
 62
1
100
AcDbPolyline
 90
1
 70
1
 10
219.634400
 20
839.891752
 30
0.0
  0
SPLINE
  5
170
100
AcDbEntity
  8
milled_holes
 62
1
100
AcDbSpline
 70
8
 71
3
 72
8
 73
4
 74
0
 40
0
 40
0
 40
0
 40
0
 40
1
 40
1
 40
1
 40
1
 10
162.288620
 20
865.702204
 30
0.0
 10
162.769930
 20
865.702204
 30
0.0
 10
163.203847
 20
865.992138
 30
0.0
 10
163.388037
 20
866.436811
 30
0.0
  0
SPLINE
  5
171
100
AcDbEntity
  8
milled_holes
 62
1
100
AcDbSpline
 70
8
 71
3
 72
8
 73
4
 74
0
 40
0
 40
0
 40
0
 40
0
 40
1
 40
1
 40
1
 40
1
 10
163.388037
 20
866.436811
 30
0.0
 10
163.572226
 20
866.881483
 30
0.0
 10
163.470415
 20
867.393323
 30
0.0
 10
163.130077
 20
867.733661
 30
0.0
  0
SPLINE
  5
172
100
AcDbEntity
  8
milled_holes
 62
1
100
AcDbSpline
 70
8
 71
3
 72
8
 73
4
 74
0
 40
0
 40
0
 40
0
 40
0
 40
1
 40
1
 40
1
 40
1
 10
163.130077
 20
867.733661
 30
0.0
 10
162.789739
 20
868.073999
 30
0.0
 10
162.277899
 20
868.175810
 30
0.0
 10
161.833227
 20
867.991621
 30
0.0
  0
SPLINE
  5
173
100
AcDbEntity
  8
milled_holes
 62
1
100
AcDbSpline
 70
8
 71
3
 72
8
 73
4
 74
0
 40
0
 40
0
 40
0
 40
0
 40
1
 40
1
 40
1
 40
1
 10
161.833227
 20
867.991621
 30
0.0
 10
161.388554
 20
867.807431
 30
0.0
 10
161.098620
 20
867.373514
 30
0.0
 10
161.098620
 20
866.892204
 30
0.0
  0
SPLINE
  5
174
100
AcDbEntity
  8
milled_holes
 62
1
100
AcDbSpline
 70
8
 71
3
 72
8
 73
4
 74
0
 40
0
 40
0
 40
0
 40
0
 40
1
 40
1
 40
1
 40
1
 10
161.098620
 20
866.892204
 30
0.0
 10
161.098620
 20
866.576596
 30
0.0
 10
161.223995
 20
866.273915
 30
0.0
 10
161.447163
 20
866.050747
 30
0.0
  0
SPLINE
  5
175
100
AcDbEntity
  8
milled_holes
 62
1
100
AcDbSpline
 70
8
 71
3
 72
8
 73
4
 74
0
 40
0
 40
0
 40
0
 40
0
 40
1
 40
1
 40
1
 40
1
 10
161.447163
 20
866.050747
 30
0.0
 10
161.670331
 20
865.827579
 30
0.0
 10
161.973012
 20
865.702204
 30
0.0
 10
162.288620
 20
865.702204
 30
0.0
  0
LWPOLYLINE
  5
176
100
AcDbEntity
  8
milled_holes
 62
1
100
AcDbPolyline
 90
1
 70
1
 10
168.379380
 20
859.596933
 30
0.0
  0
SPLINE
  5
177
100
AcDbEntity
  8
milled_holes
 62
1
100
AcDbSpline
 70
8
 71
3
 72
8
 73
4
 74
0
 40
0
 40
0
 40
0
 40
0
 40
1
 40
1
 40
1
 40
1
 10
137.617900
 20
862.250132
 30
0.0
 10
138.099210
 20
862.250132
 30
0.0
 10
138.533127
 20
862.540066
 30
0.0
 10
138.717317
 20
862.984739
 30
0.0
  0
SPLINE
  5
178
100
AcDbEntity
  8
milled_holes
 62
1
100
AcDbSpline
 70
8
 71
3
 72
8
 73
4
 74
0
 40
0
 40
0
 40
0
 40
0
 40
1
 40
1
 40
1
 40
1
 10
138.717317
 20
862.984739
 30
0.0
 10
138.901506
 20
863.429411
 30
0.0
 10
138.799695
 20
863.941251
 30
0.0
 10
138.459357
 20
864.281589
 30
0.0
  0
SPLINE
  5
179
100
AcDbEntity
  8
milled_holes
 62
1
100
AcDbSpline
 70
8
 71
3
 72
8
 73
4
 74
0
 40
0
 40
0
 40
0
 40
0
 40
1
 40
1
 40
1
 40
1
 10
138.459357
 20
864.281589
 30
0.0
 10
138.119019
 20
864.621927
 30
0.0
 10
137.607179
 20
864.723738
 30
0.0
 10
137.162507
 20
864.539549
 30
0.0
  0
SPLINE
  5
17a
100
AcDbEntity
  8
milled_holes
 62
1
100
AcDbSpline
 70
8
 71
3
 72
8
 73
4
 74
0
 40
0
 40
0
 40
0
 40
0
 40
1
 40
1
 40
1
 40
1
 10
137.162507
 20
864.539549
 30
0.0
 10
136.717834
 20
864.355359
 30
0.0
 10
136.427900
 20
863.921442
 30
0.0
 10
136.427900
 20
863.440132
 30
0.0
  0
SPLINE
  5
17b
100
AcDbEntity
  8
milled_holes
 62
1
100
AcDbSpline
 70
8
 71
3
 72
8
 73
4
 74
0
 40
0
 40
0
 40
0
 40
0
 40
1
 40
1
 40
1
 40
1
 10
136.427900
 20
863.440132
 30
0.0
 10
136.427900
 20
863.124524
 30
0.0
 10
136.553275
 20
862.821843
 30
0.0
 10
136.776443
 20
862.598675
 30
0.0
  0
SPLINE
  5
17c
100
AcDbEntity
  8
milled_holes
 62
1
100
AcDbSpline
 70
8
 71
3
 72
8
 73
4
 74
0
 40
0
 40
0
 40
0
 40
0
 40
1
 40
1
 40
1
 40
1
 10
136.776443
 20
862.598675
 30
0.0
 10
136.999611
 20
862.375507
 30
0.0
 10
137.302292
 20
862.250132
 30
0.0
 10
137.617900
 20
862.250132
 30
0.0
  0
LWPOLYLINE
  5
17d
100
AcDbEntity
  8
milled_holes
 62
1
100
AcDbPolyline
 90
1
 70
1
 10
162.288620
 20
865.702204
 30
0.0
  0
SPLINE
  5
17e
100
AcDbEntity
  8
milled_holes
 62
1
100
AcDbSpline
 70
8
 71
3
 72
8
 73
4
 74
0
 40
0
 40
0
 40
0
 40
0
 40
1
 40
1
 40
1
 40
1
 10
112.514350
 20
856.795038
 30
0.0
 10
112.995660
 20
856.795038
 30
0.0
 10
113.429577
 20
857.084972
 30
0.0
 10
113.613767
 20
857.529645
 30
0.0
  0
SPLINE
  5
17f
100
AcDbEntity
  8
milled_holes
 62
1
100
AcDbSpline
 70
8
 71
3
 72
8
 73
4
 74
0
 40
0
 40
0
 40
0
 40
0
 40
1
 40
1
 40
1
 40
1
 10
113.613767
 20
857.529645
 30
0.0
 10
113.797956
 20
857.974317
 30
0.0
 10
113.696145
 20
858.486157
 30
0.0
 10
113.355807
 20
858.826495
 30
0.0
  0
SPLINE
  5
180
100
AcDbEntity
  8
milled_holes
 62
1
100
AcDbSpline
 70
8
 71
3
 72
8
 73
4
 74
0
 40
0
 40
0
 40
0
 40
0
 40
1
 40
1
 40
1
 40
1
 10
113.355807
 20
858.826495
 30
0.0
 10
113.015469
 20
859.166833
 30
0.0
 10
112.503629
 20
859.268644
 30
0.0
 10
112.058957
 20
859.084455
 30
0.0
  0
SPLINE
  5
181
100
AcDbEntity
  8
milled_holes
 62
1
100
AcDbSpline
 70
8
 71
3
 72
8
 73
4
 74
0
 40
0
 40
0
 40
0
 40
0
 40
1
 40
1
 40
1
 40
1
 10
112.058957
 20
859.084455
 30
0.0
 10
111.614284
 20
858.900265
 30
0.0
 10
111.324350
 20
858.466348
 30
0.0
 10
111.324350
 20
857.985038
 30
0.0
  0
SPLINE
  5
182
100
AcDbEntity
  8
milled_holes
 62
1
100
AcDbSpline
 70
8
 71
3
 72
8
 73
4
 74
0
 40
0
 40
0
 40
0
 40
0
 40
1
 40
1
 40
1
 40
1
 10
111.324350
 20
857.985038
 30
0.0
 10
111.324350
 20
857.669430
 30
0.0
 10
111.449725
 20
857.366749
 30
0.0
 10
111.672893
 20
857.143581
 30
0.0
  0
SPLINE
  5
183
100
AcDbEntity
  8
milled_holes
 62
1
100
AcDbSpline
 70
8
 71
3
 72
8
 73
4
 74
0
 40
0
 40
0
 40
0
 40
0
 40
1
 40
1
 40
1
 40
1
 10
111.672893
 20
857.143581
 30
0.0
 10
111.896061
 20
856.920413
 30
0.0
 10
112.198742
 20
856.795038
 30
0.0
 10
112.514350
 20
856.795038
 30
0.0
  0
LWPOLYLINE
  5
184
100
AcDbEntity
  8
milled_holes
 62
1
100
AcDbPolyline
 90
1
 70
1
 10
137.617900
 20
862.250132
 30
0.0
  0
SPLINE
  5
185
100
AcDbEntity
  8
milled_holes
 62
1
100
AcDbSpline
 70
8
 71
3
 72
8
 73
4
 74
0
 40
0
 40
0
 40
0
 40
0
 40
1
 40
1
 40
1
 40
1
 10
112.552040
 20
864.661722
 30
0.0
 10
113.033350
 20
864.661722
 30
0.0
 10
113.467267
 20
864.951656
 30
0.0
 10
113.651457
 20
865.396329
 30
0.0
  0
SPLINE
  5
186
100
AcDbEntity
  8
milled_holes
 62
1
100
AcDbSpline
 70
8
 71
3
 72
8
 73
4
 74
0
 40
0
 40
0
 40
0
 40
0
 40
1
 40
1
 40
1
 40
1
 10
113.651457
 20
865.396329
 30
0.0
 10
113.835646
 20
865.841001
 30
0.0
 10
113.733835
 20
866.352841
 30
0.0
 10
113.393497
 20
866.693179
 30
0.0
  0
SPLINE
  5
187
100
AcDbEntity
  8
milled_holes
 62
1
100
AcDbSpline
 70
8
 71
3
 72
8
 73
4
 74
0
 40
0
 40
0
 40
0
 40
0
 40
1
 40
1
 40
1
 40
1
 10
113.393497
 20
866.693179
 30
0.0
 10
113.053159
 20
867.033517
 30
0.0
 10
112.541319
 20
867.135328
 30
0.0
 10
112.096647
 20
866.951139
 30
0.0
  0
SPLINE
  5
188
100
AcDbEntity
  8
milled_holes
 62
1
100
AcDbSpline
 70
8
 71
3
 72
8
 73
4
 74
0
 40
0
 40
0
 40
0
 40
0
 40
1
 40
1
 40
1
 40
1
 10
112.096647
 20
866.951139
 30
0.0
 10
111.651974
 20
866.766949
 30
0.0
 10
111.362040
 20
866.333032
 30
0.0
 10
111.362040
 20
865.851722
 30
0.0
  0
SPLINE
  5
189
100
AcDbEntity
  8
milled_holes
 62
1
100
AcDbSpline
 70
8
 71
3
 72
8
 73
4
 74
0
 40
0
 40
0
 40
0
 40
0
 40
1
 40
1
 40
1
 40
1
 10
111.362040
 20
865.851722
 30
0.0
 10
111.362040
 20
865.536114
 30
0.0
 10
111.487415
 20
865.233433
 30
0.0
 10
111.710583
 20
865.010265
 30
0.0
  0
SPLINE
  5
18a
100
AcDbEntity
  8
milled_holes
 62
1
100
AcDbSpline
 70
8
 71
3
 72
8
 73
4
 74
0
 40
0
 40
0
 40
0
 40
0
 40
1
 40
1
 40
1
 40
1
 10
111.710583
 20
865.010265
 30
0.0
 10
111.933751
 20
864.787097
 30
0.0
 10
112.236432
 20
864.661722
 30
0.0
 10
112.552040
 20
864.661722
 30
0.0
  0
LWPOLYLINE
  5
18b
100
AcDbEntity
  8
milled_holes
 62
1
100
AcDbPolyline
 90
1
 70
1
 10
112.514350
 20
856.795038
 30
0.0
  0
SPLINE
  5
18c
100
AcDbEntity
  8
milled_holes
 62
1
100
AcDbSpline
 70
8
 71
3
 72
8
 73
4
 74
0
 40
0
 40
0
 40
0
 40
0
 40
1
 40
1
 40
1
 40
1
 10
92.028503
 20
856.809244
 30
0.0
 10
92.509813
 20
856.809244
 30
0.0
 10
92.943730
 20
857.099178
 30
0.0
 10
93.127920
 20
857.543851
 30
0.0
  0
SPLINE
  5
18d
100
AcDbEntity
  8
milled_holes
 62
1
100
AcDbSpline
 70
8
 71
3
 72
8
 73
4
 74
0
 40
0
 40
0
 40
0
 40
0
 40
1
 40
1
 40
1
 40
1
 10
93.127920
 20
857.543851
 30
0.0
 10
93.312109
 20
857.988523
 30
0.0
 10
93.210298
 20
858.500363
 30
0.0
 10
92.869960
 20
858.840701
 30
0.0
  0
SPLINE
  5
18e
100
AcDbEntity
  8
milled_holes
 62
1
100
AcDbSpline
 70
8
 71
3
 72
8
 73
4
 74
0
 40
0
 40
0
 40
0
 40
0
 40
1
 40
1
 40
1
 40
1
 10
92.869960
 20
858.840701
 30
0.0
 10
92.529622
 20
859.181039
 30
0.0
 10
92.017782
 20
859.282850
 30
0.0
 10
91.573110
 20
859.098661
 30
0.0
  0
SPLINE
  5
18f
100
AcDbEntity
  8
milled_holes
 62
1
100
AcDbSpline
 70
8
 71
3
 72
8
 73
4
 74
0
 40
0
 40
0
 40
0
 40
0
 40
1
 40
1
 40
1
 40
1
 10
91.573110
 20
859.098661
 30
0.0
 10
91.128437
 20
858.914471
 30
0.0
 10
90.838503
 20
858.480554
 30
0.0
 10
90.838503
 20
857.999244
 30
0.0
  0
SPLINE
  5
190
100
AcDbEntity
  8
milled_holes
 62
1
100
AcDbSpline
 70
8
 71
3
 72
8
 73
4
 74
0
 40
0
 40
0
 40
0
 40
0
 40
1
 40
1
 40
1
 40
1
 10
90.838503
 20
857.999244
 30
0.0
 10
90.838503
 20
857.683636
 30
0.0
 10
90.963878
 20
857.380955
 30
0.0
 10
91.187046
 20
857.157787
 30
0.0
  0
SPLINE
  5
191
100
AcDbEntity
  8
milled_holes
 62
1
100
AcDbSpline
 70
8
 71
3
 72
8
 73
4
 74
0
 40
0
 40
0
 40
0
 40
0
 40
1
 40
1
 40
1
 40
1
 10
91.187046
 20
857.157787
 30
0.0
 10
91.410214
 20
856.934619
 30
0.0
 10
91.712895
 20
856.809244
 30
0.0
 10
92.028503
 20
856.809244
 30
0.0
  0
LWPOLYLINE
  5
192
100
AcDbEntity
  8
milled_holes
 62
1
100
AcDbPolyline
 90
1
 70
1
 10
112.552040
 20
864.661722
 30
0.0
  0
SPLINE
  5
193
100
AcDbEntity
  8
milled_holes
 62
1
100
AcDbSpline
 70
8
 71
3
 72
8
 73
4
 74
0
 40
0
 40
0
 40
0
 40
0
 40
1
 40
1
 40
1
 40
1
 10
92.118622
 20
864.962656
 30
0.0
 10
92.775841
 20
864.962656
 30
0.0
 10
93.308622
 20
865.495437
 30
0.0
 10
93.308622
 20
866.152656
 30
0.0
  0
SPLINE
  5
194
100
AcDbEntity
  8
milled_holes
 62
1
100
AcDbSpline
 70
8
 71
3
 72
8
 73
4
 74
0
 40
0
 40
0
 40
0
 40
0
 40
1
 40
1
 40
1
 40
1
 10
93.308622
 20
866.152656
 30
0.0
 10
93.308622
 20
866.809875
 30
0.0
 10
92.775841
 20
867.342656
 30
0.0
 10
92.118622
 20
867.342656
 30
0.0
  0
SPLINE
  5
195
100
AcDbEntity
  8
milled_holes
 62
1
100
AcDbSpline
 70
8
 71
3
 72
8
 73
4
 74
0
 40
0
 40
0
 40
0
 40
0
 40
1
 40
1
 40
1
 40
1
 10
92.118622
 20
867.342656
 30
0.0
 10
91.461403
 20
867.342656
 30
0.0
 10
90.928622
 20
866.809875
 30
0.0
 10
90.928622
 20
866.152656
 30
0.0
  0
SPLINE
  5
196
100
AcDbEntity
  8
milled_holes
 62
1
100
AcDbSpline
 70
8
 71
3
 72
8
 73
4
 74
0
 40
0
 40
0
 40
0
 40
0
 40
1
 40
1
 40
1
 40
1
 10
90.928622
 20
866.152656
 30
0.0
 10
90.928622
 20
865.837048
 30
0.0
 10
91.053997
 20
865.534367
 30
0.0
 10
91.277165
 20
865.311199
 30
0.0
  0
SPLINE
  5
197
100
AcDbEntity
  8
milled_holes
 62
1
100
AcDbSpline
 70
8
 71
3
 72
8
 73
4
 74
0
 40
0
 40
0
 40
0
 40
0
 40
1
 40
1
 40
1
 40
1
 10
91.277165
 20
865.311199
 30
0.0
 10
91.500333
 20
865.088031
 30
0.0
 10
91.803014
 20
864.962656
 30
0.0
 10
92.118622
 20
864.962656
 30
0.0
  0
LWPOLYLINE
  5
198
100
AcDbEntity
  8
milled_holes
 62
1
100
AcDbPolyline
 90
1
 70
1
 10
92.028503
 20
856.809244
 30
0.0
  0
SPLINE
  5
199
100
AcDbEntity
  8
milled_holes
 62
1
100
AcDbSpline
 70
8
 71
3
 72
8
 73
4
 74
0
 40
0
 40
0
 40
0
 40
0
 40
1
 40
1
 40
1
 40
1
 10
71.160400
 20
856.809244
 30
0.0
 10
71.817619
 20
856.809244
 30
0.0
 10
72.350400
 20
857.342025
 30
0.0
 10
72.350400
 20
857.999244
 30
0.0
  0
SPLINE
  5
19a
100
AcDbEntity
  8
milled_holes
 62
1
100
AcDbSpline
 70
8
 71
3
 72
8
 73
4
 74
0
 40
0
 40
0
 40
0
 40
0
 40
1
 40
1
 40
1
 40
1
 10
72.350400
 20
857.999244
 30
0.0
 10
72.350400
 20
858.656463
 30
0.0
 10
71.817619
 20
859.189244
 30
0.0
 10
71.160400
 20
859.189244
 30
0.0
  0
SPLINE
  5
19b
100
AcDbEntity
  8
milled_holes
 62
1
100
AcDbSpline
 70
8
 71
3
 72
8
 73
4
 74
0
 40
0
 40
0
 40
0
 40
0
 40
1
 40
1
 40
1
 40
1
 10
71.160400
 20
859.189244
 30
0.0
 10
70.503181
 20
859.189244
 30
0.0
 10
69.970400
 20
858.656463
 30
0.0
 10
69.970400
 20
857.999244
 30
0.0
  0
SPLINE
  5
19c
100
AcDbEntity
  8
milled_holes
 62
1
100
AcDbSpline
 70
8
 71
3
 72
8
 73
4
 74
0
 40
0
 40
0
 40
0
 40
0
 40
1
 40
1
 40
1
 40
1
 10
69.970400
 20
857.999244
 30
0.0
 10
69.970400
 20
857.683636
 30
0.0
 10
70.095775
 20
857.380955
 30
0.0
 10
70.318943
 20
857.157787
 30
0.0
  0
SPLINE
  5
19d
100
AcDbEntity
  8
milled_holes
 62
1
100
AcDbSpline
 70
8
 71
3
 72
8
 73
4
 74
0
 40
0
 40
0
 40
0
 40
0
 40
1
 40
1
 40
1
 40
1
 10
70.318943
 20
857.157787
 30
0.0
 10
70.542111
 20
856.934619
 30
0.0
 10
70.844792
 20
856.809244
 30
0.0
 10
71.160400
 20
856.809244
 30
0.0
  0
LWPOLYLINE
  5
19e
100
AcDbEntity
  8
milled_holes
 62
1
100
AcDbPolyline
 90
1
 70
1
 10
92.118622
 20
864.962656
 30
0.0
  0
SPLINE
  5
19f
100
AcDbEntity
  8
milled_holes
 62
1
100
AcDbSpline
 70
8
 71
3
 72
8
 73
4
 74
0
 40
0
 40
0
 40
0
 40
0
 40
1
 40
1
 40
1
 40
1
 10
71.159271
 20
864.668543
 30
0.0
 10
71.640581
 20
864.668543
 30
0.0
 10
72.074498
 20
864.958477
 30
0.0
 10
72.258688
 20
865.403150
 30
0.0
  0
SPLINE
  5
1a0
100
AcDbEntity
  8
milled_holes
 62
1
100
AcDbSpline
 70
8
 71
3
 72
8
 73
4
 74
0
 40
0
 40
0
 40
0
 40
0
 40
1
 40
1
 40
1
 40
1
 10
72.258688
 20
865.403150
 30
0.0
 10
72.442877
 20
865.847822
 30
0.0
 10
72.341066
 20
866.359662
 30
0.0
 10
72.000728
 20
866.700000
 30
0.0
  0
SPLINE
  5
1a1
100
AcDbEntity
  8
milled_holes
 62
1
100
AcDbSpline
 70
8
 71
3
 72
8
 73
4
 74
0
 40
0
 40
0
 40
0
 40
0
 40
1
 40
1
 40
1
 40
1
 10
72.000728
 20
866.700000
 30
0.0
 10
71.660390
 20
867.040338
 30
0.0
 10
71.148550
 20
867.142149
 30
0.0
 10
70.703878
 20
866.957960
 30
0.0
  0
SPLINE
  5
1a2
100
AcDbEntity
  8
milled_holes
 62
1
100
AcDbSpline
 70
8
 71
3
 72
8
 73
4
 74
0
 40
0
 40
0
 40
0
 40
0
 40
1
 40
1
 40
1
 40
1
 10
70.703878
 20
866.957960
 30
0.0
 10
70.259205
 20
866.773770
 30
0.0
 10
69.969271
 20
866.339853
 30
0.0
 10
69.969271
 20
865.858543
 30
0.0
  0
SPLINE
  5
1a3
100
AcDbEntity
  8
milled_holes
 62
1
100
AcDbSpline
 70
8
 71
3
 72
8
 73
4
 74
0
 40
0
 40
0
 40
0
 40
0
 40
1
 40
1
 40
1
 40
1
 10
69.969271
 20
865.858543
 30
0.0
 10
69.969271
 20
865.542935
 30
0.0
 10
70.094646
 20
865.240254
 30
0.0
 10
70.317814
 20
865.017086
 30
0.0
  0
SPLINE
  5
1a4
100
AcDbEntity
  8
milled_holes
 62
1
100
AcDbSpline
 70
8
 71
3
 72
8
 73
4
 74
0
 40
0
 40
0
 40
0
 40
0
 40
1
 40
1
 40
1
 40
1
 10
70.317814
 20
865.017086
 30
0.0
 10
70.540982
 20
864.793918
 30
0.0
 10
70.843663
 20
864.668543
 30
0.0
 10
71.159271
 20
864.668543
 30
0.0
  0
LWPOLYLINE
  5
1a5
100
AcDbEntity
  8
milled_holes
 62
1
100
AcDbPolyline
 90
1
 70
1
 10
71.160400
 20
856.809244
 30
0.0
  0
SPLINE
  5
1a6
100
AcDbEntity
  8
milled_holes
 62
1
100
AcDbSpline
 70
8
 71
3
 72
8
 73
4
 74
0
 40
0
 40
0
 40
0
 40
0
 40
1
 40
1
 40
1
 40
1
 10
30.766993
 20
887.804012
 30
0.0
 10
31.248303
 20
887.804012
 30
0.0
 10
31.682220
 20
888.093946
 30
0.0
 10
31.866410
 20
888.538619
 30
0.0
  0
SPLINE
  5
1a7
100
AcDbEntity
  8
milled_holes
 62
1
100
AcDbSpline
 70
8
 71
3
 72
8
 73
4
 74
0
 40
0
 40
0
 40
0
 40
0
 40
1
 40
1
 40
1
 40
1
 10
31.866410
 20
888.538619
 30
0.0
 10
32.050599
 20
888.983291
 30
0.0
 10
31.948788
 20
889.495131
 30
0.0
 10
31.608450
 20
889.835469
 30
0.0
  0
SPLINE
  5
1a8
100
AcDbEntity
  8
milled_holes
 62
1
100
AcDbSpline
 70
8
 71
3
 72
8
 73
4
 74
0
 40
0
 40
0
 40
0
 40
0
 40
1
 40
1
 40
1
 40
1
 10
31.608450
 20
889.835469
 30
0.0
 10
31.268112
 20
890.175807
 30
0.0
 10
30.756272
 20
890.277618
 30
0.0
 10
30.311600
 20
890.093429
 30
0.0
  0
SPLINE
  5
1a9
100
AcDbEntity
  8
milled_holes
 62
1
100
AcDbSpline
 70
8
 71
3
 72
8
 73
4
 74
0
 40
0
 40
0
 40
0
 40
0
 40
1
 40
1
 40
1
 40
1
 10
30.311600
 20
890.093429
 30
0.0
 10
29.866927
 20
889.909239
 30
0.0
 10
29.576993
 20
889.475322
 30
0.0
 10
29.576993
 20
888.994012
 30
0.0
  0
SPLINE
  5
1aa
100
AcDbEntity
  8
milled_holes
 62
1
100
AcDbSpline
 70
8
 71
3
 72
8
 73
4
 74
0
 40
0
 40
0
 40
0
 40
0
 40
1
 40
1
 40
1
 40
1
 10
29.576993
 20
888.994012
 30
0.0
 10
29.576993
 20
888.678404
 30
0.0
 10
29.702368
 20
888.375723
 30
0.0
 10
29.925536
 20
888.152555
 30
0.0
  0
SPLINE
  5
1ab
100
AcDbEntity
  8
milled_holes
 62
1
100
AcDbSpline
 70
8
 71
3
 72
8
 73
4
 74
0
 40
0
 40
0
 40
0
 40
0
 40
1
 40
1
 40
1
 40
1
 10
29.925536
 20
888.152555
 30
0.0
 10
30.148704
 20
887.929387
 30
0.0
 10
30.451385
 20
887.804012
 30
0.0
 10
30.766993
 20
887.804012
 30
0.0
  0
LWPOLYLINE
  5
1ac
100
AcDbEntity
  8
milled_holes
 62
1
100
AcDbPolyline
 90
1
 70
1
 10
71.159271
 20
864.668543
 30
0.0
  0
SPLINE
  5
1ad
100
AcDbEntity
  8
milled_holes
 62
1
100
AcDbSpline
 70
8
 71
3
 72
8
 73
4
 74
0
 40
0
 40
0
 40
0
 40
0
 40
1
 40
1
 40
1
 40
1
 10
45.131199
 20
887.804012
 30
0.0
 10
45.612509
 20
887.804012
 30
0.0
 10
46.046426
 20
888.093946
 30
0.0
 10
46.230616
 20
888.538619
 30
0.0
  0
SPLINE
  5
1ae
100
AcDbEntity
  8
milled_holes
 62
1
100
AcDbSpline
 70
8
 71
3
 72
8
 73
4
 74
0
 40
0
 40
0
 40
0
 40
0
 40
1
 40
1
 40
1
 40
1
 10
46.230616
 20
888.538619
 30
0.0
 10
46.414805
 20
888.983291
 30
0.0
 10
46.312994
 20
889.495131
 30
0.0
 10
45.972656
 20
889.835469
 30
0.0
  0
SPLINE
  5
1af
100
AcDbEntity
  8
milled_holes
 62
1
100
AcDbSpline
 70
8
 71
3
 72
8
 73
4
 74
0
 40
0
 40
0
 40
0
 40
0
 40
1
 40
1
 40
1
 40
1
 10
45.972656
 20
889.835469
 30
0.0
 10
45.632318
 20
890.175807
 30
0.0
 10
45.120478
 20
890.277618
 30
0.0
 10
44.675806
 20
890.093429
 30
0.0
  0
SPLINE
  5
1b0
100
AcDbEntity
  8
milled_holes
 62
1
100
AcDbSpline
 70
8
 71
3
 72
8
 73
4
 74
0
 40
0
 40
0
 40
0
 40
0
 40
1
 40
1
 40
1
 40
1
 10
44.675806
 20
890.093429
 30
0.0
 10
44.231133
 20
889.909239
 30
0.0
 10
43.941199
 20
889.475322
 30
0.0
 10
43.941199
 20
888.994012
 30
0.0
  0
SPLINE
  5
1b1
100
AcDbEntity
  8
milled_holes
 62
1
100
AcDbSpline
 70
8
 71
3
 72
8
 73
4
 74
0
 40
0
 40
0
 40
0
 40
0
 40
1
 40
1
 40
1
 40
1
 10
43.941199
 20
888.994012
 30
0.0
 10
43.941199
 20
888.678404
 30
0.0
 10
44.066574
 20
888.375723
 30
0.0
 10
44.289742
 20
888.152555
 30
0.0
  0
SPLINE
  5
1b2
100
AcDbEntity
  8
milled_holes
 62
1
100
AcDbSpline
 70
8
 71
3
 72
8
 73
4
 74
0
 40
0
 40
0
 40
0
 40
0
 40
1
 40
1
 40
1
 40
1
 10
44.289742
 20
888.152555
 30
0.0
 10
44.512910
 20
887.929387
 30
0.0
 10
44.815591
 20
887.804012
 30
0.0
 10
45.131199
 20
887.804012
 30
0.0
  0
LWPOLYLINE
  5
1b3
100
AcDbEntity
  8
milled_holes
 62
1
100
AcDbPolyline
 90
1
 70
1
 10
30.766993
 20
887.804012
 30
0.0
  0
SPLINE
  5
1b4
100
AcDbEntity
  8
milled_holes
 62
1
100
AcDbSpline
 70
8
 71
3
 72
8
 73
4
 74
0
 40
0
 40
0
 40
0
 40
0
 40
1
 40
1
 40
1
 40
1
 10
59.769257
 20
887.804012
 30
0.0
 10
60.250567
 20
887.804012
 30
0.0
 10
60.684484
 20
888.093946
 30
0.0
 10
60.868674
 20
888.538619
 30
0.0
  0
SPLINE
  5
1b5
100
AcDbEntity
  8
milled_holes
 62
1
100
AcDbSpline
 70
8
 71
3
 72
8
 73
4
 74
0
 40
0
 40
0
 40
0
 40
0
 40
1
 40
1
 40
1
 40
1
 10
60.868674
 20
888.538619
 30
0.0
 10
61.052863
 20
888.983291
 30
0.0
 10
60.951052
 20
889.495131
 30
0.0
 10
60.610714
 20
889.835469
 30
0.0
  0
SPLINE
  5
1b6
100
AcDbEntity
  8
milled_holes
 62
1
100
AcDbSpline
 70
8
 71
3
 72
8
 73
4
 74
0
 40
0
 40
0
 40
0
 40
0
 40
1
 40
1
 40
1
 40
1
 10
60.610714
 20
889.835469
 30
0.0
 10
60.270376
 20
890.175807
 30
0.0
 10
59.758536
 20
890.277618
 30
0.0
 10
59.313864
 20
890.093429
 30
0.0
  0
SPLINE
  5
1b7
100
AcDbEntity
  8
milled_holes
 62
1
100
AcDbSpline
 70
8
 71
3
 72
8
 73
4
 74
0
 40
0
 40
0
 40
0
 40
0
 40
1
 40
1
 40
1
 40
1
 10
59.313864
 20
890.093429
 30
0.0
 10
58.869191
 20
889.909239
 30
0.0
 10
58.579257
 20
889.475322
 30
0.0
 10
58.579257
 20
888.994012
 30
0.0
  0
SPLINE
  5
1b8
100
AcDbEntity
  8
milled_holes
 62
1
100
AcDbSpline
 70
8
 71
3
 72
8
 73
4
 74
0
 40
0
 40
0
 40
0
 40
0
 40
1
 40
1
 40
1
 40
1
 10
58.579257
 20
888.994012
 30
0.0
 10
58.579257
 20
888.678404
 30
0.0
 10
58.704632
 20
888.375723
 30
0.0
 10
58.927800
 20
888.152555
 30
0.0
  0
SPLINE
  5
1b9
100
AcDbEntity
  8
milled_holes
 62
1
100
AcDbSpline
 70
8
 71
3
 72
8
 73
4
 74
0
 40
0
 40
0
 40
0
 40
0
 40
1
 40
1
 40
1
 40
1
 10
58.927800
 20
888.152555
 30
0.0
 10
59.150968
 20
887.929387
 30
0.0
 10
59.453649
 20
887.804012
 30
0.0
 10
59.769257
 20
887.804012
 30
0.0
  0
LWPOLYLINE
  5
1ba
100
AcDbEntity
  8
milled_holes
 62
1
100
AcDbPolyline
 90
1
 70
1
 10
45.131199
 20
887.804012
 30
0.0
  0
SPLINE
  5
1bb
100
AcDbEntity
  8
milled_holes
 62
1
100
AcDbSpline
 70
8
 71
3
 72
8
 73
4
 74
0
 40
0
 40
0
 40
0
 40
0
 40
1
 40
1
 40
1
 40
1
 10
81.776459
 20
887.804012
 30
0.0
 10
82.433678
 20
887.804012
 30
0.0
 10
82.966459
 20
888.336793
 30
0.0
 10
82.966459
 20
888.994012
 30
0.0
  0
SPLINE
  5
1bc
100
AcDbEntity
  8
milled_holes
 62
1
100
AcDbSpline
 70
8
 71
3
 72
8
 73
4
 74
0
 40
0
 40
0
 40
0
 40
0
 40
1
 40
1
 40
1
 40
1
 10
82.966459
 20
888.994012
 30
0.0
 10
82.966459
 20
889.651231
 30
0.0
 10
82.433678
 20
890.184012
 30
0.0
 10
81.776459
 20
890.184012
 30
0.0
  0
SPLINE
  5
1bd
100
AcDbEntity
  8
milled_holes
 62
1
100
AcDbSpline
 70
8
 71
3
 72
8
 73
4
 74
0
 40
0
 40
0
 40
0
 40
0
 40
1
 40
1
 40
1
 40
1
 10
81.776459
 20
890.184012
 30
0.0
 10
81.119240
 20
890.184012
 30
0.0
 10
80.586459
 20
889.651231
 30
0.0
 10
80.586459
 20
888.994012
 30
0.0
  0
SPLINE
  5
1be
100
AcDbEntity
  8
milled_holes
 62
1
100
AcDbSpline
 70
8
 71
3
 72
8
 73
4
 74
0
 40
0
 40
0
 40
0
 40
0
 40
1
 40
1
 40
1
 40
1
 10
80.586459
 20
888.994012
 30
0.0
 10
80.586459
 20
888.678404
 30
0.0
 10
80.711834
 20
888.375723
 30
0.0
 10
80.935002
 20
888.152555
 30
0.0
  0
SPLINE
  5
1bf
100
AcDbEntity
  8
milled_holes
 62
1
100
AcDbSpline
 70
8
 71
3
 72
8
 73
4
 74
0
 40
0
 40
0
 40
0
 40
0
 40
1
 40
1
 40
1
 40
1
 10
80.935002
 20
888.152555
 30
0.0
 10
81.158170
 20
887.929387
 30
0.0
 10
81.460851
 20
887.804012
 30
0.0
 10
81.776459
 20
887.804012
 30
0.0
  0
LWPOLYLINE
  5
1c0
100
AcDbEntity
  8
milled_holes
 62
1
100
AcDbPolyline
 90
1
 70
1
 10
59.769257
 20
887.804012
 30
0.0
  0
SPLINE
  5
1c1
100
AcDbEntity
  8
milled_holes
 62
1
100
AcDbSpline
 70
8
 71
3
 72
8
 73
4
 74
0
 40
0
 40
0
 40
0
 40
0
 40
1
 40
1
 40
1
 40
1
 10
102.384400
 20
887.804012
 30
0.0
 10
102.865710
 20
887.804012
 30
0.0
 10
103.299627
 20
888.093946
 30
0.0
 10
103.483817
 20
888.538619
 30
0.0
  0
SPLINE
  5
1c2
100
AcDbEntity
  8
milled_holes
 62
1
100
AcDbSpline
 70
8
 71
3
 72
8
 73
4
 74
0
 40
0
 40
0
 40
0
 40
0
 40
1
 40
1
 40
1
 40
1
 10
103.483817
 20
888.538619
 30
0.0
 10
103.668006
 20
888.983291
 30
0.0
 10
103.566195
 20
889.495131
 30
0.0
 10
103.225857
 20
889.835469
 30
0.0
  0
SPLINE
  5
1c3
100
AcDbEntity
  8
milled_holes
 62
1
100
AcDbSpline
 70
8
 71
3
 72
8
 73
4
 74
0
 40
0
 40
0
 40
0
 40
0
 40
1
 40
1
 40
1
 40
1
 10
103.225857
 20
889.835469
 30
0.0
 10
102.885519
 20
890.175807
 30
0.0
 10
102.373679
 20
890.277618
 30
0.0
 10
101.929007
 20
890.093429
 30
0.0
  0
SPLINE
  5
1c4
100
AcDbEntity
  8
milled_holes
 62
1
100
AcDbSpline
 70
8
 71
3
 72
8
 73
4
 74
0
 40
0
 40
0
 40
0
 40
0
 40
1
 40
1
 40
1
 40
1
 10
101.929007
 20
890.093429
 30
0.0
 10
101.484334
 20
889.909239
 30
0.0
 10
101.194400
 20
889.475322
 30
0.0
 10
101.194400
 20
888.994012
 30
0.0
  0
SPLINE
  5
1c5
100
AcDbEntity
  8
milled_holes
 62
1
100
AcDbSpline
 70
8
 71
3
 72
8
 73
4
 74
0
 40
0
 40
0
 40
0
 40
0
 40
1
 40
1
 40
1
 40
1
 10
101.194400
 20
888.994012
 30
0.0
 10
101.194400
 20
888.678404
 30
0.0
 10
101.319775
 20
888.375723
 30
0.0
 10
101.542943
 20
888.152555
 30
0.0
  0
SPLINE
  5
1c6
100
AcDbEntity
  8
milled_holes
 62
1
100
AcDbSpline
 70
8
 71
3
 72
8
 73
4
 74
0
 40
0
 40
0
 40
0
 40
0
 40
1
 40
1
 40
1
 40
1
 10
101.542943
 20
888.152555
 30
0.0
 10
101.766111
 20
887.929387
 30
0.0
 10
102.068792
 20
887.804012
 30
0.0
 10
102.384400
 20
887.804012
 30
0.0
  0
LWPOLYLINE
  5
1c7
100
AcDbEntity
  8
milled_holes
 62
1
100
AcDbPolyline
 90
1
 70
1
 10
81.776459
 20
887.804012
 30
0.0
  0
SPLINE
  5
1c8
100
AcDbEntity
  8
milled_holes
 62
1
100
AcDbSpline
 70
8
 71
3
 72
8
 73
4
 74
0
 40
0
 40
0
 40
0
 40
0
 40
1
 40
1
 40
1
 40
1
 10
121.535580
 20
887.804012
 30
0.0
 10
122.016890
 20
887.804012
 30
0.0
 10
122.450807
 20
888.093946
 30
0.0
 10
122.634997
 20
888.538619
 30
0.0
  0
SPLINE
  5
1c9
100
AcDbEntity
  8
milled_holes
 62
1
100
AcDbSpline
 70
8
 71
3
 72
8
 73
4
 74
0
 40
0
 40
0
 40
0
 40
0
 40
1
 40
1
 40
1
 40
1
 10
122.634997
 20
888.538619
 30
0.0
 10
122.819186
 20
888.983291
 30
0.0
 10
122.717375
 20
889.495131
 30
0.0
 10
122.377037
 20
889.835469
 30
0.0
  0
SPLINE
  5
1ca
100
AcDbEntity
  8
milled_holes
 62
1
100
AcDbSpline
 70
8
 71
3
 72
8
 73
4
 74
0
 40
0
 40
0
 40
0
 40
0
 40
1
 40
1
 40
1
 40
1
 10
122.377037
 20
889.835469
 30
0.0
 10
122.036699
 20
890.175807
 30
0.0
 10
121.524859
 20
890.277618
 30
0.0
 10
121.080187
 20
890.093429
 30
0.0
  0
SPLINE
  5
1cb
100
AcDbEntity
  8
milled_holes
 62
1
100
AcDbSpline
 70
8
 71
3
 72
8
 73
4
 74
0
 40
0
 40
0
 40
0
 40
0
 40
1
 40
1
 40
1
 40
1
 10
121.080187
 20
890.093429
 30
0.0
 10
120.635514
 20
889.909239
 30
0.0
 10
120.345580
 20
889.475322
 30
0.0
 10
120.345580
 20
888.994012
 30
0.0
  0
SPLINE
  5
1cc
100
AcDbEntity
  8
milled_holes
 62
1
100
AcDbSpline
 70
8
 71
3
 72
8
 73
4
 74
0
 40
0
 40
0
 40
0
 40
0
 40
1
 40
1
 40
1
 40
1
 10
120.345580
 20
888.994012
 30
0.0
 10
120.345580
 20
888.678404
 30
0.0
 10
120.470955
 20
888.375723
 30
0.0
 10
120.694123
 20
888.152555
 30
0.0
  0
SPLINE
  5
1cd
100
AcDbEntity
  8
milled_holes
 62
1
100
AcDbSpline
 70
8
 71
3
 72
8
 73
4
 74
0
 40
0
 40
0
 40
0
 40
0
 40
1
 40
1
 40
1
 40
1
 10
120.694123
 20
888.152555
 30
0.0
 10
120.917291
 20
887.929387
 30
0.0
 10
121.219972
 20
887.804012
 30
0.0
 10
121.535580
 20
887.804012
 30
0.0
  0
LWPOLYLINE
  5
1ce
100
AcDbEntity
  8
milled_holes
 62
1
100
AcDbPolyline
 90
1
 70
1
 10
102.384400
 20
887.804012
 30
0.0
  0
SPLINE
  5
1cf
100
AcDbEntity
  8
milled_holes
 62
1
100
AcDbSpline
 70
8
 71
3
 72
8
 73
4
 74
0
 40
0
 40
0
 40
0
 40
0
 40
1
 40
1
 40
1
 40
1
 10
137.885960
 20
887.804012
 30
0.0
 10
138.367270
 20
887.804012
 30
0.0
 10
138.801187
 20
888.093946
 30
0.0
 10
138.985377
 20
888.538619
 30
0.0
  0
SPLINE
  5
1d0
100
AcDbEntity
  8
milled_holes
 62
1
100
AcDbSpline
 70
8
 71
3
 72
8
 73
4
 74
0
 40
0
 40
0
 40
0
 40
0
 40
1
 40
1
 40
1
 40
1
 10
138.985377
 20
888.538619
 30
0.0
 10
139.169566
 20
888.983291
 30
0.0
 10
139.067755
 20
889.495131
 30
0.0
 10
138.727417
 20
889.835469
 30
0.0
  0
SPLINE
  5
1d1
100
AcDbEntity
  8
milled_holes
 62
1
100
AcDbSpline
 70
8
 71
3
 72
8
 73
4
 74
0
 40
0
 40
0
 40
0
 40
0
 40
1
 40
1
 40
1
 40
1
 10
138.727417
 20
889.835469
 30
0.0
 10
138.387079
 20
890.175807
 30
0.0
 10
137.875239
 20
890.277618
 30
0.0
 10
137.430567
 20
890.093429
 30
0.0
  0
SPLINE
  5
1d2
100
AcDbEntity
  8
milled_holes
 62
1
100
AcDbSpline
 70
8
 71
3
 72
8
 73
4
 74
0
 40
0
 40
0
 40
0
 40
0
 40
1
 40
1
 40
1
 40
1
 10
137.430567
 20
890.093429
 30
0.0
 10
136.985894
 20
889.909239
 30
0.0
 10
136.695960
 20
889.475322
 30
0.0
 10
136.695960
 20
888.994012
 30
0.0
  0
SPLINE
  5
1d3
100
AcDbEntity
  8
milled_holes
 62
1
100
AcDbSpline
 70
8
 71
3
 72
8
 73
4
 74
0
 40
0
 40
0
 40
0
 40
0
 40
1
 40
1
 40
1
 40
1
 10
136.695960
 20
888.994012
 30
0.0
 10
136.695960
 20
888.336793
 30
0.0
 10
137.228741
 20
887.804012
 30
0.0
 10
137.885960
 20
887.804012
 30
0.0
  0
LWPOLYLINE
  5
1d4
100
AcDbEntity
  8
milled_holes
 62
1
100
AcDbPolyline
 90
1
 70
1
 10
121.535580
 20
887.804012
 30
0.0
  0
SPLINE
  5
1d5
100
AcDbEntity
  8
milled_holes
 62
1
100
AcDbSpline
 70
8
 71
3
 72
8
 73
4
 74
0
 40
0
 40
0
 40
0
 40
0
 40
1
 40
1
 40
1
 40
1
 10
155.068590
 20
882.049587
 30
0.0
 10
155.549900
 20
882.049587
 30
0.0
 10
155.983817
 20
882.339521
 30
0.0
 10
156.168007
 20
882.784194
 30
0.0
  0
SPLINE
  5
1d6
100
AcDbEntity
  8
milled_holes
 62
1
100
AcDbSpline
 70
8
 71
3
 72
8
 73
4
 74
0
 40
0
 40
0
 40
0
 40
0
 40
1
 40
1
 40
1
 40
1
 10
156.168007
 20
882.784194
 30
0.0
 10
156.352196
 20
883.228866
 30
0.0
 10
156.250385
 20
883.740706
 30
0.0
 10
155.910047
 20
884.081044
 30
0.0
  0
SPLINE
  5
1d7
100
AcDbEntity
  8
milled_holes
 62
1
100
AcDbSpline
 70
8
 71
3
 72
8
 73
4
 74
0
 40
0
 40
0
 40
0
 40
0
 40
1
 40
1
 40
1
 40
1
 10
155.910047
 20
884.081044
 30
0.0
 10
155.569709
 20
884.421382
 30
0.0
 10
155.057869
 20
884.523193
 30
0.0
 10
154.613197
 20
884.339004
 30
0.0
  0
SPLINE
  5
1d8
100
AcDbEntity
  8
milled_holes
 62
1
100
AcDbSpline
 70
8
 71
3
 72
8
 73
4
 74
0
 40
0
 40
0
 40
0
 40
0
 40
1
 40
1
 40
1
 40
1
 10
154.613197
 20
884.339004
 30
0.0
 10
154.168524
 20
884.154814
 30
0.0
 10
153.878590
 20
883.720897
 30
0.0
 10
153.878590
 20
883.239587
 30
0.0
  0
SPLINE
  5
1d9
100
AcDbEntity
  8
milled_holes
 62
1
100
AcDbSpline
 70
8
 71
3
 72
8
 73
4
 74
0
 40
0
 40
0
 40
0
 40
0
 40
1
 40
1
 40
1
 40
1
 10
153.878590
 20
883.239587
 30
0.0
 10
153.878590
 20
882.923979
 30
0.0
 10
154.003965
 20
882.621298
 30
0.0
 10
154.227133
 20
882.398130
 30
0.0
  0
SPLINE
  5
1da
100
AcDbEntity
  8
milled_holes
 62
1
100
AcDbSpline
 70
8
 71
3
 72
8
 73
4
 74
0
 40
0
 40
0
 40
0
 40
0
 40
1
 40
1
 40
1
 40
1
 10
154.227133
 20
882.398130
 30
0.0
 10
154.450301
 20
882.174962
 30
0.0
 10
154.752982
 20
882.049587
 30
0.0
 10
155.068590
 20
882.049587
 30
0.0
  0
LWPOLYLINE
  5
1db
100
AcDbEntity
  8
milled_holes
 62
1
100
AcDbPolyline
 90
1
 70
1
 10
137.885960
 20
887.804012
 30
0.0
  0
SPLINE
  5
1dc
100
AcDbEntity
  8
milled_holes
 62
1
100
AcDbSpline
 70
8
 71
3
 72
8
 73
4
 74
0
 40
0
 40
0
 40
0
 40
0
 40
1
 40
1
 40
1
 40
1
 10
167.741740
 20
882.049587
 30
0.0
 10
168.223050
 20
882.049587
 30
0.0
 10
168.656967
 20
882.339521
 30
0.0
 10
168.841157
 20
882.784194
 30
0.0
  0
SPLINE
  5
1dd
100
AcDbEntity
  8
milled_holes
 62
1
100
AcDbSpline
 70
8
 71
3
 72
8
 73
4
 74
0
 40
0
 40
0
 40
0
 40
0
 40
1
 40
1
 40
1
 40
1
 10
168.841157
 20
882.784194
 30
0.0
 10
169.025346
 20
883.228866
 30
0.0
 10
168.923535
 20
883.740706
 30
0.0
 10
168.583197
 20
884.081044
 30
0.0
  0
SPLINE
  5
1de
100
AcDbEntity
  8
milled_holes
 62
1
100
AcDbSpline
 70
8
 71
3
 72
8
 73
4
 74
0
 40
0
 40
0
 40
0
 40
0
 40
1
 40
1
 40
1
 40
1
 10
168.583197
 20
884.081044
 30
0.0
 10
168.242859
 20
884.421382
 30
0.0
 10
167.731019
 20
884.523193
 30
0.0
 10
167.286347
 20
884.339004
 30
0.0
  0
SPLINE
  5
1df
100
AcDbEntity
  8
milled_holes
 62
1
100
AcDbSpline
 70
8
 71
3
 72
8
 73
4
 74
0
 40
0
 40
0
 40
0
 40
0
 40
1
 40
1
 40
1
 40
1
 10
167.286347
 20
884.339004
 30
0.0
 10
166.841674
 20
884.154814
 30
0.0
 10
166.551740
 20
883.720897
 30
0.0
 10
166.551740
 20
883.239587
 30
0.0
  0
SPLINE
  5
1e0
100
AcDbEntity
  8
milled_holes
 62
1
100
AcDbSpline
 70
8
 71
3
 72
8
 73
4
 74
0
 40
0
 40
0
 40
0
 40
0
 40
1
 40
1
 40
1
 40
1
 10
166.551740
 20
883.239587
 30
0.0
 10
166.551740
 20
882.582368
 30
0.0
 10
167.084521
 20
882.049587
 30
0.0
 10
167.741740
 20
882.049587
 30
0.0
  0
LWPOLYLINE
  5
1e1
100
AcDbEntity
  8
milled_holes
 62
1
100
AcDbPolyline
 90
1
 70
1
 10
155.068590
 20
882.049587
 30
0.0
  0
SPLINE
  5
1e2
100
AcDbEntity
  8
milled_holes
 62
1
100
AcDbSpline
 70
8
 71
3
 72
8
 73
4
 74
0
 40
0
 40
0
 40
0
 40
0
 40
1
 40
1
 40
1
 40
1
 10
183.707140
 20
882.049587
 30
0.0
 10
184.188450
 20
882.049587
 30
0.0
 10
184.622367
 20
882.339521
 30
0.0
 10
184.806557
 20
882.784194
 30
0.0
  0
SPLINE
  5
1e3
100
AcDbEntity
  8
milled_holes
 62
1
100
AcDbSpline
 70
8
 71
3
 72
8
 73
4
 74
0
 40
0
 40
0
 40
0
 40
0
 40
1
 40
1
 40
1
 40
1
 10
184.806557
 20
882.784194
 30
0.0
 10
184.990746
 20
883.228866
 30
0.0
 10
184.888935
 20
883.740706
 30
0.0
 10
184.548597
 20
884.081044
 30
0.0
  0
SPLINE
  5
1e4
100
AcDbEntity
  8
milled_holes
 62
1
100
AcDbSpline
 70
8
 71
3
 72
8
 73
4
 74
0
 40
0
 40
0
 40
0
 40
0
 40
1
 40
1
 40
1
 40
1
 10
184.548597
 20
884.081044
 30
0.0
 10
184.208259
 20
884.421382
 30
0.0
 10
183.696419
 20
884.523193
 30
0.0
 10
183.251747
 20
884.339004
 30
0.0
  0
SPLINE
  5
1e5
100
AcDbEntity
  8
milled_holes
 62
1
100
AcDbSpline
 70
8
 71
3
 72
8
 73
4
 74
0
 40
0
 40
0
 40
0
 40
0
 40
1
 40
1
 40
1
 40
1
 10
183.251747
 20
884.339004
 30
0.0
 10
182.807074
 20
884.154814
 30
0.0
 10
182.517140
 20
883.720897
 30
0.0
 10
182.517140
 20
883.239587
 30
0.0
  0
SPLINE
  5
1e6
100
AcDbEntity
  8
milled_holes
 62
1
100
AcDbSpline
 70
8
 71
3
 72
8
 73
4
 74
0
 40
0
 40
0
 40
0
 40
0
 40
1
 40
1
 40
1
 40
1
 10
182.517140
 20
883.239587
 30
0.0
 10
182.517140
 20
882.582368
 30
0.0
 10
183.049921
 20
882.049587
 30
0.0
 10
183.707140
 20
882.049587
 30
0.0
  0
LWPOLYLINE
  5
1e7
100
AcDbEntity
  8
milled_holes
 62
1
100
AcDbPolyline
 90
1
 70
1
 10
167.741740
 20
882.049587
 30
0.0
  0
SPLINE
  5
1e8
100
AcDbEntity
  8
milled_holes
 62
1
100
AcDbSpline
 70
8
 71
3
 72
8
 73
4
 74
0
 40
0
 40
0
 40
0
 40
0
 40
1
 40
1
 40
1
 40
1
 10
191.226300
 20
882.049587
 30
0.0
 10
191.707610
 20
882.049587
 30
0.0
 10
192.141527
 20
882.339521
 30
0.0
 10
192.325717
 20
882.784194
 30
0.0
  0
SPLINE
  5
1e9
100
AcDbEntity
  8
milled_holes
 62
1
100
AcDbSpline
 70
8
 71
3
 72
8
 73
4
 74
0
 40
0
 40
0
 40
0
 40
0
 40
1
 40
1
 40
1
 40
1
 10
192.325717
 20
882.784194
 30
0.0
 10
192.509906
 20
883.228866
 30
0.0
 10
192.408095
 20
883.740706
 30
0.0
 10
192.067757
 20
884.081044
 30
0.0
  0
SPLINE
  5
1ea
100
AcDbEntity
  8
milled_holes
 62
1
100
AcDbSpline
 70
8
 71
3
 72
8
 73
4
 74
0
 40
0
 40
0
 40
0
 40
0
 40
1
 40
1
 40
1
 40
1
 10
192.067757
 20
884.081044
 30
0.0
 10
191.727419
 20
884.421382
 30
0.0
 10
191.215579
 20
884.523193
 30
0.0
 10
190.770907
 20
884.339004
 30
0.0
  0
SPLINE
  5
1eb
100
AcDbEntity
  8
milled_holes
 62
1
100
AcDbSpline
 70
8
 71
3
 72
8
 73
4
 74
0
 40
0
 40
0
 40
0
 40
0
 40
1
 40
1
 40
1
 40
1
 10
190.770907
 20
884.339004
 30
0.0
 10
190.326234
 20
884.154814
 30
0.0
 10
190.036300
 20
883.720897
 30
0.0
 10
190.036300
 20
883.239587
 30
0.0
  0
SPLINE
  5
1ec
100
AcDbEntity
  8
milled_holes
 62
1
100
AcDbSpline
 70
8
 71
3
 72
8
 73
4
 74
0
 40
0
 40
0
 40
0
 40
0
 40
1
 40
1
 40
1
 40
1
 10
190.036300
 20
883.239587
 30
0.0
 10
190.036300
 20
882.923979
 30
0.0
 10
190.161675
 20
882.621298
 30
0.0
 10
190.384843
 20
882.398130
 30
0.0
  0
SPLINE
  5
1ed
100
AcDbEntity
  8
milled_holes
 62
1
100
AcDbSpline
 70
8
 71
3
 72
8
 73
4
 74
0
 40
0
 40
0
 40
0
 40
0
 40
1
 40
1
 40
1
 40
1
 10
190.384843
 20
882.398130
 30
0.0
 10
190.608011
 20
882.174962
 30
0.0
 10
190.910692
 20
882.049587
 30
0.0
 10
191.226300
 20
882.049587
 30
0.0
  0
LWPOLYLINE
  5
1ee
100
AcDbEntity
  8
milled_holes
 62
1
100
AcDbPolyline
 90
1
 70
1
 10
183.707140
 20
882.049587
 30
0.0
  0
SPLINE
  5
1ef
100
AcDbEntity
  8
milled_holes
 62
1
100
AcDbSpline
 70
8
 71
3
 72
8
 73
4
 74
0
 40
0
 40
0
 40
0
 40
0
 40
1
 40
1
 40
1
 40
1
 10
200.272080
 20
882.049587
 30
0.0
 10
200.753390
 20
882.049587
 30
0.0
 10
201.187307
 20
882.339521
 30
0.0
 10
201.371497
 20
882.784194
 30
0.0
  0
SPLINE
  5
1f0
100
AcDbEntity
  8
milled_holes
 62
1
100
AcDbSpline
 70
8
 71
3
 72
8
 73
4
 74
0
 40
0
 40
0
 40
0
 40
0
 40
1
 40
1
 40
1
 40
1
 10
201.371497
 20
882.784194
 30
0.0
 10
201.555686
 20
883.228866
 30
0.0
 10
201.453875
 20
883.740706
 30
0.0
 10
201.113537
 20
884.081044
 30
0.0
  0
SPLINE
  5
1f1
100
AcDbEntity
  8
milled_holes
 62
1
100
AcDbSpline
 70
8
 71
3
 72
8
 73
4
 74
0
 40
0
 40
0
 40
0
 40
0
 40
1
 40
1
 40
1
 40
1
 10
201.113537
 20
884.081044
 30
0.0
 10
200.773199
 20
884.421382
 30
0.0
 10
200.261359
 20
884.523193
 30
0.0
 10
199.816687
 20
884.339004
 30
0.0
  0
SPLINE
  5
1f2
100
AcDbEntity
  8
milled_holes
 62
1
100
AcDbSpline
 70
8
 71
3
 72
8
 73
4
 74
0
 40
0
 40
0
 40
0
 40
0
 40
1
 40
1
 40
1
 40
1
 10
199.816687
 20
884.339004
 30
0.0
 10
199.372014
 20
884.154814
 30
0.0
 10
199.082080
 20
883.720897
 30
0.0
 10
199.082080
 20
883.239587
 30
0.0
  0
SPLINE
  5
1f3
100
AcDbEntity
  8
milled_holes
 62
1
100
AcDbSpline
 70
8
 71
3
 72
8
 73
4
 74
0
 40
0
 40
0
 40
0
 40
0
 40
1
 40
1
 40
1
 40
1
 10
199.082080
 20
883.239587
 30
0.0
 10
199.082080
 20
882.582368
 30
0.0
 10
199.614861
 20
882.049587
 30
0.0
 10
200.272080
 20
882.049587
 30
0.0
  0
LWPOLYLINE
  5
1f4
100
AcDbEntity
  8
milled_holes
 62
1
100
AcDbPolyline
 90
1
 70
1
 10
191.226300
 20
882.049587
 30
0.0
  0
SPLINE
  5
1f5
100
AcDbEntity
  8
milled_holes
 62
1
100
AcDbSpline
 70
8
 71
3
 72
8
 73
4
 74
0
 40
0
 40
0
 40
0
 40
0
 40
1
 40
1
 40
1
 40
1
 10
215.288210
 20
882.049587
 30
0.0
 10
215.769520
 20
882.049587
 30
0.0
 10
216.203437
 20
882.339521
 30
0.0
 10
216.387627
 20
882.784194
 30
0.0
  0
SPLINE
  5
1f6
100
AcDbEntity
  8
milled_holes
 62
1
100
AcDbSpline
 70
8
 71
3
 72
8
 73
4
 74
0
 40
0
 40
0
 40
0
 40
0
 40
1
 40
1
 40
1
 40
1
 10
216.387627
 20
882.784194
 30
0.0
 10
216.571816
 20
883.228866
 30
0.0
 10
216.470005
 20
883.740706
 30
0.0
 10
216.129667
 20
884.081044
 30
0.0
  0
SPLINE
  5
1f7
100
AcDbEntity
  8
milled_holes
 62
1
100
AcDbSpline
 70
8
 71
3
 72
8
 73
4
 74
0
 40
0
 40
0
 40
0
 40
0
 40
1
 40
1
 40
1
 40
1
 10
216.129667
 20
884.081044
 30
0.0
 10
215.789329
 20
884.421382
 30
0.0
 10
215.277489
 20
884.523193
 30
0.0
 10
214.832817
 20
884.339004
 30
0.0
  0
SPLINE
  5
1f8
100
AcDbEntity
  8
milled_holes
 62
1
100
AcDbSpline
 70
8
 71
3
 72
8
 73
4
 74
0
 40
0
 40
0
 40
0
 40
0
 40
1
 40
1
 40
1
 40
1
 10
214.832817
 20
884.339004
 30
0.0
 10
214.388144
 20
884.154814
 30
0.0
 10
214.098210
 20
883.720897
 30
0.0
 10
214.098210
 20
883.239587
 30
0.0
  0
SPLINE
  5
1f9
100
AcDbEntity
  8
milled_holes
 62
1
100
AcDbSpline
 70
8
 71
3
 72
8
 73
4
 74
0
 40
0
 40
0
 40
0
 40
0
 40
1
 40
1
 40
1
 40
1
 10
214.098210
 20
883.239587
 30
0.0
 10
214.098210
 20
882.923979
 30
0.0
 10
214.223585
 20
882.621298
 30
0.0
 10
214.446753
 20
882.398130
 30
0.0
  0
SPLINE
  5
1fa
100
AcDbEntity
  8
milled_holes
 62
1
100
AcDbSpline
 70
8
 71
3
 72
8
 73
4
 74
0
 40
0
 40
0
 40
0
 40
0
 40
1
 40
1
 40
1
 40
1
 10
214.446753
 20
882.398130
 30
0.0
 10
214.669921
 20
882.174962
 30
0.0
 10
214.972602
 20
882.049587
 30
0.0
 10
215.288210
 20
882.049587
 30
0.0
  0
LWPOLYLINE
  5
1fb
100
AcDbEntity
  8
milled_holes
 62
1
100
AcDbPolyline
 90
1
 70
1
 10
200.272080
 20
882.049587
 30
0.0
  0
SPLINE
  5
1fc
100
AcDbEntity
  8
milled_holes
 62
1
100
AcDbSpline
 70
8
 71
3
 72
8
 73
4
 74
0
 40
0
 40
0
 40
0
 40
0
 40
1
 40
1
 40
1
 40
1
 10
218.806900
 20
890.980899
 30
0.0
 10
217.997976
 20
890.980899
 30
0.0
 10
217.268703
 20
890.493615
 30
0.0
 10
216.959141
 20
889.746266
 30
0.0
  0
SPLINE
  5
1fd
100
AcDbEntity
  8
milled_holes
 62
1
100
AcDbSpline
 70
8
 71
3
 72
8
 73
4
 74
0
 40
0
 40
0
 40
0
 40
0
 40
1
 40
1
 40
1
 40
1
 10
216.959141
 20
889.746266
 30
0.0
 10
216.649579
 20
888.998917
 30
0.0
 10
216.820690
 20
888.138681
 30
0.0
 10
217.392686
 20
887.566685
 30
0.0
  0
SPLINE
  5
1fe
100
AcDbEntity
  8
milled_holes
 62
1
100
AcDbSpline
 70
8
 71
3
 72
8
 73
4
 74
0
 40
0
 40
0
 40
0
 40
0
 40
1
 40
1
 40
1
 40
1
 10
217.392686
 20
887.566685
 30
0.0
 10
217.964682
 20
886.994689
 30
0.0
 10
218.824918
 20
886.823578
 30
0.0
 10
219.572267
 20
887.133140
 30
0.0
  0
SPLINE
  5
1ff
100
AcDbEntity
  8
milled_holes
 62
1
100
AcDbSpline
 70
8
 71
3
 72
8
 73
4
 74
0
 40
0
 40
0
 40
0
 40
0
 40
1
 40
1
 40
1
 40
1
 10
219.572267
 20
887.133140
 30
0.0
 10
220.319616
 20
887.442702
 30
0.0
 10
220.806900
 20
888.171975
 30
0.0
 10
220.806900
 20
888.980899
 30
0.0
  0
SPLINE
  5
200
100
AcDbEntity
  8
milled_holes
 62
1
100
AcDbSpline
 70
8
 71
3
 72
8
 73
4
 74
0
 40
0
 40
0
 40
0
 40
0
 40
1
 40
1
 40
1
 40
1
 10
220.806900
 20
888.980899
 30
0.0
 10
220.806900
 20
889.511332
 30
0.0
 10
220.596186
 20
890.020040
 30
0.0
 10
220.221114
 20
890.395113
 30
0.0
  0
SPLINE
  5
201
100
AcDbEntity
  8
milled_holes
 62
1
100
AcDbSpline
 70
8
 71
3
 72
8
 73
4
 74
0
 40
0
 40
0
 40
0
 40
0
 40
1
 40
1
 40
1
 40
1
 10
220.221114
 20
890.395113
 30
0.0
 10
219.846041
 20
890.770185
 30
0.0
 10
219.337333
 20
890.980899
 30
0.0
 10
218.806900
 20
890.980899
 30
0.0
  0
LWPOLYLINE
  5
202
100
AcDbEntity
  8
milled_holes
 62
1
100
AcDbPolyline
 90
1
 70
1
 10
215.288210
 20
882.049587
 30
0.0
  0
SPLINE
  5
203
100
AcDbEntity
  8
milled_holes
 62
1
100
AcDbSpline
 70
8
 71
3
 72
8
 73
4
 74
0
 40
0
 40
0
 40
0
 40
0
 40
1
 40
1
 40
1
 40
1
 10
219.071550
 20
836.915210
 30
0.0
 10
218.262626
 20
836.915210
 30
0.0
 10
217.533353
 20
836.427926
 30
0.0
 10
217.223791
 20
835.680577
 30
0.0
  0
SPLINE
  5
204
100
AcDbEntity
  8
milled_holes
 62
1
100
AcDbSpline
 70
8
 71
3
 72
8
 73
4
 74
0
 40
0
 40
0
 40
0
 40
0
 40
1
 40
1
 40
1
 40
1
 10
217.223791
 20
835.680577
 30
0.0
 10
216.914229
 20
834.933228
 30
0.0
 10
217.085340
 20
834.072992
 30
0.0
 10
217.657336
 20
833.500996
 30
0.0
  0
SPLINE
  5
205
100
AcDbEntity
  8
milled_holes
 62
1
100
AcDbSpline
 70
8
 71
3
 72
8
 73
4
 74
0
 40
0
 40
0
 40
0
 40
0
 40
1
 40
1
 40
1
 40
1
 10
217.657336
 20
833.500996
 30
0.0
 10
218.229332
 20
832.929000
 30
0.0
 10
219.089568
 20
832.757889
 30
0.0
 10
219.836917
 20
833.067451
 30
0.0
  0
SPLINE
  5
206
100
AcDbEntity
  8
milled_holes
 62
1
100
AcDbSpline
 70
8
 71
3
 72
8
 73
4
 74
0
 40
0
 40
0
 40
0
 40
0
 40
1
 40
1
 40
1
 40
1
 10
219.836917
 20
833.067451
 30
0.0
 10
220.584266
 20
833.377013
 30
0.0
 10
221.071550
 20
834.106286
 30
0.0
 10
221.071550
 20
834.915210
 30
0.0
  0
SPLINE
  5
207
100
AcDbEntity
  8
milled_holes
 62
1
100
AcDbSpline
 70
8
 71
3
 72
8
 73
4
 74
0
 40
0
 40
0
 40
0
 40
0
 40
1
 40
1
 40
1
 40
1
 10
221.071550
 20
834.915210
 30
0.0
 10
221.071550
 20
835.445643
 30
0.0
 10
220.860836
 20
835.954351
 30
0.0
 10
220.485764
 20
836.329424
 30
0.0
  0
SPLINE
  5
208
100
AcDbEntity
  8
milled_holes
 62
1
100
AcDbSpline
 70
8
 71
3
 72
8
 73
4
 74
0
 40
0
 40
0
 40
0
 40
0
 40
1
 40
1
 40
1
 40
1
 10
220.485764
 20
836.329424
 30
0.0
 10
220.110691
 20
836.704496
 30
0.0
 10
219.601983
 20
836.915210
 30
0.0
 10
219.071550
 20
836.915210
 30
0.0
  0
LWPOLYLINE
  5
209
100
AcDbEntity
  8
milled_holes
 62
1
100
AcDbPolyline
 90
1
 70
1
 10
218.806900
 20
890.980899
 30
0.0
  0
SPLINE
  5
20a
100
AcDbEntity
  8
milled_holes
 62
1
100
AcDbSpline
 70
8
 71
3
 72
8
 73
4
 74
0
 40
0
 40
0
 40
0
 40
0
 40
1
 40
1
 40
1
 40
1
 10
91.531570
 20
891.612804
 30
0.0
 10
90.722646
 20
891.612804
 30
0.0
 10
89.993373
 20
891.125520
 30
0.0
 10
89.683811
 20
890.378171
 30
0.0
  0
SPLINE
  5
20b
100
AcDbEntity
  8
milled_holes
 62
1
100
AcDbSpline
 70
8
 71
3
 72
8
 73
4
 74
0
 40
0
 40
0
 40
0
 40
0
 40
1
 40
1
 40
1
 40
1
 10
89.683811
 20
890.378171
 30
0.0
 10
89.374249
 20
889.630822
 30
0.0
 10
89.545360
 20
888.770586
 30
0.0
 10
90.117356
 20
888.198590
 30
0.0
  0
SPLINE
  5
20c
100
AcDbEntity
  8
milled_holes
 62
1
100
AcDbSpline
 70
8
 71
3
 72
8
 73
4
 74
0
 40
0
 40
0
 40
0
 40
0
 40
1
 40
1
 40
1
 40
1
 10
90.117356
 20
888.198590
 30
0.0
 10
90.689352
 20
887.626594
 30
0.0
 10
91.549588
 20
887.455483
 30
0.0
 10
92.296937
 20
887.765045
 30
0.0
  0
SPLINE
  5
20d
100
AcDbEntity
  8
milled_holes
 62
1
100
AcDbSpline
 70
8
 71
3
 72
8
 73
4
 74
0
 40
0
 40
0
 40
0
 40
0
 40
1
 40
1
 40
1
 40
1
 10
92.296937
 20
887.765045
 30
0.0
 10
93.044286
 20
888.074607
 30
0.0
 10
93.531570
 20
888.803880
 30
0.0
 10
93.531570
 20
889.612804
 30
0.0
  0
SPLINE
  5
20e
100
AcDbEntity
  8
milled_holes
 62
1
100
AcDbSpline
 70
8
 71
3
 72
8
 73
4
 74
0
 40
0
 40
0
 40
0
 40
0
 40
1
 40
1
 40
1
 40
1
 10
93.531570
 20
889.612804
 30
0.0
 10
93.531570
 20
890.143237
 30
0.0
 10
93.320856
 20
890.651945
 30
0.0
 10
92.945784
 20
891.027018
 30
0.0
  0
SPLINE
  5
20f
100
AcDbEntity
  8
milled_holes
 62
1
100
AcDbSpline
 70
8
 71
3
 72
8
 73
4
 74
0
 40
0
 40
0
 40
0
 40
0
 40
1
 40
1
 40
1
 40
1
 10
92.945784
 20
891.027018
 30
0.0
 10
92.570711
 20
891.402090
 30
0.0
 10
92.062003
 20
891.612804
 30
0.0
 10
91.531570
 20
891.612804
 30
0.0
  0
LWPOLYLINE
  5
210
100
AcDbEntity
  8
milled_holes
 62
1
100
AcDbPolyline
 90
1
 70
1
 10
219.071550
 20
836.915210
 30
0.0
  0
SPLINE
  5
211
100
AcDbEntity
  8
milled_holes
 62
1
100
AcDbSpline
 70
8
 71
3
 72
8
 73
4
 74
0
 40
0
 40
0
 40
0
 40
0
 40
1
 40
1
 40
1
 40
1
 10
91.531570
 20
837.380670
 30
0.0
 10
90.722646
 20
837.380670
 30
0.0
 10
89.993373
 20
836.893386
 30
0.0
 10
89.683811
 20
836.146037
 30
0.0
  0
SPLINE
  5
212
100
AcDbEntity
  8
milled_holes
 62
1
100
AcDbSpline
 70
8
 71
3
 72
8
 73
4
 74
0
 40
0
 40
0
 40
0
 40
0
 40
1
 40
1
 40
1
 40
1
 10
89.683811
 20
836.146037
 30
0.0
 10
89.374249
 20
835.398688
 30
0.0
 10
89.545360
 20
834.538452
 30
0.0
 10
90.117356
 20
833.966456
 30
0.0
  0
SPLINE
  5
213
100
AcDbEntity
  8
milled_holes
 62
1
100
AcDbSpline
 70
8
 71
3
 72
8
 73
4
 74
0
 40
0
 40
0
 40
0
 40
0
 40
1
 40
1
 40
1
 40
1
 10
90.117356
 20
833.966456
 30
0.0
 10
90.689352
 20
833.394460
 30
0.0
 10
91.549588
 20
833.223349
 30
0.0
 10
92.296937
 20
833.532911
 30
0.0
  0
SPLINE
  5
214
100
AcDbEntity
  8
milled_holes
 62
1
100
AcDbSpline
 70
8
 71
3
 72
8
 73
4
 74
0
 40
0
 40
0
 40
0
 40
0
 40
1
 40
1
 40
1
 40
1
 10
92.296937
 20
833.532911
 30
0.0
 10
93.044286
 20
833.842473
 30
0.0
 10
93.531570
 20
834.571746
 30
0.0
 10
93.531570
 20
835.380670
 30
0.0
  0
SPLINE
  5
215
100
AcDbEntity
  8
milled_holes
 62
1
100
AcDbSpline
 70
8
 71
3
 72
8
 73
4
 74
0
 40
0
 40
0
 40
0
 40
0
 40
1
 40
1
 40
1
 40
1
 10
93.531570
 20
835.380670
 30
0.0
 10
93.531570
 20
835.911103
 30
0.0
 10
93.320856
 20
836.419811
 30
0.0
 10
92.945784
 20
836.794884
 30
0.0
  0
SPLINE
  5
216
100
AcDbEntity
  8
milled_holes
 62
1
100
AcDbSpline
 70
8
 71
3
 72
8
 73
4
 74
0
 40
0
 40
0
 40
0
 40
0
 40
1
 40
1
 40
1
 40
1
 10
92.945784
 20
836.794884
 30
0.0
 10
92.570711
 20
837.169956
 30
0.0
 10
92.062003
 20
837.380670
 30
0.0
 10
91.531570
 20
837.380670
 30
0.0
  0
LWPOLYLINE
  5
217
100
AcDbEntity
  8
milled_holes
 62
1
100
AcDbPolyline
 90
1
 70
1
 10
91.531570
 20
891.612804
 30
0.0
  0
LWPOLYLINE
  5
218
100
AcDbEntity
  8
milled_holes
 62
1
100
AcDbPolyline
 90
1
 70
1
 10
91.531570
 20
837.380670
 30
0.0
  0
LWPOLYLINE
  5
219
100
AcDbEntity
  8
cut_line
 62
7
100
AcDbPolyline
 90
2
 70
0
 10
224.093680
 20
897.986733
 30
0.0
 10
224.093680
 20
826.957783
 30
0.0
  0
ENDSEC
  0
SECTION
  2
OBJECTS
  0
DICTIONARY
  5
C
330
0
100
AcDbDictionary
  3
ACAD_GROUP
350
D
  3
ACAD_MLINESTYLE
350
17
  0
DICTIONARY
  5
D
330
C
100
AcDbDictionary
  0
DICTIONARY
  5
1A
330
C
100
AcDbDictionary
  0
DICTIONARY
  5
17
330
C
100
AcDbDictionary
  3
STANDARD
350
18
  0
DICTIONARY
  5
19
330
C
100
AcDbDictionary
  0
ENDSEC
  0
EOF
